<svg width="10" height="16" viewBox="0 0 10 16" fill="none" xmlns="http://www.w3.org/2000/svg">
<path d="M9.07669 6.91044L2.31293 1.01079C2.20177 0.912854 2.07232 0.837893 1.93204 0.790236C1.79176 0.742578 1.64344 0.723167 1.49562 0.733122C1.3478 0.743077 1.20342 0.782202 1.0708 0.848239C0.938175 0.914276 0.819941 1.00592 0.722916 1.11788C0.528495 1.34172 0.430549 1.6334 0.450472 1.92922C0.470395 2.22504 0.606567 2.50095 0.829247 2.6967L6.74898 7.92207L1.5796 13.838C1.38518 14.0619 1.28723 14.3535 1.30715 14.6494C1.32708 14.9452 1.46325 15.2211 1.68593 15.4168C1.79676 15.5157 1.92609 15.5915 2.06645 15.64C2.2068 15.6884 2.35537 15.7086 2.50356 15.6992C2.65167 15.6886 2.7962 15.6488 2.92878 15.5819C3.06137 15.515 3.17937 15.4225 3.27595 15.3098L9.18755 8.55645C9.29414 8.44394 9.37628 8.31057 9.42878 8.16475C9.48128 8.01892 9.50301 7.8638 9.4926 7.70917C9.48218 7.55453 9.43985 7.40373 9.36827 7.26626C9.29669 7.12879 9.19741 7.00764 9.07669 6.91044Z" fill="currentColor"/>
</svg>
