<svg width="28" height="30" viewBox="0 0 28 30" fill="none" xmlns="http://www.w3.org/2000/svg">
<path d="M27.2579 9.3942C27.0591 9.20083 26.8225 9.04749 26.5619 8.94304C26.3013 8.83859 26.0218 8.78512 25.7396 8.78571H21.4497V7.75C21.4497 5.82718 20.6587 3.98311 19.2508 2.62348C17.8429 1.26384 15.9334 0.5 13.9423 0.5C11.9512 0.5 10.0417 1.26384 8.63377 2.62348C7.22586 3.98311 6.43491 5.82718 6.43491 7.75V8.78571H2.14497C1.57609 8.78571 1.03051 9.00395 0.628247 9.39242C0.225987 9.78089 0 10.3078 0 10.8571V24.8393C0 27.3638 2.212 29.5 4.82618 29.5H23.0584C24.3229 29.5004 25.5374 29.0229 26.4421 28.1698C26.8974 27.7503 27.2599 27.2461 27.5079 26.6876C27.7558 26.1291 27.8839 25.5279 27.8846 24.9202V10.8571C27.8855 10.5854 27.8305 10.3162 27.723 10.0651C27.6154 9.81394 27.4573 9.58592 27.2579 9.3942ZM8.57988 7.75C8.57988 6.37656 9.14485 5.05937 10.1505 4.0882C11.1561 3.11703 12.5201 2.57143 13.9423 2.57143C15.3645 2.57143 16.7285 3.11703 17.7341 4.0882C18.7398 5.05937 19.3047 6.37656 19.3047 7.75V8.78571H8.57988V7.75ZM21.4497 13.9643C21.4497 15.8871 20.6587 17.7312 19.2508 19.0908C17.8429 20.4504 15.9334 21.2143 13.9423 21.2143C11.9512 21.2143 10.0417 20.4504 8.63377 19.0908C7.22586 17.7312 6.43491 15.8871 6.43491 13.9643V12.9286C6.43491 12.6539 6.5479 12.3904 6.74903 12.1962C6.95016 12.002 7.22295 11.8929 7.50739 11.8929C7.79183 11.8929 8.06462 12.002 8.26575 12.1962C8.46688 12.3904 8.57988 12.6539 8.57988 12.9286V13.9643C8.57988 15.3377 9.14485 16.6549 10.1505 17.6261C11.1561 18.5973 12.5201 19.1429 13.9423 19.1429C15.3645 19.1429 16.7285 18.5973 17.7341 17.6261C18.7398 16.6549 19.3047 15.3377 19.3047 13.9643V12.9286C19.3047 12.6539 19.4177 12.3904 19.6188 12.1962C19.82 12.002 20.0928 11.8929 20.3772 11.8929C20.6617 11.8929 20.9344 12.002 21.1356 12.1962C21.3367 12.3904 21.4497 12.6539 21.4497 12.9286V13.9643Z" fill="currentColor"/>
</svg>
