<svg width="36" height="36" viewBox="0 0 36 36" fill="none" xmlns="http://www.w3.org/2000/svg">
<path d="M30.178 5.3787C27.2926 2.4701 23.4843 0.660857 19.4097 0.26288C15.3351 -0.135097 11.2495 0.903134 7.85735 3.19858C4.46516 5.49403 1.97893 8.90284 0.827307 12.8373C-0.324321 16.7718 -0.0691855 20.9854 1.54873 24.7517C1.71736 25.1018 1.77269 25.4958 1.707 25.8789L0.15947 33.3287C0.0998484 33.6143 0.112023 33.9103 0.194901 34.1901C0.277778 34.4698 0.428761 34.7245 0.63428 34.9314C0.802757 35.0989 1.00336 35.2305 1.22398 35.3183C1.44461 35.406 1.6807 35.4482 1.91803 35.4421H2.26974L9.79635 33.9275C10.1789 33.8814 10.5668 33.9361 10.9218 34.086C14.6825 35.7063 18.8898 35.9619 22.8184 34.8085C26.7471 33.6552 30.1508 31.1652 32.4428 27.768C34.7348 24.3707 35.7715 20.279 35.3741 16.1983C34.9767 12.1176 33.1702 8.30365 30.2659 5.41392L30.178 5.3787ZM10.7108 19.5915C10.363 19.5915 10.023 19.4882 9.7338 19.2946C9.44461 19.1011 9.21921 18.8261 9.08611 18.5042C8.95301 18.1824 8.91818 17.8283 8.98604 17.4867C9.05389 17.145 9.22138 16.8312 9.46732 16.5849C9.71325 16.3386 10.0266 16.1709 10.3677 16.1029C10.7089 16.035 11.0624 16.0698 11.3838 16.2031C11.7051 16.3364 11.9798 16.5622 12.173 16.8518C12.3662 17.1414 12.4694 17.4819 12.4694 17.8303C12.4694 18.2974 12.2841 18.7453 11.9543 19.0756C11.6245 19.4059 11.1772 19.5915 10.7108 19.5915ZM17.745 19.5915C17.3972 19.5915 17.0572 19.4882 16.768 19.2946C16.4788 19.1011 16.2534 18.8261 16.1203 18.5042C15.9872 18.1824 15.9524 17.8283 16.0203 17.4867C16.0881 17.145 16.2556 16.8312 16.5015 16.5849C16.7475 16.3386 17.0608 16.1709 17.4019 16.1029C17.7431 16.035 18.0967 16.0698 18.418 16.2031C18.7393 16.3364 19.014 16.5622 19.2072 16.8518C19.4004 17.1414 19.5036 17.4819 19.5036 17.8303C19.5036 18.2974 19.3183 18.7453 18.9885 19.0756C18.6587 19.4059 18.2114 19.5915 17.745 19.5915ZM24.7792 19.5915C24.4314 19.5915 24.0914 19.4882 23.8022 19.2946C23.5131 19.1011 23.2877 18.8261 23.1546 18.5042C23.0215 18.1824 22.9866 17.8283 23.0545 17.4867C23.1223 17.145 23.2898 16.8312 23.5358 16.5849C23.7817 16.3386 24.095 16.1709 24.4362 16.1029C24.7773 16.035 25.1309 16.0698 25.4522 16.2031C25.7735 16.3364 26.0482 16.5622 26.2414 16.8518C26.4347 17.1414 26.5378 17.4819 26.5378 17.8303C26.5378 18.2974 26.3525 18.7453 26.0227 19.0756C25.6929 19.4059 25.2456 19.5915 24.7792 19.5915Z" fill="white"/>
</svg>
