<svg width="30" height="30" viewBox="0 0 30 30" fill="none" xmlns="http://www.w3.org/2000/svg">
<path d="M24.7259 29.3393H10.2032C8.96515 29.3393 7.77782 28.8475 6.90239 27.9721C6.02697 27.0966 5.53516 25.9093 5.53516 24.6713V10.1485C5.53516 8.91046 6.02697 7.72313 6.90239 6.8477C7.77782 5.97228 8.96515 5.48047 10.2032 5.48047H24.7259C25.964 5.48047 27.1513 5.97228 28.0267 6.8477C28.9022 7.72313 29.394 8.91046 29.394 10.1485V24.6713C29.394 25.9093 28.9022 27.0966 28.0267 27.9721C27.1513 28.8475 25.964 29.3393 24.7259 29.3393Z" fill="#C33366"/>
<path d="M8.62706 3.32694H24.0932C23.7668 2.40719 23.1638 1.61095 22.367 1.04747C21.5701 0.483988 20.6184 0.180866 19.6425 0.179688H4.95526C3.7032 0.179688 2.50243 0.677065 1.61709 1.5624C0.731752 2.44774 0.234375 3.64852 0.234375 4.90057V19.5878C0.235553 20.5637 0.538675 21.5154 1.10216 22.3123C1.66564 23.1091 2.46187 23.7121 3.38163 24.0385V8.57237C3.38163 7.1812 3.93427 5.847 4.91798 4.86329C5.90169 3.87959 7.23588 3.32694 8.62706 3.32694Z" fill="#C33366"/>
</svg>
