<svg width="19" height="19" viewBox="0 0 19 19" fill="none" xmlns="http://www.w3.org/2000/svg">
<mask id="mask0_2566_100925" style="mask-type:alpha" maskUnits="userSpaceOnUse" x="0" y="0" width="19" height="19">
<circle cx="9.5" cy="9.5" r="9.5" fill="#D9D9D9"/>
</mask>
<g mask="url(#mask0_2566_100925)">
<path d="M24.9075 1.05445C24.373 0.135755 23.3895 -0.488281 22.2502 -0.488281H11.451V1.05445H24.9075ZM-2.43359 14.9391H25.3356V16.4818H-2.43359V14.9391ZM11.451 8.76813H25.3356V10.3109H11.451V8.76813ZM11.451 5.68266H25.3356V7.22539H11.451V5.68266ZM-2.43359 11.8536H25.3356V13.3963H-2.43359V11.8536ZM0.651876 19.5673H22.2502C23.3895 19.5673 24.373 18.9432 24.9075 18.0245H-2.00548C-1.47093 18.9432 -0.487433 19.5673 0.651876 19.5673ZM11.451 2.59719H25.3356V4.13992H11.451V2.59719Z" fill="#B22334"/>
<path d="M-2.38114 17.0058C-2.36803 17.0775 -2.35337 17.1493 -2.33563 17.2195C-2.31557 17.2974 -2.29089 17.3722 -2.26466 17.4478C-2.19601 17.6476 -2.1127 17.8404 -2.0078 18.0209L-2.00548 18.0248H24.9075L24.9091 18.0217C25.0126 17.8398 25.0984 17.6484 25.1652 17.4501C25.216 17.3053 25.2552 17.1568 25.2824 17.0058C25.314 16.8361 25.3356 16.6618 25.3356 16.482H-2.43359C-2.43359 16.6618 -2.412 16.8353 -2.38114 17.0058ZM-2.43359 13.3966H25.3356V14.9393H-2.43359V13.3966ZM-2.43359 10.3111V11.8538H25.3356V10.3111H11.451H-2.43359ZM11.451 7.22563H25.3356V8.76836H11.451V7.22563ZM11.451 4.14016H25.3356V5.68289H11.451V4.14016ZM-2.00548 1.05469L-2.0078 1.05854L-2.00548 1.05469ZM-2.33486 1.85999C-2.31557 1.78132 -2.28858 1.70649 -2.26389 1.6309C-2.29068 1.70626 -2.31436 1.78269 -2.33486 1.85999ZM11.451 2.59742H25.3356C25.3356 2.41769 25.314 2.24336 25.2824 2.07289C25.2554 1.92179 25.2159 1.77318 25.1644 1.62858C25.0975 1.42943 25.0115 1.23723 24.9075 1.05469H11.451V2.59742Z" fill="#EEEEEE"/>
<path d="M11.451 -0.488281H0.651876C-0.166441 -0.488281 -0.951243 -0.163206 -1.52988 0.415432C-2.10852 0.99407 -2.43359 1.77887 -2.43359 2.59719L-2.43359 10.3109H11.451V-0.488281Z" fill="#3C3B6E"/>
<path d="M-0.890625 1.6147L-0.41392 1.96104L-0.595963 2.52029L-0.120029 2.17471L0.356676 2.52029L0.174634 1.96104L0.651339 1.6147H0.0620139L-0.120029 1.05469L-0.3013 1.6147H-0.890625ZM0.65211 3.15744L1.12881 3.50378L0.946772 4.06302L1.42271 3.71745L1.89941 4.06302L1.71737 3.50378L2.19407 3.15744H1.60475L1.42271 2.59742L1.24143 3.15744H0.65211ZM3.73758 3.15744L4.21428 3.50378L4.03224 4.06302L4.50818 3.71745L4.98488 4.06302L4.80284 3.50378L5.27954 3.15744H4.69022L4.50818 2.59742L4.3269 3.15744H3.73758ZM6.82305 3.15744L7.29975 3.50378L7.11771 4.06302L7.59365 3.71745L8.07035 4.06302L7.88831 3.50378L8.36501 3.15744H7.77569L7.59365 2.59742L7.41237 3.15744H6.82305ZM0.65211 6.24291L1.12881 6.58925L0.946772 7.14849L1.42271 6.80292L1.89941 7.14849L1.71737 6.58925L2.19407 6.24291H1.60475L1.42271 5.68289L1.24143 6.24291H0.65211ZM3.73758 6.24291L4.21428 6.58925L4.03224 7.14849L4.50818 6.80292L4.98488 7.14849L4.80284 6.58925L5.27954 6.24291H4.69022L4.50818 5.68289L4.3269 6.24291H3.73758ZM6.82305 6.24291L7.29975 6.58925L7.11771 7.14849L7.59365 6.80292L8.07035 7.14849L7.88831 6.58925L8.36501 6.24291H7.77569L7.59365 5.68289L7.41237 6.24291H6.82305ZM2.19484 1.6147L2.67155 1.96104L2.48951 2.52029L2.96544 2.17471L3.44215 2.52029L3.2601 1.96104L3.73681 1.6147H3.14748L2.96544 1.05469L2.78417 1.6147H2.19484ZM5.28031 1.6147L5.75702 1.96104L5.57498 2.52029L6.05091 2.17471L6.52762 2.52029L6.34557 1.96104L6.82228 1.6147H6.23295L6.05091 1.05469L5.86964 1.6147H5.28031ZM8.36578 1.6147L8.84249 1.96104L8.66045 2.52029L9.13638 2.17471L9.61309 2.52029L9.43104 1.96104L9.90775 1.6147H9.31842L9.13638 1.05469L8.95511 1.6147H8.36578ZM-0.890625 4.70017L-0.41392 5.04651L-0.595963 5.60576L-0.120029 5.26018L0.356676 5.60576L0.174634 5.04651L0.651339 4.70017H0.0620139L-0.120029 4.14016L-0.3013 4.70017H-0.890625ZM2.48951 5.60576L2.96544 5.26018L3.44215 5.60576L3.2601 5.04651L3.73681 4.70017H3.14748L2.96544 4.14016L2.78417 4.70017H2.19484L2.67155 5.04651L2.48951 5.60576ZM5.28031 4.70017L5.75702 5.04651L5.57498 5.60576L6.05091 5.26018L6.52762 5.60576L6.34557 5.04651L6.82228 4.70017H6.23295L6.05091 4.14016L5.86964 4.70017H5.28031ZM8.36578 4.70017L8.84249 5.04651L8.66045 5.60576L9.13638 5.26018L9.61309 5.60576L9.43104 5.04651L9.90775 4.70017H9.31842L9.13638 4.14016L8.95511 4.70017H8.36578ZM-0.890625 7.78564L-0.41392 8.13198L-0.595963 8.69123L-0.120029 8.34565L0.356676 8.69123L0.174634 8.13198L0.651339 7.78564H0.0620139L-0.120029 7.22563L-0.3013 7.78564H-0.890625ZM2.48951 8.69123L2.96544 8.34565L3.44215 8.69123L3.2601 8.13198L3.73681 7.78564H3.14748L2.96544 7.22563L2.78417 7.78564H2.19484L2.67155 8.13198L2.48951 8.69123ZM5.28031 7.78564L5.75702 8.13198L5.57498 8.69123L6.05091 8.34565L6.52762 8.69123L6.34557 8.13198L6.82228 7.78564H6.23295L6.05091 7.22563L5.86964 7.78564H5.28031ZM8.36578 7.78564L8.84249 8.13198L8.66045 8.69123L9.13638 8.34565L9.61309 8.69123L9.43104 8.13198L9.90775 7.78564H9.31842L9.13638 7.22563L8.95511 7.78564H8.36578Z" fill="white"/>
</g>
</svg>
