<svg width="124" height="124" viewBox="0 0 124 124" fill="none" xmlns="http://www.w3.org/2000/svg">
<path fill-rule="evenodd" clip-rule="evenodd" d="M62 124C96.2418 124 124 96.2418 124 62C124 27.7583 96.2418 0 62 0C27.7583 0 0 27.7583 0 62C0 96.2418 27.7583 124 62 124ZM33.2699 33.2699C36.2965 30.2434 41.2035 30.2434 44.2301 33.2699L62 51.0399L79.77 33.2699C82.7963 30.2434 87.7037 30.2434 90.73 33.2699C93.7564 36.2965 93.7564 41.2035 90.73 44.2301L72.9601 62L90.73 79.77C93.7564 82.7963 93.7564 87.7037 90.73 90.73C87.7037 93.7564 82.7963 93.7564 79.77 90.73L62 72.9601L44.2301 90.73C41.2035 93.7564 36.2965 93.7564 33.2699 90.73C30.2434 87.7037 30.2434 82.7963 33.2699 79.77L51.0399 62L33.2699 44.2301C30.2434 41.2035 30.2434 36.2965 33.2699 33.2699Z" fill="#C33366"/>
</svg>
