<svg width="1798" height="773" viewBox="0 0 1798 773" fill="none" xmlns="http://www.w3.org/2000/svg">
<g opacity="0.17" clip-path="url(#clip0_2566_91214)">
<g filter="url(#filter0_f_2566_91214)">
<circle cx="210.834" cy="210.834" r="210.834" transform="matrix(-0.258819 -0.965926 -0.965926 0.258819 311.578 994.391)" fill="#00FFD1"/>
</g>
<g filter="url(#filter1_f_2566_91214)">
<circle cx="210.834" cy="210.834" r="210.834" transform="matrix(-0.258819 -0.965926 -0.965926 0.258819 664 886.344)" fill="#FB9906"/>
</g>
<g filter="url(#filter2_f_2566_91214)">
<circle cx="210.834" cy="210.834" r="210.834" transform="matrix(-0.258819 -0.965926 -0.965926 0.258819 460.875 643.984)" fill="#7000FF"/>
</g>
<g filter="url(#filter3_f_2566_91214)">
<rect width="404.982" height="404.982" transform="matrix(-0.258819 -0.965926 -0.965926 0.258819 607.992 378.441)" fill="#C447FF"/>
</g>
<g filter="url(#filter4_f_2566_91214)">
<path d="M383.826 186.474L201.187 177.065L153.983 0.896565L88.3098 171.249L-94.3293 161.84L47.7217 276.533L-17.9513 446.886L135.514 347.418L277.565 462.111L230.361 285.943L383.826 186.474Z" fill="#FBCD06"/>
</g>
</g>
<defs>
<filter id="filter0_f_2566_91214" x="-557.523" y="234.422" width="1221.77" height="1221.77" filterUnits="userSpaceOnUse" color-interpolation-filters="sRGB">
<feFlood flood-opacity="0" result="BackgroundImageFix"/>
<feBlend mode="normal" in="SourceGraphic" in2="BackgroundImageFix" result="shape"/>
<feGaussianBlur stdDeviation="200" result="effect1_foregroundBlur_2566_91214"/>
</filter>
<filter id="filter1_f_2566_91214" x="-205.102" y="126.375" width="1221.77" height="1221.77" filterUnits="userSpaceOnUse" color-interpolation-filters="sRGB">
<feFlood flood-opacity="0" result="BackgroundImageFix"/>
<feBlend mode="normal" in="SourceGraphic" in2="BackgroundImageFix" result="shape"/>
<feGaussianBlur stdDeviation="200" result="effect1_foregroundBlur_2566_91214"/>
</filter>
<filter id="filter2_f_2566_91214" x="-408.227" y="-115.984" width="1221.77" height="1221.77" filterUnits="userSpaceOnUse" color-interpolation-filters="sRGB">
<feFlood flood-opacity="0" result="BackgroundImageFix"/>
<feBlend mode="normal" in="SourceGraphic" in2="BackgroundImageFix" result="shape"/>
<feGaussianBlur stdDeviation="200" result="effect1_foregroundBlur_2566_91214"/>
</filter>
<filter id="filter3_f_2566_91214" x="-288.008" y="-412.742" width="1296" height="1296" filterUnits="userSpaceOnUse" color-interpolation-filters="sRGB">
<feFlood flood-opacity="0" result="BackgroundImageFix"/>
<feBlend mode="normal" in="SourceGraphic" in2="BackgroundImageFix" result="shape"/>
<feGaussianBlur stdDeviation="200" result="effect1_foregroundBlur_2566_91214"/>
</filter>
<filter id="filter4_f_2566_91214" x="-494.328" y="-399.102" width="1278.16" height="1261.21" filterUnits="userSpaceOnUse" color-interpolation-filters="sRGB">
<feFlood flood-opacity="0" result="BackgroundImageFix"/>
<feBlend mode="normal" in="SourceGraphic" in2="BackgroundImageFix" result="shape"/>
<feGaussianBlur stdDeviation="200" result="effect1_foregroundBlur_2566_91214"/>
</filter>
<clipPath id="clip0_2566_91214">
<rect width="1798" height="773" fill="white" transform="matrix(-1 0 0 1 1798 0)"/>
</clipPath>
</defs>
</svg>
