<svg width="38" height="37" viewBox="0 0 38 37" fill="none" xmlns="http://www.w3.org/2000/svg">
<path d="M18.7197 3.38167C23.5936 3.38167 24.2582 3.38167 26.252 3.38167C28.0243 3.38167 28.9105 3.82475 29.5751 4.04629C30.4613 4.48936 31.1259 4.7109 31.7905 5.37552C32.4551 6.04013 32.8982 6.70475 33.1197 7.5909C33.3413 8.25552 33.5628 9.14167 33.7843 10.914C33.7843 12.9078 33.7843 13.3509 33.7843 18.4463C33.7843 23.5417 33.7843 23.9847 33.7843 25.9786C33.7843 27.7509 33.3413 28.6371 33.1197 29.3017C32.6766 30.1878 32.4551 30.8524 31.7905 31.5171C31.1259 32.1817 30.4613 32.6247 29.5751 32.8463C28.9105 33.0678 28.0243 33.2894 26.252 33.5109C24.2582 33.5109 23.8151 33.5109 18.7197 33.5109C13.6243 33.5109 13.1813 33.5109 11.1874 33.5109C9.41511 33.5109 8.52896 33.0678 7.86434 32.8463C6.97819 32.4032 6.31357 32.1817 5.64896 31.5171C4.98434 30.8524 4.54126 30.1878 4.31972 29.3017C4.09819 28.6371 3.87665 27.7509 3.65511 25.9786C3.65511 23.9847 3.65511 23.5417 3.65511 18.4463C3.65511 13.3509 3.65511 12.9078 3.65511 10.914C3.65511 9.14167 4.09819 8.25552 4.31972 7.5909C4.7628 6.70475 4.98434 6.04013 5.64896 5.37552C6.31357 4.7109 6.97819 4.26783 7.86434 4.04629C8.52896 3.82475 9.41511 3.60321 11.1874 3.38167C13.1813 3.38167 13.8459 3.38167 18.7197 3.38167ZM18.7197 0.0585938C13.6243 0.0585938 13.1813 0.0585938 11.1874 0.0585938C9.19357 0.0585938 7.86434 0.501672 6.75665 0.944749C5.64896 1.38783 4.54126 2.05244 3.43357 3.16013C2.32588 4.26783 1.8828 5.15398 1.21819 6.48321C0.775109 7.5909 0.55357 8.92013 0.332031 10.914C0.332031 12.9078 0.332031 13.5724 0.332031 18.4463C0.332031 23.5417 0.332031 23.9847 0.332031 25.9786C0.332031 27.9724 0.775109 29.3017 1.21819 30.4094C1.66126 31.5171 2.32588 32.6247 3.43357 33.7324C4.54126 34.8401 5.42742 35.2832 6.75665 35.9478C7.86434 36.3909 9.19357 36.6124 11.1874 36.834C13.1813 36.834 13.8459 36.834 18.7197 36.834C23.5936 36.834 24.2582 36.834 26.252 36.834C28.2459 36.834 29.5751 36.3909 30.6828 35.9478C31.7905 35.5047 32.8982 34.8401 34.0059 33.7324C35.1136 32.6247 35.5566 31.7386 36.2213 30.4094C36.6643 29.3017 36.8859 27.9724 37.1074 25.9786C37.1074 23.9847 37.1074 23.3201 37.1074 18.4463C37.1074 13.5724 37.1074 12.9078 37.1074 10.914C37.1074 8.92013 36.6643 7.5909 36.2213 6.48321C35.7782 5.37552 35.1136 4.26783 34.0059 3.16013C32.8982 2.05244 32.012 1.60936 30.6828 0.944749C29.5751 0.501672 28.2459 0.280132 26.252 0.0585938C24.2582 0.0585938 23.8151 0.0585938 18.7197 0.0585938Z" fill="#C33366"/>
<path d="M18.7197 8.92013C13.4028 8.92013 9.19357 13.1294 9.19357 18.4463C9.19357 23.7632 13.4028 27.9724 18.7197 27.9724C24.0366 27.9724 28.2459 23.7632 28.2459 18.4463C28.2459 13.1294 24.0366 8.92013 18.7197 8.92013ZM18.7197 24.6494C15.3966 24.6494 12.5166 21.9909 12.5166 18.4463C12.5166 15.1232 15.1751 12.2432 18.7197 12.2432C22.0428 12.2432 24.9228 14.9017 24.9228 18.4463C24.9228 21.7694 22.0428 24.6494 18.7197 24.6494Z" fill="#C33366"/>
<path d="M28.4674 10.914C29.6909 10.914 30.6828 9.92212 30.6828 8.6986C30.6828 7.47507 29.6909 6.48321 28.4674 6.48321C27.2439 6.48321 26.252 7.47507 26.252 8.6986C26.252 9.92212 27.2439 10.914 28.4674 10.914Z" fill="#C33366"/>
</svg>
