<svg width="11" height="14" viewBox="0 0 11 14" fill="none" xmlns="http://www.w3.org/2000/svg">
<path d="M5.80576 6.96098C6.14636 6.96098 6.43804 6.83504 6.6808 6.58315C6.92314 6.33168 7.04431 6.02924 7.04431 5.67582C7.04431 5.3224 6.92314 5.01974 6.6808 4.76785C6.43804 4.51638 6.14636 4.39065 5.80576 4.39065C5.46516 4.39065 5.17369 4.51638 4.93134 4.76785C4.68859 5.01974 4.56721 5.3224 4.56721 5.67582C4.56721 6.02924 4.68859 6.33168 4.93134 6.58315C5.17369 6.83504 5.46516 6.96098 5.80576 6.96098ZM5.80576 13.1458C5.72319 13.1458 5.64062 13.1298 5.55805 13.0976C5.47548 13.0655 5.40323 13.0227 5.3413 12.9691C3.8344 11.5876 2.70939 10.3052 1.96626 9.12199C1.22313 7.93835 0.851562 6.83247 0.851562 5.80433C0.851562 4.19788 1.34967 2.91807 2.34587 1.9649C3.34167 1.01174 4.49496 0.535156 5.80576 0.535156C7.11656 0.535156 8.26986 1.01174 9.26565 1.9649C10.2619 2.91807 10.76 4.19788 10.76 5.80433C10.76 6.83247 10.3884 7.93835 9.64526 9.12199C8.90213 10.3052 7.77712 11.5876 6.27022 12.9691C6.20829 13.0227 6.13604 13.0655 6.05347 13.0976C5.9709 13.1298 5.88833 13.1458 5.80576 13.1458Z" fill="#4C5E76"/>
</svg>
