<svg width="53" height="54" viewBox="0 0 53 54" fill="none" xmlns="http://www.w3.org/2000/svg">
<rect y="0.160156" width="52.9465" height="52.95" rx="3.60305" fill="#FFF8D8"/>
<g clip-path="url(#clip0_2566_102567)">
<g clip-path="url(#clip1_2566_102567)">
<path d="M44.9779 15.9948C44.3371 15.1757 43.2169 15.8319 42.7236 16.1177C39.2139 18.1861 38.696 21.828 37.4728 23.9194C36.5109 25.5943 34.9343 26.8237 33.5082 26.9189C32.4541 26.9942 31.3108 26.7898 30.1768 26.2966C27.4 25.0964 25.9048 23.5429 25.5406 23.2693C24.7923 22.7008 19.0406 17.0996 14.3537 16.8707C14.3537 16.8707 13.7821 15.7182 13.6392 15.6982C13.298 15.6598 12.9477 16.3912 12.6926 16.4681C12.4621 16.5495 12.058 15.6813 11.8244 15.7197C11.5893 15.7505 11.3603 16.6202 10.9024 17.0674C10.5643 17.3947 10.1556 17.3747 9.92353 17.7789C9.84362 17.9264 9.87128 18.1861 9.78062 18.4242C9.58546 18.916 8.93392 18.9682 8.92777 19.4953C8.92777 20.0808 9.47636 20.1929 9.9558 20.6017C10.3369 20.9275 10.363 21.158 10.8071 21.3101C11.2036 21.4453 11.7783 21.0227 12.2885 21.1749C12.7141 21.2993 13.1229 21.39 13.2135 21.8249C13.2965 22.2183 13.2135 22.836 12.6911 22.7669C12.519 22.7438 11.7721 22.4995 10.8501 22.5978C9.73605 22.7161 8.4637 23.0727 8.33923 24.3035C8.27622 24.9904 9.12907 25.7941 9.96041 25.6343C10.5305 25.5252 10.2616 24.8567 10.5735 24.534C10.9838 24.1191 13.2965 25.9846 15.4478 25.9846C16.3591 25.9846 17.0321 25.7541 17.7021 25.055C17.7636 25.0104 17.845 24.8982 17.9403 24.8859C18.0471 24.9136 18.1485 24.9594 18.2399 25.0211C19.9779 26.3995 21.2887 29.1701 27.6597 29.2024C28.554 29.2132 29.5805 29.6311 30.4195 30.3964C31.1571 31.0618 31.5936 32.1251 32.0131 33.2008C32.6554 34.8189 33.7971 36.3802 35.5351 38.1227C35.6273 38.2272 37.0564 39.3213 37.164 39.4028C37.1824 39.4181 37.293 39.6594 37.2454 39.7946C37.2147 40.8549 37.0564 43.8975 39.3429 44.0251C39.9054 44.0558 39.7655 43.6701 39.7655 43.395C39.7578 42.871 39.6656 42.3424 39.9392 41.7969C40.3279 41.0624 39.1309 40.7074 39.157 39.0985C39.1862 37.8938 38.1659 38.0981 37.6449 37.1777C37.353 36.6506 37.0794 36.3602 37.1071 35.724C37.2193 32.0667 36.3126 29.6573 35.8701 29.0749C35.5213 28.6231 35.2201 28.4556 35.552 28.2451C37.4575 26.9927 37.8954 25.8264 37.8954 25.8264C38.9096 23.4584 39.8255 21.3009 41.084 20.3405C41.3391 20.1561 41.9891 19.6643 42.3932 19.4799C43.5657 18.9237 44.1957 18.5917 44.5261 18.269C45.0732 17.7512 45.5019 16.6509 44.9779 15.9948Z" fill="black"/>
</g>
</g>
<defs>
<clipPath id="clip0_2566_102567">
<rect width="37" height="37" fill="white" transform="translate(8 8)"/>
</clipPath>
<clipPath id="clip1_2566_102567">
<rect width="36.8799" height="36.8799" fill="white" transform="translate(8.33594 11.3711)"/>
</clipPath>
</defs>
</svg>
