<svg width="32" height="31" viewBox="0 0 32 31" fill="none" xmlns="http://www.w3.org/2000/svg">
<path d="M15.7075 20.6C16.005 20.6 16.2566 20.4971 16.4623 20.2914C16.668 20.0857 16.7706 19.8344 16.77 19.5375C16.77 19.24 16.6674 18.9884 16.4623 18.7827C16.2572 18.577 16.0056 18.4744 15.7075 18.475C15.41 18.475 15.1587 18.5778 14.9535 18.7835C14.7484 18.9892 14.6456 19.2406 14.645 19.5375C14.645 19.835 14.7478 20.0866 14.9535 20.2923C15.1592 20.498 15.4106 20.6006 15.7075 20.6ZM14.9425 17.3275H16.515C16.515 16.86 16.5683 16.4917 16.6748 16.2225C16.7813 15.9533 17.0822 15.585 17.5775 15.1175C17.9458 14.7492 18.2362 14.3984 18.4487 14.0652C18.6612 13.732 18.7675 13.3319 18.7675 12.865C18.7675 12.0717 18.4771 11.4625 17.8962 11.0375C17.3154 10.6125 16.6283 10.4 15.835 10.4C15.0275 10.4 14.3721 10.6125 13.8689 11.0375C13.3657 11.4625 13.0153 11.9725 12.8175 12.5675L14.22 13.12C14.2908 12.865 14.4503 12.5887 14.6985 12.2912C14.9467 11.9937 15.3256 11.845 15.835 11.845C16.2883 11.845 16.6283 11.9691 16.855 12.2173C17.0817 12.4655 17.195 12.7381 17.195 13.035C17.195 13.3183 17.11 13.5841 16.94 13.8323C16.77 14.0805 16.5575 14.3106 16.3025 14.5225C15.6792 15.075 15.2967 15.4929 15.155 15.7762C15.0133 16.0596 14.9425 16.5767 14.9425 17.3275ZM15.75 24C14.5742 24 13.4692 23.7767 12.435 23.3302C11.4008 22.8837 10.5012 22.2782 9.73625 21.5137C8.97125 20.7487 8.36577 19.8492 7.9198 18.815C7.47383 17.7808 7.25057 16.6758 7.25 15.5C7.25 14.3242 7.47327 13.2192 7.9198 12.185C8.36633 11.1508 8.97182 10.2512 9.73625 9.48625C10.5012 8.72125 11.4008 8.11577 12.435 7.6698C13.4692 7.22383 14.5742 7.00057 15.75 7C16.9258 7 18.0308 7.22327 19.065 7.6698C20.0992 8.11633 20.9987 8.72182 21.7637 9.48625C22.5287 10.2512 23.1345 11.1508 23.581 12.185C24.0276 13.2192 24.2506 14.3242 24.25 15.5C24.25 16.6758 24.0267 17.7808 23.5802 18.815C23.1337 19.8492 22.5282 20.7487 21.7637 21.5137C20.9987 22.2787 20.0992 22.8845 19.065 23.331C18.0308 23.7776 16.9258 24.0006 15.75 24Z" fill="#C33366"/>
</svg>
