<svg width="344" height="259" viewBox="0 0 344 259" fill="none" xmlns="http://www.w3.org/2000/svg">
<g id="sent_illustration">
<g id="freepik--background-complete--inject-128">
<rect id="Rectangle" x="0.429688" y="227.199" width="343.325" height="0.172787" fill="#E0E0E0"/>
<rect id="Rectangle_2" x="236.133" y="234.52" width="23.6207" height="0.172787" fill="#E0E0E0"/>
<rect id="Rectangle_3" x="63.3828" y="234.602" width="13.2935" height="0.172787" fill="#E0E0E0"/>
<rect id="Rectangle_4" x="145.844" y="234.199" width="26.9441" height="0.172787" fill="#E0E0E0"/>
<rect id="Rectangle_5" x="133.102" y="231.742" width="12.0438" height="0.172787" fill="#E0E0E0"/>
<rect id="Rectangle_6" x="255.562" y="231.832" width="36.3855" height="0.172787" fill="#E0E0E0"/>
<path id="Shape" fill-rule="evenodd" clip-rule="evenodd" d="M30.5858 196.374H163.171C165.336 196.374 167.092 194.607 167.092 192.428V4.86441C167.092 2.68485 165.336 0.917969 163.171 0.917969H30.5858C28.4364 0.921675 26.6907 2.66649 26.6719 4.82986V192.428C26.6719 194.605 28.4231 196.37 30.5858 196.374ZM26.8396 4.83006C26.8396 2.74862 28.5139 1.06021 30.5818 1.0564H163.167C165.236 1.0602 166.912 2.7475 166.916 4.83006V192.428C166.912 194.51 165.236 196.198 163.167 196.201H30.5818C28.5139 196.198 26.8396 194.509 26.8396 192.428V4.83006Z" fill="#E0E0E0"/>
<path id="Shape_2" fill-rule="evenodd" clip-rule="evenodd" d="M179.1 196.374H311.692C313.852 196.366 315.599 194.602 315.599 192.428V4.82986C315.581 2.66918 313.839 0.925454 311.692 0.917969H179.1C176.95 0.921634 175.202 2.66538 175.18 4.82986V192.428C175.183 194.606 176.937 196.37 179.1 196.374ZM175.347 4.83006C175.351 2.7475 177.027 1.0602 179.096 1.0564H311.688C313.757 1.0602 315.434 2.7475 315.438 4.83006V192.428C315.434 194.51 313.757 196.198 311.688 196.201H179.096C177.027 196.198 175.351 194.51 175.347 192.428V4.83006Z" fill="#E0E0E0"/>
<path id="Path" d="M302.077 140.689C293.632 127.744 301.343 113.831 300.059 99.4276C298.775 85.0241 285.179 81.8863 287.754 69.7084C290.734 55.5537 282.79 41.9727 273.788 41.9727C264.786 41.9727 256.848 55.5191 259.828 69.6876C262.403 81.8863 248.842 85.0311 247.523 99.4069C246.205 113.783 253.95 127.744 245.498 140.668C237.045 153.593 239.27 170.754 244.028 179.262C245.294 181.519 246.82 183.619 248.574 185.517C255.093 192.561 264.227 196.561 273.791 196.561C283.355 196.561 292.489 192.561 299.008 185.517C300.758 183.617 302.281 181.518 303.547 179.262C308.312 170.775 310.53 153.662 302.077 140.689Z" fill="#E0E0E0"/>
<path id="Path_2" d="M273.794 150.508C274.927 150.508 276.013 150.961 276.814 151.767C277.615 152.573 278.065 153.667 278.065 154.807V227.197H269.523V154.807C269.523 153.667 269.973 152.573 270.774 151.767C271.575 150.961 272.662 150.508 273.794 150.508Z" fill="#F0F0F0"/>
<path id="Path_3" d="M220.088 227.199H208.477V154.815C208.484 151.585 211.084 148.969 214.292 148.961C217.501 148.969 220.101 151.585 220.108 154.815L220.088 227.199Z" fill="#E0E0E0"/>
<ellipse id="Oval" cx="214.283" cy="171.616" rx="35.8225" ry="36.0571" fill="#F0F0F0"/>
<ellipse id="Oval_2" cx="242.678" cy="157.373" rx="14.2046" ry="14.1229" transform="rotate(-76.05 242.678 157.373)" fill="#F0F0F0"/>
<ellipse id="Oval_3" cx="185.304" cy="148.957" rx="8.40984" ry="8.35794" transform="rotate(-80.75 185.304 148.957)" fill="#F0F0F0"/>
<ellipse id="Oval_4" cx="194.395" cy="144.606" rx="5.86398" ry="5.90239" fill="#F0F0F0"/>
<path id="Path_4" d="M140.51 183.994C134.939 184.829 129.616 186.874 124.909 189.987C124.868 184.513 123.872 179.322 121.318 175.127C117.432 178.935 114.28 183.87 111.705 189.178C110.764 179.232 108.162 169.556 102.401 163.426C93.7697 168.893 89.3202 178.002 87.2053 187.65C83.7114 181.145 78.6402 175.634 72.463 171.63C67.1826 177.228 65.4935 184.969 65.6377 192.903C59.6364 185.867 52.9759 180.38 46.4802 179.737C44.8803 190.857 48.286 201.349 52.6188 209.643C58.3516 220.487 69.5766 227.247 81.7808 227.205H109.995C122.018 227.205 133.293 220.749 138.931 210.057C142.494 203.284 144.197 194.569 140.51 183.994Z" fill="#E0E0E0"/>
<path id="Path_5" d="M132.442 40.4091C135.923 30.1317 133.128 22.8125 124.634 22.8125C119.292 22.8125 112.666 25.6946 106.212 30.3805C105.484 27.7058 103.431 26.1093 100.128 26.1093C94.3119 26.1093 86.2987 31.0579 80.0159 38.0384C78.247 36.3468 75.9052 35.3956 73.4653 35.3775C67.8965 35.0596 61.1605 37.9071 55.3034 42.5309C54.7079 41.692 53.7459 41.195 52.7216 41.197C49.5149 41.0173 45.1684 43.8925 43.0192 47.6108C42.8888 47.8389 42.772 48.067 42.6484 48.302H134.131C134.405 45.0536 133.835 42.3443 132.442 40.4091Z" fill="#F0F0F0"/>
<path id="Path_6" d="M132.726 102.814C134.429 97.7959 133.076 94.2227 128.915 94.2227C126.299 94.2227 123.065 95.6049 119.913 97.9203C119.563 96.588 118.303 95.7092 116.94 95.8468C114.104 95.8468 110.19 98.2659 107.114 101.68C106.252 100.851 105.107 100.386 103.915 100.381C101.168 100.222 97.9063 101.611 95.043 103.871C94.7614 103.466 94.3051 103.219 93.8139 103.208C92.2483 103.118 90.1266 104.521 89.076 106.338L88.8906 106.67H133.578C133.765 105.323 133.462 103.954 132.726 102.814Z" fill="#F0F0F0"/>
<path id="Path_7" d="M235.786 64.8419C235.434 64.792 235.078 64.7666 234.722 64.7659C235.051 59.7551 233.149 56.5482 229.078 56.5482C226.146 56.5482 222.541 58.2207 218.874 61.0475C219.925 51.3162 216.56 44.9922 208.938 44.9922C202.8 44.9922 195.02 49.1391 187.336 55.8155C186.65 52.0004 184.397 49.7058 180.593 49.7058C173.912 49.7058 164.416 56.7831 156.801 66.7633C155.043 64.4324 152.332 63.0273 149.426 62.9413C143.068 62.492 135.165 66.5559 128.14 73.1771C127.619 72.0378 126.495 71.2993 125.249 71.2765C121.768 71.0277 117.01 74.6838 114.188 79.5702H241.382C244.369 72.1611 241.993 65.6782 235.786 64.8419Z" fill="#F0F0F0"/>
</g>
<g id="freepik--Shadow--inject-128">
<ellipse id="Oval_5" cx="172.095" cy="250.585" rx="133.134" ry="7.82377" fill="#F5F5F5"/>
</g>
<g id="freepik--Mail--inject-128">
<path id="Path_8" d="M33.9844 66.9648L190.52 89.6483L211.524 110.984L33.9844 66.9648Z" fill="#C33366"/>
<path id="Path_9" opacity="0.6" d="M33.9844 66.9648L190.52 89.6483L211.524 110.984L33.9844 66.9648Z" fill="white"/>
<path id="Path_10" d="M33.9844 66.9648L190.52 89.6483L183.255 120.501L33.9844 66.9648Z" fill="#C33366"/>
<path id="Path_11" opacity="0.2" d="M33.9844 66.9648L190.52 89.6483L183.255 120.501L33.9844 66.9648Z" fill="black"/>
<path id="Path_12" d="M180.04 31.2471L189.124 74.0982C189.616 76.428 188.142 78.7191 185.828 79.2196L104.749 96.6365C102.435 97.1277 100.162 95.6453 99.6609 93.319L90.5697 50.4679C90.082 48.1367 91.5584 45.8472 93.8724 45.3465L174.952 27.9296C177.268 27.4388 179.543 28.9249 180.04 31.2541V31.2471Z" fill="#C33366"/>
<path id="Path_13" opacity="0.4" d="M180.04 31.2471L189.124 74.0982C189.616 76.428 188.142 78.7191 185.828 79.2196L104.749 96.6365C102.435 97.1277 100.162 95.6453 99.6609 93.319L90.5697 50.4679C90.082 48.1367 91.5584 45.8472 93.8724 45.3465L174.952 27.9296C177.268 27.4388 179.543 28.9249 180.04 31.2541V31.2471Z" fill="black"/>
<path id="Path_14" d="M178.043 28.4408L150.955 61.913C145.78 68.3063 136.884 70.2178 129.566 66.5092L91.2578 47.0879C91.8776 46.1918 92.8129 45.5667 93.8739 45.3393L174.953 27.9225C176.012 27.6958 177.116 27.881 178.043 28.4408Z" fill="#C33366"/>
<path id="Path_15" d="M33.9844 66.9648L163.095 97.8522L183.255 120.501L33.9844 66.9648Z" fill="#C33366"/>
<path id="Path_16" opacity="0.6" d="M33.9844 66.9648L163.095 97.8522L183.255 120.501L33.9844 66.9648Z" fill="white"/>
<path id="Rectangle_7" d="M80.7243 97.3329L81.0713 96.7365L95.4391 105.208L95.0921 105.804L80.7243 97.3329Z" fill="#C33366"/>
<path id="Rectangle_8" d="M101.443 109.537L101.79 108.941L106.957 111.987L106.61 112.584L101.443 109.537Z" fill="#C33366"/>
<path id="Path_17" d="M33.9844 66.9648L163.095 97.8522L137.998 128.297L33.9844 66.9648Z" fill="#C33366"/>
<path id="Path_18" d="M206.675 139.33C206.501 139.33 206.329 139.297 206.167 139.233L185.142 130.856C184.442 130.572 184.1 129.773 184.378 129.066C184.655 128.359 185.447 128.011 186.151 128.285L207.183 136.662C207.797 136.906 208.151 137.555 208.027 138.208C207.903 138.86 207.335 139.331 206.675 139.33Z" fill="#C33366"/>
<path id="Path_19" opacity="0.3" d="M206.675 139.33C206.501 139.33 206.329 139.297 206.167 139.233L185.142 130.856C184.442 130.572 184.1 129.773 184.378 129.066C184.655 128.359 185.447 128.011 186.151 128.285L207.183 136.662C207.797 136.906 208.151 137.555 208.027 138.208C207.903 138.86 207.335 139.331 206.675 139.33Z" fill="black"/>
<path id="Path_20" d="M205.432 127.193C205.259 127.191 205.089 127.156 204.93 127.089L193.635 122.562C193.175 122.383 192.847 121.969 192.773 121.479C192.7 120.988 192.893 120.496 193.28 120.188C193.666 119.881 194.187 119.805 194.644 119.991L205.94 124.497C206.644 124.776 206.992 125.577 206.716 126.287C206.518 126.829 206.005 127.19 205.432 127.193Z" fill="#C33366"/>
<path id="Path_21" opacity="0.5" d="M205.432 127.193C205.259 127.191 205.089 127.156 204.93 127.089L193.635 122.562C193.175 122.383 192.847 121.969 192.773 121.479C192.7 120.988 192.893 120.496 193.28 120.188C193.666 119.881 194.187 119.805 194.644 119.991L205.94 124.497C206.644 124.776 206.992 125.577 206.716 126.287C206.518 126.829 206.005 127.19 205.432 127.193Z" fill="white"/>
<path id="Path_22" d="M181.818 139.149C181.647 139.147 181.477 139.114 181.317 139.052L160.807 130.855C160.347 130.676 160.018 130.262 159.945 129.772C159.872 129.281 160.065 128.789 160.452 128.481C160.838 128.174 161.359 128.098 161.816 128.284L182.326 136.453C182.94 136.697 183.295 137.346 183.17 137.999C183.046 138.651 182.478 139.123 181.818 139.121V139.149Z" fill="#C33366"/>
<path id="Path_23" opacity="0.3" d="M181.818 139.149C181.647 139.147 181.477 139.114 181.317 139.052L160.807 130.855C160.347 130.676 160.018 130.262 159.945 129.772C159.872 129.281 160.065 128.789 160.452 128.481C160.838 128.174 161.359 128.098 161.816 128.284L182.326 136.453C182.94 136.697 183.295 137.346 183.17 137.999C183.046 138.651 182.478 139.123 181.818 139.121V139.149Z" fill="black"/>
</g>
<g id="freepik--Character--inject-128">
<path id="Path_24" d="M256.073 76.8164C257.893 80.3896 259.562 83.9698 261.148 87.6328C262.734 91.2959 264.21 95.0074 265.501 98.8985L265.968 100.371C266.05 100.633 266.167 101.062 266.236 101.366C266.304 101.67 266.366 102.016 266.401 102.306C266.558 103.421 266.638 104.546 266.641 105.672C266.651 107.749 266.555 109.825 266.353 111.892C265.969 115.894 265.345 119.868 264.485 123.794L260.715 123.372C260.667 119.481 260.633 115.548 260.495 111.712C260.434 109.805 260.324 107.89 260.131 106.093C260.044 105.249 259.907 104.412 259.72 103.584C259.685 103.391 259.63 103.246 259.589 103.087C259.548 102.928 259.507 102.873 259.438 102.665L258.916 101.359C257.481 97.8618 255.867 94.337 254.219 90.8259L249.234 80.2929L256.073 76.8164Z" fill="#E4897B"/>
<path id="Path_25" d="M260.773 122.156L259.016 125.467L264.632 127.043C264.632 127.043 265.704 124.382 264.426 122.281L260.773 122.156Z" fill="#E4897B"/>
<path id="Path_26" d="M256.859 130.238L262.023 130.652L264.625 127.045L259.009 125.469L256.859 130.238Z" fill="#E4897B"/>
<path id="Path_27" d="M232.433 52.9308C232.357 53.3386 232.076 53.6219 231.815 53.5666C231.554 53.5113 231.41 53.145 231.492 52.7442C231.574 52.3433 231.849 52.053 232.11 52.1083C232.371 52.1636 232.522 52.5299 232.433 52.9308Z" fill="#263238"/>
<path id="Path_28" d="M232.11 53.6211C231.385 54.7518 230.509 55.7773 229.508 56.669C229.981 57.1758 230.651 57.4485 231.341 57.4155L232.11 53.6211Z" fill="#DE5753"/>
<path id="Path_29" d="M234.342 51.0034C234.277 51.0018 234.216 50.9744 234.171 50.9274C233.771 50.4668 233.176 50.2255 232.571 50.2777C232.453 50.2789 232.352 50.1943 232.332 50.0779C232.311 49.9614 232.378 49.8471 232.488 49.8077C233.264 49.7088 234.037 50.0072 234.548 50.6026C234.64 50.6966 234.64 50.8472 234.548 50.9412C234.493 50.9925 234.417 51.0154 234.342 51.0034Z" fill="#263238"/>
<path id="Path_30" d="M243.792 58.5781C243.071 62.2965 242.35 69.0974 244.932 71.5786C244.932 71.5786 243.922 75.3453 237.063 75.3453C229.51 75.3453 233.465 71.5786 233.465 71.5786C237.585 70.5902 237.468 67.5146 236.754 64.6326L243.792 58.5781Z" fill="#E4897B"/>
<path id="Path_31" d="M245.969 73.9227C246.511 72.105 247.109 70.0246 245.873 69.368C244.499 68.6769 237.036 67.9166 234.461 69.2644C231.886 70.6121 232.62 74.3097 232.62 74.3097L245.969 73.9227Z" fill="#263238"/>
<path id="Shape_3" fill-rule="evenodd" clip-rule="evenodd" d="M260.592 246.095C260.934 246.413 261.37 246.554 261.8 246.486C262.244 246.483 262.686 246.426 263.119 246.315C263.164 246.305 263.2 246.263 263.208 246.209C263.214 246.153 263.196 246.098 263.16 246.062C263.159 246.061 263.157 246.06 263.154 246.057C263.037 245.964 261.695 244.894 260.97 245.085C260.809 245.127 260.671 245.248 260.592 245.419C260.469 245.621 260.469 245.893 260.592 246.095ZM261.028 245.346H261.172V245.363C261.756 245.46 262.314 245.71 262.806 246.095C262.051 246.242 261.021 246.242 260.808 245.9C260.767 245.867 260.698 245.77 260.808 245.542C260.853 245.441 260.934 245.369 261.028 245.346Z" fill="#C33366"/>
<path id="Shape_4" fill-rule="evenodd" clip-rule="evenodd" d="M263.029 246.148H263.084C263.098 246.149 263.112 246.146 263.125 246.141C263.164 246.119 263.186 246.075 263.18 246.031C263.18 245.968 263.077 244.503 262.494 244.019C262.351 243.902 262.168 243.847 261.986 243.867C261.798 243.867 261.637 244 261.601 244.185C261.498 244.766 262.507 245.858 263.029 246.148ZM262.048 244.075H262.076L262.048 244.089C262.166 244.073 262.284 244.105 262.378 244.179C262.728 244.637 262.934 245.191 262.968 245.768C262.453 245.374 261.808 244.538 261.87 244.199C261.87 244.198 261.87 244.196 261.871 244.195C261.878 244.162 261.898 244.075 262.048 244.075Z" fill="#C33366"/>
<path id="Shape_5" fill-rule="evenodd" clip-rule="evenodd" d="M230.028 246.043C230.241 246.385 230.866 246.491 231.511 246.491C232.027 246.49 232.542 246.433 233.049 246.32C233.099 246.31 233.137 246.264 233.145 246.206C233.153 246.148 233.132 246.091 233.09 246.059C233.088 246.058 233.084 246.055 233.079 246.052C232.91 245.941 231.219 244.83 230.412 245.09C230.251 245.134 230.112 245.255 230.028 245.424C229.918 245.61 229.918 245.857 230.028 246.043ZM230.482 245.334C230.557 245.322 230.634 245.322 230.709 245.334V245.351C231.406 245.439 232.083 245.688 232.7 246.083C231.753 246.238 230.475 246.214 230.249 245.839C230.194 245.79 230.16 245.709 230.249 245.53C230.3 245.428 230.385 245.357 230.482 245.334Z" fill="#C33366"/>
<path id="Shape_6" fill-rule="evenodd" clip-rule="evenodd" d="M232.986 246.15H233.034C233.066 246.161 233.101 246.159 233.13 246.143C233.165 246.118 233.184 246.075 233.178 246.032C233.178 246.031 233.178 246.029 233.178 246.026C233.165 245.909 233.026 244.59 232.395 244.076C232.209 243.907 231.957 243.831 231.709 243.869C231.379 243.903 231.263 244.069 231.263 244.208C231.173 244.767 232.375 245.88 232.986 246.15ZM231.725 244.077H231.801L231.828 244.09C231.957 244.099 232.08 244.15 232.178 244.236C232.565 244.67 232.806 245.217 232.865 245.798C232.261 245.424 231.437 244.56 231.492 244.215C231.492 244.213 231.492 244.212 231.493 244.21C231.501 244.176 231.523 244.077 231.725 244.077Z" fill="#C33366"/>
<path id="Path_32" d="M238.579 246.026H233.533L233.031 234.27H238.078L238.579 246.026Z" fill="#E4897B"/>
<path id="Path_33" d="M268.87 246.026H263.823L261.289 234.27H266.329L268.87 246.026Z" fill="#E4897B"/>
<path id="Path_34" d="M263.463 245.438H269.128C269.336 245.439 269.516 245.585 269.56 245.79L270.556 250.303C270.602 250.526 270.545 250.757 270.401 250.932C270.256 251.107 270.04 251.206 269.815 251.202C267.837 251.167 266.876 251.05 264.383 251.05C262.852 251.05 259.693 251.215 257.572 251.215C255.45 251.215 255.182 249.142 256.047 248.914C259.934 248.057 261.396 246.875 262.639 245.755C262.865 245.55 263.159 245.437 263.463 245.438Z" fill="#263238"/>
<path id="Path_35" d="M233.572 245.438H239.065C239.274 245.439 239.453 245.585 239.498 245.79L240.494 250.303C240.542 250.524 240.487 250.754 240.345 250.93C240.204 251.105 239.99 251.205 239.766 251.202C237.781 251.167 234.911 251.05 232.412 251.05C229.493 251.05 226.967 251.215 223.54 251.215C221.48 251.215 220.897 249.142 221.762 248.914C225.71 248.043 228.93 247.953 232.343 245.838C232.706 245.59 233.133 245.451 233.572 245.438V245.438Z" fill="#263238"/>
<path id="Path_36" d="M231.146 80.496C226.928 80.1671 222.731 79.6064 218.574 78.8166C216.514 78.4157 214.413 77.9664 212.325 77.3997C210.186 76.8485 208.084 76.1559 206.035 75.3263C205.507 75.1051 204.971 74.8632 204.442 74.6351C203.847 74.34 203.274 74.0028 202.726 73.6261C201.737 72.9695 200.886 72.2852 200.041 71.6079C198.359 70.2256 196.8 68.8433 195.234 67.4265C192.165 64.5651 189.254 61.607 186.445 58.4969L188.972 55.6562L198.935 62.8649C200.577 64.0537 202.238 65.2217 203.872 66.3206C204.683 66.8666 205.514 67.3781 206.276 67.8135C206.594 67.9965 206.925 68.1581 207.265 68.2973C207.67 68.4563 208.082 68.6152 208.514 68.7673C212.225 69.9175 216.02 70.7725 219.865 71.3245C223.785 71.9466 227.837 72.458 231.75 72.8727L231.146 80.496Z" fill="#E4897B"/>
<path id="Path_37" d="M253.965 72.7249C258.696 73.8169 263.475 87.7297 263.475 87.7297L253.745 94.7586C253.745 94.7586 250.999 88.2757 248.348 82.6083C245.574 76.6713 249.131 71.6122 253.965 72.7249Z" fill="#C33366"/>
<path id="Path_38" opacity="0.4" d="M253.965 72.7249C258.696 73.8169 263.475 87.7297 263.475 87.7297L253.745 94.7586C253.745 94.7586 250.999 88.2757 248.348 82.6083C245.574 76.6713 249.131 71.6122 253.965 72.7249Z" fill="black"/>
<path id="Path_39" d="M251.242 80.3281L249.312 84.6754C251.311 89.0158 253.137 93.3148 253.625 94.4621C253.556 89.3268 252.588 82.9545 251.242 80.3281Z" fill="#C33366"/>
<path id="Path_40" opacity="0.6" d="M251.242 80.3281L249.312 84.6754C251.311 89.0158 253.137 93.3148 253.625 94.4621C253.556 89.3268 252.588 82.9545 251.242 80.3281Z" fill="black"/>
<path id="Path_41" d="M225.697 72.99C225.697 72.99 220.328 79.0928 225.395 116.878H252.374C252.566 112.731 249.964 92.3697 253.953 72.7274C250.971 72.1494 247.955 71.7661 244.924 71.5801C241.104 71.3587 237.276 71.3587 233.456 71.5801C230.838 71.8457 228.243 72.3171 225.697 72.99Z" fill="#C33366"/>
<path id="Path_42" opacity="0.4" d="M225.697 72.99C225.697 72.99 220.328 79.0928 225.395 116.878H252.374C252.566 112.731 249.964 92.3697 253.953 72.7274C250.971 72.1494 247.955 71.7661 244.924 71.5801C241.104 71.3587 237.276 71.3587 233.456 71.5801C230.838 71.8457 228.243 72.3171 225.697 72.99Z" fill="black"/>
<path id="Path_43" d="M223.702 80.3281C223.523 81.7588 223.386 83.4521 223.297 85.4495C225.961 84.6447 228.493 83.4475 230.809 81.897L223.702 80.3281Z" fill="#C33366"/>
<path id="Path_44" opacity="0.6" d="M223.702 80.3281C223.523 81.7588 223.386 83.4521 223.297 85.4495C225.961 84.6447 228.493 83.4475 230.809 81.897L223.702 80.3281Z" fill="black"/>
<path id="Path_45" d="M235.267 81.0869C231.655 84.3076 217.867 83.9828 217.867 83.9828L217.414 70.5469C222.07 71.2144 226.767 71.5562 231.47 71.5698C239.153 71.4108 239.208 77.5344 235.267 81.0869Z" fill="#C33366"/>
<path id="Path_46" opacity="0.4" d="M235.267 81.0869C231.655 84.3076 217.867 83.9828 217.867 83.9828L217.414 70.5469C222.07 71.2144 226.767 71.5562 231.47 71.5698C239.153 71.4108 239.208 77.5344 235.267 81.0869Z" fill="black"/>
<path id="Path_47" d="M189.103 55.6802L185.67 51.6094L181.969 55.7563C181.969 55.7563 184.248 59.6128 187.867 59.0046L189.103 55.6802Z" fill="#E4897B"/>
<path id="Path_48" d="M180.754 46.8633L179.422 52.1782L181.942 55.7307L185.643 51.6115L180.754 46.8633Z" fill="#E4897B"/>
<path id="Path_49" d="M233.031 234.273L233.292 240.328H238.339L238.078 234.273H233.031Z" fill="#CE6F64"/>
<path id="Path_50" d="M266.336 234.273H261.289L262.594 240.328H267.641L266.336 234.273Z" fill="#CE6F64"/>
<path id="Path_51" d="M236.058 47.9138C231.533 45.8403 230.105 36.6273 243.124 38.9289C243.124 38.9289 241.16 41.1129 245.143 42.4952C249.125 43.8775 245.795 52.4131 236.058 47.9138Z" fill="#263238"/>
<path id="Path_52" d="M245.902 54.827C244.604 59.665 244.096 62.6093 241.096 64.6344C236.605 67.6754 231.023 64.1851 230.844 59.0223C230.686 54.3847 232.835 47.2037 238.019 46.2223C240.346 45.7631 242.743 46.5522 244.35 48.3068C245.958 50.0614 246.545 52.5298 245.902 54.827Z" fill="#E4897B"/>
<path id="Path_53" d="M242.956 41.3499C246.039 43.0778 250.214 44.1145 249.823 46.575C249.308 49.5815 252.343 47.7015 251.635 52.1733C251.175 55.0968 245.819 63.9573 242.022 63.5288C236.351 62.8376 237.072 54.1568 237.051 49.5815C237.037 46.8791 236.914 37.9426 242.956 41.3499Z" fill="#263238"/>
<path id="Path_54" d="M236.369 45.2266C234.996 45.5514 233.177 53.5203 238.498 54.2529C244.616 55.0892 236.369 45.2266 236.369 45.2266Z" fill="#263238"/>
<path id="Path_55" d="M236.511 48.0533C234.829 48.2053 231.018 46.1664 231.485 43.0977C231.485 43.077 233.895 46.6848 236.511 48.0533Z" fill="#263238"/>
<path id="Path_56" d="M239.009 54.8877C238.493 56.0272 237.617 56.9628 236.517 57.5486C235.068 58.3088 234.251 57.203 234.58 55.7378C234.876 54.4246 235.988 52.441 237.478 52.282C238.968 52.1231 239.607 53.5054 239.009 54.8877Z" fill="#E4897B"/>
<path id="Path_57" d="M246.57 49.2966C248.655 48.3861 250.146 46.483 250.539 44.2305C250.539 44.2305 252.805 50.5683 246.57 49.2966Z" fill="#263238"/>
<path id="Path_58" d="M252.282 49.194C251.312 48.5379 250.079 48.4158 249 48.8691C249 48.8691 251.115 46.1115 252.282 49.194Z" fill="#263238"/>
<path id="Path_59" d="M234.969 116.875C234.969 116.875 240.695 155.676 243.833 170.211C247.267 186.107 260.244 239.16 260.244 239.16H269.48C269.48 239.16 260.931 187.414 258.967 171.628C256.839 154.522 252.375 116.848 252.375 116.848L234.969 116.875Z" fill="#C33366"/>
<path id="Path_60" opacity="0.5" d="M234.969 116.875C234.969 116.875 240.695 155.676 243.833 170.211C247.267 186.107 260.244 239.16 260.244 239.16H269.48C269.48 239.16 260.931 187.414 258.967 171.628C256.839 154.522 252.375 116.848 252.375 116.848L234.969 116.875Z" fill="white"/>
<path id="Path_61" d="M258.775 235.734C258.733 235.734 259.729 239.308 259.729 239.308H270.125L269.933 236.121L258.775 235.734Z" fill="#C33366"/>
<path id="Path_62" opacity="0.1" d="M258.775 235.734C258.733 235.734 259.729 239.308 259.729 239.308H270.125L269.933 236.121L258.775 235.734Z" fill="black"/>
<path id="Path_63" d="M238.592 130.699C245.211 132.005 244.511 156.852 243.714 169.631C241.805 160.598 239.01 143.216 237.102 130.879C237.563 130.65 238.089 130.586 238.592 130.699Z" fill="#C33366"/>
<path id="Path_64" opacity="0.4" d="M238.592 130.699C245.211 132.005 244.511 156.852 243.714 169.631C241.805 160.598 239.01 143.216 237.102 130.879C237.563 130.65 238.089 130.586 238.592 130.699Z" fill="white"/>
<path id="Path_65" d="M225.392 116.875C225.392 116.875 224.705 154.833 225.248 170.321C225.818 186.425 231.428 239.159 231.428 239.159H239.969C239.969 239.159 240.285 187.365 240.656 171.552C241.075 154.307 243.142 116.875 243.142 116.875L225.392 116.875Z" fill="#C33366"/>
<path id="Path_66" opacity="0.5" d="M225.392 116.875C225.392 116.875 224.705 154.833 225.248 170.321C225.818 186.425 231.428 239.159 231.428 239.159H239.969C239.969 239.159 240.285 187.365 240.656 171.552C241.075 154.307 243.142 116.875 243.142 116.875L225.392 116.875Z" fill="white"/>
<path id="Path_67" d="M233.208 232.983C233.165 232.983 233.129 232.95 233.125 232.907C231.615 218.31 228.065 182.992 227.632 170.324C227.172 157.392 227.591 128.378 227.728 119.794C227.728 119.748 227.765 119.711 227.81 119.711C227.857 119.711 227.896 119.747 227.9 119.794C227.762 128.378 227.344 157.392 227.804 170.317C228.25 182.985 231.8 218.289 233.297 232.886C233.297 232.935 233.262 232.976 233.214 232.983H233.208Z" fill="#C33366"/>
<path id="Path_68" opacity="0.4" d="M233.208 232.983C233.165 232.983 233.129 232.95 233.125 232.907C231.615 218.31 228.065 182.992 227.632 170.324C227.172 157.392 227.591 128.378 227.728 119.794C227.728 119.748 227.765 119.711 227.81 119.711C227.857 119.711 227.896 119.747 227.9 119.794C227.762 128.378 227.344 157.392 227.804 170.317C228.25 182.985 231.8 218.289 233.297 232.886C233.297 232.935 233.262 232.976 233.214 232.983H233.208Z" fill="white"/>
<path id="Path_69" d="M229.775 235.734C229.741 235.734 230.263 239.308 230.263 239.308H240.652L240.933 236.121L229.775 235.734Z" fill="#C33366"/>
<path id="Path_70" opacity="0.1" d="M229.775 235.734C229.741 235.734 230.263 239.308 230.263 239.308H240.652L240.933 236.121L229.775 235.734Z" fill="black"/>
</g>
</g>
</svg>
