<svg width="23" height="24" viewBox="0 0 23 24" fill="none" xmlns="http://www.w3.org/2000/svg">
<path d="M22.193 7.17121C22.0362 7.01785 21.8495 6.89623 21.6439 6.81339C21.4383 6.73055 21.2178 6.68814 20.9952 6.68862H17.6106V5.86719C17.6106 4.34219 16.9865 2.87966 15.8757 1.80132C14.765 0.722989 13.2584 0.117188 11.6875 0.117188C10.1166 0.117188 8.61004 0.722989 7.49925 1.80132C6.38846 2.87966 5.76442 4.34219 5.76442 5.86719V6.68862H2.37981C1.93098 6.68862 1.50053 6.8617 1.18317 7.1698C0.865796 7.47789 0.6875 7.89576 0.6875 8.33147V19.4208C0.6875 21.423 2.43269 23.1172 4.49519 23.1172H18.8798C19.8775 23.1175 20.8356 22.7388 21.5494 22.0622C21.9086 21.7295 22.1947 21.3296 22.3903 20.8867C22.5859 20.4437 22.687 19.9669 22.6875 19.4849V8.33147C22.6882 8.11594 22.6448 7.90242 22.56 7.70326C22.4751 7.50411 22.3504 7.32326 22.193 7.17121ZM7.45673 5.86719C7.45673 4.77791 7.90247 3.73324 8.69589 2.963C9.48932 2.19276 10.5654 1.76004 11.6875 1.76004C12.8096 1.76004 13.8857 2.19276 14.6791 2.963C15.4725 3.73324 15.9183 4.77791 15.9183 5.86719V6.68862H7.45673V5.86719ZM17.6106 10.7958C17.6106 12.3208 16.9865 13.7833 15.8757 14.8616C14.765 15.94 13.2584 16.5458 11.6875 16.5458C10.1166 16.5458 8.61004 15.94 7.49925 14.8616C6.38846 13.7833 5.76442 12.3208 5.76442 10.7958V9.97433C5.76442 9.75647 5.85357 9.54754 6.01225 9.39349C6.17094 9.23945 6.38616 9.1529 6.61057 9.1529C6.83499 9.1529 7.05021 9.23945 7.2089 9.39349C7.36758 9.54754 7.45673 9.75647 7.45673 9.97433V10.7958C7.45673 11.885 7.90247 12.9297 8.69589 13.6999C9.48932 14.4702 10.5654 14.9029 11.6875 14.9029C12.8096 14.9029 13.8857 14.4702 14.6791 13.6999C15.4725 12.9297 15.9183 11.885 15.9183 10.7958V9.97433C15.9183 9.75647 16.0074 9.54754 16.1661 9.39349C16.3248 9.23945 16.54 9.1529 16.7644 9.1529C16.9888 9.1529 17.2041 9.23945 17.3627 9.39349C17.5214 9.54754 17.6106 9.75647 17.6106 9.97433V10.7958Z" fill="white"/>
</svg>
