<svg width="12" height="14" viewBox="0 0 12 14" fill="none" xmlns="http://www.w3.org/2000/svg">
<path d="M11.302 9.09705L11.7444 6.53659C11.7704 6.38651 11.7632 6.23258 11.7235 6.08556C11.6837 5.93853 11.6124 5.80196 11.5143 5.6854C11.4163 5.56885 11.294 5.47511 11.156 5.41076C11.0179 5.3464 10.8675 5.31298 10.7152 5.31283H7.46378C7.3879 5.31285 7.31292 5.29635 7.24406 5.26447C7.1752 5.23259 7.11411 5.18611 7.06502 5.12824C7.01593 5.07038 6.98003 5.00252 6.95981 4.92939C6.93959 4.85625 6.93553 4.77959 6.94792 4.70472L7.364 2.16623C7.43152 1.75406 7.41228 1.33235 7.30752 0.928043C7.26269 0.760986 7.17636 0.607973 7.05654 0.483223C6.93673 0.358474 6.78733 0.266036 6.62222 0.214502L6.53122 0.185007C6.32548 0.118918 6.10224 0.13419 5.90742 0.227681C5.69405 0.330602 5.53841 0.518244 5.48068 0.741029L5.18196 1.89198C5.08686 2.25825 4.94866 2.61194 4.77027 2.94566C4.50983 3.43328 4.10694 3.82425 3.68773 4.1851L2.78466 4.96328C2.65938 5.07154 2.56153 5.20795 2.49914 5.36132C2.43674 5.51469 2.41157 5.68066 2.42569 5.84564L2.93528 11.7403C2.95774 12.001 3.07713 12.2438 3.26989 12.4208C3.46264 12.5978 3.71474 12.696 3.9764 12.6961H6.89332C9.0785 12.6961 10.943 11.1737 11.302 9.09705Z" fill="#C33366"/>
<path fill-rule="evenodd" clip-rule="evenodd" d="M0.45064 4.84029C0.571923 4.83499 0.690564 4.87676 0.781781 4.95686C0.872998 5.03697 0.929735 5.14922 0.94014 5.27018L1.54888 12.3215C1.55919 12.4265 1.54799 12.5325 1.51596 12.633C1.48393 12.7336 1.43174 12.8265 1.36258 12.9062C1.29342 12.9859 1.20875 13.0506 1.11373 13.0965C1.01871 13.1423 0.915333 13.1684 0.809922 13.1729C0.704511 13.1775 0.599275 13.1605 0.500641 13.1231C0.402007 13.0856 0.312045 13.0284 0.236251 12.955C0.160457 12.8816 0.100421 12.7935 0.0598092 12.6962C0.0191978 12.5988 -0.00113627 12.4941 4.89876e-05 12.3886V5.31034C0.000100269 5.18902 0.0469949 5.07241 0.130949 4.98483C0.214903 4.89725 0.329432 4.84547 0.45064 4.84029Z" fill="#C33366"/>
</svg>
