<svg width="39" height="32" viewBox="0 0 39 32" fill="none" xmlns="http://www.w3.org/2000/svg">
<path d="M34.6142 8.63529C36.0882 7.51426 37.4149 6.16901 38.4467 4.59956C37.1201 5.19744 35.5723 5.64586 34.0246 5.79533C35.646 4.82377 36.8253 3.32905 37.4149 1.46065C35.9408 2.35748 34.2457 3.0301 32.5506 3.40378C31.0765 1.83433 29.0866 0.9375 26.8755 0.9375C22.6008 0.9375 19.1369 4.45009 19.1369 8.78477C19.1369 9.38265 19.2106 9.98054 19.358 10.5784C12.9459 10.2047 7.1972 7.06584 3.36471 2.35748C2.7014 3.47852 2.33289 4.82377 2.33289 6.31848C2.33289 9.00897 3.65952 11.4005 5.79687 12.8205C4.54394 12.7458 3.29101 12.4468 2.25919 11.8489V11.9237C2.25919 15.7352 4.91245 18.8741 8.45013 19.6215C7.86051 19.7709 7.1235 19.9204 6.46018 19.9204C5.94427 19.9204 5.50206 19.8457 4.98615 19.7709C5.94427 22.9098 8.81863 25.1519 12.2089 25.2267C9.55565 27.3193 6.23908 28.5898 2.6277 28.5898C1.96438 28.5898 1.37477 28.515 0.785156 28.4403C4.17543 30.6824 8.22902 31.9529 12.6511 31.9529C26.8755 31.9529 34.6142 20.0699 34.6142 9.6816C34.6142 9.30792 34.6142 9.00897 34.6142 8.63529Z" fill="#C33366"/>
</svg>
