<svg width="63" height="63" viewBox="0 0 63 63" fill="none" xmlns="http://www.w3.org/2000/svg">
<path d="M60.5657 -2.33594H16.1875V20.6833H68.2837V7.89483C68.2837 5.18146 67.4705 2.57923 66.0231 0.660585C64.5757 -1.25806 62.6126 -2.33594 60.5657 -2.33594Z" fill="#068241"/>
<path d="M16.1875 20.6797H68.2837V41.1412H16.1875V20.6797Z" fill="#EEEEEE"/>
<path d="M16.1875 64.1638H60.5657C62.6126 64.1638 64.5757 63.0859 66.0231 61.1672C67.4705 59.2486 68.2837 56.6464 68.2837 53.933V41.1445H16.1875V64.1638Z" fill="#141414"/>
<path d="M6.53826 -2.33594C4.49134 -2.33594 2.52824 -1.25806 1.08085 0.660586C-0.366548 2.57923 -1.17969 5.18147 -1.17969 7.89483L-1.17969 53.9333C-1.17969 56.6467 -0.366548 59.2489 1.08085 61.1676C2.52824 63.0862 4.49134 64.1641 6.53826 64.1641H16.1857V-2.33594H6.53826Z" fill="#EC2028"/>
</svg>
