<svg width="59" height="59" viewBox="0 0 59 59" fill="none" xmlns="http://www.w3.org/2000/svg">
<mask id="mask0_2566_97640" style="mask-type:alpha" maskUnits="userSpaceOnUse" x="0" y="0" width="59" height="59">
<circle cx="29.5" cy="29.5" r="29.5" fill="#D9D9D9"/>
</mask>
<g mask="url(#mask0_2566_97640)">
<path d="M52.2102 -0.820312H-2.39844V60.9112H52.2102C54.729 60.9112 57.1446 59.9106 58.9257 58.1296C60.7067 56.3485 61.7073 53.9329 61.7073 51.4141V8.67685C61.7073 6.15804 60.7067 3.7424 58.9257 1.96134C57.1446 0.180278 54.729 -0.820312 52.2102 -0.820312ZM29.6544 47.7861C24.9317 47.7861 20.4024 45.91 17.0629 42.5705C13.7234 39.231 11.8473 34.7017 11.8473 29.979C11.8473 21.1466 18.284 13.8362 26.7174 12.433C23.5282 13.9107 20.9395 16.4335 19.3798 19.5835C17.8202 22.7335 17.3833 26.3217 18.1415 29.7539C18.8997 33.1861 20.8075 36.2564 23.5489 38.4563C26.2903 40.6561 29.7009 41.8536 33.2159 41.8504C36.156 41.849 39.0345 41.0072 41.5122 39.4243C43.9898 37.8414 45.9634 35.5832 47.2004 32.916C45.7972 41.3518 38.4868 47.7861 29.6544 47.7861ZM41.787 23.0365L38.907 27.8374L38.4132 22.2602L32.9571 21.0065L38.1093 18.8127L37.6178 13.2355L41.2932 17.4593L46.4454 15.2655L43.5678 20.0687L47.2432 24.2925L41.787 23.0365Z" fill="#004600"/>
<path d="M46.4258 15.2644L41.2736 17.4582L37.5982 13.2344L38.0897 18.8116L32.9375 21.0054L38.3936 22.259L38.8875 27.8363L41.7675 23.0354L47.2236 24.2914L43.5482 20.0676L46.4258 15.2644Z" fill="white"/>
<path d="M33.2124 41.851C29.6974 41.8542 26.2868 40.6568 23.5454 38.4569C20.8039 36.257 18.8962 33.1867 18.138 29.7545C17.3798 26.3223 17.8167 22.7341 19.3763 19.5841C20.9359 16.4341 23.5247 13.9114 26.7139 12.4336C18.2804 13.8392 11.8438 21.1496 11.8438 29.9796C11.8438 34.7023 13.7199 39.2317 17.0593 42.5712C20.3988 45.9107 24.9282 47.7868 29.6509 47.7868C38.4833 47.7868 45.7937 41.3501 47.1969 32.9166C45.9604 35.5842 43.9869 37.8427 41.5091 39.4257C39.0314 41.0087 36.1526 41.8502 33.2124 41.851Z" fill="white"/>
<path d="M79.9062 2.94318C78.1298 -0.109812 74.8615 -2.18359 71.0754 -2.18359H35.1879V2.94318H79.9062ZM-10.9531 49.0842H81.3289V54.211H-10.9531V49.0842ZM35.1879 28.5771H81.3289V33.7038H35.1879V28.5771ZM35.1879 18.3235H81.3289V23.4503H35.1879V18.3235ZM-10.9531 38.8306H81.3289V43.9574H-10.9531V38.8306ZM-0.699564 64.4645H71.0754C74.8615 64.4645 78.1298 62.3907 79.9062 59.3377H-9.53044C-7.75401 62.3907 -4.48569 64.4645 -0.699564 64.4645ZM35.1879 8.06996H81.3289V13.1967H35.1879V8.06996Z" fill="#B22334"/>
<path d="M-10.7788 55.9497C-10.7352 56.1881 -10.6865 56.4265 -10.6276 56.6598C-10.5609 56.9187 -10.4789 57.1673 -10.3917 57.4185C-10.1636 58.0825 -9.88675 58.7233 -9.53813 59.3231L-9.53044 59.336H79.9062L79.9114 59.3257C80.2554 58.7214 80.5404 58.0853 80.7624 57.4262C80.9312 56.9452 81.0615 56.4515 81.152 55.9497C81.2571 55.3858 81.3289 54.8065 81.3289 54.2092H-10.9531C-10.9531 54.8065 -10.8814 55.3832 -10.7788 55.9497ZM-10.9531 43.9556H81.3289V49.0824H-10.9531V43.9556ZM-10.9531 33.7021V38.8288H81.3289V33.7021H35.1879H-10.9531ZM35.1879 23.4485H81.3289V28.5753H35.1879V23.4485ZM35.1879 13.195H81.3289V18.3217H35.1879V13.195ZM-9.53044 2.94141L-9.53813 2.95422L-9.53044 2.94141ZM-10.625 5.61758C-10.5609 5.35612 -10.4712 5.10747 -10.3892 4.85626C-10.4782 5.10669 -10.5569 5.36068 -10.625 5.61758ZM35.1879 8.06818H81.3289C81.3289 7.47091 81.2571 6.89159 81.152 6.32508C81.0623 5.82293 80.9311 5.32907 80.7598 4.84857C80.5377 4.18673 80.2518 3.54802 79.9062 2.94141H35.1879V8.06818Z" fill="#EEEEEE"/>
<path d="M35.1879 -2.18359H-0.699563C-3.41898 -2.18359 -6.02701 -1.10331 -7.94993 0.819605C-9.87284 2.74252 -10.9531 5.35056 -10.9531 8.06997L-10.9531 33.7039H35.1879V-2.18359Z" fill="#3C3B6E"/>
<path d="M-5.8125 4.80243L-4.22833 5.95339L-4.83329 7.81185L-3.25167 6.66345L-1.6675 7.81185L-2.27246 5.95339L-0.688285 4.80243H-2.64671L-3.25167 2.94141L-3.85407 4.80243H-5.8125ZM-0.685722 9.92921L0.898452 11.0802L0.293492 12.9386L1.8751 11.7902L3.45928 12.9386L2.85432 11.0802L4.43849 9.92921H2.48006L1.8751 8.06819L1.27271 9.92921H-0.685722ZM9.56783 9.92921L11.152 11.0802L10.547 12.9386L12.1287 11.7902L13.7128 12.9386L13.1079 11.0802L14.692 9.92921H12.7336L12.1287 8.06819L11.5263 9.92921H9.56783ZM19.8214 9.92921L21.4056 11.0802L20.8006 12.9386L22.3822 11.7902L23.9664 12.9386L23.3614 11.0802L24.9456 9.92921H22.9872L22.3822 8.06819L21.7798 9.92921H19.8214ZM-0.685722 20.1828L0.898452 21.3337L0.293492 23.1922L1.8751 22.0438L3.45928 23.1922L2.85432 21.3337L4.43849 20.1828H2.48006L1.8751 18.3217L1.27271 20.1828H-0.685722ZM9.56783 20.1828L11.152 21.3337L10.547 23.1922L12.1287 22.0438L13.7128 23.1922L13.1079 21.3337L14.692 20.1828H12.7336L12.1287 18.3217L11.5263 20.1828H9.56783ZM19.8214 20.1828L21.4056 21.3337L20.8006 23.1922L22.3822 22.0438L23.9664 23.1922L23.3614 21.3337L24.9456 20.1828H22.9872L22.3822 18.3217L21.7798 20.1828H19.8214ZM4.44106 4.80243L6.02523 5.95339L5.42027 7.81185L7.00188 6.66345L8.58606 7.81185L7.9811 5.95339L9.56527 4.80243H7.60684L7.00188 2.94141L6.39948 4.80243H4.44106ZM14.6946 4.80243L16.2788 5.95339L15.6738 7.81185L17.2554 6.66345L18.8396 7.81185L18.2347 5.95339L19.8188 4.80243H17.8604L17.2554 2.94141L16.653 4.80243H14.6946ZM24.9482 4.80243L26.5323 5.95339L25.9274 7.81185L27.509 6.66345L29.0932 7.81185L28.4882 5.95339L30.0724 4.80243H28.114L27.509 2.94141L26.9066 4.80243H24.9482ZM-5.8125 15.056L-4.22833 16.207L-4.83329 18.0654L-3.25167 16.917L-1.6675 18.0654L-2.27246 16.207L-0.688285 15.056H-2.64671L-3.25167 13.195L-3.85407 15.056H-5.8125ZM5.42027 18.0654L7.00188 16.917L8.58606 18.0654L7.9811 16.207L9.56527 15.056H7.60684L7.00188 13.195L6.39948 15.056H4.44106L6.02523 16.207L5.42027 18.0654ZM14.6946 15.056L16.2788 16.207L15.6738 18.0654L17.2554 16.917L18.8396 18.0654L18.2347 16.207L19.8188 15.056H17.8604L17.2554 13.195L16.653 15.056H14.6946ZM24.9482 15.056L26.5323 16.207L25.9274 18.0654L27.509 16.917L29.0932 18.0654L28.4882 16.207L30.0724 15.056H28.114L27.509 13.195L26.9066 15.056H24.9482ZM-5.8125 25.3095L-4.22833 26.4605L-4.83329 28.319L-3.25167 27.1706L-1.6675 28.319L-2.27246 26.4605L-0.688285 25.3095H-2.64671L-3.25167 23.4485L-3.85407 25.3095H-5.8125ZM5.42027 28.319L7.00188 27.1706L8.58606 28.319L7.9811 26.4605L9.56527 25.3095H7.60684L7.00188 23.4485L6.39948 25.3095H4.44106L6.02523 26.4605L5.42027 28.319ZM14.6946 25.3095L16.2788 26.4605L15.6738 28.319L17.2554 27.1706L18.8396 28.319L18.2347 26.4605L19.8188 25.3095H17.8604L17.2554 23.4485L16.653 25.3095H14.6946ZM24.9482 25.3095L26.5323 26.4605L25.9274 28.319L27.509 27.1706L29.0932 28.319L28.4882 26.4605L30.0724 25.3095H28.114L27.509 23.4485L26.9066 25.3095H24.9482Z" fill="white"/>
</g>
</svg>
