<svg width="16" height="16" viewBox="0 0 16 16" fill="none" xmlns="http://www.w3.org/2000/svg">
<circle cx="8" cy="8" r="7.5" fill="white" stroke="#5F5F5F"/>
<path fill-rule="evenodd" clip-rule="evenodd" d="M5.6699 6.30533C5.4704 6.30533 5.30884 6.14733 5.33974 5.96067C5.53292 4.82667 6.4433 4 8.02312 4C9.60365 4 10.6693 4.90667 10.6693 6.14333C10.6693 7.03933 10.2021 7.66867 9.41188 8.12533C8.63918 8.56467 8.4186 8.87067 8.4186 9.46533V9.48533C8.4186 9.57374 8.3816 9.65852 8.31573 9.72104C8.24986 9.78355 8.16053 9.81867 8.06738 9.81867H7.52649C7.43394 9.81867 7.34513 9.78401 7.27937 9.72222C7.2136 9.66042 7.17618 9.57649 7.17526 9.48867L7.17315 9.35533C7.14295 8.54133 7.50822 8.02133 8.32869 7.54733C9.05222 7.126 9.31002 6.79067 9.31002 6.19533C9.31002 5.54267 8.77756 5.06333 7.95709 5.06333C7.24831 5.06333 6.75589 5.416 6.59573 5.998C6.54937 6.16733 6.40045 6.30533 6.21641 6.30533H5.6699ZM7.79201 12C8.22894 12 8.5612 11.684 8.5612 11.2733C8.5612 10.8613 8.22894 10.5453 7.79201 10.5453C7.36633 10.5453 7.02845 10.8613 7.02845 11.2727C7.02845 11.684 7.36633 12 7.79201 12Z" fill="#5F5F5F"/>
</svg>
