<svg width="250" height="267" viewBox="0 0 250 267" fill="none" xmlns="http://www.w3.org/2000/svg">
<path fill-rule="evenodd" clip-rule="evenodd" d="M42.4339 265.717C44.4409 265.717 98.428 252.394 98.428 252.394L152.056 247.675L219.031 246.763L194.909 116.968L179.002 81.6758L42.4339 246.091C42.4339 246.091 37.3342 265.717 42.4339 265.717Z" fill="url(#paint0_linear_2503_48712)"/>
<mask id="path-2-outside-1_2503_48712" maskUnits="userSpaceOnUse" x="7.86907" y="63.8392" width="206.617" height="204.123" fill="black">
<rect fill="white" x="7.86907" y="63.8392" width="206.617" height="204.123"/>
<path fill-rule="evenodd" clip-rule="evenodd" d="M128.652 98.2631L179.438 72.1483C180.368 71.6697 181.495 72.2411 181.659 73.2749L204.078 214.824C204.182 215.48 203.853 216.128 203.263 216.432L152.344 242.615C152.081 242.75 151.802 242.802 151.534 242.782C151.287 242.881 151.009 242.917 150.721 242.87L94.3484 233.727L43.5585 259.844C42.6277 260.322 41.5011 259.751 41.3374 258.717L18.9181 117.168C18.8143 116.512 19.1431 115.864 19.7334 115.56L70.6523 89.3772C70.9134 89.2429 71.1898 89.1913 71.4562 89.2093C71.7047 89.1089 71.9847 89.0721 72.2757 89.1193L128.652 98.2631Z"/>
</mask>
<path fill-rule="evenodd" clip-rule="evenodd" d="M128.652 98.2631L179.438 72.1483C180.368 71.6697 181.495 72.2411 181.659 73.2749L204.078 214.824C204.182 215.48 203.853 216.128 203.263 216.432L152.344 242.615C152.081 242.75 151.802 242.802 151.534 242.782C151.287 242.881 151.009 242.917 150.721 242.87L94.3484 233.727L43.5585 259.844C42.6277 260.322 41.5011 259.751 41.3374 258.717L18.9181 117.168C18.8143 116.512 19.1431 115.864 19.7334 115.56L70.6523 89.3772C70.9134 89.2429 71.1898 89.1913 71.4562 89.2093C71.7047 89.1089 71.9847 89.0721 72.2757 89.1193L128.652 98.2631Z" fill="#ADE1F1"/>
<path d="M179.438 72.1483L182.249 77.6163L182.249 77.6163L179.438 72.1483ZM128.652 98.2631L127.667 104.332L129.664 104.656L131.463 103.731L128.652 98.2631ZM203.263 216.432L206.074 221.9L206.074 221.9L203.263 216.432ZM152.344 242.615L155.155 248.083L155.156 248.083L152.344 242.615ZM151.534 242.782L151.971 236.649L150.564 236.549L149.255 237.072L151.534 242.782ZM150.721 242.87L149.736 248.939L149.736 248.939L150.721 242.87ZM94.3484 233.727L95.3328 227.658L93.3358 227.334L91.5367 228.259L94.3484 233.727ZM43.5585 259.844L46.3702 265.312L46.3702 265.312L43.5585 259.844ZM19.7334 115.56L22.5451 121.028L22.5451 121.028L19.7334 115.56ZM70.6523 89.3772L73.464 94.8451L73.464 94.8451L70.6523 89.3772ZM71.4562 89.2093L71.0416 95.3438L72.45 95.439L73.7588 94.9103L71.4562 89.2093ZM72.2757 89.1193L71.2913 95.1885L71.2913 95.1885L72.2757 89.1193ZM176.626 66.6803L125.84 92.7951L131.463 103.731L182.249 77.6163L176.626 66.6803ZM187.732 72.313C186.913 67.1441 181.28 64.2871 176.626 66.6804L182.249 77.6163C179.457 79.0523 176.077 77.3381 175.586 74.2367L187.732 72.313ZM210.151 213.863L187.732 72.313L175.586 74.2367L198.005 215.786L210.151 213.863ZM206.074 221.9C209.026 220.382 210.67 217.141 210.151 213.863L198.005 215.786C197.694 213.819 198.68 211.875 200.451 210.964L206.074 221.9ZM155.156 248.083L206.074 221.9L200.451 210.964L149.532 237.147L155.156 248.083ZM151.098 248.915C152.461 249.012 153.866 248.746 155.155 248.083L149.532 237.147C150.296 236.754 151.144 236.591 151.971 236.649L151.098 248.915ZM149.736 248.939C151.152 249.169 152.557 248.995 153.814 248.493L149.255 237.072C150.017 236.768 150.866 236.665 151.705 236.801L149.736 248.939ZM93.364 239.796L149.736 248.939L151.705 236.801L95.3328 227.658L93.364 239.796ZM46.3702 265.312L97.1601 239.195L91.5367 228.259L40.7468 254.376L46.3702 265.312ZM35.2645 259.679C36.0832 264.848 41.7161 267.705 46.3702 265.312L40.7468 254.376C43.5393 252.94 46.919 254.654 47.4102 257.755L35.2645 259.679ZM12.8453 118.13L35.2645 259.679L47.4102 257.755L24.991 116.206L12.8453 118.13ZM16.9217 110.092C13.97 111.61 12.3261 114.851 12.8453 118.13L24.991 116.206C25.3025 118.173 24.3162 120.118 22.5451 121.028L16.9217 110.092ZM67.8406 83.9092L16.9217 110.092L22.5451 121.028L73.464 94.8451L67.8406 83.9092ZM71.8708 83.0747C70.5162 82.9832 69.1209 83.2508 67.8406 83.9092L73.464 94.8451C72.7058 95.235 71.8635 95.3994 71.0416 95.3438L71.8708 83.0747ZM73.2601 83.05C71.8328 82.8185 70.4173 82.9977 69.1535 83.5082L73.7588 94.9103C72.992 95.2201 72.1366 95.3256 71.2913 95.1885L73.2601 83.05ZM129.636 92.1938L73.2601 83.05L71.2913 95.1885L127.667 104.332L129.636 92.1938Z" fill="url(#paint1_linear_2503_48712)" mask="url(#path-2-outside-1_2503_48712)"/>
<path fill-rule="evenodd" clip-rule="evenodd" d="M18.9276 117.167C18.8238 116.512 19.1525 115.863 19.7429 115.56L70.6618 89.3768C71.5926 88.8981 72.7192 89.4695 72.8829 90.5033L95.3021 232.053C95.406 232.708 95.0772 233.357 94.4868 233.66L43.568 259.843C42.6372 260.322 41.5106 259.751 41.3468 258.717L18.9276 117.167Z" fill="#ADE1F1"/>
<path fill-rule="evenodd" clip-rule="evenodd" d="M32.4248 203.387C32.319 202.73 32.6478 202.08 33.2395 201.776L84.1608 175.591C85.0901 175.113 86.2151 175.682 86.3813 176.714L95.2949 232.048C95.4007 232.704 95.0719 233.355 94.4803 233.659L43.5589 259.843C42.6296 260.321 41.5046 259.753 41.3384 258.721L32.4248 203.387Z" fill="#ADF1AF"/>
<path fill-rule="evenodd" clip-rule="evenodd" d="M127.704 99.9369C127.601 99.2812 127.929 98.633 128.52 98.3294L179.439 72.1463C180.369 71.6676 181.496 72.239 181.66 73.2728L204.079 214.822C204.183 215.478 203.854 216.126 203.264 216.43L152.345 242.613C151.414 243.092 150.287 242.52 150.124 241.486L127.704 99.9369Z" fill="#ADE1F1"/>
<path fill-rule="evenodd" clip-rule="evenodd" d="M141.495 187.512L161.848 197.522L197.081 180.418C198.017 179.964 199.124 180.551 199.274 181.581L204.092 214.835C204.186 215.484 203.857 216.122 203.274 216.422L152.339 242.614C151.408 243.092 150.283 242.522 150.118 241.489L141.495 187.512Z" fill="#ADF1AF"/>
<path fill-rule="evenodd" clip-rule="evenodd" d="M130.067 99.5658C129.963 98.9101 129.45 98.3952 128.795 98.2889L72.2769 89.1221C71.2437 88.9545 70.3489 89.8461 70.5126 90.8799L92.9318 232.429C93.0357 233.085 93.5487 233.6 94.2039 233.706L150.722 242.873C151.755 243.041 152.65 242.149 152.486 241.115L130.067 99.5658Z" fill="#9AD6E9"/>
<path fill-rule="evenodd" clip-rule="evenodd" d="M127.012 184.454C126.45 184.297 126.026 183.834 125.917 183.261L120.196 153.127L81.6876 146.881C80.6563 146.714 79.7622 147.602 79.9225 148.634L92.9366 232.421C93.0388 233.078 93.5525 233.596 94.2095 233.702L150.73 242.869C151.762 243.037 152.656 242.149 152.495 241.116L144.454 189.344L127.012 184.454Z" fill="#9AE99C"/>
<path d="M29.011 202.065L81.9938 176.997L76.3673 144.805L89.6632 147.245L121.216 150.919L126.522 184.787L142.135 187.46L161.395 197.415L201.382 178.549" stroke="white" stroke-width="9.22282" stroke-linejoin="round"/>
<path d="M76.3971 154.477L55.5629 149.818L50.7345 122.67L63.5535 115.269L60.4742 93.2278" stroke="white" stroke-width="4.61141" stroke-linejoin="round"/>
<path d="M54.8091 193.023L73.0707 206.907L88.2937 199.978L146.692 210.399L151.909 246.229" stroke="white" stroke-width="4.61141" stroke-linejoin="round"/>
<path d="M123.113 150.713L118.475 115.67L132.27 118.764L150.222 143.368L179.55 129.822L189.258 103.247" stroke="white" stroke-width="4.61141" stroke-linejoin="round"/>
<path fill-rule="evenodd" clip-rule="evenodd" d="M208.09 203.082L106.5 151.543L121.569 145.854L131.46 151.543L177.846 84.0586H188.61L208.09 203.082Z" fill="url(#paint2_linear_2503_48712)"/>
<path d="M45.4246 35.9893L28.8788 24.994C27.1443 23.8413 24.8217 24.3126 23.6912 26.0467C22.5608 27.7807 23.0505 30.1209 24.7851 31.2736L41.3308 42.2689C43.0654 43.4216 45.388 42.9503 46.5184 41.2163C47.6489 39.4822 47.1591 37.142 45.4246 35.9893Z" fill="url(#paint3_linear_2503_48712)"/>
<path d="M36.6537 49.9335L17.0662 46.6185C15.0128 46.271 13.0827 47.6462 12.7553 49.6901C12.4278 51.7341 13.8271 53.6727 15.8805 54.0202L35.468 57.3352C37.5215 57.6827 39.4516 56.3075 39.779 54.2636C40.1064 52.2196 38.7072 50.281 36.6537 49.9335Z" fill="url(#paint4_linear_2503_48712)"/>
<path d="M60.1253 27.4211L51.2939 9.62596C50.3681 7.76041 48.121 7.00727 46.275 7.94377C44.429 8.88028 43.683 11.1518 44.6089 13.0174L53.4402 30.8124C54.3661 32.678 56.6131 33.4311 58.4591 32.4946C60.3052 31.5581 61.0511 29.2866 60.1253 27.4211Z" fill="url(#paint5_linear_2503_48712)"/>
<path d="M204.678 43.6629L223.149 36.348C225.085 35.5811 227.259 36.525 228.004 38.4561C228.749 40.3873 227.784 42.5746 225.847 43.3414L207.377 50.6564C205.441 51.4233 203.267 50.4794 202.522 48.5482C201.776 46.617 202.742 44.4298 204.678 43.6629Z" fill="url(#paint6_linear_2503_48712)"/>
<path d="M210.355 59.1231L230.204 59.953C232.285 60.04 233.887 61.7865 233.782 63.8538C233.677 65.9211 231.906 67.5265 229.825 67.4395L209.976 66.6096C207.895 66.5226 206.293 64.7761 206.398 62.7088C206.503 60.6414 208.274 59.0361 210.355 59.1231Z" fill="url(#paint7_linear_2503_48712)"/>
<path d="M192.075 32.2255L204.414 16.6554C205.707 15.0231 208.062 14.7536 209.672 16.0535C211.283 17.3533 211.541 19.7303 210.247 21.3626L197.909 36.9327C196.616 38.565 194.261 38.8345 192.65 37.5346C191.039 36.2348 190.782 33.8578 192.075 32.2255Z" fill="url(#paint8_linear_2503_48712)"/>
<path fill-rule="evenodd" clip-rule="evenodd" d="M108.115 45.354C107.454 45.4023 106.791 45.4671 106.126 45.5487C83.8726 48.2811 68.0841 68.8316 70.8612 91.4496C71.3055 95.0679 72.198 98.5199 73.475 101.755L73.471 101.767C79.5221 117.485 90.7206 139.204 109.93 154.527C115.623 153.04 120.988 152.164 121.224 152.125L115.794 107.898C115.15 108.043 114.493 108.158 113.825 108.24C102.88 109.584 92.9155 101.774 91.5676 90.7957C90.2197 79.8177 97.999 69.829 108.943 68.4852C109.612 68.4031 110.277 68.3552 110.937 68.3401L108.115 45.354Z" fill="url(#paint9_linear_2503_48712)"/>
<path fill-rule="evenodd" clip-rule="evenodd" d="M98.8062 46.6857C98.1467 46.7344 97.4849 46.7993 96.8214 46.8808C74.5682 49.6131 58.7502 69.9235 61.4909 92.2453C62.1233 97.3959 63.6886 102.203 65.9959 106.519C78.2331 131.625 110.07 154.789 110.07 154.789C110.07 154.789 110.714 154.041 111.819 152.671L106.354 108.16C105.712 108.305 105.057 108.419 104.389 108.501C93.4451 109.844 83.4803 102.034 82.1324 91.0565C80.7845 80.0785 88.5638 70.0898 99.508 68.746C100.175 68.6641 100.839 68.6162 101.497 68.601L98.8062 46.6857Z" fill="url(#paint10_linear_2503_48712)"/>
<path fill-rule="evenodd" clip-rule="evenodd" d="M133.717 46.4481C134.378 46.4739 135.041 46.5158 135.707 46.574C158 48.5244 174.498 68.1022 172.555 90.3023C172.091 95.6103 170.614 100.588 168.332 105.062C161.807 120.071 149.766 134.786 133.383 153.272C130.268 152.098 124.969 150.155 124.969 150.155C124.969 150.155 124.866 150.052 124.671 149.852L128.385 107.396C129.032 107.518 129.691 107.609 130.361 107.668C141.325 108.627 150.995 100.465 151.959 89.4385C152.924 78.4115 144.818 68.6948 133.855 67.7356C133.185 67.677 132.52 67.6524 131.862 67.6605L133.717 46.4481Z" fill="url(#paint11_linear_2503_48712)"/>
<path fill-rule="evenodd" clip-rule="evenodd" d="M142.421 46.9837C143.082 47.0092 143.746 47.0509 144.412 47.1092C166.705 49.0595 183.187 68.8169 181.225 91.2384C180.772 96.4127 179.377 101.277 177.224 105.674C165.886 131.214 134.929 155.501 134.929 155.501C134.929 155.501 134.26 154.773 133.107 153.439L137.019 108.73C137.666 108.852 138.325 108.943 138.994 109.002C149.958 109.961 159.628 101.8 160.593 90.7726C161.557 79.7456 153.452 70.0289 142.488 69.0697C141.818 69.0111 141.153 68.9866 140.495 68.9946L142.421 46.9837Z" fill="url(#paint12_linear_2503_48712)"/>
<defs>
<linearGradient id="paint0_linear_2503_48712" x1="256.25" y1="241.229" x2="234.891" y2="191.075" gradientUnits="userSpaceOnUse">
<stop stop-color="#C8D4DE" stop-opacity="0.01"/>
<stop offset="1" stop-color="#DEEAF4"/>
</linearGradient>
<linearGradient id="paint1_linear_2503_48712" x1="-61.5397" y1="175.752" x2="89.315" y2="303.122" gradientUnits="userSpaceOnUse">
<stop stop-color="#EFF6FF"/>
<stop offset="1" stop-color="white"/>
</linearGradient>
<linearGradient id="paint2_linear_2503_48712" x1="166.676" y1="176.682" x2="114.672" y2="133.054" gradientUnits="userSpaceOnUse">
<stop stop-color="#80C9C7" stop-opacity="0.01"/>
<stop offset="1" stop-color="#3E80B3"/>
</linearGradient>
<linearGradient id="paint3_linear_2503_48712" x1="21.728" y1="26.6406" x2="33.9448" y2="48.6802" gradientUnits="userSpaceOnUse">
<stop stop-color="#E8F1F5"/>
<stop offset="1" stop-color="#E5EAF0"/>
</linearGradient>
<linearGradient id="paint4_linear_2503_48712" x1="11.2034" y1="51.0312" x2="31.3282" y2="66.1964" gradientUnits="userSpaceOnUse">
<stop stop-color="#E8F1F5"/>
<stop offset="1" stop-color="#E5EAF0"/>
</linearGradient>
<linearGradient id="paint5_linear_2503_48712" x1="44.2778" y1="7.47656" x2="43.838" y2="32.6718" gradientUnits="userSpaceOnUse">
<stop stop-color="#E8F1F5"/>
<stop offset="1" stop-color="#E5EAF0"/>
</linearGradient>
<linearGradient id="paint6_linear_2503_48712" x1="229.801" y1="39.4453" x2="213.269" y2="58.4633" gradientUnits="userSpaceOnUse">
<stop stop-color="#E8F1F5"/>
<stop offset="1" stop-color="#E5EAF0"/>
</linearGradient>
<linearGradient id="paint7_linear_2503_48712" x1="235.021" y1="65.4883" x2="212.183" y2="76.1379" gradientUnits="userSpaceOnUse">
<stop stop-color="#E8F1F5"/>
<stop offset="1" stop-color="#E5EAF0"/>
</linearGradient>
<linearGradient id="paint8_linear_2503_48712" x1="211.723" y1="16.0117" x2="206.915" y2="40.7478" gradientUnits="userSpaceOnUse">
<stop stop-color="#E8F1F5"/>
<stop offset="1" stop-color="#E5EAF0"/>
</linearGradient>
<linearGradient id="paint9_linear_2503_48712" x1="74.8501" y1="62.6182" x2="140.175" y2="116.055" gradientUnits="userSpaceOnUse">
<stop stop-color="#C33366"/>
<stop offset="1" stop-color="#E46B80"/>
</linearGradient>
<linearGradient id="paint10_linear_2503_48712" x1="31.3269" y1="208.462" x2="111.405" y2="197.234" gradientUnits="userSpaceOnUse">
<stop stop-color="#C33366"/>
<stop offset="1" stop-color="#FF8194"/>
</linearGradient>
<linearGradient id="paint11_linear_2503_48712" x1="171.635" y1="76.4426" x2="108.699" y2="113.811" gradientUnits="userSpaceOnUse">
<stop stop-color="#C33366"/>
<stop offset="1" stop-color="#FFA2AB"/>
</linearGradient>
<linearGradient id="paint12_linear_2503_48712" x1="218.459" y1="203.673" x2="137.88" y2="196.623" gradientUnits="userSpaceOnUse">
<stop stop-color="#C33366"/>
<stop offset="1" stop-color="#FF8194"/>
</linearGradient>
</defs>
</svg>
