<svg width="51" height="64" viewBox="0 0 51 64" fill="none" xmlns="http://www.w3.org/2000/svg">
<path d="M38.1106 0.952979C37.9786 0.805364 33.2199 1.01125 29.0789 5.50576C24.9379 9.99639 25.575 15.1474 25.6682 15.2795C25.7614 15.4116 31.5728 15.6174 35.2826 10.3926C38.9925 5.1678 38.2427 1.10448 38.1106 0.952979M50.9843 46.5313C50.7978 46.1584 41.9525 41.7377 42.7761 33.2381C43.5996 24.7347 49.2828 22.4039 49.3722 22.1514C49.4615 21.8989 47.0531 19.0825 44.5009 17.6569C42.627 16.6517 40.553 16.0759 38.4292 15.9709C38.0096 15.9593 36.5529 15.6019 33.5579 16.4216C31.5845 16.9615 27.1366 18.7096 25.9129 18.7795C24.6854 18.8494 21.0338 16.7517 17.1065 16.1962C14.5931 15.7107 11.9283 16.7051 10.0209 17.4704C8.11746 18.2318 4.49699 20.3994 1.96422 26.1603C-0.56856 31.9173 0.756097 41.0384 1.70395 43.8742C2.65179 46.7061 4.13184 51.3482 6.64907 54.7356C8.88662 58.5581 11.8545 61.2113 13.0937 62.1125C14.3329 63.0137 17.829 63.612 20.253 62.3728C22.2031 61.1763 25.7226 60.4887 27.1133 60.5392C28.5001 60.5897 31.2349 61.1375 34.0357 62.633C36.2538 63.3983 38.3515 63.0798 40.4531 62.2252C42.5547 61.3667 45.5963 58.1113 49.1469 51.5114C50.4948 48.4425 51.1086 46.7838 50.9843 46.5313" fill="white"/>
<path d="M38.1106 0.952979C37.9786 0.805364 33.2199 1.01125 29.0789 5.50576C24.9379 9.99639 25.575 15.1474 25.6682 15.2795C25.7614 15.4116 31.5728 15.6174 35.2826 10.3926C38.9925 5.1678 38.2427 1.10448 38.1106 0.952979M50.9843 46.5313C50.7978 46.1584 41.9525 41.7377 42.7761 33.2381C43.5996 24.7347 49.2828 22.4039 49.3722 22.1514C49.4615 21.8989 47.0531 19.0825 44.5009 17.6569C42.627 16.6517 40.553 16.0759 38.4292 15.9709C38.0096 15.9593 36.5529 15.6019 33.5579 16.4216C31.5845 16.9615 27.1366 18.7096 25.9129 18.7795C24.6854 18.8494 21.0338 16.7517 17.1065 16.1962C14.5931 15.7107 11.9283 16.7051 10.0209 17.4704C8.11746 18.2318 4.49699 20.3994 1.96422 26.1603C-0.56856 31.9173 0.756097 41.0384 1.70395 43.8742C2.65179 46.7061 4.13184 51.3482 6.64907 54.7356C8.88662 58.5581 11.8545 61.2113 13.0937 62.1125C14.3329 63.0137 17.829 63.612 20.253 62.3728C22.2031 61.1763 25.7226 60.4887 27.1133 60.5392C28.5001 60.5897 31.2349 61.1375 34.0357 62.633C36.2538 63.3983 38.3515 63.0798 40.4531 62.2252C42.5547 61.3667 45.5963 58.1113 49.1469 51.5114C50.4948 48.4425 51.1086 46.7838 50.9843 46.5313" fill="white"/>
</svg>
