<svg width="33" height="33" viewBox="0 0 33 33" fill="none" xmlns="http://www.w3.org/2000/svg">
<path d="M16.2784 21.6071L9.95638 27.9291C9.58245 28.3045 9.13809 28.6024 8.64877 28.8057C8.15945 29.0089 7.63481 29.1135 7.10496 29.1135C6.5751 29.1135 6.05047 29.0089 5.56115 28.8057C5.07183 28.6024 4.62746 28.3045 4.25354 27.9291C3.87617 27.5563 3.57656 27.1123 3.37208 26.6228C3.16759 26.1334 3.0623 25.6082 3.0623 25.0777C3.0623 24.5473 3.16759 24.0221 3.37208 23.5326C3.57656 23.0431 3.87617 22.5991 4.25354 22.2263L10.5755 15.9043C10.8824 15.5975 11.0547 15.1813 11.0547 14.7474C11.0547 14.3135 10.8824 13.8974 10.5755 13.5906C10.2687 13.2838 9.85259 13.1114 9.41868 13.1114C8.98477 13.1114 8.56864 13.2838 8.26182 13.5906L1.93981 19.9289C0.666216 21.3151 -0.0225828 23.1398 0.0172621 25.0219C0.057107 26.904 0.822515 28.6979 2.15364 30.029C3.48477 31.3602 5.27868 32.1256 7.16076 32.1654C9.04283 32.2053 10.8675 31.5165 12.2538 30.2429L18.5921 23.9209C18.8989 23.614 19.0713 23.1979 19.0713 22.764C19.0713 22.3301 18.8989 21.914 18.5921 21.6071C18.2853 21.3003 17.8692 21.1279 17.4352 21.1279C17.0013 21.1279 16.5852 21.3003 16.2784 21.6071ZM10.934 21.2487C11.0863 21.3997 11.2668 21.5192 11.4653 21.6002C11.6639 21.6813 11.8764 21.7224 12.0909 21.7212C12.3053 21.7224 12.5179 21.6813 12.7164 21.6002C12.9149 21.5192 13.0955 21.3997 13.2477 21.2487L21.2643 13.2321C21.5711 12.9253 21.7435 12.5092 21.7435 12.0752C21.7435 11.6413 21.5711 11.2252 21.2643 10.9184C20.9575 10.6116 20.5413 10.4392 20.1074 10.4392C19.6735 10.4392 19.2574 10.6116 18.9506 10.9184L10.934 18.9349C10.7813 19.0864 10.6601 19.2666 10.5773 19.4652C10.4946 19.6637 10.452 19.8767 10.452 20.0918C10.452 20.3069 10.4946 20.5199 10.5773 20.7184C10.6601 20.917 10.7813 21.0972 10.934 21.2487ZM30.7636 25.8598H29.1342V24.2304C29.1342 23.7983 28.9626 23.3839 28.657 23.0783C28.3514 22.7727 27.937 22.6011 27.5048 22.6011C27.0727 22.6011 26.6583 22.7727 26.3527 23.0783C26.0471 23.3839 25.8755 23.7983 25.8755 24.2304V25.8598H24.2461C23.8139 25.8598 23.3995 26.0315 23.0939 26.3371C22.7884 26.6426 22.6167 27.0571 22.6167 27.4892C22.6167 27.9213 22.7884 28.3358 23.0939 28.6414C23.3995 28.9469 23.8139 29.1186 24.2461 29.1186H25.8755V30.748C25.8755 31.1801 26.0471 31.5946 26.3527 31.9001C26.6583 32.2057 27.0727 32.3774 27.5048 32.3774C27.937 32.3774 28.3514 32.2057 28.657 31.9001C28.9626 31.5946 29.1342 31.1801 29.1342 30.748V29.1186H30.7636C31.1957 29.1186 31.6102 28.9469 31.9157 28.6414C32.2213 28.3358 32.393 27.9213 32.393 27.4892C32.393 27.0571 32.2213 26.6426 31.9157 26.3371C31.6102 26.0315 31.1957 25.8598 30.7636 25.8598ZM23.9365 18.5765L30.2585 12.2382C31.5321 10.8519 32.2209 9.02721 32.181 7.14513C32.1412 5.26306 31.3758 3.46914 30.0447 2.13802C28.7135 0.80689 26.9196 0.041482 25.0375 0.0016371C23.1555 -0.0382078 21.3308 0.650591 19.9445 1.92419L13.6062 8.24619C13.4543 8.39812 13.3338 8.57847 13.2515 8.77697C13.1693 8.97546 13.127 9.18821 13.127 9.40306C13.127 9.61791 13.1693 9.83065 13.2515 10.0291C13.3338 10.2276 13.4543 10.408 13.6062 10.5599C13.7581 10.7118 13.9385 10.8323 14.137 10.9146C14.3355 10.9968 14.5482 11.0391 14.7631 11.0391C14.9779 11.0391 15.1907 10.9968 15.3891 10.9146C15.5876 10.8323 15.768 10.7118 15.9199 10.5599L22.2419 4.23791C22.6158 3.86251 23.0602 3.56464 23.5495 3.36139C24.0389 3.15814 24.5635 3.05351 25.0933 3.05351C25.6232 3.05351 26.1478 3.15814 26.6372 3.36139C27.1265 3.56464 27.5708 3.86251 27.9448 4.23791C28.3221 4.61073 28.6217 5.05474 28.8262 5.54421C29.0307 6.03368 29.136 6.55887 29.136 7.08933C29.136 7.6198 29.0307 8.14499 28.8262 8.63446C28.6217 9.12393 28.3221 9.56794 27.9448 9.94075L21.6228 16.2628C21.47 16.4142 21.3488 16.5944 21.2661 16.793C21.1834 16.9916 21.1408 17.2045 21.1408 17.4196C21.1408 17.6347 21.1834 17.8477 21.2661 18.0462C21.3488 18.2448 21.47 18.425 21.6228 18.5765C21.7742 18.7292 21.9544 18.8504 22.153 18.9331C22.3516 19.0159 22.5645 19.0585 22.7796 19.0585C22.9947 19.0585 23.2077 19.0159 23.4062 18.9331C23.6048 18.8504 23.785 18.7292 23.9365 18.5765Z" fill="#B1B1B1"/>
</svg>
