<svg width="23" height="29" viewBox="0 0 23 29" fill="none" xmlns="http://www.w3.org/2000/svg">
<path d="M11.0879 28.5C12.6956 28.5 14.011 27.1846 14.011 25.5769H8.16485C8.16485 26.3522 8.47282 27.0957 9.021 27.6439C9.56918 28.192 10.3127 28.5 11.0879 28.5ZM19.8572 19.7308V12.4231C19.8572 7.93615 17.4602 4.18 13.2802 3.18615V2.19231C13.2802 0.979231 12.301 0 11.0879 0C9.87485 0 8.89562 0.979231 8.89562 2.19231V3.18615C4.701 4.18 2.3187 7.92154 2.3187 12.4231V19.7308L0.433313 21.6162C-0.487456 22.5369 0.15562 24.1154 1.45639 24.1154H20.7048C22.0056 24.1154 22.6633 22.5369 21.7425 21.6162L19.8572 19.7308Z" fill="currentColor"/>
</svg>
