<svg width="19" height="19" viewBox="0 0 19 19" fill="none" xmlns="http://www.w3.org/2000/svg">
<path d="M15.7922 2.64375H13.9922V1.74375C13.9922 1.50506 13.8974 1.27614 13.7286 1.10735C13.5598 0.938571 13.3309 0.84375 13.0922 0.84375C12.8535 0.84375 12.6246 0.938571 12.4558 1.10735C12.287 1.27614 12.1922 1.50506 12.1922 1.74375V2.64375H6.79219V1.74375C6.79219 1.50506 6.69737 1.27614 6.52858 1.10735C6.3598 0.938571 6.13088 0.84375 5.89219 0.84375C5.65349 0.84375 5.42457 0.938571 5.25579 1.10735C5.08701 1.27614 4.99219 1.50506 4.99219 1.74375V2.64375H3.19219C2.4761 2.64375 1.78935 2.92821 1.283 3.43456C0.776651 3.94091 0.492188 4.62767 0.492188 5.34375V16.1437C0.492188 16.8598 0.776651 17.5466 1.283 18.0529C1.78935 18.5593 2.4761 18.8438 3.19219 18.8438H15.7922C16.5083 18.8438 17.195 18.5593 17.7014 18.0529C18.2077 17.5466 18.4922 16.8598 18.4922 16.1437V5.34375C18.4922 4.62767 18.2077 3.94091 17.7014 3.43456C17.195 2.92821 16.5083 2.64375 15.7922 2.64375ZM16.6922 16.1437C16.6922 16.3824 16.5974 16.6114 16.4286 16.7801C16.2598 16.9489 16.0309 17.0437 15.7922 17.0437H3.19219C2.95349 17.0437 2.72457 16.9489 2.55579 16.7801C2.38701 16.6114 2.29219 16.3824 2.29219 16.1437V9.84375H16.6922V16.1437ZM16.6922 8.04375H2.29219V5.34375C2.29219 5.10505 2.38701 4.87614 2.55579 4.70735C2.72457 4.53857 2.95349 4.44375 3.19219 4.44375H4.99219V5.34375C4.99219 5.58244 5.08701 5.81136 5.25579 5.98015C5.42457 6.14893 5.65349 6.24375 5.89219 6.24375C6.13088 6.24375 6.3598 6.14893 6.52858 5.98015C6.69737 5.81136 6.79219 5.58244 6.79219 5.34375V4.44375H12.1922V5.34375C12.1922 5.58244 12.287 5.81136 12.4558 5.98015C12.6246 6.14893 12.8535 6.24375 13.0922 6.24375C13.3309 6.24375 13.5598 6.14893 13.7286 5.98015C13.8974 5.81136 13.9922 5.58244 13.9922 5.34375V4.44375H15.7922C16.0309 4.44375 16.2598 4.53857 16.4286 4.70735C16.5974 4.87614 16.6922 5.10505 16.6922 5.34375V8.04375Z" fill="#8E94A7"/>
</svg>
