<svg width="24" height="25" viewBox="0 0 24 25" fill="none" xmlns="http://www.w3.org/2000/svg">
<path d="M12 2.25781C9.9233 2.25781 7.89323 2.87363 6.16652 4.02738C4.4398 5.18114 3.09399 6.82101 2.29927 8.73964C1.50455 10.6583 1.29661 12.7695 1.70176 14.8063C2.1069 16.8431 3.10693 18.714 4.57538 20.1824C6.04383 21.6509 7.91476 22.6509 9.95156 23.0561C11.9884 23.4612 14.0996 23.2533 16.0182 22.4585C17.9368 21.6638 19.5767 20.318 20.7304 18.5913C21.8842 16.8646 22.5 14.8345 22.5 12.7578C22.5 9.97304 21.3938 7.30232 19.4246 5.33319C17.4555 3.36406 14.7848 2.25781 12 2.25781ZM12 21.7578C10.22 21.7578 8.47992 21.23 6.99987 20.241C5.51983 19.2521 4.36628 17.8465 3.68509 16.202C3.0039 14.5574 2.82567 12.7478 3.17294 11.002C3.5202 9.25617 4.37737 7.65252 5.63604 6.39385C6.89472 5.13518 8.49836 4.27801 10.2442 3.93074C11.99 3.58348 13.7996 3.76171 15.4442 4.4429C17.0887 5.12409 18.4943 6.27764 19.4832 7.75768C20.4722 9.23772 21 10.9778 21 12.7578C21 15.1448 20.0518 17.4339 18.364 19.1218C16.6761 20.8096 14.387 21.7578 12 21.7578Z" fill="#1C1D22"/>
<path d="M12 19.5078C12.6213 19.5078 13.125 19.0041 13.125 18.3828C13.125 17.7615 12.6213 17.2578 12 17.2578C11.3787 17.2578 10.875 17.7615 10.875 18.3828C10.875 19.0041 11.3787 19.5078 12 19.5078Z" fill="#1C1D22"/>
<path d="M12.75 6.75782H11.625C11.1815 6.75683 10.7422 6.84345 10.3323 7.01271C9.92236 7.18197 9.54991 7.43054 9.23632 7.74413C8.92272 8.05773 8.67416 8.43018 8.5049 8.8401C8.33564 9.25002 8.24902 9.68933 8.25001 10.1328V10.5078H9.75001V10.1328C9.75001 9.63554 9.94755 9.15863 10.2992 8.807C10.6508 8.45536 11.1277 8.25782 11.625 8.25782H12.75C13.2473 8.25782 13.7242 8.45536 14.0758 8.807C14.4275 9.15863 14.625 9.63554 14.625 10.1328C14.625 10.6301 14.4275 11.107 14.0758 11.4586C13.7242 11.8103 13.2473 12.0078 12.75 12.0078H11.25V15.3828H12.75V13.5078C13.6451 13.5078 14.5036 13.1522 15.1365 12.5193C15.7694 11.8864 16.125 11.0279 16.125 10.1328C16.125 9.23772 15.7694 8.37927 15.1365 7.74634C14.5036 7.1134 13.6451 6.75782 12.75 6.75782Z" fill="#1C1D22"/>
</svg>
