<svg width="28" height="29" viewBox="0 0 28 29" fill="none" xmlns="http://www.w3.org/2000/svg">
<path d="M14.028 0.5C21.98 0.5 28 7.01978 28 14.479C28 23.1299 20.944 28.5 14 28.5C11.704 28.5 9.156 27.8831 7.112 26.6773C6.398 26.2426 5.796 25.9201 5.026 26.1725L2.198 27.0138C1.484 27.2381 0.84 26.6773 1.05 25.9201L1.988 22.7794C2.142 22.3448 2.114 21.8821 1.89 21.5175C0.686 19.3022 0 16.8766 0 14.521C0 7.14597 5.894 0.5 14.028 0.5ZM20.426 12.7404C19.432 12.7404 18.634 13.5396 18.634 14.5351C18.634 15.5165 19.432 16.3297 20.426 16.3297C21.42 16.3297 22.218 15.5165 22.218 14.5351C22.218 13.5396 21.42 12.7404 20.426 12.7404ZM13.972 12.7404C12.992 12.7263 12.18 13.5396 12.18 14.521C12.18 15.5165 12.978 16.3157 13.972 16.3297C14.966 16.3297 15.764 15.5165 15.764 14.5351C15.764 13.5396 14.966 12.7404 13.972 12.7404ZM7.518 12.7404C6.524 12.7404 5.726 13.5396 5.726 14.5351C5.726 15.5165 6.538 16.3297 7.518 16.3297C8.512 16.3157 9.31 15.5165 9.31 14.5351C9.31 13.5396 8.512 12.7404 7.518 12.7404Z" fill="currentColor"/>
</svg>
