<svg width="27" height="26" viewBox="0 0 27 26" fill="none" xmlns="http://www.w3.org/2000/svg">
<path d="M18.3865 11.6969C19.4845 11.6969 20.3746 10.8238 20.3746 9.74688C20.3746 8.66992 19.4845 7.79688 18.3865 7.79688C17.2885 7.79688 16.3984 8.66992 16.3984 9.74688C16.3984 10.8238 17.2885 11.6969 18.3865 11.6969Z" fill="#5F5F5F"/>
<path d="M9.10527 11.6969C10.2033 11.6969 11.0934 10.8238 11.0934 9.74688C11.0934 8.66992 10.2033 7.79688 9.10527 7.79688C8.00728 7.79688 7.11719 8.66992 7.11719 9.74688C7.11719 10.8238 8.00728 11.6969 9.10527 11.6969Z" fill="#5F5F5F"/>
<path d="M13.7441 20.8016C16.766 20.8016 19.3373 18.6436 20.3711 15.6016H7.11719C8.15099 18.6436 10.7222 20.8016 13.7441 20.8016Z" fill="#5F5F5F"/>
<path d="M13.7328 0C6.41668 0 0.492188 5.824 0.492188 13C0.492188 20.176 6.41668 26 13.7328 26C21.0623 26 27 20.176 27 13C27 5.824 21.0623 0 13.7328 0ZM13.7461 23.4C7.88787 23.4 3.14297 18.746 3.14297 13C3.14297 7.254 7.88787 2.6 13.7461 2.6C19.6043 2.6 24.3492 7.254 24.3492 13C24.3492 18.746 19.6043 23.4 13.7461 23.4Z" fill="#5F5F5F"/>
</svg>
