<svg width="185" height="185" viewBox="0 0 185 185" fill="none" xmlns="http://www.w3.org/2000/svg">
<path d="M77.0859 61.668V107.918L113.315 130.272L119.482 121.022L88.6484 102.522V61.668H77.0859Z" fill="#C33366"/>
<path d="M138.131 92.4987C139.293 100.16 138.78 107.983 136.629 115.427C134.478 122.872 130.738 129.762 125.669 135.623C120.599 141.484 114.32 146.176 107.262 149.377C100.205 152.578 92.5381 154.212 84.7891 154.165C54.7266 154.165 30.8307 130.27 30.8307 100.207C30.8307 70.1445 54.7266 46.2487 84.7891 46.2487C90.1849 46.2487 95.3495 47.0195 100.206 48.4841V32.6049C95.2724 31.4487 90.1078 30.832 84.7891 30.832C46.2474 30.832 15.4141 61.6654 15.4141 100.207C15.4141 138.749 46.2474 169.582 84.7891 169.582C94.5608 169.623 104.23 167.59 113.158 163.618C122.086 159.646 130.07 153.825 136.583 146.54C143.096 139.255 147.989 130.672 150.94 121.356C153.891 112.04 154.832 102.205 153.702 92.4987H138.131Z" fill="#C33366"/>
<path d="M154.167 38.543V15.418H138.75V38.543H115.625V53.9596H138.75V77.0846H154.167V53.9596H177.292V38.543H154.167Z" fill="#C33366"/>
</svg>
