<svg width="117" height="117" viewBox="0 0 117 117" fill="none" xmlns="http://www.w3.org/2000/svg">
<path fill-rule="evenodd" clip-rule="evenodd" d="M0 58.5C0 42.9848 6.16337 28.1051 17.1343 17.1343C28.1051 6.16337 42.9848 0 58.5 0C74.0152 0 88.8949 6.16337 99.8657 17.1343C110.837 28.1051 117 42.9848 117 58.5C117 74.0152 110.837 88.8949 99.8657 99.8657C88.8949 110.837 74.0152 117 58.5 117C42.9848 117 28.1051 110.837 17.1343 99.8657C6.16337 88.8949 0 74.0152 0 58.5ZM55.1616 83.538L88.842 41.4336L82.758 36.5664L54.0384 72.4542L33.696 55.5048L28.704 61.4952L55.1616 83.5458V83.538Z" fill="#C33366"/>
</svg>
