<svg width="36" height="36" viewBox="0 0 36 36" fill="none" xmlns="http://www.w3.org/2000/svg">
<rect width="36" height="36" rx="5" fill="#C33366"/>
<path fill-rule="evenodd" clip-rule="evenodd" d="M28.9319 15.2191C28.8561 15.2154 28.7802 15.2141 28.7043 15.2152H25.5384C22.9485 15.2152 20.7305 17.2707 20.7305 19.9517C20.7305 22.6326 22.9485 24.6881 25.5397 24.6881H28.703C28.7823 24.6881 28.859 24.6881 28.9306 24.6829C29.4651 24.6488 29.9691 24.4215 30.3485 24.0433C30.7278 23.6651 30.9568 23.1619 30.9926 22.6274C30.9978 22.5507 30.9978 22.4688 30.9978 22.3934V17.51C30.9978 17.4346 30.9978 17.3527 30.9926 17.2759C30.9568 16.7417 30.7281 16.2386 30.349 15.8605C29.9698 15.4823 29.4662 15.2548 28.9319 15.2204V15.2191ZM25.2615 21.2141C25.9285 21.2141 26.4707 20.6499 26.4707 19.9517C26.4707 19.2535 25.9285 18.6892 25.2615 18.6892C24.5945 18.6892 24.0537 19.2535 24.0537 19.9517C24.0537 20.6499 24.5932 21.2141 25.2615 21.2141Z" fill="white"/>
<path fill-rule="evenodd" clip-rule="evenodd" d="M28.7071 26.5845C28.7506 26.583 28.7939 26.5917 28.8335 26.61C28.8731 26.6283 28.9078 26.6556 28.9349 26.6897C28.9619 26.7239 28.9806 26.7639 28.9894 26.8066C28.9981 26.8493 28.9967 26.8935 28.9853 26.9355C28.7331 27.8352 28.3339 28.6023 27.693 29.2472C26.7555 30.1924 25.5659 30.6124 24.0967 30.8113C22.6691 31.005 20.8463 31.005 18.5424 31.005H15.894C13.5914 31.005 11.7673 31.005 10.3397 30.8113C8.87057 30.6124 7.68093 30.1924 6.74351 29.2472C5.8061 28.3033 5.39005 27.1046 5.19242 25.6237C5 24.1844 5 22.346 5 20.0252V19.8822C5 17.5614 5 15.7217 5.19242 14.2837C5.39005 12.8028 5.8061 11.6067 6.74221 10.6589C7.67962 9.71494 8.86927 9.29369 10.3384 9.09607C11.7673 8.90234 13.5914 8.90234 15.894 8.90234H18.5424C20.845 8.90234 22.6691 8.90234 24.0967 9.09607C25.5659 9.29499 26.7555 9.71494 27.693 10.6589C28.3339 11.305 28.7331 12.0721 28.9853 12.9731C28.9965 13.0151 28.9977 13.0591 28.9888 13.1016C28.98 13.1442 28.9612 13.184 28.9342 13.218C28.9072 13.252 28.8725 13.2792 28.8331 13.2974C28.7936 13.3156 28.7505 13.3243 28.7071 13.3229H25.5438C21.9892 13.3229 18.8571 16.1533 18.8571 19.9537C18.8571 23.7541 21.9905 26.5845 25.5451 26.5845H28.7071ZM9.69877 13.9548C9.57498 13.9553 9.45251 13.9802 9.33834 14.028C9.22417 14.0758 9.12055 14.1457 9.03338 14.2336C8.94621 14.3215 8.87721 14.4257 8.83031 14.5403C8.78342 14.6548 8.75954 14.7775 8.76006 14.9013C8.76006 15.4252 9.18001 15.8491 9.69877 15.8491H14.7122C15.2322 15.8491 15.6522 15.4252 15.6522 14.9013C15.6529 14.6512 15.5543 14.411 15.378 14.2335C15.2018 14.0561 14.9623 13.9558 14.7122 13.9548H9.69877Z" fill="white"/>
<path d="M12.5117 7.63228L15.0574 5.75616C15.7217 5.26504 16.5261 5 17.3522 5C18.1783 5 18.9827 5.26504 19.647 5.75616L22.207 7.64268C21.1357 7.60108 19.9395 7.60108 18.6303 7.60108H15.8089C14.6102 7.60108 13.5089 7.60108 12.5117 7.63228Z" fill="white"/>
</svg>
