<svg width="93" height="63" viewBox="0 0 93 63" fill="none" xmlns="http://www.w3.org/2000/svg">
<path d="M10.7684 37.4062L7.83158 31.5H28.3895L26.04 25.5938H6.85263L3.91579 19.6875H34.4589L32.1095 13.7812H3.36758L0 7.875H14.6842C14.6842 5.78642 15.5093 3.78338 16.978 2.30653C18.4467 0.829685 20.4387 0 22.5158 0H69.5053V15.75H81.2526L93 31.5V51.1875H85.1684C85.1684 54.3204 83.9308 57.3249 81.7277 59.5402C79.5246 61.7555 76.5366 63 73.4211 63C70.3055 63 67.3175 61.7555 65.1144 59.5402C62.9113 57.3249 61.6737 54.3204 61.6737 51.1875H46.0105C46.0105 54.3204 44.7729 57.3249 42.5698 59.5402C40.3667 61.7555 37.3788 63 34.2632 63C31.1476 63 28.1596 61.7555 25.9565 59.5402C23.7535 57.3249 22.5158 54.3204 22.5158 51.1875H14.6842V37.4062H10.7684ZM73.4211 57.0938C74.9789 57.0938 76.4728 56.4715 77.5744 55.3638C78.6759 54.2562 79.2947 52.7539 79.2947 51.1875C79.2947 49.6211 78.6759 48.1188 77.5744 47.0112C76.4728 45.9035 74.9789 45.2812 73.4211 45.2812C71.8633 45.2812 70.3693 45.9035 69.2677 47.0112C68.1662 48.1188 67.5474 49.6211 67.5474 51.1875C67.5474 52.7539 68.1662 54.2562 69.2677 55.3638C70.3693 56.4715 71.8633 57.0938 73.4211 57.0938ZM79.2947 21.6562H69.5053V31.5H86.9697L79.2947 21.6562ZM34.2632 57.0938C35.821 57.0938 37.3149 56.4715 38.4165 55.3638C39.518 54.2562 40.1368 52.7539 40.1368 51.1875C40.1368 49.6211 39.518 48.1188 38.4165 47.0112C37.3149 45.9035 35.821 45.2812 34.2632 45.2812C32.7054 45.2812 31.2114 45.9035 30.1098 47.0112C29.0083 48.1188 28.3895 49.6211 28.3895 51.1875C28.3895 52.7539 29.0083 54.2562 30.1098 55.3638C31.2114 56.4715 32.7054 57.0938 34.2632 57.0938Z" fill="#C33366"/>
</svg>
