<svg width="13" height="13" viewBox="0 0 13 13" fill="none" xmlns="http://www.w3.org/2000/svg">
<path d="M12.5144 1.94943C12.6216 1.84571 12.7071 1.72162 12.7659 1.58441C12.8247 1.44719 12.8557 1.29959 12.8571 1.15023C12.8585 1.00086 12.8302 0.852718 12.7738 0.714443C12.7175 0.576167 12.6343 0.450528 12.5291 0.344857C12.4238 0.239185 12.2987 0.155597 12.1609 0.0989696C12.0231 0.0423422 11.8754 0.01381 11.7265 0.0150371C11.5776 0.0162641 11.4305 0.0472261 11.2936 0.106117C11.1568 0.165007 11.033 0.250647 10.9295 0.358039L6.43492 4.86524L1.94183 0.358039C1.83917 0.247516 1.71537 0.158869 1.57781 0.0973847C1.44025 0.0359009 1.29176 0.00284007 1.14119 0.000175068C0.990614 -0.00248993 0.84105 0.0252955 0.701416 0.0818733C0.561782 0.138451 0.434938 0.222662 0.328452 0.329483C0.221965 0.436304 0.138018 0.563546 0.0816169 0.703619C0.0252163 0.843691 -0.00248213 0.993726 0.00017452 1.14477C0.00283117 1.29581 0.0357885 1.44477 0.0970798 1.58276C0.158371 1.72075 0.246741 1.84495 0.356918 1.94793L4.84701 6.45663L0.353927 10.9638C0.155843 11.1771 0.0480037 11.4591 0.0531296 11.7506C0.0582554 12.042 0.175946 12.3201 0.381407 12.5262C0.586867 12.7323 0.864055 12.8503 1.15457 12.8555C1.44509 12.8606 1.72626 12.7524 1.93884 12.5537L6.43492 8.04653L10.928 12.5552C11.1406 12.7539 11.4218 12.8621 11.7123 12.857C12.0028 12.8518 12.28 12.7338 12.4854 12.5277C12.6909 12.3216 12.8086 12.0435 12.8137 11.7521C12.8188 11.4606 12.711 11.1786 12.5129 10.9653L8.02283 6.45663L12.5144 1.94943Z" fill="#1C1D22"/>
</svg>
