<svg width="12" height="14" viewBox="0 0 12 14" fill="none" xmlns="http://www.w3.org/2000/svg">
<path d="M11.6801 2.00142C11.7801 1.89493 11.8599 1.76753 11.9148 1.62666C11.9697 1.48578 11.9987 1.33425 12 1.1809C12.0012 1.02755 11.9748 0.875457 11.9222 0.733494C11.8697 0.591532 11.792 0.462542 11.6938 0.354053C11.5956 0.245563 11.4787 0.159746 11.3501 0.101609C11.2215 0.0434714 11.0837 0.0141783 10.9448 0.0154381C10.8058 0.0166979 10.6684 0.0484855 10.5407 0.108946C10.413 0.169407 10.2975 0.257331 10.2009 0.367586L6.00593 4.99498L1.81238 0.367586C1.71656 0.254116 1.60101 0.163105 1.47262 0.0999816C1.34423 0.0368582 1.20564 0.0029158 1.06511 0.000179737C0.924573 -0.00255633 0.78498 0.0259701 0.654655 0.0840566C0.52433 0.142143 0.405942 0.2286 0.306555 0.33827C0.207167 0.447939 0.128816 0.578574 0.0761758 0.722382C0.0235352 0.86619 -0.00231666 1.02023 0.000162885 1.1753C0.00264243 1.33037 0.0334026 1.4833 0.0906078 1.62497C0.147813 1.76664 0.230291 1.89415 0.333123 1.99988L4.52388 6.62881L0.330332 11.2562C0.145453 11.4751 0.0448034 11.7647 0.0495876 12.0639C0.0543717 12.3631 0.164216 12.6486 0.35598 12.8602C0.547743 13.0718 0.806451 13.193 1.0776 13.1983C1.34875 13.2036 1.61118 13.0925 1.80959 12.8885L6.00593 8.2611L10.1995 12.89C10.3979 13.094 10.6603 13.2051 10.9315 13.1998C11.2026 13.1945 11.4613 13.0733 11.6531 12.8617C11.8448 12.6501 11.9547 12.3647 11.9595 12.0654C11.9643 11.7662 11.8636 11.4767 11.6787 11.2577L7.48797 6.62881L11.6801 2.00142Z" fill="white"/>
</svg>
