<svg width="14" height="15" viewBox="0 0 14 15" fill="none" xmlns="http://www.w3.org/2000/svg">
<path d="M11.9 1.77109H10.5V1.07109C10.5 0.885442 10.4263 0.707394 10.295 0.576119C10.1637 0.444844 9.98565 0.371094 9.8 0.371094C9.61435 0.371094 9.4363 0.444844 9.30503 0.576119C9.17375 0.707394 9.1 0.885442 9.1 1.07109V1.77109H4.9V1.07109C4.9 0.885442 4.82625 0.707394 4.69497 0.576119C4.5637 0.444844 4.38565 0.371094 4.2 0.371094C4.01435 0.371094 3.8363 0.444844 3.70503 0.576119C3.57375 0.707394 3.5 0.885442 3.5 1.07109V1.77109H2.1C1.54305 1.77109 1.0089 1.99234 0.615076 2.38617C0.221249 2.78 0 3.31414 0 3.87109V12.2711C0 12.828 0.221249 13.3622 0.615076 13.756C1.0089 14.1498 1.54305 14.3711 2.1 14.3711H11.9C12.457 14.3711 12.9911 14.1498 13.3849 13.756C13.7788 13.3622 14 12.828 14 12.2711V3.87109C14 3.31414 13.7788 2.78 13.3849 2.38617C12.9911 1.99234 12.457 1.77109 11.9 1.77109ZM12.6 12.2711C12.6 12.4567 12.5263 12.6348 12.395 12.7661C12.2637 12.8973 12.0857 12.9711 11.9 12.9711H2.1C1.91435 12.9711 1.7363 12.8973 1.60503 12.7661C1.47375 12.6348 1.4 12.4567 1.4 12.2711V7.37109H12.6V12.2711ZM12.6 5.97109H1.4V3.87109C1.4 3.68544 1.47375 3.50739 1.60503 3.37612C1.7363 3.24484 1.91435 3.17109 2.1 3.17109H3.5V3.87109C3.5 4.05675 3.57375 4.23479 3.70503 4.36607C3.8363 4.49734 4.01435 4.57109 4.2 4.57109C4.38565 4.57109 4.5637 4.49734 4.69497 4.36607C4.82625 4.23479 4.9 4.05675 4.9 3.87109V3.17109H9.1V3.87109C9.1 4.05675 9.17375 4.23479 9.30503 4.36607C9.4363 4.49734 9.61435 4.57109 9.8 4.57109C9.98565 4.57109 10.1637 4.49734 10.295 4.36607C10.4263 4.23479 10.5 4.05675 10.5 3.87109V3.17109H11.9C12.0857 3.17109 12.2637 3.24484 12.395 3.37612C12.5263 3.50739 12.6 3.68544 12.6 3.87109V5.97109Z" fill="#5F5F5F"/>
</svg>
