<svg width="36" height="36" viewBox="0 0 36 36" fill="none" xmlns="http://www.w3.org/2000/svg">
<rect width="36" height="36" rx="5" fill="#C33366"/>
<g clip-path="url(#clip0_2724_47197)">
<path d="M13.1927 7.24302C13.1927 6.77441 12.8128 6.39453 12.3442 6.39453C11.8756 6.39453 11.4958 6.77441 11.4958 7.24302V9.02965C9.86742 9.16004 8.79845 9.48004 8.01309 10.2654C7.22773 11.0508 6.90773 12.1197 6.77734 13.7481H29.2242C29.0939 12.1197 28.7738 11.0508 27.9885 10.2654C27.2031 9.48004 26.1342 9.16004 24.5059 9.02965V7.24302C24.5059 6.77441 24.126 6.39453 23.6574 6.39453C23.1888 6.39453 22.8089 6.77441 22.8089 7.24302V8.95458C22.0562 8.93999 21.2126 8.93999 20.2634 8.93999H15.7382C14.789 8.93999 13.9454 8.93999 13.1927 8.95458V7.24302Z" fill="white"/>
<path fill-rule="evenodd" clip-rule="evenodd" d="M6.6875 17.9947C6.6875 17.0455 6.6875 16.2019 6.70209 15.4492H29.2992C29.3138 16.2019 29.3138 17.0455 29.3138 17.9947V20.2573C29.3138 24.5237 29.3138 26.657 27.9883 27.9824C26.663 29.3078 24.5297 29.3078 20.2633 29.3078H15.738C11.4716 29.3078 9.33834 29.3078 8.01291 27.9824C6.6875 26.657 6.6875 24.5237 6.6875 20.2573V17.9947ZM23.6572 20.2573C24.282 20.2573 24.7885 19.7508 24.7885 19.126C24.7885 18.5012 24.282 17.9947 23.6572 17.9947C23.0324 17.9947 22.5259 18.5012 22.5259 19.126C22.5259 19.7508 23.0324 20.2573 23.6572 20.2573ZM23.6572 24.7826C24.282 24.7826 24.7885 24.2761 24.7885 23.6512C24.7885 23.0264 24.282 22.5199 23.6572 22.5199C23.0324 22.5199 22.5259 23.0264 22.5259 23.6512C22.5259 24.2761 23.0324 24.7826 23.6572 24.7826ZM19.1319 19.126C19.1319 19.7508 18.6255 20.2573 18.0006 20.2573C17.3758 20.2573 16.8693 19.7508 16.8693 19.126C16.8693 18.5012 17.3758 17.9947 18.0006 17.9947C18.6255 17.9947 19.1319 18.5012 19.1319 19.126ZM19.1319 23.6512C19.1319 24.2761 18.6255 24.7826 18.0006 24.7826C17.3758 24.7826 16.8693 24.2761 16.8693 23.6512C16.8693 23.0264 17.3758 22.5199 18.0006 22.5199C18.6255 22.5199 19.1319 23.0264 19.1319 23.6512ZM12.3441 20.2573C12.9689 20.2573 13.4754 19.7508 13.4754 19.126C13.4754 18.5012 12.9689 17.9947 12.3441 17.9947C11.7193 17.9947 11.2128 18.5012 11.2128 19.126C11.2128 19.7508 11.7193 20.2573 12.3441 20.2573ZM12.3441 24.7826C12.9689 24.7826 13.4754 24.2761 13.4754 23.6512C13.4754 23.0264 12.9689 22.5199 12.3441 22.5199C11.7193 22.5199 11.2128 23.0264 11.2128 23.6512C11.2128 24.2761 11.7193 24.7826 12.3441 24.7826Z" fill="white"/>
</g>
<defs>
<clipPath id="clip0_2724_47197">
<rect width="24" height="24" fill="white" transform="translate(6 6)"/>
</clipPath>
</defs>
</svg>
