<svg width="213" height="72" viewBox="0 0 213 72" fill="none" xmlns="http://www.w3.org/2000/svg">
<rect width="212.571" height="72" rx="14" fill="black"/>
<path d="M65.3456 19.1859H60.9936V20.468H64.0803C63.9276 22.266 62.421 23.0328 60.9988 23.0328C59.1793 23.0328 57.5914 21.6115 57.5914 19.6193C57.5914 17.6787 59.105 16.1843 61.0026 16.1843C62.4671 16.1843 63.3298 17.1108 63.3298 17.1108L64.234 16.1811C64.234 16.1811 63.0733 14.8984 60.9565 14.8984C58.261 14.8984 56.176 17.157 56.176 19.5963C56.176 21.9869 58.1374 24.3176 61.0251 24.3176C63.5652 24.3176 65.4245 22.5904 65.4245 20.0361C65.4245 19.4972 65.3456 19.1859 65.3456 19.1859Z" fill="white"/>
<path d="M66.1655 39.8496H75.7286C75.7353 39.8766 75.9015 40.5572 75.9015 41.7174C75.9015 47.3302 71.8161 51.126 66.235 51.126C59.8891 51.126 55.579 46.0042 55.579 40.7516C55.579 35.3911 60.1612 30.4281 66.084 30.4283C70.7354 30.4283 73.2858 33.2469 73.2858 33.2469L71.2987 35.2897C71.2987 35.2897 69.403 33.2534 66.1855 33.2534C62.0157 33.2534 58.6898 36.5375 58.6898 40.8018C58.6898 45.1789 62.1786 48.3023 66.1769 48.3023C69.3019 48.3023 72.6126 46.6174 72.9479 42.6668H66.1655V39.8496Z" fill="white"/>
<path fill-rule="evenodd" clip-rule="evenodd" d="M77.1215 44.4071C77.1215 40.8548 79.9336 37.8093 83.858 37.8093C87.0834 37.8093 90.5814 40.0785 90.5814 44.4845C90.5814 48.3286 87.5743 51.1139 83.9037 51.1139C79.849 51.1139 77.1215 48.0117 77.1215 44.4071ZM87.6551 44.4669C87.6551 41.9711 85.8266 40.4221 83.8967 40.4221C81.7285 40.4221 80.0621 42.1432 80.0621 44.4475C80.0621 46.8024 81.7493 48.5027 83.8879 48.5027C85.8341 48.5027 87.6551 46.9096 87.6551 44.4669Z" fill="white"/>
<path fill-rule="evenodd" clip-rule="evenodd" d="M98.6673 37.8093C94.7432 37.8093 91.9309 40.8548 91.9309 44.4071C91.9309 48.0117 94.6586 51.1139 98.7135 51.1139C102.384 51.1139 105.391 48.3286 105.391 44.4845C105.391 40.0785 101.893 37.8093 98.6673 37.8093ZM98.7063 40.4221C100.636 40.4221 102.465 41.9711 102.465 44.4669C102.465 46.9096 100.644 48.5027 98.6972 48.5027C96.5589 48.5027 94.8719 46.8024 94.8719 44.4475C94.8719 42.1432 96.5379 40.4221 98.7063 40.4221Z" fill="white"/>
<path fill-rule="evenodd" clip-rule="evenodd" d="M106.74 44.4632C106.74 40.9481 109.572 37.8164 113.173 37.8164C114.741 37.8164 115.922 38.4189 116.786 39.343V38.2163H119.596V50.1699C119.596 54.8665 116.866 57.1053 113.285 57.1053C110.011 57.1053 108.172 55.1069 107.258 53.188L109.833 52.1192C110.19 52.9765 111.217 54.4881 113.264 54.4881C115.382 54.4881 116.786 53.113 116.786 50.8179V49.5061C116.036 50.3699 115.021 51.1227 113.111 51.1227C110.022 51.1227 106.74 48.4674 106.74 44.4632ZM113.434 40.424C115.2 40.424 117.013 41.921 117.013 44.4774C117.013 47.0758 115.204 48.5078 113.395 48.5078C111.475 48.5078 109.688 46.96 109.688 44.502C109.688 41.9482 111.544 40.424 113.434 40.424Z" fill="white"/>
<path fill-rule="evenodd" clip-rule="evenodd" d="M126.428 44.4439C126.428 40.484 129.28 37.8003 132.678 37.8003C135.357 37.8003 137.382 39.5747 138.25 41.6988L138.717 42.7835L129.732 46.4846C130.268 47.4765 131.135 48.5006 133.018 48.5009C134.695 48.5009 135.7 47.5957 136.301 46.6694L138.618 48.1996C137.579 49.5793 135.839 51.1189 133.004 51.1189C129.607 51.1189 126.428 48.634 126.428 44.4439ZM132.795 40.359C134.019 40.359 134.9 41.0049 135.274 41.7799L129.274 44.2696C129.015 42.342 130.855 40.359 132.795 40.359Z" fill="white"/>
<path d="M124.8 50.724H121.849V31.1163H124.8V50.724Z" fill="white"/>
<path d="M161.418 50.724H164.369V31.1163H161.418V50.724Z" fill="white"/>
<path fill-rule="evenodd" clip-rule="evenodd" d="M148.719 50.724H145.767V31.1163L152.906 31.1161C156.367 31.1161 159.198 33.9269 159.198 37.3626C159.198 40.798 156.367 43.6088 152.906 43.6088H148.719V50.724ZM148.719 40.6788V34.0461H152.906C154.738 34.0461 156.247 35.5441 156.247 37.3626C156.247 39.1808 154.738 40.6788 152.906 40.6788H148.719Z" fill="white"/>
<path d="M186.159 57.1053L194.705 37.8007H191.481L187.614 46.5365L183.747 37.8007H180.524L186.002 50.1777L182.936 57.1053H186.159Z" fill="white"/>
<path fill-rule="evenodd" clip-rule="evenodd" d="M176.448 50.724H179.399V43.6719C179.861 36.3986 170.573 34.688 167.058 39.9313L169.433 41.5133C171.152 38.5307 176.055 39.217 176.378 42.4135C174.904 42.0259 173.312 41.745 171.857 41.8911C169.587 42.1191 167.643 43.5507 167.334 45.8953C167.167 47.1623 167.452 48.7241 168.343 49.6759C169.731 51.1589 172.011 51.3587 173.883 50.852C174.938 50.5666 175.768 49.9447 176.448 49.1414V50.724ZM173.182 48.2962C174.797 47.8595 176.07 46.6866 176.448 45.056C175.622 44.7905 174.862 44.5763 173.992 44.4719C168.92 43.715 169.769 49.2198 173.182 48.2962Z" fill="white"/>
<path d="M84.4766 24.1349H83.1336V15.2116H84.4766V24.1349Z" fill="white"/>
<path d="M75.612 24.1349H76.9552V16.5449H79.1598V15.2116H73.4073V16.5449H75.612V24.1349Z" fill="white"/>
<path d="M71.9913 24.1349H66.8404V15.2116H71.9913V16.5449H68.1836V19.0066H71.5329V20.3399H68.1836V22.8014H71.9913V24.1349Z" fill="white"/>
<path d="M89.1177 24.1349V16.5449H91.3223V15.2116H85.5701V16.5449H87.7747V24.1349H89.1177Z" fill="white"/>
<path fill-rule="evenodd" clip-rule="evenodd" d="M94.7782 19.5963C94.7782 17.1567 96.8634 14.8984 99.5589 14.8984C102.254 14.8984 104.34 17.1567 104.34 19.5963C104.34 21.9677 102.409 24.2801 99.5589 24.3167C96.7086 24.2801 94.7782 21.9677 94.7782 19.5963ZM99.5589 23.0321C97.7571 23.0102 96.1938 21.596 96.1938 19.6193C96.1938 17.6946 97.6829 16.2087 99.5589 16.1847C101.435 16.2087 102.924 17.6946 102.924 19.6193C102.924 21.596 101.361 23.0102 99.5589 23.0321Z" fill="white"/>
<path d="M107.024 24.1349H105.681V15.2116H107.024L111.336 21.7081V15.2116H112.679V24.1349H111.338L107.024 17.635V24.1349Z" fill="white"/>
<path d="M19.5028 26.0286L34.678 41.0714L19.5757 56.2462C19.135 55.9681 18.8987 55.3661 18.8947 54.5884L18.7579 27.6556C18.7536 26.8039 19.0657 26.2845 19.5028 26.0286Z" fill="white"/>
<path d="M21.2291 26.0489L39.6821 36.0435L35.3057 40.4405L20.5852 25.848C20.8081 25.877 21.032 25.942 21.2291 26.0489Z" fill="white"/>
<path d="M40.5027 45.5922L35.9378 41.067L40.498 36.4854L46.778 39.8863C48.325 40.7238 47.5337 41.7715 46.778 42.1821L40.5027 45.5922Z" fill="white"/>
<path d="M21.2291 56.0643C21.0897 56.1416 20.9553 56.2023 20.8267 56.2503L35.3101 41.6979L39.6859 46.0356L21.2291 56.0643Z" fill="white"/>
</svg>
