<svg width="214" height="72" viewBox="0 0 214 72" fill="none" xmlns="http://www.w3.org/2000/svg">
<rect x="0.90625" width="212.571" height="72" rx="14" fill="black"/>
<path d="M43.6436 14.8984C43.9014 17.2248 42.9728 19.5172 41.6156 21.2022C40.1994 22.861 37.9337 24.1298 35.7271 23.9664C35.4383 21.7279 36.5563 19.3476 37.8079 17.8954C39.2226 16.2474 41.6793 14.9848 43.6436 14.8984Z" fill="white"/>
<path d="M50.8673 28.3183C50.6211 28.4642 46.5401 30.8823 46.5848 35.8139C46.6376 41.7693 51.8335 43.7379 51.8956 43.758C51.8645 43.8967 51.0819 46.6023 49.133 49.3434C47.5056 51.7607 45.8006 54.124 43.0924 54.1641C41.8044 54.1943 40.9349 53.8268 40.0287 53.4439C39.084 53.0446 38.0994 52.6286 36.5594 52.6286C34.9269 52.6286 33.8986 53.0584 32.9072 53.4728C32.0492 53.8314 31.2188 54.1785 30.0483 54.2257C27.4689 54.3198 25.4983 51.6481 23.8119 49.2524C20.4406 44.3638 17.8163 35.4763 21.3351 29.4284C23.0402 26.4623 26.149 24.5522 29.4721 24.5013C30.9355 24.4716 32.339 25.0315 33.5694 25.5223C34.5103 25.8976 35.35 26.2326 36.0377 26.2326C36.6417 26.2326 37.4578 25.911 38.4089 25.5363C39.9079 24.9457 41.7423 24.2228 43.611 24.4181C44.889 24.4551 48.5259 24.9191 50.8722 28.3154L50.8673 28.3183Z" fill="white"/>
<path fill-rule="evenodd" clip-rule="evenodd" d="M69.5484 16.2262H65.9031V26.9936H69.5484C72.7728 26.9936 74.6669 25.0013 74.6669 21.6061C74.6669 18.2185 72.7653 16.2262 69.5484 16.2262ZM67.256 17.435V25.7847H69.4582C71.916 25.7847 73.2839 24.2924 73.2839 21.6211C73.2839 18.9273 71.9235 17.435 69.4582 17.435H67.256Z" fill="white"/>
<path fill-rule="evenodd" clip-rule="evenodd" d="M79.8926 27.1279C77.728 27.1279 76.2698 25.5833 76.2698 23.1134C76.2698 20.6361 77.728 19.099 79.8926 19.099C82.0498 19.099 83.5079 20.6361 83.5079 23.1134C83.5079 25.5833 82.0498 27.1279 79.8926 27.1279ZM82.1775 23.1134C82.1775 24.9416 81.2756 25.9862 79.8926 25.9862C78.5097 25.9862 77.6002 24.9416 77.6002 23.1134C77.6002 21.2853 78.5097 20.2406 79.8926 20.2406C81.2756 20.2406 82.1775 21.2853 82.1775 23.1134Z" fill="white"/>
<path d="M91.7701 26.9936H93.1005L95.2802 19.2333H93.9874L92.424 25.546H92.394L90.6202 19.2333H89.3575L87.5912 25.546H87.5611L85.9977 19.2333H84.6974L86.8847 26.9936H88.215L89.9738 20.9868H90.0039L91.7701 26.9936Z" fill="white"/>
<path d="M98.0932 19.2333H96.8606V26.9936H98.1684V22.4269C98.1684 21.1137 98.9726 20.2481 100.205 20.2481C101.408 20.2481 102.002 20.9346 102.002 22.1882V26.9936H103.309V21.9568C103.309 20.1959 102.317 19.099 100.604 19.099C99.3935 19.099 98.5592 19.6362 98.1233 20.4719H98.0932V19.2333Z" fill="white"/>
<path d="M105.551 16.2262V26.9936H106.859V16.2262H105.551Z" fill="white"/>
<path fill-rule="evenodd" clip-rule="evenodd" d="M108.755 23.1134C108.755 25.5833 110.213 27.1279 112.378 27.1279C114.535 27.1279 115.993 25.5833 115.993 23.1134C115.993 20.6361 114.535 19.099 112.378 19.099C110.213 19.099 108.755 20.6361 108.755 23.1134ZM112.378 25.9862C113.761 25.9862 114.663 24.9416 114.663 23.1134C114.663 21.2853 113.761 20.2406 112.378 20.2406C110.995 20.2406 110.086 21.2853 110.086 23.1134C110.086 24.9416 110.995 25.9862 112.378 25.9862Z" fill="white"/>
<path fill-rule="evenodd" clip-rule="evenodd" d="M120.107 27.1279C118.551 27.1279 117.506 26.1951 117.506 24.7998C117.506 23.4716 118.536 22.6359 120.34 22.5314L122.579 22.4046V21.7554C122.579 20.8077 121.948 20.2406 120.866 20.2406C119.859 20.2406 119.227 20.7107 119.062 21.4718H117.799C117.889 20.1287 119.047 19.099 120.896 19.099C122.73 19.099 123.887 20.0839 123.887 21.6285V26.9936H122.647V25.6579H122.617C122.151 26.5459 121.159 27.1279 120.107 27.1279ZM122.579 24.0461C122.579 25.1654 121.632 26.0235 120.4 26.0235C119.46 26.0235 118.836 25.5385 118.836 24.7998C118.836 24.0685 119.438 23.6059 120.49 23.5387L122.579 23.4119V24.0461Z" fill="white"/>
<path fill-rule="evenodd" clip-rule="evenodd" d="M125.678 23.1134C125.678 25.546 127.031 27.1279 129.023 27.1279C130.15 27.1279 131.045 26.5757 131.548 25.6803H131.571V26.9936H132.818V16.2262H131.511V20.4943H131.48C131.014 19.6437 130.113 19.099 128.993 19.099C127.023 19.099 125.678 20.6809 125.678 23.1134ZM129.271 20.2406C127.888 20.2406 127.016 21.3599 127.016 23.1134C127.016 24.8744 127.888 25.9862 129.271 25.9862C130.616 25.9862 131.518 24.852 131.518 23.1134C131.518 21.3823 130.616 20.2406 129.271 20.2406Z" fill="white"/>
<path fill-rule="evenodd" clip-rule="evenodd" d="M142.007 27.1279C139.842 27.1279 138.384 25.5833 138.384 23.1134C138.384 20.6361 139.842 19.099 142.007 19.099C144.164 19.099 145.622 20.6361 145.622 23.1134C145.622 25.5833 144.164 27.1279 142.007 27.1279ZM144.292 23.1134C144.292 24.9416 143.39 25.9862 142.007 25.9862C140.624 25.9862 139.715 24.9416 139.715 23.1134C139.715 21.2853 140.624 20.2406 142.007 20.2406C143.39 20.2406 144.292 21.2853 144.292 23.1134Z" fill="white"/>
<path d="M148.683 19.2333H147.451V26.9936H148.759V22.4269C148.759 21.1137 149.563 20.2481 150.795 20.2481C151.998 20.2481 152.592 20.9346 152.592 22.1882V26.9936H153.9V21.9568C153.9 20.1959 152.908 19.099 151.194 19.099C149.984 19.099 149.149 19.6362 148.714 20.4719H148.683V19.2333Z" fill="white"/>
<path d="M161.472 17.3604H160.165V19.2333H159V20.3003H160.165V24.9789C160.165 26.4712 160.721 27.0533 162.156 27.0533C162.465 27.0533 162.825 27.0309 162.983 26.9936V25.9041C162.893 25.9191 162.592 25.9414 162.442 25.9414C161.773 25.9414 161.472 25.6206 161.472 24.9117V20.3003H162.991V19.2333H161.472V17.3604Z" fill="white"/>
<path d="M164.962 16.2262V26.9936H166.27V22.4717C166.27 21.1286 167.074 20.2481 168.374 20.2481C169.599 20.2481 170.223 20.9868 170.223 22.218V26.9936H171.531V21.9792C171.531 20.2481 170.494 19.099 168.78 19.099C167.593 19.099 166.736 19.6064 166.3 20.4719H166.27V16.2262H164.962Z" fill="white"/>
<path fill-rule="evenodd" clip-rule="evenodd" d="M180.177 24.7699H178.891C178.673 25.5012 177.944 26.0011 176.952 26.0011C175.547 26.0011 174.667 25.0236 174.667 23.5387V23.4641H180.274V22.9716C180.274 20.6212 178.974 19.099 176.862 19.099C174.705 19.099 173.322 20.7331 173.322 23.1433C173.322 25.5833 174.682 27.1279 176.922 27.1279C178.628 27.1279 179.951 26.128 180.177 24.7699ZM176.839 20.2257C175.614 20.2257 174.757 21.1584 174.675 22.4493H178.921C178.891 21.151 178.072 20.2257 176.839 20.2257Z" fill="white"/>
<path fill-rule="evenodd" clip-rule="evenodd" d="M78.5681 53.3894L76.674 47.8337H68.782L66.888 53.3894H63.5446L71.0205 32.8334H74.4929L81.9688 53.3894H78.5681ZM69.5999 45.2696L72.685 36.2523H72.7711L75.8561 45.2696H69.5999Z" fill="white"/>
<path fill-rule="evenodd" clip-rule="evenodd" d="M98.7967 45.8963C98.7967 41.1527 96.2713 38.1612 92.4401 38.1612C90.2591 38.1612 88.5229 39.2581 87.6332 40.9817H87.5758V38.4033H84.5769V58.3467H87.6763V50.9249H87.748C88.6089 52.5916 90.3308 53.6458 92.4975 53.6458C96.2857 53.6458 98.7967 50.64 98.7967 45.8963ZM91.6222 51.0389C94.0759 51.0389 95.6113 49.0446 95.6113 45.8963C95.6113 42.7624 94.0759 40.7538 91.6222 40.7538C89.2547 40.7538 87.6619 42.8051 87.6619 45.8963C87.6619 49.0161 89.2403 51.0389 91.6222 51.0389Z" fill="white"/>
<path fill-rule="evenodd" clip-rule="evenodd" d="M109.742 38.1612C113.573 38.1612 116.098 41.1527 116.098 45.8963C116.098 50.64 113.587 53.6458 109.799 53.6458C107.632 53.6458 105.91 52.5916 105.05 50.9249H104.978V58.3467H101.878V38.4033H104.877V40.9817H104.935C105.824 39.2581 107.561 38.1612 109.742 38.1612ZM112.913 45.8963C112.913 49.0446 111.377 51.0389 108.924 51.0389C106.542 51.0389 104.963 49.0161 104.963 45.8963C104.963 42.8051 106.556 40.7538 108.924 40.7538C111.377 40.7538 112.913 42.7624 112.913 45.8963Z" fill="white"/>
<path d="M128.46 47.6628H125.289C125.49 51.3808 128.589 53.7312 133.181 53.7312C138.088 53.7312 141.173 51.3238 141.173 47.4776C141.173 44.4718 139.409 42.7766 135.161 41.7795L132.88 41.2239C130.211 40.5686 129.12 39.7139 129.12 38.2609C129.12 36.4375 130.828 35.1839 133.325 35.1839C135.821 35.1839 137.529 36.4232 137.715 38.4746H140.843C140.743 34.9275 137.744 32.4916 133.368 32.4916C128.948 32.4916 125.834 34.9275 125.834 38.4746C125.834 41.3379 127.599 43.1043 131.402 44.016L134.085 44.657C136.768 45.3123 137.902 46.2667 137.902 47.8622C137.902 49.6998 136.022 51.0389 133.411 51.0389C130.684 51.0389 128.69 49.6998 128.46 47.6628Z" fill="white"/>
<path d="M148.402 34.8563H145.288V38.4033H143.093V40.8393H145.288V49.4434C145.288 52.3352 146.479 53.4891 149.536 53.4891C150.224 53.4891 150.913 53.4321 151.257 53.3466V50.9107C151.057 50.9534 150.554 50.9819 150.239 50.9819C148.976 50.9819 148.402 50.3979 148.402 49.1015V40.8393H151.272V38.4033H148.402V34.8563Z" fill="white"/>
<path fill-rule="evenodd" clip-rule="evenodd" d="M153.478 45.8964C153.478 50.7255 156.319 53.6743 160.638 53.6743C164.957 53.6743 167.798 50.7255 167.798 45.8964C167.798 41.0815 164.943 38.1327 160.638 38.1327C156.334 38.1327 153.478 41.0815 153.478 45.8964ZM160.638 51.1386C163.078 51.1386 164.642 49.2297 164.642 45.8963C164.642 42.5772 163.063 40.6683 160.638 40.6683C158.213 40.6683 156.635 42.5772 156.635 45.8963C156.635 49.2297 158.213 51.1386 160.638 51.1386Z" fill="white"/>
<path d="M170.894 38.4033H173.85V40.9532H173.922C174.424 39.2011 175.773 38.1612 177.552 38.1612C177.997 38.1612 178.385 38.2324 178.614 38.2751V41.1384C178.37 41.0387 177.825 40.9675 177.222 40.9675C175.228 40.9675 173.994 42.2923 173.994 44.4148V53.3894H170.894V38.4033Z" fill="white"/>
<path fill-rule="evenodd" clip-rule="evenodd" d="M191.238 48.9982H194.179C193.749 51.7333 191.137 53.6849 187.679 53.6849C183.245 53.6849 180.562 50.7076 180.562 45.9782C180.562 41.2773 183.289 38.1433 187.55 38.1433C191.74 38.1433 194.352 41.0779 194.352 45.6221V46.6762H183.69V46.8614C183.69 49.4683 185.269 51.192 187.751 51.192C189.516 51.192 190.822 50.3088 191.238 48.9982ZM183.69 44.7022L191.238 44.6313C191.238 44 190.972 42.8295 190.346 42.2088C189.721 41.5881 188.801 41.1169 187.55 41.1169C185.032 41.1169 183.69 42.7869 183.69 44.7022Z" fill="white"/>
</svg>
