<svg width="30" height="35" viewBox="0 0 30 35" fill="none" xmlns="http://www.w3.org/2000/svg">
<path d="M24.5345 12.8491H21.2459V2.91301C21.2459 1.82003 20.3151 0.925781 19.1775 0.925781H10.9042C9.76661 0.925781 8.83585 1.82003 8.83585 2.91301V12.8491H5.5472C3.70637 12.8491 2.77562 14.9954 4.07868 16.2473L13.5723 25.3687C14.379 26.1437 15.6821 26.1437 16.4887 25.3687L25.9824 16.2473C27.2854 14.9954 26.3754 12.8491 24.5345 12.8491ZM0.5625 32.7214C0.5625 33.8144 1.49325 34.7086 2.63084 34.7086H27.4509C28.5885 34.7086 29.5192 33.8144 29.5192 32.7214C29.5192 31.6284 28.5885 30.7342 27.4509 30.7342H2.63084C1.49325 30.7342 0.5625 31.6284 0.5625 32.7214Z" fill="#C33366"/>
</svg>
