<svg width="16" height="16" viewBox="0 0 16 16" fill="none" xmlns="http://www.w3.org/2000/svg">
<path d="M10.895 9.07031C10.955 8.57531 11 8.08031 11 7.57031C11 7.06031 10.955 6.56531 10.895 6.07031H13.43C13.55 6.55031 13.625 7.05281 13.625 7.57031C13.625 8.08781 13.55 8.59031 13.43 9.07031M9.5675 13.2403C10.0175 12.4078 10.3625 11.5078 10.6025 10.5703H12.815C12.0884 11.8215 10.9356 12.7693 9.5675 13.2403ZM9.38 9.07031H5.87C5.795 8.57531 5.75 8.08031 5.75 7.57031C5.75 7.06031 5.795 6.55781 5.87 6.07031H9.38C9.4475 6.55781 9.5 7.06031 9.5 7.57031C9.5 8.08031 9.4475 8.57531 9.38 9.07031ZM7.625 13.5403C7.0025 12.6403 6.5 11.6428 6.1925 10.5703H9.0575C8.75 11.6428 8.2475 12.6403 7.625 13.5403ZM4.625 4.57031H2.435C3.15414 3.31572 4.3061 2.36643 5.675 1.90031C5.225 2.73281 4.8875 3.63281 4.625 4.57031ZM2.435 10.5703H4.625C4.8875 11.5078 5.225 12.4078 5.675 13.2403C4.30897 12.7691 3.15863 11.8211 2.435 10.5703ZM1.82 9.07031C1.7 8.59031 1.625 8.08781 1.625 7.57031C1.625 7.05281 1.7 6.55031 1.82 6.07031H4.355C4.295 6.56531 4.25 7.06031 4.25 7.57031C4.25 8.08031 4.295 8.57531 4.355 9.07031M7.625 1.59281C8.2475 2.49281 8.75 3.49781 9.0575 4.57031H6.1925C6.5 3.49781 7.0025 2.49281 7.625 1.59281ZM12.815 4.57031H10.6025C10.3678 3.64141 10.0202 2.74473 9.5675 1.90031C10.9475 2.37281 12.095 3.32531 12.815 4.57031ZM7.625 0.0703125C3.4775 0.0703125 0.125 3.44531 0.125 7.57031C0.125 9.55944 0.915176 11.4671 2.3217 12.8736C3.01814 13.5701 3.84493 14.1225 4.75487 14.4994C5.66482 14.8763 6.64009 15.0703 7.625 15.0703C9.61412 15.0703 11.5218 14.2801 12.9283 12.8736C14.3348 11.4671 15.125 9.55944 15.125 7.57031C15.125 6.5854 14.931 5.61013 14.5541 4.70019C14.1772 3.79024 13.6247 2.96345 12.9283 2.26701C12.2319 1.57057 11.4051 1.01813 10.4951 0.641216C9.58518 0.264306 8.60991 0.0703125 7.625 0.0703125Z" fill="#1C1D22"/>
</svg>
