<svg width="19" height="16" viewBox="0 0 19 16" fill="none" xmlns="http://www.w3.org/2000/svg">
<path d="M3.37511 10.0126C3.66871 10.2615 4.1446 10.2614 4.43809 10.0124C4.73158 9.76344 4.73151 9.35985 4.43792 9.11096L2.71316 7.64876L5.32043 5.43762C6.89422 4.10295 9.12838 3.55914 11.2664 3.94118C11.6726 4.01376 12.0713 3.79334 12.1569 3.44886C12.2424 3.10437 11.9825 2.76628 11.5763 2.6937C8.94619 2.22375 6.19432 2.89354 4.25742 4.53615L1.11858 7.19808C0.825021 7.44704 0.825056 7.85072 1.11869 8.09961L3.37511 10.0126Z" fill="#B8B8B8"/>
<path d="M18.7186 7.19722L16.4621 5.28429C16.1685 5.03539 15.6926 5.03545 15.3991 5.28444C15.1057 5.53343 15.1057 5.93701 15.3993 6.18591L17.1241 7.64811L14.5168 9.85925C12.943 11.1939 10.7089 11.7377 8.57081 11.3557C8.1646 11.2831 7.76594 11.5035 7.68036 11.848C7.59478 12.1925 7.85469 12.5306 8.2609 12.6032C10.891 13.0731 13.6429 12.4033 15.5798 10.7607L18.7187 8.09879C19.0122 7.8498 19.0122 7.44612 18.7186 7.19722Z" fill="#B8B8B8"/>
<path d="M6.16406 7.6481C6.16406 8.00014 6.50057 8.28552 6.91569 8.28552C7.3308 8.28552 7.66731 8.00014 7.66731 7.6481C7.66731 6.59205 8.67699 5.73579 9.92223 5.73579C10.3373 5.73579 10.6739 5.45041 10.6739 5.09836C10.6739 4.74632 10.3373 4.46094 9.92223 4.46094C7.84676 4.46091 6.16406 5.88794 6.16406 7.6481Z" fill="#B8B8B8"/>
<path d="M12.1706 7.64917C12.1706 8.70522 11.1609 9.56148 9.91569 9.56148C9.50057 9.56148 9.16406 9.84686 9.16406 10.1989C9.16406 10.551 9.50057 10.8363 9.91569 10.8363C11.9912 10.8363 13.6739 9.4093 13.6739 7.64914C13.6739 7.2971 13.3374 7.01172 12.9223 7.01172C12.5071 7.01172 12.1706 7.29713 12.1706 7.64917Z" fill="#B8B8B8"/>
<path d="M18.7176 0.186697C18.424 -0.0622322 17.9481 -0.0622322 17.6546 0.186697L1.11858 14.2103C0.825056 14.4592 0.825056 14.8628 1.11858 15.1118C1.41211 15.3607 1.88804 15.3607 2.18156 15.1118L18.7176 1.08817C19.0111 0.839242 19.0111 0.435625 18.7176 0.186697Z" fill="#B8B8B8"/>
</svg>
