<svg width="22" height="22" viewBox="0 0 22 22" fill="none" xmlns="http://www.w3.org/2000/svg">
<path d="M11 0.257812C8.9233 0.257812 6.89323 0.873627 5.16652 2.02738C3.4398 3.18114 2.09399 4.82101 1.29927 6.73964C0.504549 8.65826 0.296614 10.7695 0.701759 12.8063C1.1069 14.8431 2.10693 16.714 3.57538 18.1824C5.04383 19.6509 6.91476 20.6509 8.95156 21.0561C10.9884 21.4612 13.0996 21.2533 15.0182 20.4585C16.9368 19.6638 18.5767 18.318 19.7304 16.5913C20.8842 14.8646 21.5 12.8345 21.5 10.7578C21.5 7.97304 20.3938 5.30232 18.4246 3.33319C16.4555 1.36406 13.7848 0.257813 11 0.257812ZM11 19.7578C9.21997 19.7578 7.47992 19.23 5.99987 18.241C4.51983 17.2521 3.36628 15.8465 2.68509 14.202C2.0039 12.5574 1.82567 10.7478 2.17294 9.002C2.5202 7.25617 3.37737 5.65252 4.63604 4.39385C5.89472 3.13518 7.49836 2.27801 9.24419 1.93074C10.99 1.58348 12.7996 1.76171 14.4442 2.4429C16.0887 3.12409 17.4943 4.27764 18.4832 5.75768C19.4722 7.23772 20 8.97778 20 10.7578C20 13.1448 19.0518 15.4339 17.364 17.1218C15.6761 18.8096 13.387 19.7578 11 19.7578Z" fill="#1C1D22"/>
</svg>
