<svg width="147" height="42" viewBox="0 0 147 42" fill="none" xmlns="http://www.w3.org/2000/svg">
<path d="M32.1436 7.89627C32.1197 7.68221 31.9293 7.58708 31.7864 7.58708C31.6435 7.58708 28.5239 7.34924 28.5239 7.34924C28.5239 7.34924 26.3568 5.1849 26.0948 4.97084C25.8567 4.73301 25.4043 4.80436 25.2137 4.85192C25.1899 4.85192 24.7375 4.99463 23.9993 5.23247C23.261 3.1157 21.9989 1.1892 19.7366 1.1892H19.5223C18.9031 0.380543 18.0934 0 17.4266 0C12.1876 0 9.66342 6.54059 8.87756 9.87034C6.82958 10.5125 5.3769 10.9406 5.21021 11.012C4.06715 11.3687 4.04333 11.3925 3.90045 12.4628C3.78138 13.2714 0.804688 36.2705 0.804688 36.2705L23.9755 40.5992L36.5491 37.8878C36.5729 37.8403 32.1674 8.11032 32.1436 7.89627ZM22.7133 5.56544C22.1418 5.73193 21.4512 5.94599 20.7606 6.18383V5.75571C20.7606 4.47138 20.5939 3.42489 20.2843 2.59245C21.475 2.73515 22.2132 4.04327 22.7133 5.56544ZM18.8317 2.85407C19.1412 3.66273 19.3556 4.80436 19.3556 6.3741V6.61194C18.0696 7.01626 16.7123 7.42059 15.3073 7.87248C16.0931 4.8757 17.5934 3.40111 18.8317 2.85407ZM17.3076 1.37947C17.5458 1.37947 17.7839 1.4746 17.9744 1.61731C16.2836 2.40218 14.4976 4.37624 13.7593 8.37195C12.6401 8.72871 11.5685 9.0379 10.5445 9.37088C11.4018 6.32653 13.545 1.37947 17.3076 1.37947Z" fill="black"/>
<path d="M19.7362 14.4844L18.2122 19.0747C18.2122 19.0747 16.831 18.3374 15.1878 18.3374C12.735 18.3374 12.6159 19.8834 12.6159 20.2639C12.6159 22.3569 18.0931 23.1656 18.0931 28.0888C18.0931 31.9656 15.6402 34.4629 12.3301 34.4629C8.32943 34.4629 6.3291 31.9894 6.3291 31.9894L7.4007 28.4694C7.4007 28.4694 9.49633 30.277 11.2585 30.277C12.4254 30.277 12.9017 29.3732 12.9017 28.7072C12.9017 25.9721 8.42468 25.8532 8.42468 21.3342C8.42468 17.5526 11.1395 13.8898 16.6404 13.8898C18.6884 13.866 19.7362 14.4844 19.7362 14.4844Z" fill="white"/>
<path d="M51.2183 23.1179C49.9561 22.452 49.3131 21.8574 49.3131 21.0725C49.3131 20.0736 50.218 19.4314 51.623 19.4314C53.2662 19.4314 54.7189 20.0974 54.7189 20.0974L55.8619 16.6011C55.8619 16.6011 54.8141 15.7925 51.7183 15.7925C47.408 15.7925 44.4075 18.266 44.4075 21.7385C44.4075 23.7125 45.8125 25.2109 47.67 26.2812C49.1941 27.1136 49.718 27.732 49.718 28.6358C49.718 29.5634 48.9559 30.3245 47.5509 30.3245C45.4791 30.3245 43.5026 29.2542 43.5026 29.2542L42.2881 32.7504C42.2881 32.7504 44.0979 33.9634 47.1461 33.9634C51.5754 33.9634 54.7903 31.7753 54.7903 27.8509C54.7427 25.7104 53.1472 24.2358 51.2183 23.1179ZM68.888 15.7449C66.6971 15.7449 64.9825 16.7914 63.6728 18.3611L63.6252 18.3374L65.5303 8.44325H60.6008L55.7905 33.6542H60.7199L62.363 25.0444C63.006 21.786 64.6968 19.7644 66.2685 19.7644C67.3877 19.7644 67.8164 20.5255 67.8164 21.5958C67.8164 22.2617 67.7687 23.1179 67.6021 23.7839L65.7446 33.6542H70.6741L72.603 23.4747C72.8173 22.4044 72.9601 21.1201 72.9601 20.2401C72.9363 17.4098 71.4837 15.7449 68.888 15.7449ZM84.105 15.7449C78.1515 15.7449 74.2223 21.0963 74.2223 27.0661C74.2223 30.8715 76.5799 33.9634 81.0092 33.9634C86.8436 33.9634 90.7728 28.7547 90.7728 22.6423C90.7966 19.0985 88.7487 15.7449 84.105 15.7449ZM81.676 30.2056C79.9852 30.2056 79.2946 28.7785 79.2946 26.9709C79.2946 24.1407 80.7472 19.5503 83.4382 19.5503C85.1766 19.5503 85.772 21.0725 85.772 22.5233C85.772 25.5439 84.2717 30.2056 81.676 30.2056ZM103.418 15.7449C100.084 15.7449 98.2027 18.6941 98.2027 18.6941H98.1551L98.4409 16.0541H94.0591C93.8448 17.8379 93.44 20.5731 93.059 22.5947L89.6536 40.6467H94.583L95.9642 33.345H96.0833C96.0833 33.345 97.1073 33.9872 98.9647 33.9872C104.775 33.9872 108.562 28.0412 108.562 22.0477C108.538 18.7179 107.038 15.7449 103.418 15.7449ZM98.7028 30.2531C97.4169 30.2531 96.6548 29.5158 96.6548 29.5158L97.4645 24.9255C98.036 21.8336 99.6553 19.812 101.37 19.812C102.894 19.812 103.346 21.2152 103.346 22.5233C103.37 25.7104 101.465 30.2531 98.7028 30.2531ZM115.587 8.68109C114.015 8.68109 112.753 9.94164 112.753 11.5352C112.753 12.986 113.682 14.0087 115.087 14.0087H115.134C116.682 14.0087 117.992 12.9622 118.016 11.1546C118.04 9.70379 117.063 8.68109 115.587 8.68109ZM108.681 33.6305H113.61L116.944 16.1255H111.991L108.681 33.6305ZM129.518 16.1017H126.089L126.255 15.293C126.541 13.6044 127.541 12.1298 129.208 12.1298C130.089 12.1298 130.78 12.3914 130.78 12.3914L131.732 8.5146C131.732 8.5146 130.899 8.08649 129.042 8.08649C127.303 8.08649 125.541 8.58595 124.207 9.72758C122.517 11.1546 121.731 13.2238 121.35 15.3168L121.207 16.1255H118.897L118.159 19.8595H120.469L117.849 33.6542H122.778L125.398 19.8595H128.803L129.518 16.1017ZM141.401 16.1255C141.401 16.1255 138.305 23.9028 136.948 28.1601H136.9C136.805 26.7807 135.685 16.1255 135.685 16.1255H130.494L133.471 32.1558C133.518 32.5126 133.495 32.7267 133.352 32.9645C132.78 34.0823 131.804 35.1526 130.661 35.9375C129.732 36.6034 128.684 37.0553 127.851 37.3407L129.232 41.5267C130.232 41.3127 132.328 40.4802 134.066 38.8391C136.305 36.7461 138.4 33.4877 140.544 29.0639L146.568 16.1017H141.401V16.1255Z" fill="black"/>
<path d="M31.7863 7.53946C31.6434 7.53946 28.5239 7.30162 28.5239 7.30162C28.5239 7.30162 26.3568 5.13728 26.0948 4.92322C25.9996 4.82809 25.8805 4.78052 25.7853 4.78052L24.0469 40.5992L36.6205 37.8878C36.6205 37.8878 32.215 8.11027 32.1912 7.89622C32.0959 7.68216 31.9292 7.58703 31.7863 7.53946Z" fill="black"/>
</svg>
