<svg width="120" height="40" viewBox="0 0 120 40" fill="none" xmlns="http://www.w3.org/2000/svg">
<path d="M116.088 24.1827L119.417 26.4185C118.337 28.0219 115.752 30.7726 111.285 30.7726C105.736 30.7726 101.604 26.4479 101.604 20.9465C101.604 15.0921 105.78 11.1205 110.817 11.1205C115.884 11.1205 118.366 15.1804 119.169 17.3721L119.607 18.49L106.554 23.9326C107.547 25.9037 109.095 26.9039 111.285 26.9039C113.475 26.9039 114.993 25.8154 116.088 24.1827ZM105.853 20.6376L114.57 16.9897C114.088 15.7688 112.657 14.9009 110.949 14.9009C108.773 14.9009 105.751 16.8426 105.853 20.6376Z" fill="black"/>
<path d="M72.2718 20.9465C72.2718 26.6097 67.8916 30.7726 62.5187 30.7726C57.1457 30.7726 52.7656 26.6097 52.7656 20.9465C52.7656 15.2539 57.1457 11.1205 62.5187 11.1205C67.8916 11.1205 72.2718 15.2392 72.2718 20.9465ZM67.9939 20.9465C67.9939 17.4162 65.4534 14.9892 62.5041 14.9892C59.5548 14.9892 57.0143 17.4162 57.0143 20.9465C57.0143 24.4474 59.5548 26.9039 62.5041 26.9039C65.468 26.9039 67.9939 24.4327 67.9939 20.9465Z" fill="black"/>
<path d="M88.6833 11.8854H92.7422V29.3604C92.7422 36.6122 88.4935 39.5982 83.471 39.5982C78.7404 39.5982 75.8934 36.3915 74.8275 33.788L78.5506 32.2287C79.2223 33.8321 80.8429 35.7296 83.471 35.7296C86.6977 35.7296 88.6833 33.7144 88.6833 29.9488V28.5366H88.5373C87.5737 29.7134 85.734 30.7725 83.398 30.7725C78.5214 30.7725 74.0537 26.492 74.0537 20.9759C74.0537 15.4304 78.5214 11.1058 83.398 11.1058C85.7194 11.1058 87.5737 12.1502 88.5373 13.2975H88.6833V11.8854ZM88.9753 20.9759C88.9753 17.5044 86.6831 14.9744 83.763 14.9744C80.8137 14.9744 78.3316 17.5044 78.3316 20.9759C78.3316 24.4032 80.8137 26.8892 83.763 26.8892C86.6831 26.9039 88.9753 24.4032 88.9753 20.9759Z" fill="black"/>
<path d="M50.97 20.9023C50.97 26.5655 46.5899 30.7283 41.2169 30.7283C35.844 30.7283 31.4639 26.5508 31.4639 20.9023C31.4639 15.2097 35.844 11.0616 41.2169 11.0616C46.5899 11.0616 50.97 15.2097 50.97 20.9023ZM46.7067 20.9023C46.7067 17.372 44.1662 14.9449 41.2169 14.9449C38.2677 14.9449 35.7272 17.372 35.7272 20.9023C35.7272 24.4032 38.2677 26.8597 41.2169 26.8597C44.1662 26.8597 46.7067 24.4032 46.7067 20.9023Z" fill="black"/>
<path d="M95.3115 1.10327H99.5164V29.8752H95.3115V1.10327Z" fill="black"/>
<path d="M15.4326 26.4626C9.31506 26.4626 4.52613 21.4907 4.52613 15.3274C4.52613 9.16407 9.31506 4.19223 15.4326 4.19223C18.7323 4.19223 21.1414 5.50139 22.9227 7.17828L25.8573 4.22165C23.3753 1.82399 20.061 0 15.4326 0C7.052 0 0 6.88409 0 15.3274C0 23.7707 7.052 30.6548 15.4326 30.6548C19.9588 30.6548 23.3753 29.1544 26.0471 26.3596C28.792 23.5942 29.6388 19.7108 29.6388 16.563C29.6388 15.5775 29.522 14.5625 29.3906 13.8123H15.4326V17.9016H25.3755C25.0835 20.461 24.2805 22.2115 23.0979 23.403C21.667 24.8592 19.404 26.4626 15.4326 26.4626Z" fill="black"/>
</svg>
