<svg width="171" height="37" viewBox="0 0 171 37" fill="none" xmlns="http://www.w3.org/2000/svg">
<path d="M19.8828 19.0288H37.1361V36.2587H19.8828V19.0288Z" fill="black"/>
<path d="M0.828125 19.0288H18.0814V36.2587H0.828125V19.0288Z" fill="black"/>
<path d="M60.8344 20.8837L59.8212 23.7507H59.7368C59.5679 23.1042 59.2583 22.1204 58.7516 20.9399L53.3195 7.30776H48V29.0349H51.5182V15.6276C51.5182 14.7844 51.5182 13.8287 51.4901 12.6482C51.4619 12.0579 51.4056 11.6082 51.3775 11.2709H51.4619C51.6308 12.1142 51.8278 12.7325 51.9686 13.126L58.4984 28.9787H60.9752L67.4487 12.9855C67.5894 12.6201 67.7301 11.8893 67.8708 11.2709H67.9553C67.8709 12.8731 67.8146 14.3065 67.7864 15.1779V28.9506H71.5298V7.25154H66.4073L60.8344 20.8837ZM75.0762 13.379H78.7351V28.9506H75.0762V13.379ZM76.9338 6.80182C76.3146 6.80182 75.8079 7.02668 75.3857 7.42019C74.9636 7.8137 74.7384 8.31963 74.7384 8.938C74.7384 9.52826 74.9636 10.0342 75.3857 10.4277C75.8079 10.8212 76.3146 11.018 76.9338 11.018C77.553 11.018 78.0878 10.7931 78.4818 10.4277C78.904 10.0342 79.1292 9.52826 79.1292 8.938C79.1292 8.34774 78.904 7.8418 78.4818 7.42019C78.1159 7.02668 77.5811 6.80182 76.9338 6.80182ZM91.7103 13.2385C91.0348 13.0979 90.3311 13.0136 89.6556 13.0136C87.995 13.0136 86.4752 13.379 85.2086 14.1098C83.9421 14.8406 82.9288 15.8525 82.2814 17.1173C81.6059 18.4102 81.2682 19.8999 81.2682 21.6145C81.2682 23.1042 81.6059 24.4253 82.2533 25.6339C82.9006 26.8144 83.8013 27.7701 85.0116 28.4165C86.1656 29.063 87.5166 29.4003 89.0364 29.4003C90.7815 29.4003 92.2732 29.0349 93.4553 28.3603L93.4835 28.3322V24.9593L93.3427 25.0717C92.8079 25.4652 92.1887 25.8025 91.5695 25.9993C90.9222 26.2241 90.3311 26.3366 89.8245 26.3366C88.3609 26.3366 87.207 25.915 86.3907 24.9874C85.5464 24.088 85.1241 22.8512 85.1241 21.3053C85.1241 19.7032 85.5464 18.4384 86.4189 17.5108C87.2914 16.5833 88.4454 16.1054 89.8527 16.1054C91.0348 16.1054 92.245 16.4989 93.3427 17.2859L93.4835 17.3984V13.8287L93.4553 13.8006C92.9768 13.6039 92.4421 13.379 91.7103 13.2385ZM103.785 13.126C102.884 13.126 102.04 13.4071 101.308 13.9974C100.689 14.5033 100.267 15.2341 99.9006 16.1054H99.8725V13.379H96.2136V28.9506H99.8725V20.9961C99.8725 19.647 100.154 18.5227 100.773 17.7076C101.392 16.8643 102.18 16.4427 103.137 16.4427C103.475 16.4427 103.813 16.527 104.235 16.5833C104.629 16.6957 104.911 16.8081 105.108 16.9487L105.248 17.0611V13.4071L105.164 13.379C104.911 13.2103 104.404 13.126 103.785 13.126ZM113.748 13.0417C111.187 13.0417 109.132 13.8006 107.697 15.2903C106.233 16.78 105.53 18.8319 105.53 21.4178C105.53 23.835 106.262 25.8025 107.669 27.236C109.076 28.6414 110.99 29.3722 113.382 29.3722C115.887 29.3722 117.886 28.6133 119.321 27.0955C120.785 25.5777 121.488 23.5539 121.488 21.0524C121.488 18.5789 120.813 16.6114 119.434 15.1779C118.111 13.7444 116.169 13.0417 113.748 13.0417ZM116.675 25.0155C116 25.8869 114.93 26.3085 113.608 26.3085C112.285 26.3085 111.215 25.8869 110.455 24.9593C109.695 24.088 109.329 22.8231 109.329 21.221C109.329 19.5627 109.724 18.2978 110.455 17.3984C111.215 16.4989 112.257 16.0492 113.579 16.0492C114.874 16.0492 115.887 16.4708 116.619 17.3422C117.351 18.2135 117.745 19.4783 117.745 21.1367C117.689 22.8231 117.379 24.1442 116.675 25.0155ZM129.651 19.8437C128.497 19.3659 127.765 19.0005 127.427 18.6913C127.146 18.4102 127.005 18.0167 127.005 17.5108C127.005 17.0892 127.174 16.6676 127.596 16.3865C128.018 16.1054 128.497 15.9649 129.2 15.9649C129.82 15.9649 130.467 16.0773 131.086 16.246C131.705 16.4146 132.268 16.6676 132.719 17.0049L132.859 17.1173V13.6882L132.775 13.6601C132.353 13.4914 131.79 13.3228 131.114 13.1822C130.439 13.0698 129.819 13.0136 129.313 13.0136C127.568 13.0136 126.132 13.4352 125.007 14.3628C123.881 15.2341 123.346 16.4146 123.346 17.7919C123.346 18.5227 123.459 19.1692 123.712 19.7032C123.965 20.2372 124.331 20.7432 124.838 21.1648C125.344 21.5583 126.076 22.008 127.089 22.4296C127.934 22.795 128.581 23.0761 128.975 23.301C129.369 23.5258 129.622 23.7788 129.82 23.9755C129.96 24.2004 130.045 24.4815 130.045 24.8469C130.045 25.8869 129.257 26.3928 127.652 26.3928C127.033 26.3928 126.386 26.2804 125.626 26.0274C124.866 25.7744 124.162 25.409 123.571 24.9874L123.43 24.875V28.4446L123.515 28.4728C124.05 28.7257 124.697 28.8944 125.485 29.0911C126.273 29.2317 126.977 29.3441 127.596 29.3441C129.482 29.3441 131.03 28.9225 132.127 27.9949C133.253 27.0955 133.844 25.9431 133.844 24.4534C133.844 23.4134 133.563 22.4858 132.944 21.7832C132.128 21.1086 131.114 20.4059 129.651 19.8437ZM143.498 13.0417C140.937 13.0417 138.882 13.8006 137.447 15.2903C136.012 16.78 135.28 18.8319 135.28 21.4178C135.28 23.835 136.012 25.8025 137.419 27.236C138.826 28.6414 140.74 29.3722 143.132 29.3722C145.637 29.3722 147.636 28.6133 149.071 27.0955C150.535 25.5777 151.238 23.5539 151.238 21.0524C151.238 18.5789 150.563 16.6114 149.184 15.1779C147.861 13.7444 145.919 13.0417 143.498 13.0417ZM146.397 25.0155C145.722 25.8869 144.652 26.3085 143.329 26.3085C141.978 26.3085 140.937 25.8869 140.177 24.9593C139.417 24.088 139.051 22.8231 139.051 21.221C139.051 19.5627 139.445 18.2978 140.177 17.3984C140.937 16.4989 141.978 16.0492 143.301 16.0492C144.568 16.0492 145.609 16.4708 146.341 17.3422C147.073 18.2135 147.467 19.4783 147.467 21.1367C147.467 22.8231 147.101 24.1442 146.397 25.0155ZM170.8 16.3865V13.379H167.113V8.76935L167 8.79746L163.51 9.83744L163.425 9.86555V13.379H157.909V11.4115C157.909 10.512 158.134 9.80933 158.528 9.35961C158.922 8.90989 159.513 8.68503 160.245 8.68503C160.752 8.68503 161.286 8.79746 161.877 9.05043L162.018 9.13475V5.9586L161.934 5.93049C161.427 5.76184 160.752 5.64941 159.879 5.64941C158.781 5.64941 157.824 5.90238 156.952 6.324C156.079 6.80182 155.432 7.4483 154.954 8.31963C154.475 9.16286 154.222 10.1185 154.222 11.2147V13.379H151.661V16.3584H154.222V28.9506H157.909V16.3865H163.425V24.3972C163.425 27.6857 164.973 29.3441 168.07 29.3441C168.576 29.3441 169.111 29.2598 169.618 29.1754C170.152 29.063 170.546 28.9225 170.771 28.81L170.8 28.7819V25.7744L170.659 25.8869C170.434 26.0274 170.237 26.1398 169.899 26.2241C169.618 26.3085 169.364 26.3366 169.167 26.3366C168.435 26.3366 167.929 26.1679 167.563 25.7463C167.225 25.3528 167.056 24.7063 167.056 23.7507V16.3865H170.8Z" fill="black"/>
<path d="M19.8828 0H37.1361V17.2299H19.8828V0Z" fill="black"/>
<path d="M0.828125 0H18.0814V17.2299H0.828125V0Z" fill="black"/>
</svg>
