<svg width="120" height="36" viewBox="0 0 120 36" fill="none" xmlns="http://www.w3.org/2000/svg">
<path d="M33.1719 8.05541C28.7188 8.05541 25.3203 10.9741 23.9141 15.6439C21.8047 12.4918 20.2812 8.98938 19.2266 5.37024H14.4219V17.7454C14.4219 20.197 12.4297 22.1817 9.96875 22.1817C7.50781 22.1817 5.51562 20.197 5.51562 17.7454V5.48699H0.828125V17.8621C0.828125 22.8822 4.92969 27.0851 10.0859 27.0851C15.2422 27.0851 19.3438 22.9989 19.3438 17.8621V15.7607C20.2812 17.7454 21.4531 19.6133 22.7422 21.3645L19.8125 35.0238H24.7344L26.8438 25.1004C28.7188 26.3846 30.9453 27.0851 33.2891 27.0851C38.5625 27.0851 42.7812 22.8822 42.7812 17.6286C42.6641 12.375 38.4453 8.05541 33.1719 8.05541ZM33.1719 22.2985C31.1797 22.1817 29.3047 21.4812 27.7812 20.197L28.1328 18.3291V18.2123C28.4844 16.2277 29.6562 12.842 33.0547 12.842C35.6328 12.7253 37.7422 14.8267 37.8594 17.3951C37.9766 19.9635 35.8672 22.065 33.2891 22.1817L33.1719 22.2985Z" fill="black"/>
<path d="M77.4688 8.0555C72.1953 8.0555 67.9766 12.2584 67.9766 17.512C67.9766 22.7656 72.1953 26.9684 77.4688 26.9684C82.7422 26.9684 86.9609 22.7656 86.9609 17.512C86.9609 12.2584 82.7422 8.0555 77.4688 8.0555ZM77.4688 23.1158C74.4219 23.1158 71.8438 20.6641 71.8438 17.512C71.8438 14.3598 74.3047 11.9081 77.4688 11.9081C80.5156 11.9081 83.0938 14.3598 83.0938 17.3952C83.0938 20.5474 80.6328 23.1158 77.4688 23.1158ZM98.5625 12.6086C95.8672 12.6086 93.6406 14.8268 93.6406 17.512V26.5014H89.5391V8.63923H93.6406V11.4411C94.8125 9.68995 96.8047 8.63923 98.9141 8.63923H100.203V12.6086H98.5625ZM57.3125 8.63923L60.3594 21.0144L63.7578 8.63923H67.7422L62.5859 26.5014H58.4844L55.3203 14.0096L52.1562 26.5014H48.0547L42.8984 8.63923H46.8828L50.2812 21.0144L53.4453 8.63923H57.3125ZM112.156 16.8115C115.203 15.177 116.961 12.0249 116.961 8.52249H112.977C112.977 11.5579 110.516 13.8928 107.586 13.8928H107V0H102.898V26.5014H107V18.0957H107.469C107.938 18.0957 108.406 18.3292 108.641 18.6794L114.383 26.5014H119.305L112.156 16.8115Z" fill="black"/>
</svg>
