<svg width="181" height="39" viewBox="0 0 181 39" fill="none" xmlns="http://www.w3.org/2000/svg">
<path fill-rule="evenodd" clip-rule="evenodd" d="M97.0607 26.8565C95.1045 28.8147 92.7643 29.799 90.0522 29.799C87.8588 29.799 85.9951 29.3579 84.0928 28.2677V23.7786C85.6233 24.8025 87.5458 25.7773 89.4417 25.7773C93.3978 25.7773 95.7525 23.0915 95.7525 19.2853C95.7525 15.476 93.3172 12.7106 89.3594 12.7106C87.5918 12.7106 86.1591 13.3377 85.0399 14.5939C83.8402 15.955 83.22 17.9005 83.22 20.4725V38.1985H82.9219C80.7414 38.1985 78.9748 36.4554 78.9748 34.3049V19.8075C78.9748 13.6554 82.7873 8.68842 89.3401 8.68842C92.5757 8.68842 95.2034 9.77973 97.1959 11.9724C99.0693 14.0211 99.9977 16.6169 99.9977 19.7406C99.9977 22.5203 99.018 24.8973 97.0607 26.8565ZM143.024 26.7063C141.076 28.7699 138.568 29.799 135.528 29.799C132.319 29.799 129.704 28.7077 127.713 26.5151C125.841 24.441 124.912 21.8431 124.912 18.7473C124.912 13.2676 129.2 8.68842 134.842 8.68842C137.018 8.68842 138.907 9.14159 140.816 10.1744V14.7093C139.286 13.6855 137.364 12.7106 135.468 12.7106C131.512 12.7106 129.156 15.3959 129.156 19.2037C129.156 22.9592 131.649 25.7773 135.549 25.7773C137.315 25.7773 138.769 25.1244 139.933 23.8092C141.089 22.5024 141.69 20.5822 141.69 18.0027V3.89372C141.69 1.74272 143.458 0.000105381 145.637 0.000105381H145.935V18.6646C145.935 21.9517 144.971 24.6423 143.024 26.7063ZM155.012 6.69603C154.566 7.1882 153.928 7.41479 153.149 7.41479C151.691 7.41479 150.649 6.35457 150.649 4.92812C150.649 3.46795 151.672 2.48256 153.149 2.48256C154.57 2.48256 155.649 3.5217 155.649 4.92812C155.649 5.62369 155.442 6.2202 155.012 6.69603ZM176.582 18.0027C176.582 16.3518 175.949 15.045 174.677 14.0549C173.531 13.1638 172.1 12.7106 170.359 12.7106C166.516 12.7106 164.049 15.6736 164.049 19.327C164.049 22.8433 166.664 25.7773 170.318 25.7773C172.86 25.7773 174.219 24.3129 175.668 22.4886V27.7486C174.93 28.2946 174.08 28.8895 173.213 29.2388C172.298 29.6156 171.206 29.799 169.944 29.799C163.834 29.799 159.804 24.8067 159.804 19.0377C159.804 16.0752 160.737 13.6259 162.615 11.7163C164.608 9.69225 167.221 8.68842 170.421 8.68842C176.488 8.68842 180.828 12.1246 180.828 18.3337V29.3853H180.531C178.349 29.3853 176.582 27.6422 176.582 25.4912V18.0027ZM118.469 16.8166C117.932 15.1799 117.26 14.3747 115.713 13.5226C112.034 11.4949 108.413 13.2212 106.729 16.8008L118.469 16.8166ZM115.229 29.7373C112.518 30.3059 109.857 29.8675 107.262 28.4363C104.729 27.0415 103.033 24.9669 102.184 22.2257C100.465 16.6817 103.985 10.5038 109.647 9.00775C112.454 8.26633 115.145 8.602 117.701 10.0111C121.947 12.3528 123.495 15.9745 123.225 20.6412L106.122 20.6074C106.374 22.5108 107.57 23.9999 109.251 24.9263C110.956 25.8659 112.523 26.0903 113.977 25.6456C115.592 25.1455 116.902 23.8455 117.967 22.6357L121.452 25.1408C120.031 27.6501 118.095 29.1356 115.229 29.7373ZM151.026 9.1026H155.271V29.3853H154.972C152.794 29.3853 151.026 27.6422 151.026 25.4912V9.1026ZM7.04071 29.3852C2.88848 29.3852 0.828125 26.5993 0.828125 22.7088V7.94848C0.828125 5.79801 2.59574 4.05486 4.77576 4.05486H5.07384V9.10249H12.2464V13.1247H5.07384V23.1746C5.07384 24.8835 5.84681 25.3636 7.50226 25.3636H12.2464V29.3852H7.04071ZM31.695 26.8216C29.5978 28.8051 27.077 29.7989 24.1486 29.7989C21.2474 29.7989 18.741 28.804 16.6438 26.8216C14.5396 24.8308 13.4905 22.2973 13.4905 19.2441C13.4905 13.2875 18.1016 8.68884 24.1486 8.68884C27.0508 8.68884 29.5642 9.69109 31.6742 11.6882C33.7917 13.6912 34.8494 16.2173 34.8494 19.2441C34.8494 22.2973 33.7992 24.8308 31.695 26.8216ZM51.5427 13.9831C50.9199 15.0133 50.437 15.752 50.0972 16.1984C49.7227 16.6837 49.3531 17.0715 48.9866 17.3397C51.9369 18.2798 53.0358 20.2959 53.0358 23.2995V29.3852H52.7377C50.5577 29.3852 48.7901 27.6421 48.7901 25.4911V23.7126C48.7901 21.7677 47.906 20.4482 45.8168 20.4482H41.9615V29.3852H41.6635C39.4835 29.3852 37.7174 27.6421 37.7174 25.4911V3.89362C37.7174 1.74262 39.4835 0 41.6635 0H41.9615V16.3849H43.2164C44.5951 16.3849 45.5011 15.9196 46.0214 15.0396L49.5871 9.10355L54.4241 9.0988L51.5427 13.9831ZM73.4566 26.8216C71.3589 28.8051 68.8381 29.7989 65.9097 29.7989C63.009 29.7989 60.5026 28.804 58.4049 26.8216C56.3007 24.8308 55.2516 22.2973 55.2516 19.2441C55.2516 13.2875 59.8627 8.68884 65.9097 8.68884C68.8124 8.68884 71.3253 9.69109 73.4358 11.6882C75.5533 13.6912 76.6105 16.2173 76.6105 19.2441C76.6105 22.2973 75.5608 24.8308 73.4566 26.8216ZM70.3925 14.5237C69.2221 13.3165 67.7366 12.7105 65.9097 12.7105C62.0032 12.7105 59.6645 15.5202 59.6645 19.2441C59.6645 22.9164 62.0587 25.7772 65.9097 25.7772C69.7622 25.7772 72.1554 22.9164 72.1554 19.2441C72.1554 17.2944 71.5614 15.7299 70.3925 14.5237ZM28.6309 14.5237C27.4611 13.3165 25.9749 12.7105 24.1486 12.7105C20.2421 12.7105 17.9034 15.5202 17.9034 19.2441C17.9034 22.9164 20.2976 25.7772 24.1486 25.7772C28.0006 25.7772 30.3937 22.9164 30.3937 19.2441C30.3937 17.2944 29.8003 15.7299 28.6309 14.5237Z" fill="black"/>
</svg>
