<svg width="109" height="45" viewBox="0 0 109 45" fill="none" xmlns="http://www.w3.org/2000/svg">
<path d="M58.9114 9.97253H51.4141V36.1766H58.9114V9.97253Z" fill="black"/>
<path fill-rule="evenodd" clip-rule="evenodd" d="M43.379 12.1886L42.9011 9.97252H36.4492V36.1766H43.9166V18.4177C45.6789 16.1118 48.666 16.531 49.5919 16.8605V9.97252C48.6361 9.61315 45.1413 8.9543 43.379 12.1886Z" fill="black"/>
<path fill-rule="evenodd" clip-rule="evenodd" d="M108.226 23.1794C108.226 15.5128 104.522 9.46344 97.4434 9.46344C90.3344 9.46344 86.0332 15.5128 86.0332 23.1195C86.0332 32.1337 91.1111 36.6858 98.3993 36.6858C101.954 36.6858 104.642 35.8772 106.673 34.7392V28.7497C104.642 29.7679 102.312 30.3968 99.3551 30.3968C96.4577 30.3968 93.8889 29.3786 93.5603 25.8447H108.167C108.167 25.4554 108.226 23.8982 108.226 23.1794ZM93.4707 20.3344C93.4707 16.9503 95.5318 15.5428 97.4136 15.5428C99.2356 15.5428 101.177 16.9503 101.177 20.3344H93.4707Z" fill="black"/>
<path fill-rule="evenodd" clip-rule="evenodd" d="M74.5035 9.46344C71.5763 9.46344 69.6945 10.841 68.649 11.7993L68.2607 9.9426H61.6895V44.8614L69.1569 43.2742L69.1868 34.7991C70.2621 35.5777 71.8451 36.6857 74.4736 36.6857C79.8203 36.6857 84.6891 32.3733 84.6891 22.8799C84.6592 14.1952 79.7307 9.46344 74.5035 9.46344ZM72.7114 30.0973C70.9491 30.0973 69.9036 29.4684 69.1868 28.6898L69.1569 17.5792C69.9335 16.7107 71.0089 16.1118 72.7114 16.1118C75.4296 16.1118 77.3113 19.1664 77.3113 23.0896C77.3113 27.1025 75.4594 30.0973 72.7114 30.0973Z" fill="black"/>
<path fill-rule="evenodd" clip-rule="evenodd" d="M8.25232 17.5792C8.25232 16.4113 9.20817 15.9621 10.7913 15.9621C13.0614 15.9621 15.9289 16.6508 18.199 17.8787V10.841C15.7198 9.85276 13.2704 9.46344 10.7913 9.46344C4.72772 9.46344 0.695312 12.6379 0.695312 17.9386C0.695312 26.2041 12.0458 24.8864 12.0458 28.4502C12.0458 29.8278 10.851 30.277 9.17834 30.277C6.69916 30.277 3.53298 29.2588 1.02393 27.8812V35.0087C3.8018 36.2066 6.60955 36.7157 9.17834 36.7157C15.3912 36.7157 19.6626 33.6311 19.6626 28.2705C19.6327 19.3461 8.25232 20.9333 8.25232 17.5792Z" fill="black"/>
<path fill-rule="evenodd" clip-rule="evenodd" d="M28.4441 3.47394L21.1559 5.03121L21.126 29.0192C21.126 33.4514 24.4415 36.7157 28.8622 36.7157C31.3115 36.7157 33.1038 36.2665 34.0895 35.7274V29.6481C33.1336 30.0374 28.4142 31.415 28.4142 26.9828V16.3514H34.0895V9.97256H28.4142L28.4441 3.47394Z" fill="black"/>
<path fill-rule="evenodd" clip-rule="evenodd" d="M51.4141 7.69652L58.9114 6.07935V0L51.4141 1.58722V7.69652Z" fill="black"/>
</svg>
