<svg width="44" height="38" viewBox="0 0 44 38" fill="none" xmlns="http://www.w3.org/2000/svg">
<path d="M40.1428 0H2.95789C2.17341 0 1.42106 0.325871 0.866345 0.905926C0.311634 1.48598 0 2.2727 0 3.09302V34.907C0 35.7273 0.311634 36.514 0.866345 37.0941C1.42106 37.6741 2.17341 38 2.95789 38H40.1428C40.9272 38 41.6796 37.6741 42.2343 37.0941C42.789 36.514 43.1006 35.7273 43.1006 34.907V3.09302C43.1006 2.2727 42.789 1.48598 42.2343 0.905926C41.6796 0.325871 40.9272 0 40.1428 0ZM2.95789 2.65116H40.1428C40.2548 2.65116 40.3623 2.69772 40.4416 2.78058C40.5208 2.86345 40.5653 2.97583 40.5653 3.09302V28.1686L33.7833 21.0767C33.2259 20.502 32.4745 20.1798 31.6917 20.1798C30.9088 20.1798 30.1574 20.502 29.6 21.0767L25.2266 25.65C25.1889 25.6929 25.1432 25.7271 25.0923 25.7505C25.0414 25.7739 24.9864 25.786 24.9308 25.786C24.8751 25.786 24.8201 25.7739 24.7692 25.7505C24.7183 25.7271 24.6726 25.6929 24.635 25.65L15.1909 15.7744C14.6334 15.1997 13.8821 14.8774 13.0992 14.8774C12.3164 14.8774 11.565 15.1997 11.0076 15.7744L2.53533 24.6337V3.09302C2.53533 2.97583 2.57985 2.86345 2.6591 2.78058C2.73834 2.69772 2.84582 2.65116 2.95789 2.65116ZM40.1428 35.3488H2.95789C2.84582 35.3488 2.73834 35.3023 2.6591 35.2194C2.57985 35.1366 2.53533 35.0242 2.53533 34.907V28.3895L12.8034 17.6523C12.841 17.6095 12.8867 17.5753 12.9377 17.5518C12.9886 17.5284 13.0436 17.5163 13.0992 17.5163C13.1548 17.5163 13.2099 17.5284 13.2608 17.5518C13.3117 17.5753 13.3574 17.6095 13.395 17.6523L22.8391 27.5279C23.3965 28.1027 24.1479 28.4249 24.9308 28.4249C25.7136 28.4249 26.465 28.1027 27.0224 27.5279L31.3959 22.9546C31.4335 22.9118 31.4792 22.8776 31.5301 22.8542C31.581 22.8308 31.636 22.8187 31.6917 22.8187C31.7473 22.8187 31.8023 22.8308 31.8532 22.8542C31.9041 22.8776 31.9498 22.9118 31.9874 22.9546L40.5653 31.9244V34.907C40.5653 35.0242 40.5208 35.1366 40.4416 35.2194C40.3623 35.3023 40.2548 35.3488 40.1428 35.3488ZM25.966 14.3826C25.7693 14.1769 25.6137 13.9322 25.5085 13.6628C25.4033 13.3935 25.3505 13.1049 25.3533 12.814C25.3533 12.228 25.5759 11.6661 25.9721 11.2517C26.3684 10.8374 26.9058 10.6047 27.4661 10.6047C28.0264 10.6047 28.5638 10.8374 28.9601 11.2517C29.3563 11.6661 29.5789 12.228 29.5789 12.814C29.5789 13.3999 29.3563 13.9618 28.9601 14.3762C28.5638 14.7905 28.0264 15.0233 27.4661 15.0233C27.1879 15.0262 26.9119 14.971 26.6543 14.861C26.3967 14.751 26.1627 14.5883 25.966 14.3826Z" fill="#5F5F5F"/>
</svg>
