<svg width="17" height="16" viewBox="0 0 17 16" fill="none" xmlns="http://www.w3.org/2000/svg">
<path d="M8.25 0C10.3717 0 12.4066 0.842855 13.9069 2.34315C15.4071 3.84344 16.25 5.87827 16.25 8C16.25 10.1217 15.4071 12.1566 13.9069 13.6569C12.4066 15.1571 10.3717 16 8.25 16C6.12827 16 4.09344 15.1571 2.59315 13.6569C1.09285 12.1566 0.25 10.1217 0.25 8C0.25 5.87827 1.09285 3.84344 2.59315 2.34315C4.09344 0.842855 6.12827 0 8.25 0ZM9.44991 4.91165C10.0442 4.91165 10.5264 4.49911 10.5264 3.88772C10.5264 3.27634 10.043 2.8638 9.44991 2.8638C8.85567 2.8638 8.37571 3.27634 8.37571 3.88772C8.37571 4.49911 8.85567 4.91165 9.44991 4.91165ZM9.65904 11.342C9.65904 11.2198 9.70132 10.9021 9.67733 10.7215L8.73797 11.8026C8.54369 12.0071 8.30028 12.1488 8.186 12.1111C8.13416 12.0921 8.09083 12.0551 8.06381 12.0069C8.03678 11.9587 8.02784 11.9025 8.03859 11.8483L9.60419 6.90236C9.73218 6.27498 9.38021 5.70245 8.63397 5.62931C7.8466 5.62931 6.68783 6.42811 5.98273 7.44175C5.98273 7.56289 5.95988 7.86458 5.98388 8.04514L6.92209 6.96293C7.11637 6.76066 7.34264 6.61781 7.45691 6.65667C7.51322 6.67688 7.55935 6.71835 7.58542 6.77219C7.61148 6.82603 7.6154 6.88795 7.59633 6.94465L6.04444 11.8666C5.86503 12.4425 6.20443 13.0071 7.02723 13.1351C8.23857 13.1351 8.95395 12.3557 9.66018 11.342H9.65904Z" fill="#C33366"/>
</svg>
