<svg width="14" height="15" viewBox="0 0 14 15" fill="none" xmlns="http://www.w3.org/2000/svg">
<path d="M12.8083 10.1404L13.3095 7.24018C13.3389 7.07019 13.3308 6.89584 13.2858 6.7293C13.2408 6.56277 13.1599 6.40808 13.0489 6.27606C12.9378 6.14403 12.7993 6.03786 12.643 5.96497C12.4866 5.89208 12.3162 5.85422 12.1437 5.85405H8.46088C8.37494 5.85407 8.29001 5.83538 8.21202 5.79927C8.13402 5.76317 8.06482 5.71052 8.00922 5.64497C7.95362 5.57943 7.91295 5.50257 7.89005 5.41973C7.86714 5.33689 7.86255 5.25005 7.87658 5.16526L8.34786 2.28994C8.42434 1.82309 8.40255 1.34542 8.28389 0.887471C8.23311 0.698249 8.13532 0.524933 7.99961 0.383631C7.8639 0.242329 7.69468 0.137627 7.50766 0.0792553L7.40459 0.0458461C7.17155 -0.0290117 6.91869 -0.0117133 6.69802 0.0941827C6.45634 0.210759 6.28005 0.423298 6.21466 0.675643L5.8763 1.97931C5.76858 2.39417 5.61205 2.7948 5.40999 3.1728C5.115 3.72511 4.65864 4.16796 4.18381 4.57669L3.16092 5.45812C3.01902 5.58075 2.90819 5.73525 2.83751 5.90897C2.76684 6.08269 2.73833 6.27069 2.75433 6.45755L3.33152 13.1344C3.35696 13.4297 3.4922 13.7047 3.71053 13.9051C3.92886 14.1056 4.21441 14.2168 4.51079 14.217H7.81474C10.2899 14.217 12.4017 12.4925 12.8083 10.1404Z" fill="#00A3FF"/>
<path fill-rule="evenodd" clip-rule="evenodd" d="M0.510433 5.32082C0.647808 5.31482 0.782191 5.36212 0.885511 5.45286C0.988831 5.54359 1.0531 5.67074 1.06488 5.80774L1.75439 13.7947C1.76607 13.9136 1.75338 14.0337 1.7171 14.1475C1.68082 14.2614 1.62171 14.3667 1.54337 14.4569C1.46504 14.5472 1.36913 14.6205 1.2615 14.6725C1.15387 14.7244 1.03678 14.7539 0.917385 14.7591C0.797988 14.7642 0.678789 14.745 0.567068 14.7026C0.455347 14.6601 0.353449 14.5954 0.267598 14.5122C0.181747 14.4291 0.113745 14.3293 0.0677449 14.219C0.021745 14.1087 -0.00128703 13.9902 5.54874e-05 13.8707V5.85324C0.000113573 5.71582 0.0532304 5.58373 0.148324 5.48453C0.243417 5.38533 0.373142 5.32668 0.510433 5.32082Z" fill="#00A3FF"/>
</svg>
