<svg width="22" height="22" viewBox="0 0 22 22" fill="none" xmlns="http://www.w3.org/2000/svg">
<path fill-rule="evenodd" clip-rule="evenodd" d="M5.55634 4.45461C7.00044 3.01051 8.95907 2.19922 11.0013 2.19922C13.0436 2.19922 15.0022 3.01051 16.4463 4.45461C17.8904 5.89872 18.7017 7.85734 18.7017 9.89961C18.7017 11.9419 17.8904 13.9005 16.4463 15.3446L11.0013 20.7896L5.55634 15.3446C4.84124 14.6296 4.27399 13.7807 3.88698 12.8465C3.49997 11.9122 3.30078 10.9109 3.30078 9.89961C3.30078 8.88837 3.49997 7.88703 3.88698 6.95277C4.27399 6.01851 4.84124 5.16963 5.55634 4.45461ZM11.0013 12.0996C11.5848 12.0996 12.1444 11.8678 12.557 11.4552C12.9696 11.0427 13.2013 10.4831 13.2013 9.89961C13.2013 9.31613 12.9696 8.75656 12.557 8.34398C12.1444 7.9314 11.5848 7.69961 11.0013 7.69961C10.4179 7.69961 9.85828 7.9314 9.4457 8.34398C9.03312 8.75656 8.80134 9.31613 8.80134 9.89961C8.80134 10.4831 9.03312 11.0427 9.4457 11.4552C9.85828 11.8678 10.4179 12.0996 11.0013 12.0996Z" fill="#C33366"/>
</svg>
