<svg width="15" height="20" viewBox="0 0 15 20" fill="none" xmlns="http://www.w3.org/2000/svg">
<path d="M7.31801 0.361902C3.33069 0.469304 0.0749949 3.61976 0.00183314 7.52202C-0.0347478 9.20465 0.477383 10.7441 1.42849 11.9971L1.50165 12.1045L6.80588 19.193C7.28143 19.8016 8.23253 19.8016 8.6715 19.1572L13.4636 12.1761C14.3781 10.8157 15 9.38365 15 7.73682C15 3.58395 11.5614 0.254501 7.31801 0.361902ZM7.50092 12.0329C5.12316 12.0329 3.22095 10.1713 3.22095 7.84422C3.22095 5.51719 5.12316 3.65556 7.50092 3.65556C9.87867 3.65556 11.7809 5.51719 11.7809 7.84422C11.7809 10.1713 9.87867 12.0329 7.50092 12.0329Z" fill="#C33366"/>
</svg>
