<svg width="56" height="56" viewBox="0 0 56 56" fill="none" xmlns="http://www.w3.org/2000/svg">
<path d="M1.64926 13.0642C1.63257 14.7213 2.00907 16.1864 2.69029 17.5798C3.33562 18.9005 3.97259 20.2253 4.63127 21.5394C4.75733 21.7915 4.74982 21.9885 4.64046 22.2389C3.15697 25.6158 1.67848 28.9944 0.210853 32.3771C-0.367684 33.7112 0.287655 35.1162 1.64676 35.4902C2.26704 35.6613 2.84641 35.5286 3.41743 35.2481C7.73767 33.131 12.0629 31.0239 16.3857 28.9117C19.0388 27.6152 21.6885 26.3112 24.3449 25.0189C25.482 24.4654 26.1557 23.5855 26.3243 22.3274C26.4103 21.688 26.2834 21.0777 26.0046 20.5067C24.1012 16.6063 22.2579 12.6735 20.2601 8.8224C18.4677 5.36704 15.5191 3.51956 11.6155 3.3576C6.9546 3.16393 2.64605 6.70026 1.82625 11.2993C1.71605 11.9171 1.6334 12.5357 1.64926 13.0642Z" fill="#212537"/>
<path d="M13.0927 53.9172C14.6805 53.9322 16.1106 53.5841 17.4688 52.9254C18.8163 52.2718 20.1653 51.6223 21.5052 50.9527C21.7649 50.8233 21.9702 50.8133 22.2391 50.9319C25.6017 52.412 28.9694 53.8805 32.3388 55.3456C33.399 55.8064 34.4593 55.561 35.1054 54.6961C35.699 53.9013 35.6865 53.0598 35.2582 52.1858C33.6228 48.8481 31.9982 45.5063 30.367 42.167C28.5954 38.5413 26.8239 34.9157 25.0474 31.2917C24.0857 29.329 22.2399 28.7145 20.2747 29.6779C16.5772 31.4904 12.8698 33.2836 9.17648 35.106C5.934 36.7064 3.94544 39.2902 3.4387 42.8783C2.75664 47.7077 5.81379 52.2375 10.5339 53.5566C11.3955 53.7987 12.2712 53.9297 13.0927 53.9172Z" fill="#212537"/>
<path d="M53.9159 42.5014C53.9276 40.846 53.5469 39.3817 52.8657 37.9892C52.2262 36.681 51.5967 35.3678 50.9456 34.0655C50.8153 33.805 50.8061 33.5963 50.9247 33.3275C52.4057 29.9648 53.8817 26.6004 55.3443 23.2294C55.9495 21.8352 55.2566 20.4068 53.8324 20.0595C53.2497 19.9176 52.7137 20.0554 52.1844 20.315C47.2397 22.7352 42.2917 25.1478 37.3454 27.5621C35.3142 28.5539 33.2814 29.5424 31.2519 30.5383C29.3594 31.4666 28.7124 33.3325 29.6324 35.22C31.4623 38.9718 33.2772 42.731 35.1381 46.4669C36.7201 49.6417 39.2772 51.5844 42.7935 52.1195C47.5244 52.8391 52.1126 49.8621 53.4884 45.2756C53.7689 44.338 53.9301 43.383 53.9159 42.5014Z" fill="#212537"/>
<path d="M42.6359 1.64341C40.8376 1.64508 39.3591 2.01908 37.955 2.71366C36.6501 3.35982 35.3369 3.98845 34.0338 4.63711C33.7883 4.75899 33.5871 4.75899 33.3359 4.6488C29.9606 3.1628 26.5829 1.68014 23.1994 0.212511C21.8486 -0.373539 20.4361 0.301003 20.0696 1.68265C19.9126 2.27454 20.0345 2.82887 20.3017 3.37401C22.7252 8.31787 25.1412 13.2651 27.5588 18.2114C28.5515 20.2426 29.5416 22.2745 30.5358 24.3049C31.4692 26.2108 33.3083 26.8603 35.2084 25.9361C38.9743 24.1053 42.7452 22.2837 46.4936 20.4162C49.4264 18.9553 51.3006 16.6177 52.0018 13.397C53.1205 8.25859 49.7862 3.07013 44.6378 1.90471C43.904 1.73942 43.1626 1.63423 42.6359 1.64341Z" fill="#212537"/>
<path d="M4.42231 29.5235C4.28289 29.7873 4.13263 30.0461 4.0625 30.34C4.22529 30.4535 4.35552 30.3325 4.48409 30.269C5.63198 29.7055 6.78404 29.1487 7.93026 28.5827C10.1242 27.4991 12.3248 26.4271 14.5204 25.3477C16.8287 24.2132 19.1504 23.1062 21.4512 21.9558C21.6006 21.8815 21.7559 21.8172 21.8886 21.7137C22.1432 21.5158 22.2526 21.2646 22.1541 20.9423C22.109 20.7954 22.0522 20.6535 21.9813 20.5182C21.2725 19.1625 20.643 17.7683 19.9652 16.3967C18.8139 14.0658 17.6736 11.7291 16.539 9.38994C16.1032 8.4925 15.4972 7.71695 14.7617 7.04157C14.6164 6.908 14.4461 6.82201 14.2741 6.73435C13.8734 6.38706 13.3642 6.31693 12.8775 6.2034C9.77273 5.48211 6.35577 7.17848 5.04426 10.0837C5.02172 10.1329 5.01421 10.1889 4.99918 10.2415C5.0835 10.6839 5.30723 11.073 5.50341 11.467C6.82077 14.1159 8.08554 16.7899 9.4029 19.4379C9.80446 20.2452 9.78359 20.9991 9.29438 21.7613C7.90773 23.9243 6.5386 26.0974 5.15028 28.2596C4.88815 28.6728 4.68361 29.1145 4.42231 29.5235Z" fill="#EE2D3D"/>
<path d="M14.2704 6.73851C15.3623 7.63345 16.1271 8.76213 16.7365 10.0302C18.4445 13.5824 20.1918 17.1163 21.9216 20.6576C22.2213 21.2721 22.1512 21.5083 21.5668 21.7938C15.7823 24.6239 9.9969 27.4523 4.21154 30.2799C4.16228 30.3041 4.10969 30.3216 4.05793 30.3433C3.76574 30.9794 3.47355 31.6156 3.17969 32.2542C3.36001 32.3269 3.48357 32.2108 3.61547 32.1465C10.0921 28.9842 16.567 25.8202 23.0428 22.6562C23.7081 22.3315 23.7841 22.1086 23.4602 21.4457C21.6661 17.7708 19.8696 14.0984 18.0806 10.4218C17.3417 8.90322 16.2698 7.70441 14.7755 6.89796C14.6177 6.81281 14.4641 6.71263 14.2704 6.73851Z" fill="#FEFEFE"/>
<path d="M4.42395 29.5234C5.00415 28.8314 5.4199 28.0308 5.90744 27.2786C7.08288 25.467 8.23077 23.6371 9.39285 21.8163C9.88874 21.0399 9.93048 20.2627 9.51474 19.4253C8.17651 16.728 6.86081 14.0198 5.53844 11.315C5.36313 10.956 5.26211 10.5603 5.00165 10.2439C4.06246 12.26 4.12758 14.2744 5.05925 16.2647C5.75383 17.7473 6.48764 19.2125 7.21645 20.6784C7.57877 21.4072 7.62468 22.126 7.29242 22.8799C6.36993 24.9745 5.46081 27.0749 4.5475 29.1745C4.49908 29.288 4.46485 29.4074 4.42395 29.5234Z" fill="#C22934"/>
<path d="M6.18043 42.6163C5.98007 43.9061 5.9642 45.1851 6.42086 46.4315C7.09456 48.2689 8.26583 49.6639 10.0657 50.4929C10.2577 50.5555 10.418 50.4679 10.58 50.3869C11.884 49.7357 13.1972 49.1029 14.5045 48.4584C16.1358 47.6537 17.7837 46.8856 19.4058 46.0625C20.1822 45.6684 20.9461 45.7277 21.6949 46.2052C24.0474 47.7054 26.3992 49.2064 28.7567 50.6983C29.0623 50.892 29.3979 51.028 29.7017 51.2234C30.0632 51.3862 30.4247 51.549 30.7853 51.7109C30.9022 51.5323 30.7728 51.3904 30.7035 51.2493C30.1016 50.0271 29.5072 48.8016 28.9045 47.5802C27.8276 45.3988 26.7631 43.2115 25.6896 41.0285C24.5609 38.7335 23.4622 36.4235 22.3177 34.1369C22.2492 34 22.1883 33.8589 22.1031 33.7321C21.8819 33.4006 21.5597 33.2938 21.1998 33.4599C20.8968 33.5993 20.5829 33.7145 20.2857 33.8673C18.2195 34.9259 16.1241 35.9277 14.0345 36.937C12.6203 37.6207 11.222 38.3345 9.80024 39.004C8.49207 39.6201 7.4285 40.5451 6.63958 41.769C6.53356 41.9334 6.4434 42.1046 6.38663 42.2916C6.314 42.3967 6.31984 42.552 6.18043 42.6163Z" fill="#35BDEF"/>
<path d="M6.39281 42.3706C7.28608 40.7519 8.63015 39.6591 10.2898 38.8677C13.8879 37.1513 17.4585 35.3781 21.0407 33.6291C21.6168 33.3478 21.8614 33.4279 22.1402 33.9965C25.0028 39.8486 27.8646 45.7016 30.7256 51.5546C30.7498 51.6039 30.7656 51.6573 30.7849 51.7082C31.2699 51.9253 31.7541 52.1423 32.2391 52.3594C32.2567 52.3302 32.2742 52.3009 32.2917 52.2726C32.2316 52.1381 32.1748 52.0012 32.1106 51.8685C28.9633 45.427 25.8151 38.9854 22.6661 32.5439C22.3314 31.8585 22.1051 31.7792 21.4264 32.1098C17.7256 33.9163 14.024 35.7212 10.3249 37.5328C8.39974 38.4762 7.06318 39.9471 6.38362 41.9941C6.35357 42.0851 6.34272 42.182 6.32352 42.2763C6.27844 42.3581 6.31934 42.3765 6.39281 42.3706Z" fill="#FEFEFE"/>
<path d="M29.6994 51.2206C29.0899 50.7172 28.3928 50.3457 27.7333 49.9183C25.956 48.7662 24.1586 47.6434 22.3696 46.5089C22.1007 46.3385 21.8411 46.1515 21.5648 45.9946C20.8777 45.6039 20.1606 45.5764 19.4535 45.9178C17.6553 46.7877 15.8679 47.681 14.0722 48.5567C12.739 49.207 11.3991 49.8448 10.0625 50.4885C12.0719 51.4694 14.1064 51.4903 16.1284 50.5661C17.6427 49.8732 19.1329 49.1252 20.6197 48.3747C21.4245 47.9681 22.1959 47.9615 23.0165 48.3279C25.1328 49.273 27.2617 50.1896 29.3871 51.1154C29.4873 51.1597 29.5958 51.1856 29.6994 51.2206Z" fill="#3C95C3"/>
<path d="M6.39516 42.371C6.37177 42.3393 6.34839 42.3084 6.32501 42.2767C6.27657 42.3886 6.22813 42.5013 6.17969 42.6132C6.34672 42.6166 6.35006 42.4754 6.39516 42.371Z" fill="#FBFDFE"/>
<path d="M51.5668 25.1012C51.6077 25.0002 51.6486 24.8983 51.6895 24.7973C51.3063 24.7714 51.0008 24.9935 50.6844 25.1454C49.2693 25.8283 47.861 26.5254 46.4526 27.22C44.3822 28.241 42.3069 29.2503 40.2348 30.268C38.2379 31.248 36.241 32.2273 34.2366 33.1932C34.1239 33.2475 34.0112 33.3026 33.901 33.3618C33.3617 33.654 33.2473 33.9821 33.5111 34.5281C33.8801 35.292 34.2416 36.0592 34.6206 36.8172C35.6783 38.9318 36.691 41.0673 37.7428 43.1844C38.2254 44.1553 38.662 45.1505 39.1779 46.1038C39.9017 47.4404 40.9018 48.5182 42.2885 49.1977C42.3812 49.2294 42.483 49.2361 42.5623 49.3021C44.7087 49.8723 46.6421 49.3689 48.3969 48.0924C49.3278 47.4154 50.0599 46.5538 50.5007 45.4702C50.4882 45.3433 50.4448 45.2273 50.3847 45.1162C49.9147 44.2472 49.5381 43.333 49.0957 42.4506C48.0246 40.3126 46.9902 38.1571 45.9542 36.0024C45.6061 35.2786 45.6303 34.5807 46.0561 33.9003C47.3467 31.8383 48.6666 29.7946 49.9673 27.7384C50.5182 26.8694 51.0934 26.0162 51.5668 25.1012Z" fill="#8ACE24"/>
<path d="M42.3798 49.167C40.8746 48.3522 39.7852 47.1559 39.0397 45.6182C37.2598 41.9458 35.4608 38.2834 33.6692 34.6168C33.332 33.9264 33.4063 33.7152 34.0967 33.3779C39.8328 30.5754 45.5697 27.772 51.3058 24.9703C51.4302 24.9094 51.5588 24.8568 51.6865 24.8C51.967 24.3375 52.1365 23.8266 52.356 23.3516C52.2216 23.2189 52.1448 23.3332 52.0747 23.3675C45.5213 26.564 38.9704 29.7648 32.4203 32.9672C31.8977 33.2226 31.8009 33.5157 32.0605 34.0491C33.8913 37.7992 35.7129 41.5534 37.5595 45.2951C38.5346 47.2711 40.0624 48.6252 42.2079 49.2347C42.283 49.2555 42.369 49.3081 42.3798 49.167Z" fill="#FEFEFE"/>
<path d="M51.5675 25.1006C51.0699 25.7142 50.6959 26.4096 50.2668 27.0674C49.3068 28.5401 48.3801 30.0344 47.4392 31.5188C46.935 32.3135 46.4174 33.0999 45.9282 33.9039C45.5375 34.5458 45.4807 35.2279 45.8022 35.9208C46.0526 36.4618 46.3056 37.0019 46.5677 37.537C47.4969 39.4304 48.4369 41.3188 49.3585 43.2155C49.7267 43.9736 50.0364 44.7608 50.5031 45.4688C51.4448 43.5787 51.5132 41.636 50.6851 39.7143C49.9821 38.0822 49.1665 36.4977 48.3726 34.9065C47.9844 34.1284 47.961 33.3846 48.3158 32.5882C49.3886 30.1764 50.4363 27.7537 51.4923 25.3352C51.5249 25.2609 51.5424 25.1791 51.5675 25.1006Z" fill="#74B22C"/>
<path d="M42.3821 49.1663C42.3254 49.188 42.2677 49.2097 42.2109 49.2322C42.3162 49.3216 42.4356 49.3383 42.565 49.3032C42.5383 49.2105 42.4615 49.1871 42.3821 49.1663Z" fill="#D7DAD6"/>
<path d="M49.0876 13.7539C49.6628 12.3356 49.6678 10.8855 49.2337 9.44371C48.6326 7.44429 47.3962 5.9608 45.4903 5.06252C45.2891 4.96568 45.1147 5.0525 44.9377 5.14016C44.1404 5.53253 43.3356 5.91238 42.54 6.30809C40.6742 7.23642 38.7808 8.10881 36.9275 9.06219C36.5318 9.26589 36.1194 9.43285 35.7145 9.61568C35.1017 9.89284 34.4906 9.82856 33.9204 9.48211C32.5914 8.67233 31.2957 7.80995 29.975 6.98847C28.5249 6.08686 27.1249 5.10259 25.6256 4.27945C25.5655 4.24689 25.5129 4.19597 25.4361 4.22853C25.3334 4.42471 25.4653 4.57749 25.5413 4.7336C26.0856 5.85979 26.6416 6.98013 27.195 8.1013C28.2828 10.3078 29.3556 12.5217 30.4442 14.7273C31.5011 16.8712 32.5363 19.025 33.5923 21.1697C33.66 21.3066 33.7217 21.4477 33.8077 21.5746C34.0323 21.9085 34.3412 22.0162 34.7119 21.8693C34.9698 21.7666 35.2303 21.6664 35.4774 21.5395C37.3808 20.5595 39.3209 19.6553 41.2411 18.7095C43.061 17.8129 44.8968 16.9488 46.6917 16.0038C47.6843 15.4795 48.5124 14.7415 49.0876 13.7539Z" fill="#FBCD06"/>
<path d="M49.0817 13.7542C49.0374 13.7809 48.9798 13.7976 48.9523 13.836C48.1008 15.0206 46.9504 15.812 45.6505 16.439C42.0483 18.1771 38.4602 19.9444 34.8654 21.6976C34.3119 21.9672 34.0489 21.8829 33.7885 21.3503C31.0168 15.6868 28.2477 10.0217 25.4786 4.35735C25.4602 4.32061 25.4518 4.27887 25.4393 4.23964C25.4093 4.14196 25.33 4.10105 25.2415 4.06933C24.617 3.74792 23.975 3.46575 23.2955 3.20361C23.2638 3.38477 23.3573 3.47911 23.4074 3.58096C26.5714 10.0626 29.7379 16.5434 32.9044 23.0233C33.2458 23.722 33.4529 23.7938 34.1408 23.4582C37.8173 21.6634 41.4931 19.866 45.1714 18.0736C46.8853 17.2388 48.165 15.984 48.9339 14.2267C49.0007 14.0748 49.0792 13.9262 49.0817 13.7542Z" fill="#FEFEFE"/>
<path d="M25.2422 4.07134C25.3081 4.12811 25.3741 4.18488 25.44 4.24165C28.2735 6.03403 31.1035 7.83225 33.9436 9.61461C34.533 9.98444 35.175 10.002 35.8044 9.69642C38.0652 8.60029 40.3225 7.49665 42.5816 6.39635C43.4173 5.98895 44.2554 5.58656 45.0911 5.17916C45.2171 5.11739 45.3432 5.06396 45.486 5.06479C43.3655 4.04129 41.2525 4.10391 39.1521 5.11906C37.7396 5.80195 36.3254 6.4815 34.927 7.19194C34.1214 7.601 33.3517 7.60351 32.5311 7.23702C30.2128 6.20016 27.8827 5.19002 25.5561 4.17152C25.4559 4.12811 25.3465 4.10474 25.2422 4.07134Z" fill="#CEAD15"/>
</svg>
