<svg width="26" height="26" viewBox="0 0 26 26" fill="none" xmlns="http://www.w3.org/2000/svg">
<path d="M24.988 7.96252C24.3356 6.40869 23.3864 4.99636 22.1935 3.80426C21.0041 2.61009 19.5912 1.66065 18.0351 1.00985C16.4411 0.339917 14.7283 -0.00348896 12.9986 2.67235e-05H12.9405C11.1812 0.00873207 9.48006 0.356946 7.8778 1.04177C6.33507 1.69924 4.93548 2.65037 3.75728 3.84199C2.57589 5.03141 1.63762 6.4388 0.994765 7.98573C0.327442 9.59437 -0.0106933 11.32 0.000257733 13.061C0.00898148 15.0748 0.491695 17.0741 1.39315 18.8616V23.2723C1.39315 24.0094 1.99218 24.6071 2.72788 24.6071H7.1421C8.94173 25.5133 10.9276 25.9901 12.9434 26H13.0045C14.7434 26 16.4271 25.6634 18.0148 25.0047C19.563 24.3617 20.9706 23.4233 22.1586 22.2422C23.3566 21.0554 24.2988 19.6683 24.9589 18.1217C25.6423 16.5199 25.9912 14.8165 25.9999 13.058C26.0057 11.2909 25.6626 9.57591 24.988 7.96252ZM7.19444 14.3929C6.42675 14.3929 5.80155 13.769 5.80155 13C5.80155 12.231 6.42675 11.6072 7.19444 11.6072C7.96213 11.6072 8.58733 12.231 8.58733 13C8.58733 13.769 7.96504 14.3929 7.19444 14.3929ZM12.9986 14.3929C12.2309 14.3929 11.6057 13.769 11.6057 13C11.6057 12.231 12.2309 11.6072 12.9986 11.6072C13.7663 11.6072 14.3915 12.231 14.3915 13C14.3915 13.769 13.7663 14.3929 12.9986 14.3929ZM18.8028 14.3929C18.0351 14.3929 17.4099 13.769 17.4099 13C17.4099 12.231 18.0351 11.6072 18.8028 11.6072C19.5705 11.6072 20.1957 12.231 20.1957 13C20.1957 13.769 19.5705 14.3929 18.8028 14.3929Z" fill="#1C1D22"/>
</svg>
