<svg width="53" height="54" viewBox="0 0 53 54" fill="none" xmlns="http://www.w3.org/2000/svg">
<rect y="0.160156" width="52.9465" height="52.95" rx="3.60305" fill="#8ACE24" fill-opacity="0.22"/>
<path d="M46.5306 20.1602L16.8789 32.7855C14.42 33.8258 12.3546 34.3477 10.6844 34.3477C8.79294 34.3477 7.41996 33.6857 6.56881 32.36C6.03346 31.5088 5.8764 30.4297 6.09595 29.1209C6.31549 27.8121 6.89981 26.4188 7.84553 24.936C8.63419 23.737 9.92612 22.1614 11.7247 20.2074C11.1146 21.1678 10.6673 22.2223 10.4007 23.3283C9.9278 25.3464 10.3534 26.8275 11.6774 27.7732C12.3073 28.214 13.1737 28.4352 14.2781 28.4352C15.1597 28.4352 16.1527 28.2934 17.2571 28.0096L46.5306 20.1602Z" fill="black"/>
</svg>
