<svg width="162" height="57" viewBox="0 0 162 57" fill="none" xmlns="http://www.w3.org/2000/svg">
<path d="M161.498 0.09375L43.5537 50.3133C33.7731 54.4512 25.5577 56.5269 18.9141 56.5269C11.3906 56.5269 5.92936 53.8936 2.54377 48.6205C0.414348 45.2349 -0.210373 40.9424 0.662893 35.7364C1.53616 30.5304 3.86039 24.9885 7.62215 19.0906C10.7592 14.3213 15.898 8.0539 23.0521 0.281837C20.6255 4.10181 18.8461 8.29612 17.7856 12.6956C15.9047 20.723 17.5975 26.6142 22.864 30.3759C25.3696 32.1292 28.8156 33.0092 33.2088 33.0092C36.7153 33.0092 40.6652 32.4449 45.0584 31.3164L161.498 0.09375Z" fill="currentColor"/>
</svg>
