<svg width="293" height="261" viewBox="0 0 293 261" fill="none" xmlns="http://www.w3.org/2000/svg">
<path opacity="0.2" fill-rule="evenodd" clip-rule="evenodd" d="M279.414 130.199C279.414 202.106 221.122 260.398 149.215 260.398C77.3078 260.398 19.0156 202.106 19.0156 130.199C19.0156 58.2922 77.3078 0 149.215 0C221.122 0 279.414 58.2922 279.414 130.199C279.414 202.106 279.414 130.199 279.414 130.199Z" fill="url(#paint0_linear_2340_39939)"/>
<path fill-rule="evenodd" clip-rule="evenodd" d="M91.2872 138.55H86.9648V145.209C86.9648 148.188 86.147 150.408 84.5115 151.985C82.876 153.562 80.7147 154.321 78.0862 154.321C75.4577 154.321 73.2965 153.562 71.661 151.985C70.0254 150.408 69.2077 148.188 69.2077 145.209V138.55H40.9365C38.5416 138.55 36.6141 137.849 35.2122 136.389C33.8103 134.929 33.1094 133.118 33.1094 130.957C33.1094 128.796 33.8687 126.576 35.329 124.415L70.0839 74.765C71.0184 73.4215 72.1867 72.4285 73.5885 71.786C74.9904 71.1434 76.4507 70.793 78.0278 70.793C80.4227 70.793 82.5255 71.6107 84.3363 73.1878C86.147 74.765 87.0232 76.9846 87.0232 79.7883V124.648H91.3456C96.9531 124.707 99.8153 126.985 99.8153 131.541C99.8153 136.214 96.9531 138.55 91.2872 138.55ZM69.2661 99.0641L51.4506 124.707H69.2661V99.0641Z" fill="url(#paint1_linear_2340_39939)"/>
<path fill-rule="evenodd" clip-rule="evenodd" d="M250.096 138.55H245.773V145.209C245.773 148.188 244.955 150.408 243.32 151.985C241.684 153.562 239.523 154.321 236.895 154.321C234.266 154.321 232.105 153.562 230.469 151.985C228.834 150.408 228.016 148.188 228.016 145.209V138.55H199.687C197.292 138.55 195.364 137.849 193.962 136.389C192.56 134.929 191.859 133.118 191.859 130.957C191.859 128.796 192.619 126.576 194.079 124.415L228.834 74.765C229.768 73.4215 230.937 72.4285 232.339 71.786C233.74 71.1434 235.201 70.793 236.778 70.793C239.173 70.793 241.276 71.6107 243.086 73.1878C244.897 74.765 245.773 76.9846 245.773 79.7883V124.648H250.096C255.762 124.707 258.624 126.985 258.624 131.541C258.624 136.214 255.762 138.55 250.096 138.55ZM228.075 99.0641L210.259 124.707H228.075V99.0641Z" fill="url(#paint2_linear_2340_39939)"/>
<path fill-rule="evenodd" clip-rule="evenodd" d="M181.345 109.989C181.345 129.925 165.183 146.087 145.247 146.087C125.31 146.087 109.148 129.925 109.148 109.989C109.148 90.0524 125.31 73.8906 145.247 73.8906C165.183 73.8906 181.345 90.0524 181.345 109.989C181.345 129.925 181.345 109.989 181.345 109.989Z" fill="url(#paint3_linear_2340_39939)"/>
<path d="M125.556 129.613C123.804 127.861 123.804 124.999 125.556 123.247L158.501 90.3025C160.253 88.5502 163.115 88.5502 164.867 90.3025C166.62 92.0549 166.62 94.917 164.867 96.6694L131.982 129.672C131.106 130.548 129.937 130.957 128.769 130.957C127.601 130.957 126.491 130.49 125.556 129.613Z" fill="white"/>
<path d="M45.1895 161.621C46.4161 151.574 52.6661 146.667 52.9582 146.434L54.8274 148.887L53.8928 147.66L54.8274 148.887C54.769 148.945 49.2783 153.326 48.2269 162.029C47.1171 171.492 51.3811 182.357 60.9606 194.331L58.5657 196.317C48.4605 183.642 43.9628 171.959 45.1895 161.621Z" fill="#BEC9DB"/>
<path d="M55.0608 149.536L57.0468 148.309C58.0398 147.667 58.2735 146.323 57.5725 145.389L57.3389 145.097C56.6379 144.22 55.2945 144.104 54.4767 144.863L52.7244 146.44C51.7898 147.141 51.7898 148.601 52.7244 149.361C53.3669 149.945 54.3599 150.003 55.0608 149.536Z" fill="#102C56"/>
<path d="M80.1094 197.491C92.9599 189.138 100.437 180.143 102.364 170.738C104.116 162.093 100.32 156.311 100.261 156.252L102.831 154.5C103.007 154.792 107.446 161.451 105.402 171.323C103.299 181.603 95.3548 191.241 81.8033 200.119L80.1094 197.491Z" fill="#BEC9DB"/>
<path d="M99.9214 156.778L98.4027 154.967C97.6433 154.033 97.877 152.689 98.87 151.988L99.2204 151.755C100.155 151.112 101.498 151.462 102.024 152.455L103.192 154.5C103.777 155.551 103.309 156.895 102.199 157.362C101.382 157.712 100.447 157.479 99.9214 156.778Z" fill="#102C56"/>
<path fill-rule="evenodd" clip-rule="evenodd" d="M168.434 161.076C174.399 162.97 177.698 169.341 175.804 175.306C173.91 181.271 167.538 184.571 161.574 182.676C155.609 180.782 152.309 174.411 154.204 168.446C156.098 162.481 162.469 159.181 168.434 161.076C174.399 162.97 168.434 161.076 168.434 161.076Z" fill="url(#paint4_linear_2340_39939)"/>
<path d="M113.301 191.88L91.5723 222.663C88.4765 227.044 82.8106 228.738 77.7872 226.752C72.9974 224.883 70.0769 220.151 70.4857 215.069L70.8362 210.163C73.0558 210.104 75.2755 209.52 77.2031 208.352C77.5535 208.118 77.904 207.943 78.2545 207.71C81.1166 205.665 82.9858 202.628 83.5115 199.182C83.6867 198.013 82.869 196.903 81.7008 196.67C80.5325 196.495 79.4227 197.312 79.1891 198.481C78.8386 200.817 77.5535 202.803 75.6844 204.205C73.8152 205.548 71.4787 206.132 69.1423 205.724C64.3525 204.964 61.1399 200.467 61.8993 195.677C62.0745 194.509 61.2567 193.399 60.0885 193.165C58.9203 192.99 57.8104 193.808 57.5768 194.976C56.5254 201.46 60.439 207.534 66.4553 209.52L66.0465 214.777C65.5208 221.787 69.5512 228.212 76.0933 230.841C80.8246 232.71 85.9648 232.184 90.112 229.731C92.0396 228.621 93.7335 227.044 95.077 225.175L116.806 194.392C126.327 180.957 141.806 173.422 158.278 174.357C159.505 174.415 160.498 173.48 160.556 172.312C160.673 171.144 159.797 170.093 158.57 170.034C140.638 169.041 123.699 177.219 113.301 191.88Z" fill="#102C56"/>
<path fill-rule="evenodd" clip-rule="evenodd" d="M172.591 171.89C172.599 176.084 169.206 179.49 165.012 179.497C160.818 179.505 157.412 176.111 157.405 171.918C157.397 167.724 160.79 164.318 164.984 164.31C169.178 164.303 172.584 167.696 172.591 171.89C172.599 176.084 172.591 171.89 172.591 171.89Z" fill="#FFD18C"/>
<path d="M292.031 172.607C292.031 172.607 276.318 188.846 264.344 194.803C252.369 200.761 244.25 200.995 244.25 200.995L205.523 189.546C205.523 189.488 233.152 184.056 255.056 164.371L292.031 172.607Z" fill="url(#paint5_linear_2340_39939)"/>
<path d="M291.971 172.545C291.971 172.545 275.44 187.615 262.824 192.697C250.207 197.837 241.737 197.487 241.737 197.487L201.258 183.585C201.258 183.643 230.23 180.08 253.302 161.973L291.971 172.545Z" fill="url(#paint6_linear_2340_39939)"/>
<path d="M186.308 47.9565L204.007 54.9658C207.979 56.5429 209.906 61.0406 208.329 65.0126C206.752 68.9846 202.254 70.9122 198.282 69.3351L180.584 62.3257C176.612 60.6902 174.684 56.1925 176.261 52.2789C177.838 48.3069 182.336 46.3793 186.308 47.9565Z" fill="url(#paint7_linear_2340_39939)"/>
<path d="M203.95 54.9075L192.326 50.293C196.298 51.8701 198.225 56.3678 196.648 60.3397C195.071 64.3117 190.574 66.2393 186.602 64.6622L198.225 69.2767C202.197 70.8538 206.695 68.9262 208.272 64.9543C209.849 60.9823 207.922 56.4846 203.95 54.9075Z" fill="url(#paint8_linear_2340_39939)"/>
<path d="M19.4857 148.893L33.0372 169.687C36.0746 174.36 34.7895 180.61 30.1166 183.647C25.4437 186.685 19.1936 185.4 16.1562 180.727L2.60477 159.874C-0.432631 155.259 0.852422 149.009 5.52534 145.972C10.1983 142.935 16.4483 144.22 19.4857 148.893Z" fill="url(#paint9_linear_2340_39939)"/>
<path d="M33.0407 169.625L24.1622 156.016C27.1996 160.689 25.9145 166.939 21.2416 169.976C16.5687 173.013 10.3186 171.728 7.28125 167.055L16.1598 180.665C19.1972 185.338 25.4472 186.623 30.1201 183.586C34.7931 180.548 36.0781 174.298 33.0407 169.625Z" fill="url(#paint10_linear_2340_39939)"/>
<path opacity="0.2" d="M106.57 30.0259L104.759 28.2735L112.119 20.7969L113.112 21.7899C113.579 22.1987 114.28 22.1987 114.689 21.7899C115.098 21.3226 115.098 20.6216 114.689 20.2128L108.264 13.9043C107.796 13.4954 107.095 13.4954 106.687 13.9043C106.278 14.3716 106.278 15.0725 106.687 15.4814L107.68 16.4744L100.32 23.9511L98.5089 22.1987L98.2169 21.9067C97.7496 21.4978 97.0487 21.4978 96.6398 21.9067C96.2309 22.374 96.2309 23.0749 96.6398 23.4838L96.9318 23.7759L75.1443 45.9722C74.5602 46.5563 74.4434 47.4325 74.7939 48.1335L76.5462 51.5213L62.469 65.8906C62.177 66.1826 62.177 66.5915 62.469 66.8835C62.7611 67.1756 63.2284 67.1756 63.462 66.8835L77.5392 52.5727L80.9855 54.2083C81.7448 54.5587 82.621 54.3835 83.1467 53.8578L104.934 31.603L105.226 31.8951C105.694 32.3039 106.394 32.3039 106.803 31.8951C107.329 31.4278 107.329 30.7268 106.862 30.3179L106.57 30.0259Z" fill="url(#paint11_linear_2340_39939)"/>
<path opacity="0.2" d="M170.424 22.3737C169.665 21.2055 169.373 19.7452 169.548 18.3433L169.723 16.9999H169.898C170.366 17.0583 170.833 16.7662 170.891 16.2405L171.417 12.7942C171.475 12.3269 171.183 11.8596 170.658 11.8012L155.471 9.58159C155.003 9.52318 154.536 9.81524 154.478 10.3409L153.952 13.7872C153.894 14.2545 154.186 14.7218 154.711 14.7802H154.887L154.711 16.1237C154.478 17.5256 153.777 18.8106 152.725 19.6868L150.623 21.4975C149.98 22.0232 149.571 22.7826 149.454 23.6588L146.417 44.2196C146.183 45.6215 147.176 46.965 148.637 47.1986L166.51 49.8271C167.912 50.0608 169.256 49.0678 169.489 47.6075L172.527 27.0466C172.585 26.2873 172.41 25.4111 171.943 24.7102L170.424 22.3737Z" fill="url(#paint12_linear_2340_39939)"/>
<path opacity="0.2" d="M137.302 225.936C137.01 225.994 136.718 225.761 136.659 225.41L135.841 217.233C135.783 216.941 135.549 216.707 135.199 216.707L127.781 217.466C127.489 217.525 127.255 217.758 127.255 218.109L128.073 226.287C128.131 226.579 127.898 226.871 127.547 226.929L119.369 227.747C119.077 227.805 118.844 228.039 118.844 228.389L119.603 235.808C119.662 236.1 119.895 236.333 120.246 236.333L128.423 235.516C128.715 235.457 129.007 235.691 129.066 236.041L129.884 244.219C129.942 244.511 130.176 244.745 130.526 244.745L137.944 243.985C138.236 243.927 138.47 243.693 138.47 243.343L137.652 235.165C137.594 234.873 137.827 234.581 138.178 234.523L146.356 233.705C146.648 233.646 146.881 233.413 146.881 233.062L146.122 225.644C146.063 225.294 145.771 225.06 145.479 225.118L137.302 225.936Z" fill="url(#paint13_linear_2340_39939)"/>
<path opacity="0.2" fill-rule="evenodd" clip-rule="evenodd" d="M187.57 205.229C189.91 206.658 190.648 209.714 189.218 212.054C187.789 214.394 184.733 215.132 182.393 213.702C180.053 212.272 179.315 209.216 180.745 206.877C182.175 204.537 185.231 203.799 187.57 205.229C189.91 206.658 187.57 205.229 187.57 205.229Z" fill="url(#paint14_linear_2340_39939)"/>
<path opacity="0.2" d="M210.023 221.731L217.617 214.254C219.077 212.794 221.472 212.852 222.874 214.312C224.334 215.773 224.276 218.168 222.815 219.569L215.222 227.046C213.82 228.448 211.425 228.448 209.965 226.988C208.505 225.527 208.563 223.133 210.023 221.731Z" fill="url(#paint15_linear_2340_39939)"/>
<defs>
<linearGradient id="paint0_linear_2340_39939" x1="-18.5586" y1="0" x2="-18.5586" y2="335.547" gradientUnits="userSpaceOnUse">
<stop stop-color="#F0548B"/>
<stop offset="1" stop-color="#F0548B"/>
</linearGradient>
<linearGradient id="paint1_linear_2340_39939" x1="33.1094" y1="70.793" x2="33.1094" y2="154.321" gradientUnits="userSpaceOnUse">
<stop stop-color="#F0548B"/>
<stop offset="1" stop-color="#C33366"/>
</linearGradient>
<linearGradient id="paint2_linear_2340_39939" x1="191.859" y1="70.793" x2="191.859" y2="154.321" gradientUnits="userSpaceOnUse">
<stop stop-color="#F0548B"/>
<stop offset="1" stop-color="#C33366"/>
</linearGradient>
<linearGradient id="paint3_linear_2340_39939" x1="102.298" y1="70.4642" x2="95.4453" y2="156.361" gradientUnits="userSpaceOnUse">
<stop stop-color="#C33366"/>
<stop offset="1" stop-color="#F0548B"/>
</linearGradient>
<linearGradient id="paint4_linear_2340_39939" x1="150.773" y1="179.246" x2="172.374" y2="186.106" gradientUnits="userSpaceOnUse">
<stop stop-color="#F0548B"/>
<stop offset="1" stop-color="#F0548B"/>
</linearGradient>
<linearGradient id="paint5_linear_2340_39939" x1="215.224" y1="164.397" x2="211.328" y2="205.15" gradientUnits="userSpaceOnUse">
<stop stop-color="#C33366"/>
<stop offset="1" stop-color="#C33366"/>
</linearGradient>
<linearGradient id="paint6_linear_2340_39939" x1="211.43" y1="161.998" x2="207.931" y2="201.573" gradientUnits="userSpaceOnUse">
<stop stop-color="#F0548B"/>
<stop offset="1" stop-color="#F0548B"/>
</linearGradient>
<linearGradient id="paint7_linear_2340_39939" x1="175.711" y1="47.4062" x2="175.711" y2="69.8853" gradientUnits="userSpaceOnUse">
<stop stop-color="#F0548B"/>
<stop offset="1" stop-color="#C33366"/>
</linearGradient>
<linearGradient id="paint8_linear_2340_39939" x1="186.602" y1="50.293" x2="186.602" y2="69.8269" gradientUnits="userSpaceOnUse">
<stop stop-color="#F0548B"/>
<stop offset="1" stop-color="#F0548B"/>
</linearGradient>
<linearGradient id="paint9_linear_2340_39939" x1="0.960938" y1="144.328" x2="0.960938" y2="185.291" gradientUnits="userSpaceOnUse">
<stop stop-color="#F0548B"/>
<stop offset="1" stop-color="#C33366"/>
</linearGradient>
<linearGradient id="paint10_linear_2340_39939" x1="7.28125" y1="156.016" x2="7.28125" y2="185.23" gradientUnits="userSpaceOnUse">
<stop stop-color="#F0548B"/>
<stop offset="1" stop-color="#F0548B"/>
</linearGradient>
<linearGradient id="paint11_linear_2340_39939" x1="73.3617" y1="4.58878" x2="42.3706" y2="88.692" gradientUnits="userSpaceOnUse">
<stop stop-color="#F0548B"/>
<stop offset="1" stop-color="#85C284" stop-opacity="0.5"/>
<stop offset="1" stop-color="#F0548B"/>
</linearGradient>
<linearGradient id="paint12_linear_2340_39939" x1="159.651" y1="-1.50314" x2="127.867" y2="24.3249" gradientUnits="userSpaceOnUse">
<stop stop-color="#F0548B"/>
<stop offset="1" stop-color="#F0548B"/>
</linearGradient>
<linearGradient id="paint13_linear_2340_39939" x1="94.1632" y1="216.707" x2="94.1632" y2="294.106" gradientUnits="userSpaceOnUse">
<stop stop-color="#C33366"/>
<stop offset="1" stop-color="#C33366"/>
</linearGradient>
<linearGradient id="paint14_linear_2340_39939" x1="177.276" y1="212.554" x2="188.631" y2="219.492" gradientUnits="userSpaceOnUse">
<stop stop-color="#F0548B"/>
<stop offset="1" stop-color="#3D3D3C"/>
</linearGradient>
<linearGradient id="paint15_linear_2340_39939" x1="206.341" y1="213.188" x2="206.341" y2="233.158" gradientUnits="userSpaceOnUse">
<stop stop-color="#F0548B"/>
<stop offset="1" stop-color="#3D3D3C"/>
</linearGradient>
</defs>
</svg>
