<svg width="26" height="29" viewBox="0 0 26 29" fill="none" xmlns="http://www.w3.org/2000/svg">
<path d="M5.41855 2.16276C5.58876 1.95962 5.67253 1.69785 5.65188 1.43364C5.63124 1.16942 5.50783 0.923838 5.30814 0.749598C5.10846 0.575359 4.84842 0.486357 4.58384 0.5017C4.31927 0.517042 4.07126 0.635506 3.89305 0.83166L2.14885 2.82966C1.15982 3.96308 0.600724 5.40812 0.569354 6.91206L0.492404 10.5827C0.489656 10.7157 0.513124 10.8479 0.561468 10.9718C0.609812 11.0957 0.682086 11.2088 0.774162 11.3048C0.866238 11.4007 0.976314 11.4776 1.0981 11.5311C1.2199 11.5845 1.35102 11.6134 1.48398 11.6161C1.61694 11.6189 1.74914 11.5954 1.87304 11.5471C1.99693 11.4987 2.11009 11.4265 2.20605 11.3344C2.30202 11.2423 2.3789 11.1322 2.43232 11.0104C2.48575 10.8886 2.51466 10.7575 2.5174 10.6246L2.593 6.95526C2.61466 5.92619 2.99743 4.9375 3.67435 4.16211L5.41855 2.16276Z" fill="#C33366"/>
<path fill-rule="evenodd" clip-rule="evenodd" d="M5.16524 9.30828C5.25591 7.86397 5.89359 6.50849 6.94849 5.5178C8.00339 4.52711 9.39619 3.97569 10.8433 3.97578H11.5953V2.96328C11.5953 2.60524 11.7375 2.26186 11.9907 2.00869C12.2439 1.75551 12.5873 1.61328 12.9453 1.61328C13.3033 1.61328 13.6467 1.75551 13.8999 2.00869C14.1531 2.26186 14.2953 2.60524 14.2953 2.96328V3.97578H15.0472C16.4944 3.97569 17.8872 4.52711 18.9421 5.5178C19.997 6.50849 20.6347 7.86397 20.7253 9.30828L21.0237 14.0792C21.1374 15.8983 21.7482 17.6512 22.7895 19.1471C23.0046 19.4563 23.1361 19.816 23.1711 20.1911C23.2061 20.5661 23.1434 20.9439 22.9891 21.2876C22.8349 21.6313 22.5943 21.9292 22.2908 22.1524C21.9874 22.3756 21.6313 22.5164 21.2572 22.5612L16.6578 23.112V24.5633C16.6578 25.5479 16.2667 26.4922 15.5704 27.1884C14.8742 27.8846 13.9299 28.2758 12.9453 28.2758C11.9607 28.2758 11.0164 27.8846 10.3202 27.1884C9.62393 26.4922 9.23279 25.5479 9.23279 24.5633V23.112L4.63334 22.5599C4.25952 22.5149 3.90368 22.3741 3.60039 22.151C3.29709 21.9279 3.05666 21.6301 2.90244 21.2866C2.74823 20.9432 2.68548 20.5656 2.72029 20.1907C2.75509 19.8158 2.88628 19.4563 3.10109 19.1471C4.14235 17.6512 4.75313 15.8982 4.86689 14.0792L5.16524 9.30963V9.30828ZM10.8433 6.00078C9.91127 6.00067 9.01419 6.35579 8.33475 6.99385C7.6553 7.63191 7.24458 8.50494 7.18619 9.43518L6.88919 14.2061C6.75196 16.3944 6.01698 18.5031 4.76429 20.3027C4.74873 20.325 4.73921 20.3511 4.73667 20.3782C4.73412 20.4053 4.73864 20.4326 4.74979 20.4575C4.76093 20.4824 4.77832 20.5039 4.80026 20.5201C4.82219 20.5363 4.84794 20.5465 4.87499 20.5497L9.91994 21.1559C11.9301 21.3962 13.9605 21.3962 15.9706 21.1559L21.0156 20.5497C21.0426 20.5465 21.0684 20.5363 21.0903 20.5201C21.1123 20.5039 21.1297 20.4824 21.1408 20.4575C21.1519 20.4326 21.1565 20.4053 21.1539 20.3782C21.1514 20.3511 21.1419 20.325 21.1263 20.3027C19.874 18.503 19.1395 16.3943 19.0027 14.2061L18.7044 9.43518C18.646 8.50494 18.2353 7.63191 17.5558 6.99385C16.8764 6.35579 15.9793 6.00067 15.0472 6.00078H10.8433ZM12.9453 26.2508C12.0138 26.2508 11.2578 25.4948 11.2578 24.5633V23.5508H14.6328V24.5633C14.6328 25.4948 13.8768 26.2508 12.9453 26.2508Z" fill="#C33366"/>
<path d="M20.542 0.737746C20.3397 0.914291 20.2159 1.16393 20.1977 1.43177C20.1794 1.69961 20.2683 1.96373 20.4448 2.16605L22.189 4.16405C22.8657 4.93998 23.248 5.92918 23.269 6.95855L23.3459 10.6265C23.3515 10.895 23.4635 11.1504 23.6573 11.3363C23.8511 11.5223 24.1108 11.6236 24.3794 11.6181C24.6479 11.6125 24.9032 11.5005 25.0892 11.3067C25.2751 11.1129 25.3765 10.8532 25.3709 10.5846L25.294 6.91535C25.2626 5.41141 24.7035 3.96636 23.7145 2.83295L21.9703 0.834946C21.7937 0.6327 21.5441 0.508847 21.2763 0.49062C21.0084 0.472392 20.7443 0.561283 20.542 0.737746Z" fill="#C33366"/>
</svg>
