<svg width="115" height="83" viewBox="0 0 115 83" fill="none" xmlns="http://www.w3.org/2000/svg">
<path opacity="0.7" d="M9.26261 1.79312C9.81679 0.65822 11.036 0.0070513 12.2736 0.174495L57.4946 5.86758L102.716 0.174495C103.953 0.0256561 105.172 0.676825 105.727 1.79312L113.43 17.3096C115.092 20.6398 113.319 24.6771 109.772 25.7003L79.5879 34.3888C77.0202 35.133 74.2678 34.0353 72.9008 31.7283L57.4946 5.86758L42.0885 31.7283C40.7215 34.0353 37.9691 35.133 35.4014 34.3888L5.23558 25.7003C1.67036 24.6771 -0.0845408 20.6398 1.55952 17.3096L9.26261 1.79312ZM57.6978 17.7747L67.8393 34.7795C70.5917 39.3935 76.0781 41.5889 81.232 40.1005L104.785 33.3283V64.3984C104.785 68.4915 102.014 72.0636 98.0605 73.0683L60.3579 82.5567C58.4737 83.0405 56.4971 83.0405 54.6314 82.5567L16.9287 73.0683C12.9756 72.045 10.2047 68.4729 10.2047 64.3798V33.3097L33.7758 40.1005C38.9112 41.5889 44.416 39.3935 47.1684 34.7795L57.2914 17.7747H57.6978Z" fill="#5F5F5F"/>
</svg>
