<svg width="22" height="12" viewBox="0 0 22 12" fill="none" xmlns="http://www.w3.org/2000/svg">
<path fill-rule="evenodd" clip-rule="evenodd" d="M14.0777 9.47493C13.9645 9.57023 13.8737 9.68516 13.8107 9.81286C13.7477 9.94056 13.7139 10.0784 13.7111 10.2182C13.7084 10.358 13.7369 10.4968 13.7948 10.6264C13.8528 10.7561 13.939 10.8738 14.0485 10.9727C14.1579 11.0715 14.2882 11.1495 14.4317 11.2018C14.5752 11.2542 14.7289 11.2799 14.8836 11.2774C15.0383 11.2749 15.1909 11.2444 15.3323 11.1875C15.4736 11.1306 15.6008 11.0485 15.7063 10.9462L20.7013 6.43514L21.5156 5.69948L20.7013 4.96383L15.7079 0.452729C15.4906 0.263003 15.1996 0.157949 14.8975 0.160191C14.5953 0.162434 14.3063 0.271794 14.0925 0.464718C13.8788 0.657642 13.7574 0.918693 13.7547 1.19165C13.7519 1.4646 13.8679 1.72761 14.0777 1.92404L17.1045 4.65846L1.15779 4.65846C0.852171 4.65846 0.559072 4.76814 0.342968 4.96337C0.126865 5.1586 0.00545853 5.42339 0.00545851 5.69948C0.0054585 5.97558 0.126865 6.24037 0.342968 6.4356C0.559072 6.63083 0.852171 6.74051 1.15779 6.74051L17.1045 6.74051L14.0777 9.47493Z" fill="#C33366"/>
</svg>
