<svg width="35" height="35" viewBox="0 0 35 35" fill="none" xmlns="http://www.w3.org/2000/svg">
<rect width="35" height="35" rx="4.66667" fill="white"/>
<path d="M21.3287 9.71109C21.5436 9.48862 21.8006 9.31118 22.0848 9.1891C22.3689 9.06703 22.6746 9.00278 22.9838 9.00009C23.2931 8.9974 23.5998 9.05633 23.8861 9.17345C24.1724 9.29057 24.4324 9.46352 24.6511 9.68222C24.8698 9.90092 25.0428 10.161 25.1599 10.4472C25.277 10.7335 25.3359 11.0402 25.3332 11.3495C25.3306 11.6588 25.2663 11.9644 25.1442 12.2486C25.0222 12.5328 24.8447 12.7898 24.6222 13.0046L23.6987 13.9282L20.4051 10.6346L21.3287 9.71109ZM18.7584 12.2814L9 22.0398V25.3333H12.2936L22.0531 15.575L18.7584 12.2814Z" fill="#C33366"/>
</svg>
