<svg width="52" height="57" viewBox="0 0 52 57" fill="none" xmlns="http://www.w3.org/2000/svg">
<path d="M28.3543 27.2398L37.7182 17.8759L7.47333 0.877277C5.46883 -0.205723 3.591 -0.357723 1.94433 0.826611L28.3543 27.2398ZM39.3142 38.2028L49.0485 32.7276C50.9485 31.6636 51.9903 30.1563 51.9903 28.4843C51.9903 26.8154 50.9485 25.3049 49.0517 24.2409L40.2388 19.2914L30.3177 29.2094L39.3142 38.2028ZM0.316666 3.12878C0.114 3.75261 0 4.44928 0 5.21244V51.7783C0 52.9848 0.266 54.0234 0.747333 54.8499L26.3878 29.2063L0.316666 3.12878ZM28.3543 31.1696L2.85633 56.6708C3.344 56.8576 3.86967 56.9558 4.42383 56.9558C5.41183 56.9558 6.441 56.6644 7.48917 56.0818L36.7967 39.6246L28.3543 31.1696Z" fill="white"/>
</svg>
