<svg width="237" height="110" viewBox="0 0 237 110" fill="none" xmlns="http://www.w3.org/2000/svg">
<rect x="30.0469" y="8.20312" width="5.40002" height="4.14598" transform="rotate(-131 30.0469 8.20312)" fill="#F0548B" fill-opacity="0.2"/>
<rect x="42.0156" y="57.1797" width="14.5121" height="2.43747" transform="rotate(-171 42.0156 57.1797)" fill="#F0548B"/>
<rect x="18.0938" y="17.3164" width="16.7901" height="3.57647" transform="rotate(133 18.0938 17.3164)" fill="#C33366"/>
<rect x="75.0469" y="4.78516" width="3.69151" height="3.00697" transform="rotate(-93 75.0469 4.78516)" fill="#C33366"/>
<circle cx="58.5962" cy="6.17819" r="1.67428" fill="#F0548B"/>
<circle cx="3.76713" cy="46.7828" r="3.76713" fill="#C33366"/>
<circle cx="71.5682" cy="28.3612" r="1.25571" fill="#F0548B" fill-opacity="0.2"/>
<circle cx="36.8395" cy="8.6872" r="2.51142" fill="#FDA5A5" fill-opacity="0.35"/>
<rect width="5.40002" height="4.14598" transform="matrix(0.656059 -0.75471 -0.75471 -0.656059 206.211 7.36719)" fill="#F0548B" fill-opacity="0.2"/>
<rect width="14.5121" height="2.43747" transform="matrix(0.987688 -0.156434 -0.156434 -0.987688 194.242 56.3438)" fill="#F0548B"/>
<rect width="16.7901" height="3.57647" transform="matrix(0.681998 0.731354 0.731354 -0.681998 218.164 16.4805)" fill="#C33366"/>
<rect width="3.69151" height="3.00697" transform="matrix(0.052336 -0.99863 -0.99863 -0.052336 161.211 3.94922)" fill="#C33366"/>
<circle cx="1.67428" cy="1.67428" r="1.67428" transform="matrix(-1 0 0 1 179.336 3.66797)" fill="#F0548B"/>
<circle cx="3.76713" cy="3.76713" r="3.76713" transform="matrix(-1 0 0 1 236.258 42.1797)" fill="#C33366"/>
<circle cx="1.25571" cy="1.25571" r="1.25571" transform="matrix(-1 0 0 1 165.945 26.2695)" fill="#F0548B" fill-opacity="0.2"/>
<circle cx="2.51142" cy="2.51142" r="2.51142" transform="matrix(-1 0 0 1 201.93 5.33984)" fill="#FDA5A5" fill-opacity="0.35"/>
<path d="M139.095 36.8257C139.606 35.9349 139.299 34.7948 138.386 34.3265C137.017 33.6249 135.609 33.0034 134.168 32.465C133.206 32.1056 132.157 32.6476 131.843 33.6251C131.529 34.6026 132.069 35.6451 133.029 36.0091C134.224 36.4623 135.395 36.9788 136.535 37.5563C137.451 38.0202 138.585 37.7165 139.095 36.8257Z" fill="#C33366"/>
</svg>
