<svg width="116" height="116" viewBox="0 0 116 116" fill="none" xmlns="http://www.w3.org/2000/svg">
<g clip-path="url(#clip0_3002_66587)">
<path d="M114.798 15.276C112.802 12.725 109.313 14.7686 107.777 15.6589C96.8451 22.101 95.2321 33.4441 91.4224 39.958C88.4263 45.1749 83.5157 49.0038 79.0742 49.3006C75.7909 49.5351 72.23 48.8985 68.6978 47.3622C60.0493 43.6242 55.3924 38.7854 54.2581 37.9335C51.9272 36.1626 34.0127 18.7172 19.415 18.0041C19.415 18.0041 17.6346 14.4145 17.1895 14.3522C16.127 14.2326 15.0357 16.5108 14.2412 16.7501C13.5233 17.0038 12.2646 14.2996 11.5371 14.4192C10.8048 14.515 10.0917 17.2239 8.66539 18.6167C7.61244 19.6361 6.33933 19.5739 5.61662 20.8327C5.36774 21.2921 5.45389 22.101 5.17151 22.8428C4.56367 24.3744 2.53435 24.5371 2.51521 26.1788C2.51521 28.0023 4.22386 28.3517 5.71713 29.6248C6.90409 30.6394 6.98546 31.3574 8.36865 31.8312C9.60347 32.2524 11.3935 30.9362 12.9825 31.41C14.3082 31.7977 15.5813 32.0801 15.8637 33.4345C16.1222 34.6598 15.8637 36.5838 14.2364 36.3684C13.7004 36.2967 11.3743 35.5357 8.50266 35.842C5.03271 36.2105 1.0698 37.3209 0.682121 41.1546C0.48589 43.294 3.14219 45.7971 5.73149 45.2994C7.50714 44.9595 6.66957 42.8776 7.64116 41.8725C8.91905 40.5802 16.1222 46.3906 22.8228 46.3906C25.6609 46.3906 27.7573 45.6727 29.844 43.495C30.0355 43.3562 30.2891 43.0068 30.5859 42.9685C30.9186 43.0549 31.2343 43.1973 31.5192 43.3897C36.9323 47.6829 41.0148 56.3122 60.8581 56.4128C63.6437 56.4463 66.8408 57.7481 69.454 60.1316C71.7514 62.204 73.1106 65.516 74.4173 68.8663C76.4179 73.9061 79.974 78.7688 85.3871 84.1963C85.6742 84.5217 90.1253 87.9294 90.4604 88.1831C90.5178 88.2309 90.8624 88.9824 90.714 89.4036C90.6183 92.706 90.1253 102.183 97.2471 102.58C98.9988 102.675 98.5633 101.474 98.5633 100.617C98.5394 98.9854 98.2522 97.339 99.1041 95.6399C100.315 93.3521 96.5866 92.2465 96.668 87.2354C96.7589 83.4831 93.5809 84.1197 91.9584 81.2528C91.0491 79.6111 90.1971 78.7066 90.2833 76.7251C90.6327 65.3341 87.8088 57.8295 86.4304 56.0155C85.344 54.6084 84.4059 54.0867 85.4397 53.431C91.3745 49.5303 92.7386 45.8976 92.7386 45.8976C95.8974 38.5222 98.7499 31.8025 102.67 28.8111C103.464 28.2368 105.489 26.7052 106.748 26.1309C110.399 24.3983 112.362 23.3645 113.391 22.3594C115.095 20.7465 116.43 17.3196 114.798 15.276Z" fill="currentColor"/>
</g>
<defs>
<clipPath id="clip0_3002_66587">
<rect width="114.867" height="114.867" fill="white" transform="translate(0.671875 0.875)"/>
</clipPath>
</defs>
</svg>
