<svg width="25" height="25" viewBox="0 0 25 25" fill="none" xmlns="http://www.w3.org/2000/svg">
<path d="M12.4425 19.4C12.845 19.4 13.1854 19.2608 13.4637 18.9825C13.742 18.7042 13.8808 18.3642 13.88 17.9625C13.88 17.56 13.7412 17.2196 13.4637 16.9413C13.1862 16.663 12.8458 16.5242 12.4425 16.525C12.04 16.525 11.7 16.6641 11.4224 16.9424C11.1449 17.2207 11.0058 17.5608 11.005 17.9625C11.005 18.365 11.1441 18.7054 11.4224 18.9837C11.7007 19.262 12.0408 19.4008 12.4425 19.4ZM11.4075 14.9725H13.535C13.535 14.34 13.6071 13.8417 13.7512 13.4775C13.8953 13.1133 14.3024 12.615 14.9725 11.9825C15.4708 11.4842 15.8637 11.0096 16.1512 10.5588C16.4387 10.108 16.5825 9.56673 16.5825 8.935C16.5825 7.86167 16.1896 7.0375 15.4037 6.4625C14.6179 5.8875 13.6883 5.6 12.615 5.6C11.5225 5.6 10.6358 5.8875 9.95505 6.4625C9.27425 7.0375 8.80007 7.7275 8.5325 8.5325L10.43 9.28C10.5258 8.935 10.7416 8.56125 11.0774 8.15875C11.4132 7.75625 11.9258 7.555 12.615 7.555C13.2283 7.555 13.6883 7.7229 13.995 8.0587C14.3017 8.3945 14.455 8.76327 14.455 9.165C14.455 9.54833 14.34 9.9079 14.11 10.2437C13.88 10.5795 13.5925 10.8908 13.2475 11.1775C12.4042 11.925 11.8867 12.4904 11.695 12.8737C11.5033 13.2571 11.4075 13.9567 11.4075 14.9725ZM12.5 24C10.9092 24 9.41417 23.6979 8.015 23.0938C6.61583 22.4897 5.39875 21.6705 4.36375 20.6362C3.32875 19.6012 2.50957 18.3842 1.9062 16.985C1.30283 15.5858 1.00077 14.0908 1 12.5C1 10.9092 1.30207 9.41417 1.9062 8.015C2.51033 6.61583 3.32952 5.39875 4.36375 4.36375C5.39875 3.32875 6.61583 2.50957 8.015 1.9062C9.41417 1.30283 10.9092 1.00077 12.5 1C14.0908 1 15.5858 1.30207 16.985 1.9062C18.3842 2.51033 19.6012 3.32952 20.6362 4.36375C21.6712 5.39875 22.4908 6.61583 23.0949 8.015C23.6991 9.41417 24.0008 10.9092 24 12.5C24 14.0908 23.6979 15.5858 23.0938 16.985C22.4897 18.3842 21.6705 19.6012 20.6362 20.6362C19.6012 21.6712 18.3842 22.4908 16.985 23.0949C15.5858 23.6991 14.0908 24.0008 12.5 24Z" fill="#C33366"/>
</svg>
