<svg width="156" height="24" viewBox="0 0 156 24" fill="none" xmlns="http://www.w3.org/2000/svg">
<path d="M11.8688 0.128906L15.7877 7.20349L23.3977 8.93622L18.2097 15.0413L18.994 23.1868L11.8688 19.8853L4.7435 23.1868L5.52786 15.0413L0.339844 8.93622L7.94987 7.20349L11.8688 0.128906Z" fill="#FBB606"/>
<path d="M45.013 0.128906L49.4218 7.20349L57.9831 8.93622L52.1465 15.0413L53.0289 23.1868L45.013 19.8853L36.9971 23.1868L37.8795 15.0413L32.043 8.93622L40.6043 7.20349L45.013 0.128906Z" fill="#FBB606"/>
<path d="M78.1578 0.128906L82.0767 7.20349L89.6868 8.93622L84.4987 15.0413L85.2831 23.1868L78.1578 19.8853L71.0326 23.1868L71.8169 15.0413L66.6289 8.93622L74.2389 7.20349L78.1578 0.128906Z" fill="#FBB606"/>
<path d="M109.865 0.128906L113.784 7.20349L121.394 8.93622L116.206 15.0413L116.99 23.1868L109.865 19.8853L102.74 23.1868L103.524 15.0413L98.3359 8.93622L105.946 7.20349L109.865 0.128906Z" fill="#FBB606"/>
<path d="M143.009 0.128906L147.418 7.20349L155.979 8.93622L150.143 15.0413L151.025 23.1868L143.009 19.8853L134.993 23.1868L135.876 15.0413L130.039 8.93622L138.6 7.20349L143.009 0.128906Z" fill="#FBB606"/>
<path d="M134.993 23.1868L143.009 19.8853V0.128906L138.6 7.20349L130.039 8.93622L135.876 15.0413L134.993 23.1868Z" fill="#FBB606"/>
</svg>
