<svg width="53" height="54" viewBox="0 0 53 54" fill="none" xmlns="http://www.w3.org/2000/svg">
<rect y="0.160156" width="52.9465" height="52.95" rx="3.60305" fill="#E9EBFF"/>
<path d="M31.4835 25.0426C36.5307 23.0259 39.673 21.8673 48 19.8359C43.4772 20.1348 33.4763 20.8204 26.583 22.1661L31.4835 25.0444M15.7902 31.7379H22.3902C23.6973 29.7579 24.9972 28.7936 26.5115 27.7211C25.3614 27.2764 24.2051 26.848 23.0428 26.4359C18.8317 28.2949 16.4887 30.7901 15.7957 31.7379M17.0955 24.5366C11.2105 26.6394 7.93983 28.9238 5.73067 31.7379H13.0182C13.7277 30.7498 16.4318 27.9008 21.512 25.9189C20.0496 25.4256 18.5765 24.9648 17.0937 24.5366M20.115 20.1073H4C20.247 23.0406 28.0772 26.8173 40.6667 32.1559C39.5905 31.3511 22.2398 21.1321 20.1168 20.1073" fill="black"/>
</svg>
