<svg width="212" height="61" viewBox="0 0 212 61" fill="none" xmlns="http://www.w3.org/2000/svg">
<path d="M132.197 26.2481C156.457 16.4054 171.561 10.7503 211.586 0.835938C189.847 2.29445 141.776 5.64098 108.642 12.2088L132.197 26.257M56.7649 58.926H88.4888C94.7719 49.2622 101.02 44.5556 108.299 39.321C102.77 37.1506 97.2123 35.0595 91.6259 33.0485C71.3843 42.1218 60.1223 54.2999 56.7913 58.926M63.0392 23.7785C34.7521 34.0418 19.0311 45.1909 8.41245 58.926H43.4409C46.8512 54.1031 59.8492 40.1979 84.2677 30.5252C77.2385 28.1176 70.1576 25.8681 63.0304 23.7785M77.5528 2.16023H0.09375C78.1873 16.4769 115.824 34.9097 176.337 60.9661C171.165 57.038 87.7662 7.16213 77.5617 2.16023" fill="currentColor"/>
</svg>
