<svg width="191" height="190" viewBox="0 0 191 190" fill="none" xmlns="http://www.w3.org/2000/svg">
<path d="M146.636 64.8452L151.887 70.3517C152.44 70.9321 152.775 71.6623 152.646 72.519L151.428 80.5712C151.317 81.2704 151.515 81.986 151.963 82.5008C152.609 83.2604 153.644 83.4474 154.48 82.9553L158.63 80.5396L161.084 79.1108C162.232 78.4427 163.274 79.2329 164.288 79.8047L169.682 82.8474C171.224 83.7167 173.01 82.2823 172.706 80.4202L172.54 79.4095L171.584 73.5587C171.398 72.4216 171.134 71.2744 171.982 70.3618L173.268 68.9772L177.309 64.6275C177.534 64.3885 177.706 64.0975 177.813 63.7761C178.21 62.5746 177.603 61.1503 176.386 60.8C176.3 60.7754 176.213 60.7565 176.126 60.7433L172.248 60.1572L168.71 59.6224C168.027 59.5192 167.435 59.0566 167.126 58.3853L163.963 51.5129L163.769 51.0908C163.14 49.7249 161.571 49.4728 160.592 50.3238C160.347 50.5378 160.15 50.809 160.014 51.1175L157.534 56.6863L156.744 58.459C156.224 59.6273 155.143 59.7239 154.095 59.8975L148.705 60.7903L147.774 60.9446C146.058 61.2287 145.386 63.5338 146.636 64.8452Z" fill="#F0548B" stroke="#3D3D3C" stroke-width="0.796242" stroke-linecap="round" stroke-linejoin="round"/>
<path d="M166.618 68.668L165.285 70.2935L166.618 68.668Z" fill="#F5F6F7"/>
<path d="M166.618 68.668L165.285 70.2935" stroke="#3D3D3C" stroke-width="0.796242" stroke-linecap="round" stroke-linejoin="round"/>
<path d="M189.663 133.876C189.663 130.113 187.579 126.961 184.762 126.062C184.693 126.047 184.623 126.041 184.552 126.045H170.186C170.131 126.045 170.099 125.741 170.111 125.687C172.195 118.395 171.169 111.559 171.129 111.335C171.126 111.33 171.125 111.325 171.125 111.319C171.125 106.859 168.202 103.246 164.596 103.246C161.252 103.246 158.507 106.345 158.111 110.343H158.107C156.788 123.875 148.369 127.913 146.475 128.66C146.463 128.662 146.451 128.662 146.44 128.66C146.329 128.636 146.214 128.66 146.095 128.66H137.26C135.952 128.66 134.895 129.951 134.895 131.564V165.122C134.895 166.742 135.952 167.914 137.26 167.914H177.971C178.201 167.941 178.435 167.914 178.669 167.914C182.975 167.914 184.465 163.522 184.465 163.522C184.936 162.408 189.374 136.226 189.374 136.226H189.377C189.461 135.869 189.525 135.507 189.568 135.142L189.588 135.023V135.015C189.635 134.637 189.66 134.257 189.663 133.877" fill="#C33366"/>
<mask id="mask0_2340_58193" style="mask-type:luminance" maskUnits="userSpaceOnUse" x="134" y="103" width="56" height="65">
<path fill-rule="evenodd" clip-rule="evenodd" d="M189.663 133.88C189.663 130.117 187.579 126.965 184.762 126.066C184.693 126.051 184.623 126.045 184.552 126.049H170.186C170.131 126.049 170.099 125.745 170.111 125.691C172.195 118.399 171.169 111.563 171.129 111.338C171.126 111.334 171.125 111.329 171.125 111.323C171.125 106.862 168.202 103.25 164.596 103.25C161.252 103.25 158.507 106.349 158.111 110.347H158.107C156.788 123.879 148.369 127.917 146.475 128.664C146.463 128.666 146.451 128.666 146.44 128.664C146.329 128.64 146.214 128.664 146.095 128.664H137.26C135.952 128.664 134.895 129.955 134.895 131.568V165.126C134.895 166.746 135.952 167.918 137.26 167.918H177.971C178.201 167.945 178.435 167.918 178.669 167.918C182.975 167.918 184.465 163.526 184.465 163.526C184.936 162.412 189.374 136.23 189.374 136.23H189.377C189.461 135.873 189.525 135.511 189.568 135.146L189.588 135.027V135.019C189.635 134.641 189.66 134.261 189.663 133.88" fill="white"/>
</mask>
<g mask="url(#mask0_2340_58193)">
<path d="M143.783 142.316C149.619 136.822 144.578 168.879 168.719 170.2C192.86 171.521 126.25 180.485 126.25 180.485L133.141 155.039" fill="#F0548B"/>
<path d="M173.574 114.844L170.183 126.049C170.183 126.049 170.109 128.053 167.15 130.893C164.192 133.734 184.758 126.066 184.758 126.066L179.703 120.854" fill="#F0548B"/>
</g>
<path d="M189.663 133.876C189.663 130.113 187.579 126.961 184.762 126.062C184.693 126.047 184.623 126.041 184.552 126.045H170.186C170.131 126.045 170.099 125.741 170.111 125.687C172.195 118.395 171.169 111.559 171.129 111.335C171.126 111.33 171.125 111.325 171.125 111.319C171.125 106.859 168.202 103.246 164.596 103.246C161.252 103.246 158.507 106.345 158.111 110.343H158.107C156.788 123.875 148.369 127.913 146.475 128.66C146.463 128.662 146.451 128.662 146.44 128.66C146.329 128.636 146.214 128.66 146.095 128.66H137.26C135.952 128.66 134.895 129.951 134.895 131.564V165.122C134.895 166.742 135.952 167.914 137.26 167.914H177.971C178.201 167.941 178.435 167.914 178.669 167.914C182.975 167.914 184.465 163.522 184.465 163.522C184.936 162.408 189.374 136.226 189.374 136.226H189.377C189.461 135.869 189.525 135.507 189.568 135.142L189.588 135.023V135.015C189.635 134.637 189.66 134.257 189.663 133.877" stroke="#3D3D3C" stroke-width="0.796242" stroke-linecap="round" stroke-linejoin="round"/>
<rect x="126.25" y="124.012" width="20.6713" height="46.1891" rx="3.63331" fill="#4F4F5B" stroke="#3D3D3C" stroke-width="0.796242" stroke-linecap="round" stroke-linejoin="round"/>
<ellipse cx="136.589" cy="135.587" rx="3.44459" ry="3.75462" fill="white" stroke="#3D3D3C" stroke-width="0.796242" stroke-linecap="round" stroke-linejoin="round"/>
<path d="M164.773 132.386C168.232 132.102 170.382 124.574 170.382 124.574" stroke="#3D3D3C" stroke-width="0.796242" stroke-linecap="round" stroke-linejoin="round"/>
<path d="M177.664 138.727C176.907 141.186 175.635 143.421 173.949 145.253" stroke="#3D3D3C" stroke-width="0.796242" stroke-linecap="round" stroke-linejoin="round"/>
<path d="M137.9 154.719C137.489 157.126 137.978 159.612 139.258 161.624" stroke="#3D3D3C" stroke-width="0.796242" stroke-linecap="round" stroke-linejoin="round"/>
<path d="M60.9832 43.9727L6.64384 56.6511C2.56832 57.602 -0.052455 62.0147 0.819959 66.457L8.22184 104.149C9.09422 108.591 13.1425 111.448 17.218 110.497L32.9256 106.832L44.9644 114.789C45.9393 115.433 47.2061 115.138 47.8531 114.115L55.8423 101.485L71.5574 97.8185C75.6329 96.8676 78.2536 92.4549 77.3813 88.0126L69.9794 50.3207C69.1054 45.8699 65.0664 43.02 60.9832 43.9727H60.9832Z" fill="#C33366"/>
<mask id="mask1_2340_58193" style="mask-type:luminance" maskUnits="userSpaceOnUse" x="0" y="43" width="78" height="73">
<path fill-rule="evenodd" clip-rule="evenodd" d="M60.9832 43.9687L6.64384 56.6472C2.56832 57.5981 -0.052455 62.0108 0.819959 66.4531L8.22184 104.145C9.09422 108.587 13.1425 111.444 17.218 110.493L32.9256 106.828L44.9644 114.785C45.9393 115.429 47.2061 115.134 47.8531 114.111L55.8423 101.481L71.5574 97.8146C75.6329 96.8637 78.2536 92.451 77.3813 88.0087L69.9794 50.3168C69.1054 45.866 65.0664 43.0161 60.9832 43.9687H60.9832Z" fill="white"/>
</mask>
<g mask="url(#mask1_2340_58193)">
<path d="M77.2375 76.5391C79.8456 95.2095 55.8477 101.487 55.8477 101.487L72.4601 110.2L86.0707 88.0593" fill="#4F4F5B"/>
<path d="M77.2375 76.5391C79.8456 95.2095 55.8477 101.487 55.8477 101.487L72.4601 110.2L86.0707 88.0593" stroke="#3D3D3C" stroke-width="0.796242" stroke-linecap="round" stroke-linejoin="round"/>
<path d="M0.836775 83.6444C-4.76108 61.8762 21.0214 53.2969 21.0214 53.2969L-9.56641 56.2709" fill="#F0548B"/>
</g>
<path fill-rule="evenodd" clip-rule="evenodd" d="M60.9832 43.9727L6.64384 56.6511C2.56832 57.602 -0.052455 62.0147 0.819959 66.457L8.22184 104.149C9.09422 108.591 13.1425 111.448 17.218 110.497L32.9256 106.832L44.9644 114.789C45.9393 115.433 47.2061 115.138 47.8531 114.115L55.8423 101.485L71.5574 97.8185C75.6329 96.8676 78.2536 92.4549 77.3813 88.0126L69.9794 50.3207C69.1054 45.8699 65.0664 43.02 60.9832 43.9727H60.9832Z" stroke="#3D3D3C" stroke-width="0.796242" stroke-linecap="round" stroke-linejoin="round"/>
<path d="M51.2729 63.9882C46.6146 60.7012 40.4877 61.7577 36.9339 66.1883C32.0819 63.7588 26.1731 65.4628 23.1264 70.4116C19.6782 76.0125 21.3434 83.7629 26.5381 87.4284L40.2328 97.0919C42.0099 98.3379 44.3768 97.7857 45.53 95.856L54.5489 80.6705C57.8568 75.1009 56.3826 67.5939 51.2729 63.9882V63.9882Z" fill="white" stroke="#3D3D3C" stroke-width="0.796242" stroke-linecap="round" stroke-linejoin="round"/>
<path d="M60.4336 57.0508C61.7468 58.1832 62.7768 59.6582 63.4281 61.3394" stroke="#3D3D3C" stroke-width="0.796242" stroke-linecap="round" stroke-linejoin="round"/>
<path d="M38.3555 84.6914C38.5313 85.2339 38.8629 85.7001 39.301 86.021L38.3555 84.6914Z" fill="#F5F6F7"/>
<path d="M38.3555 84.6914C38.5313 85.2339 38.8629 85.7001 39.301 86.021" stroke="#3D3D3C" stroke-width="0.796242" stroke-linecap="round" stroke-linejoin="round"/>
<rect width="6.79909" height="10.0216" rx="3.39955" transform="matrix(0.963362 0.268206 -0.228254 0.973602 69.4141 49.5312)" fill="white" stroke="#3D3D3C" stroke-width="0.796242" stroke-linecap="round" stroke-linejoin="round"/>
<rect width="6.79909" height="10.0216" rx="3.39955" transform="matrix(0.963362 0.268206 -0.228254 0.973602 66.7891 60.7383)" fill="white" stroke="#3D3D3C" stroke-width="0.796242" stroke-linecap="round" stroke-linejoin="round"/>
<rect width="74.4636" height="150.765" rx="15.5352" transform="matrix(0.963362 0.268206 -0.228254 0.973602 77.3984 23.2422)" fill="#ECEDEE" stroke="#3D3D3C" stroke-width="0.796242" stroke-linecap="round" stroke-linejoin="round"/>
<path d="M136.177 43.4315L131.481 42.1243C129.969 41.7033 128.424 42.7229 128.031 44.4017C127.638 46.0805 126.093 47.1001 124.581 46.6791L97.4028 39.1126C95.8906 38.6916 94.9836 36.9894 95.3769 35.3106C95.7703 33.6318 94.8633 31.9296 93.3511 31.5086L88.6559 30.2014C84.0132 28.9089 79.2705 32.0392 78.0628 37.1932L50.2311 155.966C49.0234 161.12 51.808 166.346 56.4507 167.639L103.971 180.869C108.614 182.161 113.357 179.031 114.564 173.877L142.396 55.104C143.604 49.95 140.819 44.7241 136.177 43.4315Z" fill="#6B7C93" fill-opacity="0.06" stroke="#3D3D3C" stroke-width="0.796242" stroke-linecap="round" stroke-linejoin="round"/>
<rect width="56.9417" height="70.7066" rx="9.03083" transform="matrix(0.963362 0.268206 -0.228254 0.973602 81.3594 44.6797)" fill="white" stroke="#3D3D3C" stroke-width="0.796242" stroke-linecap="round" stroke-linejoin="round"/>
<rect width="56.9417" height="12.9972" rx="6.4986" transform="matrix(0.963362 0.268206 -0.228254 0.973602 63.4844 120.949)" fill="#F0548B" stroke="#3D3D3C" stroke-width="0.796242" stroke-linecap="round" stroke-linejoin="round"/>
<rect width="56.9417" height="12.9972" rx="6.4986" transform="matrix(0.963362 0.268206 -0.228254 0.973602 59.3789 138.465)" fill="white" stroke="#3D3D3C" stroke-width="0.796242" stroke-linecap="round" stroke-linejoin="round"/>
<path d="M110.079 80.8044C107.767 78.9437 104.65 78.7965 102.198 80.432C100.902 77.9744 98.4714 76.4919 95.8714 76.5735C93.2713 76.6551 90.9228 78.2874 89.7586 80.8223C88.5944 83.3571 88.803 86.3841 90.3016 88.701L96.1517 98.0223C96.8231 99.0924 98.1079 99.4736 99.1845 98.9222L108.558 94.1229C110.921 93.0696 112.578 90.7092 112.894 87.9486C113.209 85.188 112.133 82.4568 110.079 80.8044Z" fill="white" stroke="#3D3D3C" stroke-width="0.796242" stroke-linecap="round" stroke-linejoin="round"/>
<path d="M91.9596 54.3008C89.0986 55.1596 86.434 56.6606 84.1367 58.7076L91.9596 54.3008Z" fill="#F5F6F7"/>
<path d="M91.9596 54.3008C89.0986 55.1596 86.434 56.6606 84.1367 58.7076" stroke="#3D3D3C" stroke-width="0.796242" stroke-linecap="round" stroke-linejoin="round"/>
<path d="M100.263 154.516L98.2891 155.791L100.263 154.516Z" fill="#F5F6F7"/>
<path d="M100.263 154.516L98.2891 155.791" stroke="#3D3D3C" stroke-width="0.796242" stroke-linecap="round" stroke-linejoin="round"/>
<mask id="mask2_2340_58193" style="mask-type:luminance" maskUnits="userSpaceOnUse" x="65" y="0" width="97" height="129">
<path fill-rule="evenodd" clip-rule="evenodd" d="M120.078 128.796L65.2227 113.524L71.5447 0.988281L161.962 32.7009L120.078 128.796Z" fill="white"/>
</mask>
<g mask="url(#mask2_2340_58193)">
<path d="M115.776 56.1731C106.272 46.664 123.101 37.1616 107.785 33.0688C96.8871 30.1565 97.3333 45.3821 93.1121 46.3665C88.8907 47.3507 80.1964 52.7362 85.16 63.4471C90.1236 74.158 93.5757 73.9591 93.5757 73.9591C116.363 102.022 129.669 70.0722 115.776 56.1731Z" fill="#4F4F5B" stroke="#3D3D3C" stroke-width="0.796242" stroke-linecap="round" stroke-linejoin="round"/>
<path d="M102.927 175.703C106.367 177.61 116.047 168.542 116.047 168.542L105.817 135.494L106.456 81.3242L89.4414 86.0671L91.3258 133.637C91.3537 134.342 91.4641 135.04 91.6542 135.715L102.927 175.703Z" fill="#4F4F5B"/>
<path fill-rule="evenodd" clip-rule="evenodd" d="M102.927 175.703C106.367 177.61 116.047 168.542 116.047 168.542L105.817 135.494L106.456 81.3242L89.4414 86.0671L91.3258 133.637C91.3537 134.342 91.4641 135.04 91.6542 135.715L102.927 175.703Z" stroke="#3D3D3C" stroke-width="0.796242" stroke-linecap="round" stroke-linejoin="round"/>
<path d="M94.6366 86.1454L104.608 80.6953C109.381 82.4636 114.975 88.7477 114.227 99.6038L108.703 129.723L129.439 130.013C129.439 130.013 130.824 139.462 128.767 144.777L99.9498 143.307C96.1381 143.151 93.2345 139.499 93.6063 135.33L94.1828 107.81" fill="#4F4F5B"/>
<mask id="mask3_2340_58193" style="mask-type:luminance" maskUnits="userSpaceOnUse" x="93" y="80" width="37" height="65">
<path fill-rule="evenodd" clip-rule="evenodd" d="M94.6405 86.1454L104.612 80.6953C109.385 82.4636 114.979 88.7477 114.231 99.6038L108.707 129.723L129.443 130.013C129.443 130.013 130.828 139.462 128.771 144.777L99.9537 143.307C96.142 143.151 93.2384 139.499 93.6102 135.33L94.1867 107.81" fill="white"/>
</mask>
<g mask="url(#mask3_2340_58193)">
<path d="M91.3828 90.6757C130.207 94.186 100.895 121.78 114.585 127.264C117.394 128.389 123.144 97.8481 123.144 97.8481L112.565 74.0273L94.7122 83.704" fill="#3D3D3C"/>
</g>
<path d="M94.6366 86.1454L104.608 80.6953C109.381 82.4636 114.975 88.7477 114.227 99.6038L108.703 129.723L129.439 130.013C129.439 130.013 130.824 139.462 128.767 144.777L99.9498 143.307C96.1381 143.151 93.2345 139.499 93.6063 135.33L94.1828 107.81" stroke="#3D3D3C" stroke-width="0.796242" stroke-linecap="round" stroke-linejoin="round"/>
<path d="M87.2531 29.5853C87.2531 29.5853 91.677 22.8263 92.3435 22.4949C93.0099 22.1635 98.0557 18.375 98.5154 18.2993C98.9751 18.2237 97.7348 16.7151 94.7463 18.9022C94.7463 18.9022 92.2631 17.7279 97.7428 13.0636C99.4729 11.5909 95.033 10.0625 89.8901 17.4134C86.2645 22.5956 82.0117 26.0664 82.0117 26.0664L87.2531 29.5853Z" fill="white"/>
<mask id="mask4_2340_58193" style="mask-type:luminance" maskUnits="userSpaceOnUse" x="82" y="11" width="17" height="19">
<path fill-rule="evenodd" clip-rule="evenodd" d="M87.2531 29.5853C87.2531 29.5853 91.677 22.8263 92.3435 22.4949C93.0099 22.1635 98.0557 18.375 98.5154 18.2993C98.9751 18.2237 97.7348 16.7151 94.7463 18.9022C94.7463 18.9022 92.2631 17.7279 97.7428 13.0636C99.4729 11.5909 95.033 10.0625 89.8901 17.4134C86.2645 22.5956 82.0117 26.0664 82.0117 26.0664L87.2531 29.5853Z" fill="white"/>
</mask>
<g mask="url(#mask4_2340_58193)">
<path d="M86.6992 20.3C88.5938 19.5832 90.3474 23.8499 91.6313 23.611C92.9152 23.3721 91.4748 25.2494 91.4748 25.2494L87.6074 24.652L87.5134 23.2355" fill="#CFCFD0"/>
</g>
<path fill-rule="evenodd" clip-rule="evenodd" d="M87.2531 29.5853C87.2531 29.5853 91.677 22.8263 92.3435 22.4949C93.0099 22.1635 98.0557 18.375 98.5154 18.2993C98.9751 18.2237 97.7348 16.7151 94.7463 18.9022C94.7463 18.9022 92.2631 17.7279 97.7428 13.0636C99.4729 11.5909 95.033 10.0625 89.8901 17.4134C86.2645 22.5956 82.0117 26.0664 82.0117 26.0664L87.2531 29.5853Z" stroke="#3D3D3C" stroke-width="0.796242" stroke-linecap="round" stroke-linejoin="round"/>
<path d="M136.031 53.7977C136.031 53.7977 143.041 48.7077 143.29 48.0855C143.54 47.4632 146.61 42.6288 146.641 42.2143C146.672 41.7998 148.167 42.7534 146.402 45.6112C146.402 45.6112 149.368 45.9435 151.952 40.1684C152.801 38.2708 154.529 44.5069 148.182 49.7699C143.708 53.4803 140.864 57.5816 140.864 57.5816L136.031 53.7977Z" fill="white"/>
<mask id="mask5_2340_58193" style="mask-type:luminance" maskUnits="userSpaceOnUse" x="136" y="39" width="17" height="19">
<path fill-rule="evenodd" clip-rule="evenodd" d="M136.031 53.8016C136.031 53.8016 143.041 48.7116 143.29 48.0894C143.54 47.4671 146.61 42.6327 146.641 42.2182C146.672 41.8037 148.167 42.7573 146.402 45.6151C146.402 45.6151 149.368 45.9474 151.952 40.1724C152.801 38.2747 154.529 44.5108 148.182 49.7738C143.708 53.4842 140.864 57.5855 140.864 57.5855L136.031 53.8016Z" fill="white"/>
</mask>
<g mask="url(#mask5_2340_58193)">
<path d="M144.801 59.2941C146.158 50.6598 140.041 49.8438 140.041 49.8438L139.102 56.6773L142.108 58.2475L145.427 58.1109" fill="#CFCFD0"/>
</g>
<path fill-rule="evenodd" clip-rule="evenodd" d="M136.031 53.7977C136.031 53.7977 143.041 48.7077 143.29 48.0854C143.54 47.4632 146.61 42.6288 146.641 42.2143C146.672 41.7998 148.167 42.7534 146.402 45.6112C146.402 45.6112 149.368 45.9435 151.952 40.1684C152.801 38.2708 154.529 44.5069 148.182 49.7699C143.708 53.4803 140.864 57.5816 140.864 57.5816L136.031 53.7977Z" stroke="#3D3D3C" stroke-width="0.796242" stroke-linecap="round" stroke-linejoin="round"/>
<path d="M86.8332 19.6367C88.3009 19.6367 91.5033 27.3792 91.5033 27.3792L84.3854 39.4496L95.7121 54.3234L88.9935 66.5928L74.0072 42.1879C72.6816 40.2767 72.7508 37.7832 74.1804 35.9409L86.8332 19.6367Z" fill="#C33366"/>
<mask id="mask6_2340_58193" style="mask-type:luminance" maskUnits="userSpaceOnUse" x="73" y="19" width="23" height="48">
<path fill-rule="evenodd" clip-rule="evenodd" d="M86.8332 19.6367C88.3009 19.6367 91.5033 27.3792 91.5033 27.3792L84.3854 39.4496L95.7121 54.3234L88.9935 66.5928L74.0072 42.1879C72.6816 40.2767 72.7508 37.7832 74.1804 35.9409L86.8332 19.6367Z" fill="white"/>
</mask>
<g mask="url(#mask6_2340_58193)">
<g opacity="0.1">
<path d="M89.8442 57.4141C82.87 64.0391 78.9844 69.1499 78.9844 69.1499L88.9973 66.5945L89.8442 57.4141Z" fill="#1E216E"/>
</g>
<path d="M91.1994 54.4599C86.8106 59.7473 78.707 49.8398 78.707 49.8398L80.0553 63.5646L89.6569 68.7406L91.1994 54.4599Z" fill="#F0548B"/>
</g>
<path fill-rule="evenodd" clip-rule="evenodd" d="M86.8332 19.6367C88.3009 19.6367 91.5033 27.3792 91.5033 27.3792L84.3854 39.4496L95.7121 54.3234L88.9934 66.5928L74.0072 42.1879C72.6816 40.2767 72.7508 37.7832 74.1804 35.9409L86.8332 19.6367Z" stroke="#3D3D3C" stroke-width="0.796242" stroke-linecap="round" stroke-linejoin="round"/>
<path d="M90.2735 55.2455L86.1093 58.8084C82.4169 61.8655 82.9711 67.9916 87.2448 70.072C87.3414 70.1191 87.4384 70.163 87.5357 70.2039C94.494 73.1208 83.339 88.2327 84.386 88.5899C101.705 94.4999 111.541 85.9641 111.541 85.9641C111.541 85.9641 106.518 70.2026 112.54 63.9114L113.793 58.7215C113.541 57.0931 112.347 55.7972 110.794 55.4687L93.9938 52.0625" fill="#C33366"/>
<mask id="mask7_2340_58193" style="mask-type:luminance" maskUnits="userSpaceOnUse" x="83" y="52" width="31" height="39">
<path fill-rule="evenodd" clip-rule="evenodd" d="M90.2774 55.2494L86.1132 58.8123C82.4208 61.8694 82.975 67.9956 87.2487 70.0759C87.3453 70.123 87.4423 70.1669 87.5396 70.2078C94.4979 73.1248 83.3429 88.2366 84.3899 88.5938C101.709 94.5038 111.545 85.968 111.545 85.968C111.545 85.968 106.522 70.2065 112.544 63.9153L113.796 58.7254C113.545 57.097 112.351 55.8011 110.798 55.4726L93.9977 52.0664" fill="white"/>
</mask>
<g mask="url(#mask7_2340_58193)">
<path d="M103.418 65.4784C117.054 79.7598 96.6325 94.4369 84.3871 88.5931C72.1416 82.7494 75.0367 99.4249 75.0367 99.4249L116.919 98.8221L111.462 69.6903L110.067 62.8594L106.344 63.1607" fill="#F0548B"/>
<path d="M95.6118 50.8984C89.74 57.4887 92.7513 59.4456 107.018 54.8036L107.651 53.1091" fill="white"/>
<path d="M95.6118 50.8984C89.74 57.4887 92.7513 59.4456 107.018 54.8036V54.8036L107.651 53.1091" stroke="#3D3D3C" stroke-width="0.796242" stroke-linecap="round" stroke-linejoin="round"/>
</g>
<path d="M90.2735 55.2455L86.1093 58.8084C82.4169 61.8655 82.9711 67.9916 87.2448 70.072C87.3414 70.1191 87.4384 70.163 87.5357 70.2039C94.494 73.1208 83.339 88.2327 84.386 88.5899C101.705 94.4999 111.541 85.9641 111.541 85.9641C111.541 85.9641 106.518 70.2026 112.54 63.9114L113.793 58.7215C113.541 57.0931 112.347 55.7972 110.794 55.4687L93.9938 52.0625" stroke="#3D3D3C" stroke-width="0.796242" stroke-linecap="round" stroke-linejoin="round"/>
<path d="M111.363 55.6424L126.492 57.8349L140.726 49.8398C140.726 49.8398 142.716 50.7797 143.948 57.7301L131.327 67.3772C129.894 68.4624 128.141 68.9255 126.411 68.6757L103.418 65.4805" fill="#C33366"/>
<mask id="mask8_2340_58193" style="mask-type:luminance" maskUnits="userSpaceOnUse" x="103" y="49" width="41" height="20">
<path fill-rule="evenodd" clip-rule="evenodd" d="M111.367 55.6424L126.496 57.8349L140.73 49.8398C140.73 49.8398 142.72 50.7797 143.951 57.7301L131.331 67.3772C129.898 68.4624 128.145 68.9255 126.415 68.6757L103.422 65.4805" fill="white"/>
</mask>
<g mask="url(#mask8_2340_58193)">
<path d="M129.339 40.1276L130.198 42.0252C130.345 42.3513 130.631 42.5773 130.961 42.6296L132.882 42.9339C133.264 42.9945 133.581 43.286 133.701 43.6859C133.82 44.0859 133.72 44.5249 133.444 44.8184L132.054 46.2955C131.815 46.5493 131.706 46.915 131.762 47.2734L132.09 49.359C132.156 49.7735 131.999 50.1923 131.687 50.4396C131.375 50.6868 130.961 50.7194 130.62 50.5237L128.901 49.5391C128.606 49.3698 128.253 49.3698 127.958 49.5391L126.24 50.5237C125.898 50.7194 125.484 50.6868 125.172 50.4396C124.86 50.1924 124.704 49.7735 124.769 49.359L125.097 47.2734C125.154 46.915 125.045 46.5493 124.806 46.2955L123.416 44.8184C123.139 44.5249 123.04 44.0859 123.159 43.6859C123.278 43.286 123.595 42.9945 123.977 42.9339L125.898 42.6296C126.229 42.5773 126.514 42.3513 126.662 42.0252L127.521 40.1276C127.691 39.7505 128.044 39.5117 128.43 39.5117C128.816 39.5117 129.168 39.7505 129.339 40.1276Z" fill="#4F4F5B" stroke="#3D3D3C" stroke-width="0.796242" stroke-linecap="round" stroke-linejoin="round"/>
</g>
<path d="M111.363 55.6424L126.492 57.8349L140.726 49.8398C140.726 49.8398 142.716 50.7797 143.948 57.7301L131.327 67.3772C129.894 68.4624 128.141 68.9255 126.411 68.6757L103.418 65.4805" stroke="#3D3D3C" stroke-width="0.796242" stroke-linecap="round" stroke-linejoin="round"/>
<path d="M95.3164 53.1227L102.899 42.3984L107.125 46.7399L103.849 54.7254" fill="white"/>
<mask id="mask9_2340_58193" style="mask-type:luminance" maskUnits="userSpaceOnUse" x="95" y="42" width="13" height="13">
<path fill-rule="evenodd" clip-rule="evenodd" d="M95.3086 53.1227L102.891 42.3984L107.117 46.7399L103.841 54.7254" fill="white"/>
</mask>
<g mask="url(#mask9_2340_58193)">
<path d="M103.04 49.1303C103.04 49.1303 97.3763 49.8532 94.6619 53.5225C92.6131 56.2919 98.3333 41.5039 98.3333 41.5039L103.04 49.1303Z" fill="#CFCFD0"/>
</g>
<path d="M95.3164 53.1227L102.899 42.3984L107.125 46.7399L103.849 54.7254" stroke="#3D3D3C" stroke-width="0.796242" stroke-linecap="round" stroke-linejoin="round"/>
<path d="M107.156 46.7727L107.755 45.9439C105.925 42.444 104.748 36.8252 105.356 34.1719C103.559 34.2178 100.31 35.4179 97.685 42.5354C96.138 46.7295 100.325 48.4659 103.044 49.137" fill="white"/>
<mask id="mask10_2340_58193" style="mask-type:luminance" maskUnits="userSpaceOnUse" x="97" y="34" width="11" height="16">
<path fill-rule="evenodd" clip-rule="evenodd" d="M107.152 46.7727L107.751 45.9439C105.921 42.444 104.744 36.8252 105.352 34.1719C103.555 34.2178 100.306 35.4179 97.6811 42.5354C96.1341 46.7295 100.321 48.4659 103.04 49.137" fill="white"/>
</mask>
<g mask="url(#mask10_2340_58193)">
<g opacity="0.27">
<ellipse cx="0.932877" cy="1.35186" rx="0.932877" ry="1.35186" transform="matrix(0.180729 -0.983533 0.977009 0.213196 103.258 44.1445)" fill="#CFCFD0"/>
</g>
<g opacity="0.27">
<ellipse cx="0.932877" cy="1.35186" rx="0.932877" ry="1.35186" transform="matrix(0.180729 -0.983533 0.977009 0.213196 96.8672 42.0703)" fill="#CFCFD0"/>
</g>
<path d="M99.9354 39.6399L100.275 38.6684C100.328 38.5159 100.435 38.3927 100.572 38.326C100.708 38.2592 100.864 38.2543 101.004 38.3124C101.295 38.4334 101.441 38.7888 101.33 39.1064L100.991 40.0778C100.88 40.3954 100.553 40.5548 100.262 40.4338C99.9706 40.3129 99.8244 39.9574 99.9353 39.6398L99.9354 39.6399Z" fill="#4F4F5B"/>
<path d="M103.971 40.9406L104.31 39.9691C104.363 39.8166 104.47 39.6935 104.607 39.6267C104.743 39.5599 104.899 39.5551 105.039 39.6131C105.179 39.6712 105.292 39.7875 105.353 39.9364C105.414 40.0853 105.419 40.2546 105.365 40.4071L105.026 41.3786C104.973 41.5311 104.866 41.6543 104.729 41.7211C104.593 41.7878 104.437 41.7927 104.297 41.7346C104.157 41.6765 104.044 41.5603 103.983 41.4114C103.922 41.2624 103.917 41.0931 103.97 40.9406L103.971 40.9406Z" fill="#4F4F5B"/>
<path d="M101.348 36.9004C100.151 36.7959 100.224 37.5587 100.968 37.6772C101.712 37.7957 102.129 36.9688 101.348 36.9004Z" fill="#4F4F5B"/>
<path d="M105.491 38.2012C106.448 38.9904 106.027 39.4918 105.399 39.041C104.771 38.5902 104.866 37.6855 105.491 38.2012Z" fill="#4F4F5B"/>
<path d="M102.61 41.313C102.515 41.7161 102.236 41.4679 101.845 41.3589C101.455 41.2499 101.101 41.3214 101.195 40.9183C101.29 40.5152 101.683 40.2768 102.074 40.3858C102.464 40.4948 102.704 40.9099 102.61 41.313Z" fill="#CFCFD0"/>
<path d="M99.8706 42.823C99.6258 45.8619 102.434 45.4143 102.938 43.633C102.962 43.5404 102.931 43.4407 102.86 43.3837C102.56 43.1383 101.66 42.5398 100.076 42.6114C99.9685 42.6164 99.8811 42.7066 99.8706 42.823Z" fill="#CFCFD0"/>
<mask id="mask11_2340_58193" style="mask-type:luminance" maskUnits="userSpaceOnUse" x="99" y="42" width="4" height="4">
<path fill-rule="evenodd" clip-rule="evenodd" d="M99.8745 42.8191C99.6297 45.858 102.437 45.4104 102.942 43.6291C102.966 43.5365 102.935 43.4368 102.864 43.3798C102.564 43.1344 101.663 42.5359 100.08 42.6075C99.9725 42.6125 99.885 42.7027 99.8745 42.8191Z" fill="white"/>
</mask>
<g mask="url(#mask11_2340_58193)">
<g opacity="0.29">
<ellipse cx="1.40356" cy="1.36456" rx="1.40356" ry="1.36456" transform="matrix(0.997672 -0.0682006 0.05747 0.998347 99.8828 43.7227)" fill="#4F4F5B"/>
</g>
<path d="M100.461 42.4954C100.416 42.6878 100.372 42.9538 100.407 43.0141C100.622 43.3856 102.027 43.6382 102.254 43.5232C102.317 43.4912 102.47 42.8734 102.47 42.8734L100.694 42.4492" fill="white"/>
</g>
</g>
<path d="M107.156 46.7727L107.755 45.9439C105.925 42.444 104.748 36.8252 105.356 34.1719C103.559 34.2178 100.31 35.4179 97.685 42.5354C96.138 46.7295 100.325 48.4659 103.044 49.137" stroke="#3D3D3C" stroke-width="0.796242" stroke-linecap="round" stroke-linejoin="round"/>
<path d="M105.871 48.0677C106.502 48.6235 107.416 48.8685 108.344 48.6454C109.827 48.2885 110.781 46.8682 110.474 45.4732C110.167 44.0783 108.716 43.2368 107.232 43.5937C106.876 43.6781 106.537 43.8305 106.23 44.0438" fill="white"/>
<path d="M105.871 48.0677C106.502 48.6235 107.416 48.8685 108.344 48.6454C109.827 48.2885 110.781 46.8682 110.474 45.4732C110.167 44.0783 108.716 43.2368 107.232 43.5937C106.876 43.6781 106.537 43.8305 106.23 44.0438" stroke="#3D3D3C" stroke-width="0.796242" stroke-linecap="round" stroke-linejoin="round"/>
<path d="M115.185 69.7617C114.895 71.29 114.423 72.7704 113.781 74.1657" stroke="#3D3D3C" stroke-width="0.796242" stroke-linecap="round" stroke-linejoin="round"/>
<path d="M107.957 45.2017C108.185 45.1287 108.431 45.2131 108.58 45.4153L107.957 45.2017Z" fill="#F5F6F7"/>
<path d="M107.957 45.2017C108.185 45.1287 108.431 45.2131 108.58 45.4153" stroke="#3D3D3C" stroke-width="0.796242" stroke-linecap="round" stroke-linejoin="round"/>
<path d="M109.059 36.8906L109.328 37.775L109.059 36.8906Z" fill="#F5F6F7"/>
<path d="M109.059 36.8906L109.328 37.775" stroke="#3D3D3C" stroke-width="0.796242" stroke-linecap="round" stroke-linejoin="round"/>
<path d="M82.0195 39.564C82.7777 39.7566 83.5675 39.744 84.3202 39.5273L82.0195 39.564Z" fill="#F5F6F7"/>
<path d="M82.0195 39.564C82.7777 39.7566 83.5675 39.744 84.3202 39.5273" stroke="#3D3D3C" stroke-width="0.796242" stroke-linecap="round" stroke-linejoin="round"/>
<path d="M126.484 58.1133L126.789 59.8748L126.484 58.1133Z" fill="#F5F6F7"/>
<path d="M126.484 58.1133L126.789 59.8748" stroke="#3D3D3C" stroke-width="0.796242" stroke-linecap="round" stroke-linejoin="round"/>
<path d="M92.1953 80.2695L96.1645 81.8319L92.1953 80.2695Z" fill="#F5F6F7"/>
<path d="M92.1953 80.2695L96.1645 81.8319" stroke="#3D3D3C" stroke-width="0.796242" stroke-linecap="round" stroke-linejoin="round"/>
</g>
</svg>
