<svg width="16" height="16" viewBox="0 0 16 16" fill="none" xmlns="http://www.w3.org/2000/svg">
<g clip-path="url(#clip0_2566_91394)">
<path d="M8.62117 13.5352L2.74219 7.65625V8.85727C2.74219 9.17554 2.86829 9.4818 3.09649 9.70399L7.77445 14.3819C8.24285 14.8503 9.0055 14.8503 9.47389 14.3819L13.2031 10.6528C13.6714 10.1844 13.6714 9.42175 13.2031 8.95335L8.62117 13.5352Z" fill="#212537"/>
<path d="M7.77445 11.3806C8.24285 11.849 9.0055 11.849 9.47389 11.3806L13.2031 7.65148C13.6714 7.18308 13.6714 6.42044 13.2031 5.95204L8.52509 1.27408C8.29698 1.05147 7.99109 0.926529 7.67237 0.925781L3.94321 0.925781C3.28265 0.925781 2.74219 1.46624 2.74219 2.1268V5.85596C2.74219 6.17423 2.86829 6.48049 3.09649 6.70268L7.77445 11.3806ZM5.29435 2.72731C5.49343 2.72731 5.68436 2.80639 5.82513 2.94716C5.9659 3.08794 6.04499 3.27886 6.04499 3.47794C6.04499 3.67703 5.9659 3.86795 5.82513 4.00872C5.68436 4.1495 5.49343 4.22858 5.29435 4.22858C5.09527 4.22858 4.90434 4.1495 4.76357 4.00872C4.6228 3.86795 4.54371 3.67703 4.54371 3.47794C4.54371 3.27886 4.6228 3.08794 4.76357 2.94716C4.90434 2.80639 5.09527 2.72731 5.29435 2.72731Z" fill="#212537"/>
</g>
<defs>
<clipPath id="clip0_2566_91394">
<rect width="14.4122" height="14.4122" fill="white" transform="translate(0.945312 0.925781)"/>
</clipPath>
</defs>
</svg>
