<svg width="86" height="76" viewBox="0 0 86 76" fill="none" xmlns="http://www.w3.org/2000/svg">
<path d="M34.0843 23.4549L35.9586 30.3029C37.7238 36.754 38.6046 39.9813 41.1996 41.448C43.7946 42.9183 47.0884 42.0508 53.676 40.3232L60.6639 38.4853C67.2515 36.7577 70.5453 35.8938 72.0448 33.3538C73.5443 30.8102 72.6635 27.5828 70.8947 21.1317L69.024 14.2874C67.2588 7.83263 66.3744 4.60526 63.783 3.1386C61.1844 1.66828 57.8906 2.53577 51.303 4.26708L44.315 6.09764C37.7275 7.82527 34.4337 8.69277 32.9378 11.2364C31.4383 13.7764 32.3191 17.0038 34.0843 23.4549Z" fill="#C33366"/>
<path d="M0.879061 2.78988C1.00046 2.35225 1.20693 1.94284 1.48666 1.58506C1.7664 1.22728 2.11391 0.92815 2.50932 0.704765C2.90474 0.481379 3.34031 0.338124 3.79113 0.283188C4.24195 0.228253 4.69918 0.262715 5.13667 0.384606L12.9838 2.55949C15.0635 3.12431 16.9613 4.2183 18.4924 5.73485C20.0235 7.25139 21.1355 9.13875 21.7202 11.213L31.6316 47.0893L32.3596 49.6052C35.2763 50.6973 37.783 52.7385 39.3727 55.4479L40.8011 55.0056L81.6724 44.3846C82.1117 44.2702 82.5692 44.2435 83.0188 44.3059C83.4685 44.3684 83.9014 44.5188 84.2929 44.7486C84.6844 44.9783 85.0268 45.283 85.3006 45.6451C85.5744 46.0072 85.7741 46.4196 85.8885 46.8589C86.0029 47.2983 86.0296 47.7558 85.9671 48.2054C85.9047 48.6551 85.7543 49.088 85.5245 49.4795C85.2947 49.871 84.9901 50.2134 84.628 50.4872C84.2659 50.761 83.8534 50.9607 83.4141 51.0751L42.6903 61.6546L41.1789 62.1246C41.1467 67.9765 37.1056 73.3262 30.9957 74.9159C23.6647 76.8235 16.1309 72.6028 14.168 65.4975C12.205 58.3877 16.5548 51.0797 23.8812 49.1767C24.2422 49.0836 24.6065 49.0037 24.9733 48.9371L15.0573 13.0515C14.7903 12.1295 14.2894 11.2923 13.603 10.6213C12.9167 9.95035 12.0684 9.46841 11.1406 9.22238L3.28894 7.04289C2.8514 6.92195 2.44198 6.71599 2.08405 6.43678C1.72612 6.15757 1.42671 5.81058 1.20292 5.41563C0.979132 5.02068 0.835344 4.58551 0.779775 4.13497C0.724206 3.68444 0.757944 3.22737 0.879061 2.78988Z" fill="#C33366"/>
</svg>
