<svg width="595" height="446" viewBox="0 0 595 446" fill="none" xmlns="http://www.w3.org/2000/svg">
<g id="sent_illustration">
<g id="freepik--background-complete--inject-128">
<rect id="Rectangle" y="391.938" width="594.667" height="0.299281" fill="#E0E0E0"/>
<rect id="Rectangle_2" x="408.25" y="404.617" width="40.9131" height="0.299281" fill="#E0E0E0"/>
<rect id="Rectangle_3" x="109.039" y="404.758" width="23.0255" height="0.299281" fill="#E0E0E0"/>
<rect id="Rectangle_4" x="251.859" y="404.062" width="46.6694" height="0.299281" fill="#E0E0E0"/>
<rect id="Rectangle_5" x="229.797" y="399.805" width="20.8609" height="0.299281" fill="#E0E0E0"/>
<rect id="Rectangle_6" x="441.914" y="399.961" width="63.0228" height="0.299281" fill="#E0E0E0"/>
<path id="Shape" fill-rule="evenodd" clip-rule="evenodd" d="M52.2323 338.546H281.881C285.631 338.546 288.672 335.486 288.672 331.711V6.83557C288.672 3.06039 285.631 0 281.881 0H52.2323C48.5094 0.00641902 45.4857 3.02859 45.4531 6.77571V331.711C45.4531 335.481 48.4864 338.54 52.2323 338.546ZM45.7435 6.77584C45.7435 3.17062 48.6436 0.246154 52.2254 0.239551H281.874C285.457 0.246139 288.361 3.16868 288.367 6.77584V331.711C288.361 335.318 285.457 338.241 281.874 338.247H52.2254C48.6436 338.24 45.7435 335.316 45.7435 331.711V6.77584Z" fill="#E0E0E0"/>
<path id="Shape_2" fill-rule="evenodd" clip-rule="evenodd" d="M309.463 338.546H539.123C542.865 338.533 545.891 335.477 545.891 331.711V6.77571C545.858 3.03324 542.841 0.0129657 539.123 0H309.463C305.738 0.00634843 302.711 3.02666 302.672 6.77571V331.711C302.678 335.483 305.715 338.54 309.463 338.546ZM302.962 6.77584C302.969 3.16868 305.872 0.246139 309.456 0.239551H539.116C542.7 0.246139 545.603 3.16868 545.61 6.77584V331.711C545.603 335.318 542.7 338.241 539.116 338.247H309.456C305.872 338.241 302.969 335.318 302.962 331.711V6.77584Z" fill="#E0E0E0"/>
<path id="Path" d="M522.487 242.094C507.858 219.672 521.214 195.574 518.99 170.626C516.766 145.678 493.217 140.243 497.677 119.15C502.839 94.6328 489.078 71.1094 473.486 71.1094C457.894 71.1094 444.145 94.573 449.307 119.114C453.767 140.243 430.278 145.69 427.994 170.59C425.711 195.49 439.126 219.672 424.486 242.058C409.845 264.445 413.698 294.169 421.94 308.906C424.133 312.816 426.776 316.452 429.814 319.74C441.105 331.941 456.926 338.87 473.492 338.87C490.058 338.87 505.879 331.941 517.17 319.74C520.201 316.449 522.839 312.813 525.032 308.906C533.286 294.205 537.127 264.564 522.487 242.094Z" fill="#E0E0E0"/>
<path id="Path_2" d="M473.491 259.109C475.453 259.109 477.335 259.894 478.722 261.29C480.11 262.687 480.889 264.581 480.889 266.555V391.942H466.094V266.555C466.094 264.581 466.873 262.687 468.26 261.29C469.648 259.894 471.529 259.109 473.491 259.109Z" fill="#F0F0F0"/>
<path id="Path_3" d="M380.471 391.936H360.359V266.562C360.372 260.967 364.875 256.435 370.433 256.422C375.991 256.435 380.494 260.967 380.507 266.562L380.471 391.936Z" fill="#E0E0E0"/>
<ellipse id="Oval" cx="370.415" cy="295.665" rx="62.0475" ry="62.4539" fill="#F0F0F0"/>
<ellipse id="Oval_2" cx="419.594" cy="270.988" rx="24.6036" ry="24.462" transform="rotate(-76.05 419.594 270.988)" fill="#F0F0F0"/>
<ellipse id="Oval_3" cx="320.216" cy="256.419" rx="14.5665" ry="14.4766" transform="rotate(-80.75 320.216 256.419)" fill="#F0F0F0"/>
<ellipse id="Oval_4" cx="335.962" cy="248.88" rx="10.1569" ry="10.2234" fill="#F0F0F0"/>
<path id="Path_4" d="M242.618 317.103C232.97 318.549 223.75 322.091 215.597 327.482C215.525 318.001 213.801 309.01 209.376 301.744C202.645 308.34 197.186 316.887 192.726 326.081C191.096 308.855 186.589 292.095 176.61 281.477C161.66 290.946 153.954 306.724 150.29 323.436C144.239 312.167 135.455 302.622 124.755 295.686C115.609 305.383 112.684 318.791 112.933 332.534C102.539 320.347 91.0021 310.842 79.751 309.729C76.9799 328.99 82.879 347.163 90.3837 361.528C100.313 380.312 119.756 392.021 140.895 391.947H189.764C210.59 391.947 230.118 380.766 239.883 362.246C246.056 350.515 249.005 335.419 242.618 317.103Z" fill="#E0E0E0"/>
<path id="Path_5" d="M228.662 68.4006C234.692 50.5994 229.851 37.9219 215.139 37.9219C205.886 37.9219 194.409 42.9139 183.229 51.0304C181.969 46.3975 178.413 43.6321 172.692 43.6321C162.618 43.6321 148.739 52.2035 137.856 64.2945C134.792 61.3645 130.736 59.7168 126.51 59.6856C116.865 59.1349 105.197 64.067 95.0522 72.0758C94.0208 70.6227 92.3546 69.7618 90.5803 69.7653C85.0261 69.4541 77.4977 74.4341 73.7751 80.8746C73.5491 81.2697 73.3469 81.6647 73.1328 82.0718H231.588C232.063 76.4453 231.076 71.7526 228.662 68.4006Z" fill="#F0F0F0"/>
<path id="Path_6" d="M229.146 176.49C232.095 167.798 229.752 161.609 222.545 161.609C218.014 161.609 212.412 164.004 206.953 168.014C206.345 165.706 204.163 164.184 201.803 164.423C196.891 164.423 190.112 168.613 184.784 174.526C183.29 173.09 181.307 172.285 179.241 172.276C174.484 172 168.835 174.407 163.875 178.321C163.387 177.619 162.597 177.193 161.746 177.172C159.035 177.016 155.36 179.447 153.54 182.595L153.219 183.17H230.621C230.944 180.837 230.42 178.465 229.146 176.49Z" fill="#F0F0F0"/>
<path id="Path_7" d="M407.658 110.725C407.047 110.639 406.431 110.595 405.815 110.593C406.386 101.914 403.091 96.3596 396.038 96.3596C390.96 96.3596 384.716 99.2567 378.365 104.153C380.184 87.2974 374.357 76.3438 361.155 76.3438C350.523 76.3438 337.047 83.5265 323.739 95.0907C322.549 88.4826 318.648 84.5081 312.059 84.5081C300.487 84.5081 284.039 96.7667 270.849 114.053C267.805 110.016 263.109 107.582 258.076 107.433C247.062 106.655 233.373 113.694 221.206 125.162C220.303 123.189 218.358 121.91 216.199 121.87C210.169 121.439 201.927 127.772 197.039 136.236H417.351C422.525 123.403 418.41 112.174 407.658 110.725Z" fill="#F0F0F0"/>
</g>
<g id="freepik--Shadow--inject-128">
<ellipse id="Oval_5" cx="297.326" cy="432.45" rx="230.6" ry="13.5514" fill="#F5F5F5"/>
</g>
<g id="freepik--Mail--inject-128">
<path id="Path_8" d="M58.1172 114.398L329.25 153.688L365.631 190.643L58.1172 114.398Z" fill="#C33366"/>
<path id="Path_9" opacity="0.6" d="M58.1172 114.398L329.25 153.688L365.631 190.643L58.1172 114.398Z" fill="white"/>
<path id="Path_10" d="M58.1172 114.398L329.25 153.688L316.666 207.128L58.1172 114.398Z" fill="#C33366"/>
<path id="Path_11" opacity="0.2" d="M58.1172 114.398L329.25 153.688L316.666 207.128L58.1172 114.398Z" fill="black"/>
<path id="Path_12" d="M311.1 52.5335L326.835 126.755C327.687 130.791 325.133 134.759 321.126 135.626L180.69 165.793C176.682 166.644 172.744 164.077 171.877 160.047L156.13 85.8255C155.285 81.7876 157.843 77.8221 161.851 76.9548L302.287 46.7873C306.299 45.9371 310.238 48.5112 311.1 52.5455V52.5335Z" fill="#C33366"/>
<path id="Path_13" opacity="0.4" d="M311.1 52.5335L326.835 126.755C327.687 130.791 325.133 134.759 321.126 135.626L180.69 165.793C176.682 166.644 172.744 164.077 171.877 160.047L156.13 85.8255C155.285 81.7876 157.843 77.8221 161.851 76.9548L302.287 46.7873C306.299 45.9371 310.238 48.5112 311.1 52.5455V52.5335Z" fill="black"/>
<path id="Path_14" d="M307.648 47.6706L260.729 105.647C251.764 116.721 236.356 120.032 223.681 113.608L157.328 79.969C158.402 78.4168 160.022 77.334 161.859 76.9403L302.296 46.7728C304.129 46.3802 306.041 46.701 307.648 47.6706Z" fill="#C33366"/>
<path id="Path_15" d="M58.1172 114.398L281.748 167.898L316.666 207.128L58.1172 114.398Z" fill="#C33366"/>
<path id="Path_16" opacity="0.6" d="M58.1172 114.398L281.748 167.898L316.666 207.128L58.1172 114.398Z" fill="white"/>
<path id="Rectangle_7" d="M139.09 166.999L139.691 165.966L164.577 180.639L163.976 181.672L139.09 166.999Z" fill="#C33366"/>
<path id="Rectangle_8" d="M174.967 188.139L175.569 187.106L184.517 192.382L183.916 193.415L174.967 188.139Z" fill="#C33366"/>
<path id="Path_17" d="M58.1172 114.398L281.748 167.898L238.277 220.631L58.1172 114.398Z" fill="#C33366"/>
<path id="Path_18" d="M357.225 239.738C356.924 239.738 356.626 239.682 356.345 239.57L319.928 225.061C318.715 224.569 318.124 223.184 318.605 221.96C319.085 220.736 320.457 220.132 321.676 220.608L358.106 235.117C359.169 235.54 359.783 236.664 359.567 237.794C359.352 238.924 358.369 239.741 357.225 239.738Z" fill="#C33366"/>
<path id="Path_19" opacity="0.3" d="M357.225 239.738C356.924 239.738 356.626 239.682 356.345 239.57L319.928 225.061C318.715 224.569 318.124 223.184 318.605 221.96C319.085 220.736 320.457 220.132 321.676 220.608L358.106 235.117C359.169 235.54 359.783 236.664 359.567 237.794C359.352 238.924 358.369 239.741 357.225 239.738Z" fill="black"/>
<path id="Path_20" d="M355.085 218.718C354.786 218.716 354.491 218.655 354.217 218.538L334.652 210.697C333.856 210.387 333.286 209.671 333.159 208.821C333.032 207.972 333.367 207.119 334.037 206.586C334.707 206.053 335.609 205.923 336.4 206.244L355.965 214.049C357.186 214.533 357.787 215.92 357.309 217.15C356.966 218.089 356.079 218.714 355.085 218.718Z" fill="#C33366"/>
<path id="Path_21" opacity="0.5" d="M355.085 218.718C354.786 218.716 354.491 218.655 354.217 218.538L334.652 210.697C333.856 210.387 333.286 209.671 333.159 208.821C333.032 207.972 333.367 207.119 334.037 206.586C334.707 206.053 335.609 205.923 336.4 206.244L355.965 214.049C357.186 214.533 357.787 215.92 357.309 217.15C356.966 218.089 356.079 218.714 355.085 218.718Z" fill="white"/>
<path id="Path_22" d="M314.171 239.43C313.874 239.426 313.58 239.369 313.302 239.262L277.777 225.064C276.981 224.754 276.411 224.038 276.284 223.188C276.157 222.339 276.492 221.486 277.162 220.953C277.832 220.421 278.734 220.29 279.525 220.611L315.051 234.761C316.114 235.184 316.728 236.308 316.513 237.438C316.297 238.568 315.314 239.385 314.171 239.382V239.43Z" fill="#C33366"/>
<path id="Path_23" opacity="0.3" d="M314.171 239.43C313.874 239.426 313.58 239.369 313.302 239.262L277.777 225.064C276.981 224.754 276.411 224.038 276.284 223.188C276.157 222.339 276.492 221.486 277.162 220.953C277.832 220.421 278.734 220.29 279.525 220.611L315.051 234.761C316.114 235.184 316.728 236.308 316.513 237.438C316.297 238.568 315.314 239.385 314.171 239.382V239.43Z" fill="black"/>
</g>
<g id="freepik--Character--inject-128">
<path id="Path_24" d="M442.807 131.469C445.958 137.658 448.849 143.859 451.596 150.204C454.343 156.548 456.9 162.977 459.136 169.717L459.945 172.267C460.088 172.722 460.29 173.464 460.409 173.991C460.528 174.517 460.635 175.116 460.694 175.619C460.967 177.55 461.106 179.498 461.111 181.449C461.128 185.046 460.962 188.642 460.611 192.223C459.947 199.154 458.867 206.038 457.376 212.837L450.847 212.107C450.763 205.367 450.704 198.555 450.466 191.911C450.359 188.607 450.169 185.291 449.836 182.179C449.685 180.717 449.447 179.266 449.122 177.833C449.063 177.498 448.967 177.247 448.896 176.971C448.825 176.696 448.753 176.6 448.634 176.241L447.731 173.979C445.245 167.921 442.45 161.816 439.595 155.734L430.961 137.49L442.807 131.469Z" fill="#E4897B"/>
<path id="Path_25" d="M450.943 210L447.898 215.734L457.627 218.464C457.627 218.464 459.483 213.855 457.27 210.215L450.943 210Z" fill="#E4897B"/>
<path id="Path_26" d="M444.164 223.995L453.108 224.713L457.615 218.464L447.887 215.734L444.164 223.995Z" fill="#E4897B"/>
<path id="Path_27" d="M401.849 90.1003C401.718 90.8067 401.231 91.2975 400.779 91.2017C400.327 91.1059 400.077 90.4715 400.22 89.7771C400.363 89.0828 400.838 88.58 401.29 88.6758C401.742 88.7715 402.004 89.406 401.849 90.1003Z" fill="#263238"/>
<path id="Path_28" d="M401.297 91.2969C400.04 93.2554 398.524 95.0317 396.789 96.5762C397.609 97.4539 398.769 97.9263 399.965 97.8691L401.297 91.2969Z" fill="#DE5753"/>
<path id="Path_29" d="M405.161 86.7596C405.048 86.7567 404.941 86.7094 404.863 86.6279C404.17 85.8301 403.141 85.4122 402.092 85.5026C401.889 85.5046 401.714 85.3582 401.678 85.1565C401.643 84.9547 401.758 84.7568 401.95 84.6886C403.293 84.5173 404.632 85.034 405.518 86.0653C405.676 86.2282 405.676 86.4889 405.518 86.6519C405.421 86.7407 405.29 86.7804 405.161 86.7596Z" fill="#263238"/>
<path id="Path_30" d="M421.524 99.8828C420.275 106.323 419.026 118.103 423.498 122.401C423.498 122.401 421.75 128.925 409.869 128.925C396.786 128.925 403.636 122.401 403.636 122.401C410.772 120.689 410.57 115.362 409.333 110.37L421.524 99.8828Z" fill="#E4897B"/>
<path id="Path_31" d="M425.289 126.452C426.228 123.304 427.263 119.701 425.122 118.563C422.743 117.366 409.815 116.049 405.355 118.384C400.895 120.718 402.168 127.123 402.168 127.123L425.289 126.452Z" fill="#263238"/>
<path id="Shape_3" fill-rule="evenodd" clip-rule="evenodd" d="M450.636 424.679C451.228 425.229 451.983 425.473 452.729 425.356C453.497 425.351 454.262 425.252 455.013 425.059C455.092 425.043 455.153 424.97 455.167 424.876C455.178 424.78 455.147 424.684 455.084 424.622C455.082 424.62 455.078 424.618 455.073 424.614C454.87 424.452 452.546 422.599 451.29 422.93C451.012 423.002 450.773 423.213 450.636 423.508C450.423 423.858 450.423 424.329 450.636 424.679ZM451.386 423.382H451.636V423.41C452.647 423.579 453.614 424.012 454.466 424.679C453.158 424.933 451.374 424.933 451.005 424.341C450.934 424.284 450.815 424.115 451.005 423.72C451.083 423.546 451.223 423.422 451.386 423.382Z" fill="#C33366"/>
<path id="Shape_4" fill-rule="evenodd" clip-rule="evenodd" d="M454.854 424.77H454.949C454.973 424.771 454.998 424.767 455.02 424.758C455.088 424.72 455.125 424.644 455.115 424.566C455.115 424.459 454.937 421.921 453.926 421.083C453.679 420.88 453.362 420.785 453.046 420.819C452.722 420.819 452.442 421.05 452.38 421.37C452.201 422.376 453.95 424.267 454.854 424.77ZM453.148 421.179H453.196L453.148 421.203C453.351 421.175 453.557 421.231 453.719 421.359C454.325 422.153 454.682 423.112 454.742 424.112C453.85 423.43 452.732 421.981 452.839 421.395C452.84 421.392 452.84 421.389 452.841 421.386C452.854 421.33 452.889 421.179 453.148 421.179Z" fill="#C33366"/>
<path id="Shape_5" fill-rule="evenodd" clip-rule="evenodd" d="M397.69 424.586C398.059 425.178 399.141 425.361 400.259 425.361C401.153 425.36 402.045 425.261 402.923 425.065C403.009 425.048 403.075 424.969 403.09 424.868C403.103 424.768 403.066 424.668 402.994 424.614C402.991 424.611 402.984 424.607 402.975 424.601C402.683 424.409 399.752 422.484 398.356 422.936C398.077 423.012 397.836 423.221 397.69 423.514C397.499 423.835 397.499 424.264 397.69 424.586ZM398.472 423.358C398.602 423.336 398.734 423.336 398.865 423.358V423.386C400.073 423.54 401.244 423.971 402.314 424.656C400.672 424.924 398.46 424.881 398.068 424.233C397.973 424.148 397.913 424.007 398.068 423.697C398.156 423.521 398.303 423.398 398.472 423.358Z" fill="#C33366"/>
<path id="Shape_6" fill-rule="evenodd" clip-rule="evenodd" d="M402.806 424.764H402.889C402.944 424.784 403.004 424.78 403.056 424.752C403.116 424.708 403.148 424.635 403.139 424.56C403.139 424.558 403.138 424.554 403.138 424.55C403.116 424.346 402.876 422.062 401.783 421.173C401.46 420.88 401.024 420.748 400.594 420.813C400.023 420.873 399.821 421.161 399.821 421.4C399.666 422.37 401.747 424.297 402.806 424.764ZM400.628 421.173H400.759L400.806 421.197C401.03 421.212 401.243 421.301 401.413 421.448C402.083 422.201 402.5 423.148 402.602 424.154C401.556 423.507 400.129 422.011 400.224 421.413C400.224 421.41 400.225 421.407 400.226 421.404C400.239 421.346 400.278 421.173 400.628 421.173Z" fill="#C33366"/>
<path id="Path_32" d="M412.5 424.551H403.759L402.891 404.188H411.632L412.5 424.551Z" fill="#E4897B"/>
<path id="Path_33" d="M464.958 424.551H456.217L451.828 404.188H460.558L464.958 424.551Z" fill="#E4897B"/>
<path id="Path_34" d="M455.597 423.531H465.409C465.77 423.534 466.081 423.787 466.158 424.142L467.883 431.959C467.963 432.345 467.863 432.746 467.613 433.049C467.363 433.352 466.99 433.524 466.598 433.515C463.173 433.455 461.508 433.252 457.191 433.252C454.538 433.252 449.067 433.539 445.392 433.539C441.717 433.539 441.254 429.948 442.752 429.553C449.484 428.068 452.017 426.021 454.17 424.082C454.561 423.726 455.07 423.53 455.597 423.531Z" fill="#263238"/>
<path id="Path_35" d="M403.83 423.531H413.344C413.705 423.534 414.016 423.787 414.094 424.142L415.818 431.959C415.902 432.341 415.807 432.741 415.562 433.044C415.316 433.347 414.946 433.521 414.557 433.515C411.12 433.455 406.149 433.252 401.82 433.252C396.765 433.252 392.388 433.539 386.453 433.539C382.885 433.539 381.874 429.948 383.373 429.553C390.212 428.044 395.79 427.889 401.701 424.226C402.33 423.795 403.069 423.554 403.83 423.531V423.531Z" fill="#263238"/>
<path id="Path_36" d="M399.637 137.837C392.33 137.267 385.061 136.296 377.86 134.928C374.292 134.234 370.652 133.456 367.037 132.474C363.331 131.519 359.692 130.32 356.143 128.883C355.227 128.5 354.299 128.081 353.383 127.685C352.353 127.174 351.359 126.59 350.41 125.938C348.697 124.8 347.223 123.615 345.76 122.442C342.846 120.048 340.146 117.654 337.434 115.2C332.118 110.243 327.075 105.12 322.211 99.7327L326.588 94.8125L343.845 107.298C346.687 109.358 349.566 111.381 352.396 113.284C353.8 114.23 355.239 115.116 356.559 115.87C357.111 116.187 357.683 116.467 358.272 116.708C358.973 116.983 359.687 117.259 360.436 117.522C366.864 119.514 373.437 120.995 380.096 121.951C386.887 123.029 393.904 123.915 400.683 124.633L399.637 137.837Z" fill="#E4897B"/>
<path id="Path_37" d="M439.141 124.385C447.336 126.276 455.613 150.374 455.613 150.374L438.761 162.549C438.761 162.549 434.003 151.32 429.412 141.504C424.608 131.221 430.768 122.458 439.141 124.385Z" fill="#C33366"/>
<path id="Path_38" opacity="0.4" d="M439.141 124.385C447.336 126.276 455.613 150.374 455.613 150.374L438.761 162.549C438.761 162.549 434.003 151.32 429.412 141.504C424.608 131.221 430.768 122.458 439.141 124.385Z" fill="black"/>
<path id="Path_39" d="M434.42 137.555L431.078 145.085C434.539 152.603 437.703 160.049 438.547 162.036C438.428 153.141 436.751 142.104 434.42 137.555Z" fill="#C33366"/>
<path id="Path_40" opacity="0.6" d="M434.42 137.555L431.078 145.085C434.539 152.603 437.703 160.049 438.547 162.036C438.428 153.141 436.751 142.104 434.42 137.555Z" fill="black"/>
<path id="Path_41" d="M390.184 124.839C390.184 124.839 380.883 135.41 389.66 200.856H436.389C436.722 193.674 432.215 158.406 439.125 124.384C433.96 123.383 428.735 122.719 423.485 122.397C416.87 122.014 410.238 122.014 403.623 122.397C399.087 122.857 394.593 123.673 390.184 124.839Z" fill="#C33366"/>
<path id="Path_42" opacity="0.4" d="M390.184 124.839C390.184 124.839 380.883 135.41 389.66 200.856H436.389C436.722 193.674 432.215 158.406 439.125 124.384C433.96 123.383 428.735 122.719 423.485 122.397C416.87 122.014 410.238 122.014 403.623 122.397C399.087 122.857 394.593 123.673 390.184 124.839Z" fill="black"/>
<path id="Path_43" d="M386.733 137.555C386.424 140.033 386.186 142.966 386.031 146.425C390.646 145.031 395.031 142.958 399.043 140.272L386.733 137.555Z" fill="#C33366"/>
<path id="Path_44" opacity="0.6" d="M386.733 137.555C386.424 140.033 386.186 142.966 386.031 146.425C390.646 145.031 395.031 142.958 399.043 140.272L386.733 137.555Z" fill="black"/>
<path id="Path_45" d="M406.751 138.873C400.495 144.452 376.613 143.889 376.613 143.889L375.828 120.617C383.893 121.773 392.028 122.365 400.174 122.389C413.482 122.114 413.578 132.72 406.751 138.873Z" fill="#C33366"/>
<path id="Path_46" opacity="0.4" d="M406.751 138.873C400.495 144.452 376.613 143.889 376.613 143.889L375.828 120.617C383.893 121.773 392.028 122.365 400.174 122.389C413.482 122.114 413.578 132.72 406.751 138.873Z" fill="black"/>
<path id="Path_47" d="M326.802 94.8636L320.856 87.8125L314.445 94.9952C314.445 94.9952 318.394 101.675 324.662 100.622L326.802 94.8636Z" fill="#E4897B"/>
<path id="Path_48" d="M312.339 79.5859L310.031 88.7918L314.396 94.945L320.807 87.8102L312.339 79.5859Z" fill="#E4897B"/>
<path id="Path_49" d="M402.891 404.203L403.343 414.69H412.084L411.632 404.203H402.891Z" fill="#CE6F64"/>
<path id="Path_50" d="M460.57 404.203H451.828L454.088 414.69H462.829L460.57 404.203Z" fill="#CE6F64"/>
<path id="Path_51" d="M408.144 81.4081C400.306 77.8167 397.832 61.8591 420.382 65.8455C420.382 65.8455 416.981 69.6284 423.879 72.0226C430.777 74.4169 425.009 89.2014 408.144 81.4081Z" fill="#263238"/>
<path id="Path_52" d="M425.19 93.3767C422.942 101.757 422.062 106.856 416.864 110.364C409.086 115.631 399.417 109.586 399.108 100.643C398.834 92.6106 402.557 80.1725 411.536 78.4726C415.566 77.6772 419.718 79.0441 422.502 82.0832C425.286 85.1222 426.304 89.3979 425.19 93.3767Z" fill="#E4897B"/>
<path id="Path_53" d="M420.083 70.0342C425.423 73.027 432.654 74.8227 431.976 79.0845C431.084 84.2919 436.341 81.0358 435.116 88.7811C434.319 93.845 425.042 109.192 418.465 108.45C408.641 107.253 409.89 92.2169 409.854 84.2919C409.831 79.6112 409.616 64.1324 420.083 70.0342Z" fill="#263238"/>
<path id="Path_54" d="M408.671 76.75C406.293 77.3126 403.141 91.1155 412.358 92.3844C422.955 93.8329 408.671 76.75 408.671 76.75Z" fill="#263238"/>
<path id="Path_55" d="M408.915 81.646C406.001 81.9094 399.4 78.3779 400.209 73.0627C400.209 73.0267 404.383 79.2757 408.915 81.646Z" fill="#263238"/>
<path id="Path_56" d="M413.242 93.488C412.348 95.4617 410.83 97.0823 408.925 98.0969C406.416 99.4137 405 97.4983 405.571 94.9604C406.083 92.6859 408.009 89.2501 410.59 88.9748C413.171 88.6995 414.277 91.0937 413.242 93.488Z" fill="#E4897B"/>
<path id="Path_57" d="M426.328 83.8062C429.938 82.2292 432.521 78.9328 433.202 75.0312C433.202 75.0312 437.127 86.0089 426.328 83.8062Z" fill="#263238"/>
<path id="Path_58" d="M436.24 83.6219C434.559 82.4855 432.423 82.2741 430.555 83.0593C430.555 83.0593 434.218 78.2827 436.24 83.6219Z" fill="#263238"/>
<path id="Path_59" d="M406.242 200.86C406.242 200.86 416.161 268.067 421.596 293.242C427.543 320.776 450.022 412.667 450.022 412.667H466.018C466.018 412.667 451.211 323.039 447.809 295.696C444.122 266.068 436.392 200.812 436.392 200.812L406.242 200.86Z" fill="#C33366"/>
<path id="Path_60" opacity="0.5" d="M406.242 200.86C406.242 200.86 416.161 268.067 421.596 293.242C427.543 320.776 450.022 412.667 450.022 412.667H466.018C466.018 412.667 451.211 323.039 447.809 295.696C444.122 266.068 436.392 200.812 436.392 200.812L406.242 200.86Z" fill="white"/>
<path id="Path_61" d="M447.471 406.727C447.4 406.727 449.124 412.916 449.124 412.916H467.131L466.798 407.397L447.471 406.727Z" fill="#C33366"/>
<path id="Path_62" opacity="0.1" d="M447.471 406.727C447.4 406.727 449.124 412.916 449.124 412.916H467.131L466.798 407.397L447.471 406.727Z" fill="black"/>
<path id="Path_63" d="M412.518 224.797C423.984 227.06 422.77 270.097 421.391 292.231C418.084 276.585 413.244 246.477 409.938 225.109C410.737 224.712 411.648 224.602 412.518 224.797Z" fill="#C33366"/>
<path id="Path_64" opacity="0.4" d="M412.518 224.797C423.984 227.06 422.77 270.097 421.391 292.231C418.084 276.585 413.244 246.477 409.938 225.109C410.737 224.712 411.648 224.602 412.518 224.797Z" fill="white"/>
<path id="Path_65" d="M389.658 200.859C389.658 200.859 388.469 266.605 389.408 293.433C390.395 321.326 400.112 412.666 400.112 412.666H414.908C414.908 412.666 415.455 322.954 416.097 295.564C416.822 265.696 420.402 200.859 420.402 200.859L389.658 200.859Z" fill="#C33366"/>
<path id="Path_66" opacity="0.5" d="M389.658 200.859C389.658 200.859 388.469 266.605 389.408 293.433C390.395 321.326 400.112 412.666 400.112 412.666H414.908C414.908 412.666 415.455 322.954 416.097 295.564C416.822 265.696 420.402 200.859 420.402 200.859L389.658 200.859Z" fill="white"/>
<path id="Path_67" d="M403.193 401.962C403.119 401.962 403.057 401.905 403.05 401.83C400.434 376.547 394.285 315.374 393.536 293.431C392.739 271.033 393.464 220.778 393.702 205.909C393.702 205.83 393.766 205.766 393.845 205.766C393.926 205.765 393.993 205.828 394 205.909C393.762 220.778 393.036 271.033 393.833 293.419C394.606 315.362 400.755 376.511 403.348 401.794C403.349 401.878 403.288 401.95 403.205 401.962H403.193Z" fill="#C33366"/>
<path id="Path_68" opacity="0.4" d="M403.193 401.962C403.119 401.962 403.057 401.905 403.05 401.83C400.434 376.547 394.285 315.374 393.536 293.431C392.739 271.033 393.464 220.778 393.702 205.909C393.702 205.83 393.766 205.766 393.845 205.766C393.926 205.765 393.993 205.828 394 205.909C393.762 220.778 393.036 271.033 393.833 293.419C394.606 315.362 400.755 376.511 403.348 401.794C403.349 401.878 403.288 401.95 403.205 401.962H403.193Z" fill="white"/>
<path id="Path_69" d="M397.237 406.727C397.178 406.727 398.082 412.916 398.082 412.916H416.076L416.564 407.397L397.237 406.727Z" fill="#C33366"/>
<path id="Path_70" opacity="0.1" d="M397.237 406.727C397.178 406.727 398.082 412.916 398.082 412.916H416.076L416.564 407.397L397.237 406.727Z" fill="black"/>
</g>
</g>
</svg>
