<svg width="367" height="247" viewBox="0 0 367 247" fill="none" xmlns="http://www.w3.org/2000/svg">
<g opacity="0.7">
<g opacity="0.7">
<path opacity="0.7" d="M364.151 235.08C364.151 241.594 284.146 247.004 185.415 247.004C86.6841 247.004 6.67969 241.705 6.67969 235.08C6.67969 228.456 86.6841 223.156 185.415 223.156C284.146 223.267 364.151 228.566 364.151 235.08Z" fill="#C4C4C4"/>
</g>
</g>
<path d="M285.901 229.465C287.909 224.03 285.114 218.001 279.658 216C274.203 213.999 268.152 216.784 266.144 222.22C264.136 227.656 266.931 233.684 272.386 235.685C277.842 237.686 283.893 234.901 285.901 229.465Z" fill="#E89F2B"/>
<path d="M276.075 163.431C270.202 163.431 265.548 158.684 265.438 152.943C265.438 147.091 270.202 142.454 275.964 142.344C281.837 142.344 286.491 147.091 286.602 152.832C286.602 158.794 281.837 163.431 276.075 163.431Z" fill="#E89F2B"/>
<path d="M339.684 189.598C343.23 190.15 346.886 190.481 349.878 192.579C351.54 193.683 352.981 195.119 353.978 196.775C354.865 198.21 354.865 199.424 356.416 200.308C357.192 200.749 357.967 200.308 358.3 199.535C359.74 195.891 354.311 191.365 351.54 189.819C347.884 187.721 343.34 186.617 339.573 188.936C339.24 189.046 339.24 189.598 339.684 189.598Z" fill="#C4C4C4"/>
<path d="M351.836 202.854C355.271 211.687 369.122 206.387 365.576 197.444C362.141 188.611 348.401 194.021 351.836 202.854Z" fill="#F0548B"/>
<path d="M171.572 238.394C158.164 239.387 144.756 240.05 131.348 239.718C117.94 239.387 104.643 236.517 91.2347 236.406C89.905 236.406 89.6834 238.394 90.9023 238.725C103.424 242.699 118.272 242.589 131.348 242.92C144.977 243.141 158.385 242.368 171.793 240.381C173.012 240.27 172.79 238.283 171.572 238.394Z" fill="#959595"/>
<path d="M31.2991 229.118C47.8097 230.112 64.2095 230.222 80.7201 230.002C95.6794 229.781 112.301 230.995 126.928 227.904C128.036 227.683 127.703 226.137 126.706 226.027C118.506 225.144 110.195 226.468 101.996 226.689C94.3497 226.91 86.7039 227.02 79.058 227.02C63.1014 227.131 47.2557 226.91 31.2991 226.91C29.8586 226.91 29.8586 229.008 31.2991 229.118Z" fill="#959595"/>
<path d="M180.447 166.184L180.336 212.113L174.352 212.113L164.047 189.148L176.236 166.184L180.447 166.184Z" fill="#F1EFE8"/>
<path d="M131.477 221.941L131.587 134.609C131.587 129.751 135.466 125.887 140.341 125.887L213.143 125.997C218.019 125.997 221.897 129.861 221.897 134.719L221.786 222.051C221.786 226.909 217.908 230.774 213.032 230.774L140.231 230.663C135.355 230.663 131.477 226.799 131.477 221.941Z" fill="#C33366"/>
<path d="M134.247 191.023L159.955 137.697C160.73 136.151 162.503 135.488 164.055 136.261L170.592 139.353C172.144 140.126 172.809 141.892 172.033 143.438L146.325 196.764C145.549 198.31 143.776 198.973 142.225 198.2L135.687 195.108C134.136 194.446 133.471 192.569 134.247 191.023Z" fill="#E89F2B"/>
<path d="M159.407 144.427C157.08 149.175 164.504 152.818 166.831 147.96C169.158 143.213 161.734 139.569 159.407 144.427Z" fill="white"/>
<path d="M152.071 159.675C149.744 164.422 157.168 168.066 159.495 163.208C161.822 158.46 154.287 154.927 152.071 159.675Z" fill="white"/>
<path d="M145.102 174.033C142.775 178.78 150.199 182.423 152.526 177.566C154.853 172.818 147.429 169.175 145.102 174.033Z" fill="white"/>
<path d="M139.118 186.505C136.791 191.253 144.215 194.896 146.542 190.038C148.869 185.291 141.445 181.647 139.118 186.505Z" fill="white"/>
<path d="M191.867 230.765C192.088 230.765 192.421 230.765 192.642 230.765C192.864 230.765 193.196 230.765 193.418 230.765L194.194 223.699C194.526 223.699 194.859 223.589 195.08 223.589L197.296 230.434C197.74 230.324 198.294 230.213 198.737 230.103L197.961 223.037C198.294 222.926 198.515 222.816 198.848 222.706L202.394 228.888C202.837 228.668 203.28 228.447 203.723 228.226L201.507 221.381C201.729 221.27 202.061 221.05 202.283 220.939L207.048 226.239C207.491 225.907 207.823 225.687 208.267 225.355L204.721 219.173C204.942 218.952 205.164 218.731 205.386 218.51L211.148 222.706C211.48 222.374 211.812 221.933 212.145 221.602L207.38 216.302C207.602 216.081 207.712 215.86 207.934 215.529L214.472 218.4C214.693 217.958 215.026 217.517 215.248 217.075L209.485 212.879C209.596 212.548 209.707 212.327 209.818 211.996L216.799 213.542C217.02 213.1 217.131 212.548 217.242 212.107L210.704 209.236C210.815 208.905 210.815 208.684 210.926 208.353L218.129 208.353C218.239 207.911 218.239 207.359 218.239 206.807L211.258 205.372C211.258 205.261 211.258 205.04 211.258 204.93C211.258 204.82 211.258 204.599 211.258 204.488L218.239 203.053C218.239 202.501 218.129 202.06 218.129 201.507L210.926 201.507C210.815 201.176 210.815 200.845 210.704 200.624L217.242 197.754C217.131 197.312 216.91 196.76 216.799 196.318L209.818 197.754C209.707 197.422 209.596 197.202 209.485 196.87L215.248 192.675C215.026 192.233 214.804 191.792 214.472 191.35L207.934 194.221C207.712 194 207.602 193.669 207.38 193.448L212.145 188.148C211.812 187.817 211.48 187.375 211.148 187.044L205.386 191.24C205.164 191.019 204.942 190.798 204.721 190.577L208.377 184.394C207.934 184.063 207.602 183.842 207.158 183.511L202.394 188.811C202.172 188.7 201.84 188.479 201.618 188.369L203.834 181.524C203.391 181.303 202.948 181.082 202.504 180.861L198.959 187.044C198.626 186.934 198.405 186.823 198.072 186.713L198.848 179.647C198.404 179.536 197.85 179.426 197.407 179.316L195.191 186.161C194.859 186.161 194.526 186.05 194.305 186.05L193.529 178.984C193.307 178.984 192.975 178.984 192.753 178.984C192.532 178.984 192.199 178.984 191.978 178.984L191.202 186.05C190.869 186.05 190.537 186.161 190.315 186.161L188.099 179.316C187.656 179.426 187.102 179.536 186.659 179.647L187.434 186.713C187.102 186.823 186.88 186.934 186.548 187.044L183.002 180.861C182.559 181.082 182.116 181.303 181.672 181.524L183.888 188.369C183.667 188.479 183.334 188.7 183.113 188.811L178.348 183.511C177.905 183.842 177.572 184.063 177.129 184.394L180.675 190.577C180.453 190.798 180.232 191.019 180.01 191.24L174.248 187.044C173.916 187.375 173.583 187.817 173.251 188.148L178.016 193.448C177.794 193.669 177.683 193.889 177.462 194.221L170.924 191.35C170.702 191.792 170.37 192.233 170.148 192.675L175.91 196.87C175.799 197.202 175.689 197.422 175.578 197.754L168.597 196.208C168.375 196.65 168.264 197.202 168.154 197.643L174.691 200.514C174.58 200.845 174.58 201.066 174.47 201.397L167.267 201.397C167.156 201.839 167.156 202.391 167.156 202.943L174.137 204.378C174.137 204.488 174.137 204.709 174.137 204.82C174.137 204.93 174.137 205.151 174.137 205.261L167.156 206.697C167.156 207.249 167.267 207.69 167.267 208.242L174.47 208.242C174.58 208.574 174.58 208.905 174.691 209.126L168.154 211.996C168.264 212.438 168.486 212.99 168.597 213.431L175.578 211.996C175.689 212.327 175.799 212.548 175.91 212.879L170.037 217.075C170.259 217.517 170.481 217.958 170.813 218.4L177.351 215.529C177.572 215.75 177.683 216.081 177.905 216.302L173.14 221.602C173.472 221.933 173.805 222.374 174.137 222.706L179.899 218.51C180.121 218.731 180.343 218.952 180.564 219.173L176.907 225.355C177.351 225.687 177.683 225.907 178.126 226.239L182.891 220.939C183.113 221.05 183.445 221.27 183.667 221.381L181.451 228.226C181.894 228.447 182.337 228.668 182.78 228.888L186.326 222.706C186.659 222.816 186.88 222.926 187.213 223.037L186.437 230.103C186.88 230.213 187.434 230.324 187.878 230.434L190.094 223.589C190.426 223.589 190.759 223.699 190.98 223.699L191.867 230.765ZM195.523 205.04C195.523 206.586 194.305 207.801 192.753 207.801C191.202 207.801 189.983 206.586 189.983 205.04C189.983 203.495 191.202 202.28 192.753 202.28C194.305 202.17 195.523 203.495 195.523 205.04ZM192.753 190.908C200.067 190.908 206.05 196.429 206.826 203.495L199.291 203.495C198.626 200.514 195.967 198.306 192.753 198.306C192.088 198.306 191.424 198.416 190.869 198.526L187.102 192.012C188.764 191.35 190.759 190.908 192.753 190.908ZM178.57 205.04C178.57 200.403 180.897 196.208 184.332 193.669L188.099 200.183C186.77 201.397 185.994 203.164 185.994 205.04C185.994 206.917 186.77 208.684 188.099 209.898L184.332 216.412C180.786 213.873 178.57 209.678 178.57 205.04ZM186.991 217.958L190.759 211.444C191.313 211.665 191.978 211.775 192.642 211.775C195.856 211.775 198.515 209.567 199.18 206.586L206.715 206.586C205.94 213.652 199.956 219.173 192.642 219.173C190.648 219.173 188.764 218.731 186.991 217.958Z" fill="#E89F2B"/>
<path d="M210.501 205.041C210.501 195.215 202.523 187.266 192.661 187.266C182.799 187.266 174.82 195.215 174.82 205.041C174.82 214.867 182.799 222.817 192.661 222.817C202.523 222.817 210.501 214.867 210.501 205.041ZM192.771 207.801C191.22 207.801 190.001 206.587 190.001 205.041C190.001 203.495 191.22 202.281 192.771 202.281C194.323 202.281 195.542 203.495 195.542 205.041C195.542 206.587 194.323 207.801 192.771 207.801ZM187.12 192.013C188.893 191.24 190.777 190.799 192.771 190.799C200.085 190.799 206.069 196.319 206.844 203.385L199.309 203.385C198.644 200.404 195.985 198.196 192.771 198.196C192.107 198.196 191.442 198.306 190.888 198.417L187.12 192.013ZM178.588 205.041C178.588 200.404 180.915 196.209 184.35 193.669L188.117 200.183C186.788 201.398 186.012 203.164 186.012 205.041C186.012 206.918 186.788 208.685 188.117 209.899L184.35 216.413C180.804 213.874 178.588 209.678 178.588 205.041ZM190.888 211.445C191.442 211.666 192.107 211.776 192.771 211.776C195.985 211.776 198.644 209.568 199.309 206.587L206.844 206.587C206.069 213.653 200.085 219.173 192.771 219.173C190.777 219.173 188.782 218.732 187.12 217.959L190.888 211.445Z" fill="#E89F2B"/>
<path d="M209.025 205.043C209.025 195.99 201.711 188.703 192.736 188.703C183.649 188.703 176.336 195.99 176.336 204.933C176.336 213.986 183.649 221.273 192.625 221.273C201.711 221.273 209.025 213.986 209.025 205.043ZM176.89 205.043C176.89 196.321 183.982 189.366 192.736 189.366C201.49 189.366 208.471 196.432 208.471 205.154C208.471 213.876 201.379 220.832 192.625 220.832C183.982 220.721 176.89 213.655 176.89 205.043Z" fill="#D9D9D9"/>
<path d="M189.96 205.046C189.96 203.5 191.179 202.286 192.73 202.286C194.282 202.286 195.501 203.5 195.501 205.046C195.501 206.592 194.282 207.806 192.73 207.806C191.179 207.806 189.96 206.592 189.96 205.046ZM192.73 190.914C200.044 190.914 206.028 196.434 206.803 203.5L199.268 203.5C198.603 200.519 195.944 198.311 192.73 198.311C192.066 198.311 191.401 198.422 190.847 198.532L187.079 192.018C188.741 191.356 190.736 190.914 192.73 190.914ZM178.547 205.046C178.547 200.409 180.874 196.214 184.309 193.674L188.076 200.188C186.747 201.403 185.971 203.169 185.971 205.046C185.971 206.923 186.747 208.69 188.076 209.904L184.309 216.418C180.763 213.879 178.547 209.683 178.547 205.046ZM186.968 217.964L190.736 211.45C191.29 211.671 191.955 211.781 192.62 211.781C195.833 211.781 198.493 209.573 199.157 206.592L206.692 206.592C205.917 213.658 199.933 219.178 192.62 219.178C190.625 219.178 188.741 218.737 186.968 217.964Z" fill="white"/>
<path d="M346.788 186.39C346.788 174.908 334.155 165.523 318.531 165.523L318.531 207.257C334.155 207.257 346.788 197.873 346.788 186.39Z" fill="#F0548B"/>
<path d="M228.633 219.846L228.633 163.98C228.633 158.018 233.508 153.16 239.492 153.16L319.497 153.16C325.48 153.16 330.356 158.018 330.356 163.98L330.356 219.846C330.356 225.808 325.48 230.666 319.497 230.666L239.492 230.666C233.508 230.666 228.744 225.808 228.633 219.846Z" fill="#C33366"/>
<path d="M225.129 140.899L228.232 139.464C229.008 139.132 229.229 138.249 228.897 137.476L221.584 122.351C221.251 121.578 220.365 121.357 219.589 121.688L216.486 123.123C215.711 123.455 215.489 124.338 215.821 125.111L223.135 140.237C223.467 140.899 224.354 141.23 225.129 140.899Z" fill="#AA5A96"/>
<path d="M234.432 95.526L238.643 96.7404C239.64 97.0717 240.194 98.0653 239.862 99.059L230.775 129.863C230.443 130.856 229.445 131.408 228.448 131.077L224.237 129.863C223.24 129.531 222.686 128.538 223.019 127.544L232.105 96.7404C232.437 95.7468 233.545 95.1948 234.432 95.526Z" fill="#F0548B"/>
<path d="M215.137 74.8746L217.685 71.3415C218.239 70.4583 219.458 70.3479 220.234 70.8999L235.304 81.6094C236.19 82.1614 236.301 83.3759 235.747 84.1487L233.198 87.6818C232.644 88.565 231.426 88.6754 230.65 88.1234L215.58 77.4139C214.693 76.8619 214.472 75.7578 215.137 74.8746Z" fill="#F0548B"/>
<path d="M240.605 91.6627C240.827 89.1234 239.054 86.9152 236.505 86.6944C233.956 86.4736 231.74 88.2401 231.519 90.7794C231.297 93.3188 233.07 95.5269 235.619 95.7478C238.056 95.8582 240.273 94.0917 240.605 91.6627Z" fill="#1C1D22"/>
<path d="M235.182 234.748L234.96 238.171C234.96 238.944 234.184 239.606 233.409 239.606L216.566 238.833C215.79 238.833 215.125 238.061 215.125 237.288L215.347 233.865C215.347 233.092 216.122 232.43 216.898 232.43L233.741 233.203C234.627 233.313 235.182 233.975 235.182 234.748Z" fill="#AA5A96"/>
<path d="M131.802 211.233L131.581 206.927C131.581 205.933 130.694 205.16 129.697 205.16L97.562 206.485C96.5647 206.485 95.7891 207.368 95.7891 208.362L96.0107 212.668C96.0107 213.662 96.8972 214.434 97.8944 214.434L130.029 213.11C131.026 213.11 131.802 212.226 131.802 211.233Z" fill="#F0548B"/>
<path d="M89.0219 198.551L93.3435 197.888C94.3407 197.778 95.0056 196.784 94.8948 195.79L92.0138 177.573C91.9029 176.58 90.9057 175.917 89.9084 176.028L85.5868 176.69C84.5895 176.8 83.9247 177.794 84.0355 178.788L86.9165 197.005C87.0273 197.999 88.0246 198.771 89.0219 198.551Z" fill="#F0548B"/>
<path d="M96.8818 198.879C98.8764 200.424 99.3196 203.185 97.7683 205.172C96.217 207.159 93.4467 207.601 91.4522 206.055C89.4576 204.509 89.0143 201.749 90.5657 199.762C92.0062 197.775 94.8872 197.333 96.8818 198.879Z" fill="#1C1D22"/>
<path d="M330.016 227.146L344.532 221.957L350.626 231.673L346.415 234.654L342.98 228.913L335.667 231.452L336.553 237.745L331.345 239.622L330.016 227.146Z" fill="#C33366"/>
<path d="M108.411 241.603L98.327 239.726C97.3297 239.506 96.6648 238.622 96.8865 237.629L100.543 217.314C100.765 216.32 101.651 215.658 102.649 215.878L112.732 217.755C113.729 217.976 114.394 218.859 114.173 219.853L110.516 240.058C110.294 241.051 109.297 241.714 108.411 241.603Z" fill="#F0548B"/>
<path d="M106.299 223.817C96.9907 222.051 88.0151 228.233 86.2422 237.508L120.039 243.69C121.812 234.416 115.717 225.584 106.299 223.817Z" fill="#1C1D22"/>
<path d="M61.3379 206.379L68.4297 200.638C69.2053 199.976 70.3134 200.086 70.9783 200.859L84.0538 216.868C84.7186 217.641 84.6078 218.745 83.8322 219.407L76.7404 225.149C75.9647 225.811 74.8566 225.701 74.1918 224.928L61.1162 208.919C60.4514 208.146 60.5622 207.042 61.3379 206.379Z" fill="#F0548B"/>
<path d="M46.3691 191.9L57.2284 183.068C58.0041 182.405 59.1122 182.516 59.777 183.289L72.8526 199.408C73.5174 200.181 73.4066 201.285 72.6309 201.947L61.7716 210.78C60.996 211.442 59.8879 211.332 59.223 210.559L46.1475 194.55C45.4826 193.667 45.5934 192.563 46.3691 191.9Z" fill="#C33366"/>
<path d="M41.7459 220.731C32.3271 220.068 24.0164 227.134 23.3516 236.519L57.5917 239.058C58.3673 229.673 51.2755 221.393 41.7459 220.731Z" fill="#1C1D22"/>
<path d="M278.396 169.059C280.058 171.93 283.494 173.917 286.153 175.794C289.256 178.002 292.358 180.873 295.904 182.198C297.677 182.86 298.785 180.431 297.566 179.216C295.129 176.677 291.472 174.911 288.369 173.034C285.488 171.267 282.275 168.617 278.84 168.176C278.618 168.286 278.175 168.617 278.396 169.059Z" fill="white"/>
<path d="M281.83 184.068C285.044 182.854 287.592 179.873 290.03 177.444C292.246 175.235 296.346 172.475 297.011 169.273C297.233 168.059 296.346 167.065 295.127 167.396C291.914 168.059 289.254 172.254 287.038 174.463C284.711 176.892 281.719 179.541 280.611 182.743C280.279 183.516 281.165 184.289 281.83 184.068Z" fill="white"/>
<path d="M278.396 210.129C280.058 213 283.494 214.987 286.153 216.864C289.256 219.072 292.358 221.943 295.904 223.268C297.677 223.93 298.785 221.501 297.566 220.287C295.129 217.747 291.472 215.981 288.369 214.104C285.488 212.337 282.275 209.688 278.84 209.246C278.618 209.357 278.175 209.688 278.396 210.129Z" fill="white"/>
<path d="M281.83 225.142C285.044 223.928 287.592 220.947 290.03 218.518C292.246 216.31 296.346 213.549 297.011 210.348C297.233 209.133 296.346 208.139 295.127 208.471C291.914 209.133 289.254 213.329 287.038 215.537C284.711 217.966 281.719 220.615 280.611 223.817C280.279 224.59 281.165 225.363 281.83 225.142Z" fill="white"/>
<path d="M189.422 106.569C188.203 106.017 186.985 105.354 185.766 104.802C186.541 102.153 187.428 99.6132 188.203 96.9635C188.314 96.6322 188.757 96.301 189.09 95.9698C190.53 94.9761 191.417 93.6512 192.193 92.1055C195.96 84.4874 199.838 76.8693 203.717 69.1408C203.938 68.6992 204.16 68.368 204.603 67.7056C203.274 67.1535 202.165 66.7119 201.168 66.1599C200.836 66.0495 200.725 65.387 200.725 64.9454C200.836 64.5037 201.168 64.0621 201.39 63.5101C201.722 62.8476 202.055 62.6268 202.83 62.8476C203.384 62.9581 204.382 62.6268 204.492 62.1852C204.714 61.7436 204.382 60.8603 203.938 60.4187C203.384 59.8666 203.384 59.5354 203.717 58.9834C207.152 52.2486 210.476 45.4033 213.911 38.6685C214.798 37.0124 216.127 36.1291 218.011 35.9083C221.225 35.6875 223.662 36.902 225.325 39.5517C226.322 41.0974 226.433 42.8639 225.546 44.52C222.222 51.2549 218.787 57.8793 215.463 64.6141C215.13 65.2766 214.798 65.6078 213.911 65.387C213.468 65.2766 212.582 65.6078 212.249 66.0494C212.027 66.3807 212.249 67.3743 212.582 67.5951C213.579 68.2576 213.357 69.0304 212.803 69.8033C212.471 70.3553 212.249 70.9074 211.695 71.7906C210.476 70.9074 209.257 70.1345 207.927 69.1408C207.152 70.7969 206.598 72.0114 206.044 73.1155C202.387 80.4024 198.73 87.5788 195.184 94.8657C194.852 95.5282 194.52 96.4114 194.63 97.1843C194.63 98.73 194.187 100.055 193.19 101.269C191.86 103.146 190.641 104.913 189.422 106.569ZM208.925 59.9771C209.146 59.7562 209.479 59.3146 209.7 58.873C212.471 53.3526 215.241 47.8323 218.011 42.3119C218.122 42.0911 218.454 41.7599 218.344 41.4286C218.233 40.8766 218.122 40.2142 217.79 39.9933C217.346 39.7725 216.681 39.9934 216.127 40.2142C215.906 40.3246 215.795 40.7662 215.573 41.0974C212.803 46.5074 210.144 51.9173 207.373 57.4377C207.263 57.7689 207.041 58.1001 206.93 58.4314C206.819 59.425 207.706 60.3083 208.925 59.9771ZM213.579 62.2956C213.8 62.0748 214.133 61.7436 214.354 61.3019C217.235 55.6712 220.006 50.1508 222.776 44.52C222.887 44.2992 222.998 43.968 223.108 43.6368C223.219 42.6431 222.222 41.7599 221.335 42.3119C220.892 42.5327 220.56 42.9743 220.338 43.416C217.568 48.9363 214.798 54.4567 212.027 59.9771C211.917 60.3083 211.695 60.6395 211.695 60.9707C211.584 61.854 212.471 62.6268 213.579 62.2956Z" fill="#C4C4C4"/>
<path d="M212.116 79.0799L220.537 66.1623L212.559 57.9922L208.57 61.3044L213.335 66.0519L209.124 72.5659L203.251 70.2474L200.148 74.7741L212.116 79.0799Z" fill="#C33366"/>
<path d="M202.939 129.309L151.524 129.309C150.859 129.309 150.305 128.757 150.305 128.095L150.305 123.789C150.305 123.126 150.859 122.574 151.524 122.574L202.939 122.574C203.604 122.574 204.158 123.126 204.158 123.789L204.158 128.095C204.158 128.757 203.604 129.309 202.939 129.309Z" fill="#F0548B"/>
<path d="M179.558 126.328C184.766 110.098 175.458 92.3229 159.169 87.1338C157.507 86.5818 156.731 89.2315 158.393 89.7836C173.242 94.4207 181.663 110.761 176.898 125.555C176.344 127.322 179.004 127.984 179.558 126.328Z" fill="#C4C4C4"/>
<path d="M185.431 118.713C187.204 118.713 187.204 115.953 185.431 115.953C183.658 116.064 183.658 118.713 185.431 118.713Z" fill="white"/>
<path d="M167.486 105.909C169.259 105.909 169.259 103.148 167.486 103.148C165.713 103.259 165.713 105.909 167.486 105.909Z" fill="white"/>
<path d="M158.172 106.459C156.621 106.459 155.07 105.796 154.183 104.582C153.851 104.14 153.629 103.588 153.518 103.036C153.407 103.036 153.407 103.036 153.297 103.036C151.856 102.705 150.748 101.38 150.526 99.8345C150.416 99.172 150.416 98.5096 150.526 97.7368C150.194 97.6264 149.972 97.5159 149.64 97.4055C149.418 97.2951 147.978 96.6327 147.535 94.9766C147.313 94.3141 147.313 93.5413 147.535 92.8788C146.426 92.3268 145.318 91.4435 144.764 90.2291C144.099 89.0146 144.099 87.6897 144.764 86.3648C144.986 86.0336 145.318 85.9232 145.651 86.0336C145.983 86.2544 146.094 86.5856 145.983 86.9168C145.429 88.0209 145.651 88.9042 145.983 89.5666C146.426 90.3395 147.091 91.1123 147.978 91.4435C148.199 91.0019 148.421 90.5603 148.753 90.0083C149.529 88.7938 151.634 88.0209 152.853 88.2417C153.74 88.3521 154.294 88.7938 154.515 89.4562C154.737 90.1187 154.515 90.7811 153.961 91.4435C152.853 92.5476 150.637 93.3205 148.864 93.0996C148.753 93.6517 148.753 94.0933 148.864 94.4245C149.197 95.5286 150.194 95.9702 150.194 95.9702C150.416 96.0806 150.637 96.191 150.859 96.191C150.97 95.9702 151.08 95.7494 151.08 95.5286C151.745 94.0933 152.521 93.3205 153.518 92.9892C154.294 92.7684 155.18 92.8788 155.845 93.4309C156.399 93.8725 156.621 94.4245 156.621 95.087C156.51 95.9702 155.734 96.8535 154.626 97.1847C153.851 97.4055 152.853 97.6263 151.856 97.6263C151.745 98.1784 151.745 98.7304 151.745 99.2825C151.967 100.276 152.521 101.049 153.297 101.38C153.297 101.27 153.297 101.159 153.407 101.049C153.629 99.9449 154.294 98.9512 155.18 98.3992C156.178 97.7367 157.618 97.7368 158.394 98.7304C158.948 99.5033 158.726 100.607 158.172 101.27C157.729 101.822 156.953 102.153 156.288 102.484C155.845 102.705 155.402 102.815 154.848 102.926C154.959 103.257 155.07 103.478 155.291 103.699C156.178 104.913 158.172 105.465 159.724 104.692C160.056 104.582 160.499 104.692 160.61 105.024C160.721 105.355 160.61 105.796 160.278 105.907C159.613 106.349 158.837 106.459 158.172 106.459ZM156.732 99.3929C156.51 99.3929 156.178 99.5033 155.956 99.6137C155.402 99.9449 154.959 100.607 154.848 101.38L154.848 101.491C155.18 101.38 155.513 101.27 155.845 101.159C156.399 100.939 156.843 100.718 157.175 100.387C157.397 100.055 157.507 99.7241 157.286 99.5032C157.175 99.3928 156.953 99.3929 156.732 99.3929ZM154.294 94.3141C154.183 94.3141 154.072 94.3141 153.961 94.3141C153.297 94.5349 152.853 95.087 152.299 96.191C152.299 96.3014 152.299 96.3014 152.189 96.3014C152.853 96.191 153.518 96.0806 154.072 95.8598C154.626 95.7494 155.07 95.3078 155.18 94.9766C155.18 94.7558 155.07 94.6453 154.959 94.5349C154.848 94.4245 154.626 94.3141 154.294 94.3141ZM149.197 91.7747C150.416 91.7747 152.078 91.3331 152.853 90.5603C153.186 90.2291 153.075 90.0082 153.075 89.8978C153.075 89.7874 152.853 89.677 152.521 89.677C151.524 89.5666 150.194 90.1187 149.751 90.8915C149.529 91.1123 149.418 91.4435 149.197 91.7747Z" fill="#C4C4C4"/>
<path d="M100.226 153.378C100.004 153.378 99.8935 153.268 99.6719 153.158C98.0097 151.281 97.7881 148.3 99.2286 146.312C99.6719 145.76 100.115 145.319 100.669 144.988C100.669 144.877 100.669 144.767 100.669 144.767C100.558 143.221 101.556 141.565 103.107 140.792C103.772 140.461 104.548 140.24 105.323 140.13C105.323 139.798 105.323 139.357 105.323 139.026C105.323 138.694 105.656 137.038 107.207 136.045C107.872 135.603 108.647 135.382 109.534 135.272C109.645 133.836 110.31 132.401 111.418 131.407C112.526 130.303 113.966 129.862 115.407 130.083C115.739 130.193 116.072 130.524 115.961 130.855C115.85 131.187 115.628 131.518 115.185 131.407C113.855 131.187 112.858 131.849 112.304 132.291C111.528 133.064 110.974 134.057 110.864 135.161C111.418 135.272 111.972 135.382 112.637 135.492C114.188 135.934 115.628 137.811 115.85 139.246C115.961 140.13 115.739 140.902 115.074 141.344C114.41 141.786 113.634 141.786 112.858 141.454C111.307 140.682 109.756 138.473 109.423 136.597C108.869 136.707 108.315 136.817 107.872 137.149C106.764 137.921 106.653 139.136 106.653 139.136C106.653 139.467 106.653 139.688 106.653 140.019C106.874 140.019 107.207 140.019 107.539 140.13C109.201 140.35 110.42 140.902 111.085 141.786C111.639 142.448 111.75 143.442 111.418 144.325C111.196 144.987 110.642 145.54 109.977 145.65C108.98 145.871 107.983 145.319 107.096 144.215C106.542 143.442 105.988 142.448 105.656 141.344C104.88 141.454 104.326 141.565 103.772 141.896C102.775 142.448 101.999 143.442 102.11 144.435C102.22 144.435 102.442 144.325 102.664 144.325C103.883 144.215 105.212 144.546 106.099 145.208C107.096 145.981 107.65 147.527 106.874 148.521C106.21 149.404 104.991 149.514 104.104 149.183C103.329 148.852 102.775 148.3 102.22 147.637C101.888 147.196 101.556 146.754 101.223 146.202C100.891 146.423 100.669 146.644 100.448 146.975C99.4503 148.41 99.5611 150.729 100.891 152.054C101.112 152.385 101.112 152.716 100.891 153.047C100.558 153.378 100.448 153.378 100.226 153.378ZM102.442 145.871C102.664 146.312 102.885 146.644 103.218 146.975C103.661 147.527 104.104 147.968 104.547 148.079C104.88 148.189 105.434 148.189 105.656 147.858C105.877 147.527 105.656 146.754 105.102 146.423C104.547 145.871 103.661 145.65 102.775 145.76C102.664 145.871 102.553 145.871 102.442 145.871ZM107.096 141.565C107.429 142.338 107.872 143 108.204 143.552C108.537 143.994 109.091 144.546 109.645 144.435C109.866 144.325 110.088 144.104 110.088 143.994C110.199 143.552 110.199 143.111 109.977 142.779C109.534 142.227 108.647 141.786 107.429 141.675C107.318 141.565 107.207 141.565 107.096 141.565ZM110.974 136.707C111.307 138.142 112.526 139.798 113.634 140.24C114.188 140.461 114.41 140.35 114.52 140.24C114.631 140.13 114.742 139.909 114.631 139.578C114.41 138.473 113.301 137.259 112.415 136.928C111.861 136.817 111.418 136.817 110.974 136.707Z" fill="#C4C4C4"/>
<path d="M191.971 121.47C191.084 121.47 190.198 121.25 189.311 120.918C188.979 120.808 188.868 120.366 188.979 120.035C189.09 119.704 189.533 119.594 189.866 119.704C191.86 120.698 194.52 120.035 195.738 118.379C196.071 118.048 196.182 117.496 196.292 117.054C195.628 116.944 194.852 116.723 194.298 116.502C193.411 116.171 192.636 115.729 191.971 115.067C191.306 114.294 190.974 112.969 191.749 111.975C192.636 110.761 194.409 110.871 195.517 111.644C196.625 112.307 197.401 113.521 197.622 114.956C197.622 115.177 197.733 115.398 197.733 115.619C198.952 115.288 199.838 114.184 200.171 112.748C200.282 111.975 200.282 111.203 200.06 110.319C198.619 110.319 197.401 109.988 196.403 109.657C194.963 109.215 194.076 108.222 193.965 107.118C193.855 106.345 194.187 105.682 194.852 105.13C195.628 104.468 196.736 104.247 197.622 104.578C198.841 105.02 199.838 106.013 200.614 107.78C200.725 108.111 200.946 108.442 201.057 108.774C201.39 108.663 201.833 108.553 202.165 108.442C202.276 108.332 203.606 107.78 204.049 106.345C204.271 105.682 204.271 105.02 204.049 104.357C201.833 104.689 198.841 103.805 197.511 102.37C196.625 101.487 196.625 100.603 196.847 100.051C197.068 99.1682 197.844 98.7266 198.841 98.6162C200.392 98.3953 202.941 99.2786 203.938 100.824C204.382 101.487 204.714 102.149 204.936 102.701C206.044 102.149 207.152 101.156 207.706 100.051C208.149 99.2786 208.481 97.9537 207.706 96.5184C207.484 96.1872 207.706 95.7456 208.038 95.6351C208.371 95.5247 208.814 95.6352 208.925 95.9664C209.7 97.5121 209.7 99.1682 208.925 100.714C208.149 102.149 206.819 103.474 205.379 104.026C205.6 105.02 205.6 106.013 205.379 106.786C204.825 108.884 202.941 109.657 202.719 109.767C202.276 109.988 201.833 110.099 201.39 110.209C201.611 111.203 201.611 112.086 201.501 112.969C201.168 114.956 199.728 116.502 198.065 116.944C197.955 116.944 197.844 116.944 197.733 117.054C197.622 117.827 197.29 118.489 196.847 119.152C195.849 120.587 193.965 121.47 191.971 121.47ZM193.855 112.307C193.522 112.307 193.19 112.417 193.079 112.638C192.747 112.969 192.968 113.632 193.301 114.073C193.744 114.515 194.409 114.846 195.074 115.177C195.628 115.398 196.182 115.619 196.736 115.619C196.736 115.508 196.736 115.288 196.625 115.177C196.403 114.184 195.849 113.3 195.074 112.748C194.63 112.527 194.187 112.307 193.855 112.307ZM196.957 105.903C196.625 105.903 196.182 106.013 195.849 106.234C195.628 106.345 195.406 106.676 195.406 107.007C195.517 107.67 196.292 108.111 196.957 108.332C197.733 108.553 198.73 108.884 199.838 108.884C199.728 108.774 199.728 108.553 199.617 108.332C198.952 106.897 198.287 106.124 197.401 105.903C197.29 105.903 197.068 105.903 196.957 105.903ZM199.506 99.8306C199.395 99.8306 199.284 99.8306 199.174 99.8306C198.73 99.941 198.398 100.051 198.287 100.383C198.287 100.493 198.176 100.824 198.619 101.376C199.617 102.48 201.944 103.143 203.717 103.032C203.495 102.591 203.163 102.039 202.83 101.487C202.387 100.603 200.725 99.8306 199.506 99.8306Z" fill="#C4C4C4"/>
<path d="M173.905 125.117C174.68 119.045 171.799 112.862 165.816 110.433C158.613 107.452 151.854 112.199 147.532 117.609C140.884 125.78 136.451 136.379 133.349 146.315C129.359 159.123 128.805 173.255 119.719 183.964C118.611 185.289 120.495 187.276 121.714 185.951C130.468 175.573 131.686 162.656 135.232 150.069C137.559 141.678 140.884 133.508 145.316 126C147.754 121.805 150.635 117.057 154.846 114.408C163.045 109.218 172.464 115.843 171.245 125.117C170.913 126.884 173.683 126.884 173.905 125.117Z" fill="#C4C4C4"/>
<path d="M216.018 136.595C216.018 137.699 215.907 138.693 216.018 139.797C216.018 140.018 216.35 140.018 216.35 139.797C216.461 138.693 216.35 137.699 216.35 136.595C216.35 136.374 216.018 136.374 216.018 136.595Z" fill="#BC2F20"/>
<path d="M139.448 142.009C138.451 143.666 138.119 145.874 138.783 147.751C138.894 148.082 139.448 148.192 139.559 147.751C139.891 145.984 140.002 143.997 139.891 142.23C139.891 141.899 139.559 141.789 139.448 142.009Z" fill="#BC2F20"/>
<path d="M214.343 140.793C214.565 141.124 214.786 141.345 215.008 141.566C215.119 141.676 215.34 141.566 215.229 141.345C215.008 141.014 214.897 140.793 214.565 140.572C214.565 140.351 214.232 140.572 214.343 140.793Z" fill="#BC2F20"/>
<path d="M217.791 140.02C217.681 141.124 217.791 142.228 217.791 143.333C217.791 144.437 217.681 145.541 217.791 146.645C217.791 146.866 218.235 146.976 218.345 146.755C218.678 144.657 218.345 142.008 217.791 140.02C217.791 139.91 217.791 139.91 217.791 140.02Z" fill="#BC2F20"/>
<path d="M134.133 217.415C134.022 218.077 133.912 218.629 134.022 219.292C134.022 219.623 134.466 219.623 134.466 219.292C134.577 218.629 134.466 218.077 134.355 217.415C134.355 217.304 134.133 217.304 134.133 217.415Z" fill="#BC2F20"/>
<path d="M135.446 217.966C135.335 218.96 135.224 219.954 135.335 220.947C135.335 221.168 135.667 221.168 135.778 220.947C136 219.954 135.778 218.96 135.667 217.966C135.778 217.746 135.557 217.746 135.446 217.966Z" fill="#BC2F20"/>
<path d="M137.02 221.282C136.909 221.944 137.02 222.828 137.242 223.49C137.352 223.711 137.685 223.711 137.685 223.38C137.685 222.717 137.574 221.834 137.242 221.282C137.131 221.172 137.02 221.172 137.02 221.282Z" fill="#BC2F20"/>
<path d="M134.477 222.048C134.477 222.489 134.698 222.821 134.92 223.262C135.031 223.373 135.252 223.262 135.141 223.152C135.031 222.6 134.92 222.268 134.477 222.048C134.587 221.937 134.477 221.937 134.477 222.048Z" fill="#BC2F20"/>
<path d="M176.557 152.168C176.557 152.941 176.335 153.824 176.668 154.486C176.778 154.818 177.222 154.818 177.332 154.486C177.554 153.714 177.443 152.941 177.443 152.168C177.332 151.616 176.557 151.616 176.557 152.168Z" fill="#BC2F20"/>
<path d="M177.347 152.159C177.236 152.711 177.125 153.153 177.347 153.595C177.458 153.926 177.901 153.926 178.012 153.595C178.122 153.043 178.012 152.601 178.012 152.159C177.901 151.718 177.347 151.718 177.347 152.159Z" fill="#BC2F20"/>
<path d="M177.898 148.524C178.12 149.959 178.009 151.505 178.342 152.83C178.342 153.05 178.674 153.05 178.674 152.83C179.117 151.505 178.563 149.738 178.231 148.413C178.231 148.193 177.898 148.303 177.898 148.524Z" fill="#BC2F20"/>
<path d="M176.669 157.794C176.558 158.346 176.447 159.009 177.001 159.45C177.112 159.561 177.444 159.45 177.444 159.229C177.444 158.788 177.223 158.457 177.333 157.905C177.333 157.573 176.779 157.353 176.669 157.794Z" fill="#BC2F20"/>
<path d="M137.569 166.082C137.68 166.745 137.68 167.297 138.123 167.738C138.234 167.959 138.566 167.849 138.566 167.628C138.566 166.966 138.345 166.524 138.012 165.972C137.791 165.751 137.458 165.862 137.569 166.082Z" fill="#BC2F20"/>
<path d="M138.349 165.197C138.682 165.528 138.682 165.749 138.793 166.19C138.904 166.411 139.125 166.522 139.236 166.301C139.458 165.749 139.236 165.197 138.793 164.866C138.571 164.424 138.128 164.865 138.349 165.197Z" fill="#BC2F20"/>
<path d="M148.86 133.4C148.749 134.394 148.638 135.277 148.749 136.16C148.749 136.381 149.081 136.381 149.192 136.16C149.303 135.166 149.192 134.283 149.081 133.4C149.081 133.179 148.86 133.179 148.86 133.4Z" fill="#BC2F20"/>
<path d="M149.528 134.056C149.528 135.16 149.417 136.485 149.639 137.589C149.639 137.81 149.971 137.81 150.082 137.589C150.525 136.485 150.193 135.16 149.86 134.056C149.86 133.835 149.528 133.835 149.528 134.056Z" fill="#BC2F20"/>
<path d="M160.386 191.134C159.721 192.79 159.61 194.557 160.497 196.102C160.607 196.323 160.94 196.213 160.829 195.992C160.497 194.446 160.275 192.901 160.829 191.355C161.051 190.913 160.497 190.803 160.386 191.134Z" fill="#BC2F20"/>
<path d="M157.398 190.698C157.398 191.029 157.398 191.36 157.398 191.691C157.509 191.912 157.731 191.912 157.842 191.691C157.952 191.36 157.952 191.139 157.842 190.698C157.952 190.366 157.398 190.366 157.398 190.698Z" fill="#BC2F20"/>
<path d="M205.051 164.418C204.83 165.191 204.719 165.743 204.719 166.516C204.719 166.736 205.051 166.847 205.162 166.626C205.494 165.964 205.605 165.301 205.716 164.528C205.827 164.087 205.162 163.976 205.051 164.418Z" fill="#BC2F20"/>
<path d="M206.156 166.738C206.045 167.51 205.712 168.283 205.602 168.946C205.602 169.167 205.823 169.498 206.045 169.167C206.599 168.504 206.71 167.51 206.488 166.627C206.377 166.517 206.156 166.517 206.156 166.738Z" fill="#BC2F20"/>
<path d="M244.715 164.646C244.604 164.978 244.494 165.088 244.383 165.419C244.383 165.64 244.383 165.971 244.604 166.082C244.826 166.303 244.937 166.303 245.269 166.303C245.491 166.303 245.712 166.082 245.712 165.861C245.823 165.53 245.823 165.419 245.823 165.088C245.934 164.315 245.048 164.094 244.715 164.646Z" fill="#BC2F20"/>
<path d="M241.602 167.075C241.159 167.627 240.937 168.179 241.269 168.731C241.38 168.952 241.713 168.952 241.823 168.621C241.934 168.179 241.823 167.737 241.934 167.185C242.045 167.075 241.823 166.854 241.602 167.075Z" fill="#BC2F20"/>
<path d="M317.625 162.428C317.736 162.869 317.625 163.2 317.514 163.642C317.404 163.863 317.736 163.973 317.847 163.752C318.179 163.311 318.179 162.869 318.179 162.317C318.179 161.986 317.625 162.096 317.625 162.428Z" fill="#BC2F20"/>
<path d="M319.403 163.091C319.293 163.643 319.293 163.974 319.403 164.526C319.403 164.636 319.625 164.636 319.736 164.526C319.847 164.084 319.736 163.643 319.736 163.091C319.625 162.98 319.514 162.98 319.403 163.091Z" fill="#BC2F20"/>
<path d="M320.621 212.666C320.289 213.218 319.845 213.66 319.624 214.212C319.513 214.433 319.845 214.543 319.956 214.433C320.4 213.991 320.621 213.329 320.843 212.777C320.843 212.556 320.732 212.556 320.621 212.666Z" fill="#BC2F20"/>
<path d="M317.836 211.231C317.836 211.894 317.836 212.446 317.836 213.108C317.836 213.329 318.168 213.329 318.168 213.108C318.168 212.446 318.168 211.894 318.168 211.231C318.058 211.121 317.836 211.121 317.836 211.231Z" fill="#BC2F20"/>
<path d="M250.025 215.865C250.358 216.859 251.133 218.184 252.131 218.736C252.352 218.846 252.795 218.626 252.685 218.294C252.352 217.301 251.466 216.197 250.69 215.534C250.358 215.313 249.914 215.534 250.025 215.865Z" fill="#BC2F20"/>
<path d="M247.374 218.959C247.596 219.621 247.817 220.284 248.26 220.836C248.482 221.057 248.704 220.836 248.704 220.615C248.593 219.953 248.26 219.401 247.928 218.738C247.817 218.407 247.263 218.628 247.374 218.959Z" fill="#BC2F20"/>
<path d="M308.088 186.943C307.312 187.384 306.869 188.599 307.755 189.151C307.866 189.261 308.198 189.151 308.198 188.93C308.309 188.378 308.088 187.936 308.531 187.384C308.752 187.053 308.309 186.722 308.088 186.943Z" fill="#BC2F20"/>
<path d="M242.277 47.0469C242.61 47.7093 242.942 48.3718 243.275 49.0342C243.275 49.1446 243.496 49.1446 243.607 49.1446C244.161 49.1446 244.715 49.1446 245.269 49.1446C245.491 49.1446 245.712 49.0342 245.823 48.8134C246.156 48.3717 246.377 47.9301 246.599 47.3781C246.71 47.1573 246.931 47.0469 247.153 47.1573C247.929 47.3781 248.594 47.5989 249.369 47.8197C249.369 48.4822 249.369 49.1446 249.369 49.807C249.369 50.1383 249.369 50.3591 249.812 50.5799C250.145 50.6903 250.477 50.9111 250.699 51.1319C251.253 51.5736 251.696 51.4632 252.139 51.1319C252.583 50.8007 253.026 50.5799 253.358 50.3591C254.023 51.0215 254.688 51.5736 255.353 52.1256C255.02 52.788 254.688 53.3401 254.245 53.8921C254.023 54.2233 254.023 54.4441 254.245 54.665C254.466 54.9962 254.688 55.3274 254.799 55.6586C255.02 56.2107 255.353 56.3211 255.796 56.3211C256.239 56.3211 256.683 56.3211 257.126 56.3211C257.458 56.3211 257.569 56.4315 257.68 56.7627C257.791 57.4251 258.012 58.0876 258.234 58.6396C258.234 58.75 258.234 58.75 258.234 58.8604C257.569 59.1917 257.015 59.5229 256.35 59.8541C256.239 59.9645 256.129 60.1853 256.129 60.2957C256.129 60.9582 255.907 61.731 256.239 62.1726C256.572 62.7247 257.347 62.9455 257.901 63.2767C258.123 63.3871 258.234 63.6079 258.123 63.8287C257.901 64.3808 257.791 65.0432 257.569 65.7057C257.458 66.0369 257.347 66.1473 257.015 66.0369C256.461 66.0369 255.907 66.0369 255.464 65.9265C255.131 65.9265 255.02 66.0369 254.91 66.2577C254.688 66.6993 254.356 67.2514 254.134 67.693C254.023 67.9138 253.912 68.1346 254.134 68.3554C254.466 68.9075 254.799 69.4595 255.131 70.122C254.91 70.3428 254.688 70.4532 254.577 70.674C254.356 70.8948 254.134 71.0052 254.023 71.226C253.248 71.9989 253.248 71.9989 252.361 71.4468C251.585 70.8948 251.031 70.8948 250.256 71.3364C249.369 71.7781 249.037 72.3301 249.148 73.3238C249.258 74.3174 249.148 74.3174 248.261 74.5383C247.707 74.6487 247.042 74.9799 246.599 74.8695C246.156 74.7591 246.045 73.9862 245.823 73.5446C245.602 73.1029 245.38 72.8821 244.826 72.9925C244.383 73.1029 243.94 72.9925 243.496 72.9925C243.164 72.9925 243.053 73.103 242.831 73.3238C242.499 73.8758 242.167 74.4278 241.834 74.9799C241.058 74.7591 240.394 74.5382 239.618 74.3174C239.286 74.207 239.286 74.0966 239.286 73.7654C239.286 73.2134 239.286 72.7717 239.286 72.2197C239.286 71.9989 239.175 71.7781 238.953 71.6677C238.51 71.3364 237.956 71.0052 237.402 70.7844C237.291 70.674 236.959 70.674 236.848 70.7844C236.404 71.0052 235.85 71.3364 235.407 71.5573C235.296 71.6677 235.075 71.6677 234.964 71.5573C234.41 71.0052 233.856 70.4532 233.302 69.7907C233.634 69.2387 233.967 68.6867 234.299 68.1346C234.41 68.0242 234.41 67.693 234.299 67.5826C234.077 67.0306 233.745 66.5889 233.413 66.0369C233.302 65.8161 233.08 65.7057 232.859 65.7057C232.194 65.7057 231.64 65.7057 231.086 65.7057C231.086 65.5953 230.975 65.5953 230.975 65.5953C230.864 65.1536 230.753 64.6016 230.532 64.16C230.31 63.1663 230.31 63.1663 231.196 62.7247C231.972 62.3935 232.415 61.8414 232.194 60.9582C232.083 60.7373 232.194 60.4061 232.194 60.1853C232.305 59.7437 232.083 59.4125 231.64 59.3021C231.196 59.0812 230.532 58.8604 230.421 58.5292C230.31 58.198 230.642 57.5355 230.753 57.0939C231.086 56.1002 231.086 56.1003 232.083 56.1003C232.305 56.1003 232.526 56.1003 232.859 56.1003C233.191 56.1003 233.302 55.9898 233.413 55.769C233.745 55.217 234.077 54.7754 234.299 54.2233C234.41 54.1129 234.41 53.7817 234.299 53.6713C233.967 53.1193 233.634 52.5672 233.523 52.236C234.188 51.4632 234.742 50.8007 235.296 50.1383C235.74 50.4695 236.183 50.6903 236.626 50.9111C237.069 51.2423 237.402 51.3528 237.956 50.9111C238.288 50.6903 238.731 50.4695 239.064 50.2487C239.396 50.1383 239.507 49.9175 239.507 49.5862C239.507 49.1446 239.507 48.5926 239.507 48.1509C239.507 47.8197 239.618 47.7093 239.95 47.5989C240.615 47.4885 241.28 47.2677 241.834 47.0469C242.056 47.0469 242.167 47.0469 242.277 47.0469ZM252.583 61.179C252.583 56.5419 248.926 52.788 244.383 52.788C239.84 52.788 236.072 56.5419 236.072 61.0686C236.072 65.5953 239.729 69.2387 244.383 69.2387C248.815 69.2387 252.583 65.5953 252.583 61.179Z" fill="#C4C4C4"/>
<path d="M139.103 52.7969C138.439 53.6801 138.882 54.7842 139.99 55.005C140.322 55.1154 140.655 55.1154 140.987 55.2258C142.982 55.6675 142.982 55.6675 142.982 57.7652C142.982 58.3172 142.871 58.6485 142.317 58.7589C141.652 58.9797 140.987 59.2005 140.322 59.4213C139.214 59.863 138.882 60.967 139.658 61.8503C139.879 62.0711 140.101 62.4023 140.322 62.6231C141.652 64.0584 141.652 64.0584 140.433 65.7145C140.101 66.1562 139.768 66.377 139.214 66.1562C138.549 65.9354 137.774 65.7145 137.109 65.4937C136.222 65.2729 135.225 66.0458 135.225 66.929C135.225 67.7019 135.336 68.4747 135.447 69.358C135.447 69.5788 135.447 69.91 135.336 70.0204C134.56 70.3516 133.785 70.7933 133.009 70.9037C132.677 70.9037 132.344 70.3516 132.012 69.91C131.79 69.5788 131.568 69.358 131.347 69.0268C130.35 67.8123 129.352 67.8123 128.466 69.1371C128.133 69.6892 127.801 70.2412 127.469 70.7933C127.358 70.9037 127.136 71.2349 127.025 71.2349C126.25 71.1245 125.363 70.9037 124.698 70.5725C124.477 70.4621 124.477 69.6892 124.366 69.2476C124.255 68.8059 124.366 68.2539 124.366 67.8123C124.366 66.7082 123.258 65.9354 122.26 66.377C121.596 66.7082 120.931 66.929 120.266 67.2602C120.044 67.3707 119.712 67.3707 119.601 67.2602C119.047 66.7082 118.382 66.0458 118.161 65.2729C118.05 64.9417 118.604 64.3896 118.936 63.8376C119.047 63.6168 119.269 63.396 119.379 63.0648C120.266 61.8503 119.823 60.8566 118.382 60.415C117.717 60.3046 117.163 60.0838 116.498 59.9734C116.277 59.9734 116.055 59.7525 116.055 59.6421C115.944 58.7589 115.834 57.8756 115.944 57.1028C115.944 56.7715 116.72 56.6611 117.163 56.4403C117.606 56.2195 118.161 56.1091 118.715 55.8883C119.49 55.5571 119.712 54.3426 119.269 53.7905C118.604 53.0177 117.939 52.2449 117.274 51.472C117.717 50.8096 118.05 50.1471 118.604 49.4847C118.715 49.2639 119.158 49.1534 119.49 49.1534C120.266 49.2639 120.931 49.5951 121.706 49.7055C122.704 50.0367 123.59 49.2639 123.479 48.1598C123.479 47.8286 123.369 47.6078 123.369 47.2765C123.258 45.0684 123.258 45.0684 125.474 44.5163C125.696 44.4059 126.139 44.6268 126.36 44.8476C126.914 45.51 127.358 46.1725 127.912 46.8349C128.133 47.0557 128.466 47.1661 128.798 47.2765C129.906 47.4973 130.128 46.5037 130.571 45.8412C131.79 43.8539 131.79 43.8539 133.895 44.7372C134.117 44.8476 134.339 45.1788 134.449 45.51C134.56 46.2829 134.449 47.0557 134.56 47.939C134.56 48.2702 134.893 48.6014 135.114 48.9326C135.779 49.7055 136.444 49.1534 136.998 48.9326C139.436 47.939 139.436 47.939 140.987 50.2575C140.212 51.2512 139.658 52.024 139.103 52.7969ZM121.928 57.6548C121.706 61.5191 124.92 64.9417 129.02 65.2729C132.898 65.4937 136.444 62.2919 136.666 58.2068C136.887 54.3426 133.674 50.92 129.574 50.6992C125.585 50.4783 122.15 53.5697 121.928 57.6548Z" fill="#C4C4C4"/>
<path d="M191.069 70.3515C190.515 70.7931 190.515 72.2284 191.18 72.5597C192.177 73.0013 192.288 73.5533 191.845 74.4366C191.734 74.6574 191.734 74.8782 191.623 75.099C190.848 75.2095 189.961 74.7678 189.407 75.8719C188.742 76.976 189.629 77.4176 189.85 78.4113C189.629 78.5217 189.296 78.7425 189.075 78.9633C188.631 79.5153 188.077 79.6257 187.634 79.0737C186.969 78.4112 186.526 78.9633 185.861 79.1841C185.307 79.4049 185.307 79.8465 185.307 80.2882C185.418 81.061 185.086 81.2818 184.31 81.3922C183.645 81.5026 183.091 81.7235 182.869 80.8402C182.759 80.509 182.426 80.1778 182.094 80.0674C181.207 79.957 180.321 79.8465 179.988 80.9506C179.988 81.1714 179.767 81.2818 179.656 81.5027C179.323 81.3922 178.991 81.2818 178.659 81.2818C178.326 81.1714 178.105 81.061 177.772 80.9506C177.772 80.509 177.772 80.0674 177.772 79.7361C177.772 78.9633 176.332 78.1904 175.778 78.6321C174.891 79.2945 174.337 79.0737 173.783 78.3009C173.672 78.08 173.451 77.9696 173.34 77.7488C173.561 77.4176 173.672 77.1968 173.894 76.8655C174.337 76.0927 173.561 74.547 172.675 74.6574C171.788 74.7678 171.456 74.3262 171.345 73.5533C171.345 73.3325 171.234 73.0013 171.234 72.7805C171.345 72.6701 171.456 72.5597 171.567 72.5597C172.121 72.2284 172.675 72.0076 172.675 71.1244C172.675 70.2411 172.453 69.7995 171.678 69.4683C170.902 69.1371 171.567 68.4746 171.567 68.033C171.567 67.5913 171.788 67.2601 172.342 67.3705C172.675 67.3705 173.229 67.3705 173.451 67.1497C174.337 66.2665 174.337 65.7144 173.783 64.7208C173.672 64.6104 173.672 64.4999 173.561 64.2791C174.005 63.8375 174.559 63.3959 175.002 62.9542C175.778 63.2855 176.221 63.9479 177.329 63.3959C178.437 62.8438 177.994 61.9606 178.215 61.1877C178.88 61.0773 179.434 60.8565 180.099 60.7461C180.321 61.0773 180.542 61.4085 180.653 61.7398C180.875 62.5126 181.54 62.2918 182.094 62.4022C182.648 62.5126 182.98 62.1814 183.091 61.7398C183.423 60.9669 183.867 60.7461 184.642 61.0773C184.975 61.1877 185.196 61.2981 185.529 61.4085C185.529 61.8502 185.64 62.1814 185.529 62.5126C185.307 63.2855 185.972 63.3959 186.415 63.7271C186.858 64.0583 187.191 64.0583 187.634 63.7271C188.299 63.0646 188.964 63.2855 189.407 63.9479C189.518 64.1687 189.74 64.3895 189.961 64.4999C189.74 65.3832 188.853 65.8248 189.407 66.9289C189.961 68.033 190.848 67.4809 191.734 67.7017C192.399 69.4683 192.399 69.4683 191.069 70.3515ZM175.556 71.4556C175.556 74.8782 178.326 77.6384 181.761 77.6384C185.086 77.6384 187.967 74.8782 187.967 71.4556C187.967 68.033 185.196 65.2728 181.761 65.2728C178.326 65.2728 175.556 68.033 175.556 71.4556Z" fill="#C4C4C4"/>
<path d="M203.482 11.2835C202.928 11.5043 202.706 11.1731 202.374 10.9522C201.488 10.1794 200.379 10.069 199.382 10.9522C199.05 11.2835 198.717 11.5043 198.274 11.1731C197.831 10.9522 197.831 10.621 197.831 10.1794C197.942 8.9649 197.166 7.97125 196.058 7.64003C195.725 7.52962 195.393 7.1984 195.282 6.97758C195.061 6.53595 195.282 6.20473 195.725 5.87351C196.723 5.32147 197.055 4.10699 196.501 3.00292C196.39 2.6717 196.39 2.23008 196.501 2.00926C196.723 1.67804 197.055 1.34682 197.609 1.56764C198.717 2.00927 199.715 1.56764 200.38 0.463567C200.49 0.242753 200.934 -0.0884785 201.266 0.0219286C201.598 0.0219285 202.042 0.242743 202.152 0.573964C202.706 1.78844 203.482 2.23007 204.812 2.00926C205.144 2.00926 205.477 2.23007 205.809 2.45088C206.142 2.7821 206.142 3.11332 205.92 3.55495C205.255 4.65902 205.366 5.54228 206.474 6.31513C206.917 6.64635 206.917 6.97757 206.806 7.4192C206.696 7.97124 206.363 8.08165 205.92 8.08165C204.812 8.19206 204.036 9.07532 204.036 10.2898C204.147 10.621 204.147 11.0626 203.482 11.2835ZM201.044 2.89252C199.382 2.89252 198.053 4.2174 198.163 5.87351C198.163 7.41921 199.493 8.7441 201.044 8.7441C202.596 8.7441 203.925 7.41921 203.925 5.87351C203.925 4.2174 202.706 2.89252 201.044 2.89252Z" fill="#C4C4C4"/>
<path d="M9.13059 229.225C8.57654 229.446 8.35492 229.114 8.02249 228.894C7.13602 228.121 6.02793 228.01 5.03064 228.894C4.69821 229.225 4.36578 229.446 3.92255 229.114C3.47931 228.894 3.47931 228.562 3.47931 228.121C3.59012 226.906 2.81445 225.913 1.70636 225.581C1.37393 225.471 1.0415 225.14 0.930693 224.919C0.709074 224.477 0.930693 224.146 1.37393 223.815C2.37122 223.263 2.70364 222.048 2.1496 220.944C2.03879 220.613 2.03879 220.171 2.1496 219.951C2.37121 219.619 2.70364 219.288 3.25769 219.509C4.36578 219.951 5.36307 219.509 6.02792 218.405C6.13873 218.184 6.58197 217.853 6.9144 217.963C7.24683 217.963 7.69006 218.184 7.80087 218.515C8.35492 219.73 9.13059 220.171 10.4603 219.951C10.7927 219.951 11.1252 220.171 11.4576 220.392C11.79 220.723 11.79 221.055 11.5684 221.496C10.9035 222.6 11.0143 223.484 12.1224 224.256C12.5657 224.588 12.5657 224.919 12.4549 225.361C12.3441 225.913 12.0116 226.023 11.5684 226.023C10.4603 226.133 9.68463 227.017 9.68464 228.231C9.79544 228.562 9.79544 228.894 9.13059 229.225ZM6.80359 220.834C5.14145 220.834 3.81174 222.159 3.92255 223.815C3.92255 225.361 5.25226 226.685 6.80359 226.685C8.35492 226.685 9.68463 225.361 9.68463 223.815C9.57382 222.048 8.35492 220.834 6.80359 220.834Z" fill="#C4C4C4"/>
<path d="M179.44 51.029C178.553 51.029 177.667 50.8082 176.78 50.477C176.448 50.3666 176.337 49.925 176.448 49.5937C176.559 49.2625 177.002 49.1521 177.334 49.2625C179.329 50.2562 181.988 49.5937 183.207 47.9376C183.54 47.6064 183.65 47.0544 183.761 46.6127C183.096 46.5023 182.321 46.2815 181.767 46.0607C180.88 45.7295 180.105 45.2879 179.44 44.6254C178.775 43.8526 178.442 42.5277 179.218 41.534C180.105 40.3195 181.877 40.4299 182.986 41.2028C184.094 41.8652 184.869 43.0797 185.091 44.515C185.091 44.7358 185.202 44.9566 185.202 45.1775C186.421 44.8462 187.307 43.7422 187.64 42.3069C187.75 41.534 187.75 40.7612 187.529 39.8779C186.088 39.8779 184.869 39.5467 183.872 39.2155C182.432 38.7738 181.545 37.7802 181.434 36.6761C181.323 35.9032 181.656 35.2408 182.321 34.6888C183.096 34.0263 184.204 33.8055 185.091 34.1367C186.31 34.5784 187.307 35.572 188.083 37.3385C188.194 37.6698 188.415 38.001 188.526 38.3322C188.858 38.2218 189.302 38.1114 189.634 38.001C189.745 37.8906 191.075 37.3385 191.518 35.9032C191.74 35.2408 191.74 34.5783 191.518 33.9159C189.302 34.2471 186.31 33.3639 184.98 31.9286C184.094 31.0453 184.094 30.1621 184.315 29.61C184.537 28.7268 185.313 28.2851 186.31 28.1747C187.861 27.9539 190.41 28.8372 191.407 30.3829C191.85 31.0453 192.183 31.7078 192.404 32.2598C193.512 31.7078 194.621 30.7141 195.175 29.61C195.618 28.8372 195.95 27.5123 195.175 26.077C194.953 25.7458 195.175 25.3041 195.507 25.1937C195.839 25.0833 196.283 25.1937 196.393 25.525C197.169 27.0707 197.169 28.7268 196.393 30.2725C195.618 31.7078 194.288 33.0327 192.848 33.5847C193.069 34.5784 193.069 35.572 192.848 36.3449C192.294 38.4426 190.41 39.2155 190.188 39.3259C189.745 39.5467 189.302 39.6571 188.858 39.7675C189.08 40.7612 189.08 41.6444 188.969 42.5277C188.637 44.515 187.196 46.0607 185.534 46.5023C185.423 46.5023 185.313 46.5023 185.202 46.6127C185.091 47.3856 184.759 48.048 184.315 48.7105C183.207 50.1458 181.323 51.029 179.44 51.029ZM181.213 41.8652C180.88 41.8652 180.548 41.9756 180.437 42.1964C180.105 42.5277 180.326 43.1901 180.659 43.6317C181.102 44.0734 181.767 44.4046 182.432 44.7358C182.986 44.9566 183.54 45.1775 184.094 45.1775C184.094 45.067 184.094 44.8462 183.983 44.7358C183.761 43.7422 183.207 42.8589 182.432 42.3069C181.988 41.9756 181.545 41.8652 181.213 41.8652ZM184.315 35.4616C183.983 35.4616 183.54 35.572 183.207 35.7928C182.986 35.9032 182.764 36.2345 182.764 36.5657C182.875 37.2281 183.65 37.6698 184.315 37.8906C185.091 38.1114 186.088 38.4426 187.196 38.4426C187.086 38.3322 187.086 38.1114 186.975 37.8906C186.31 36.4553 185.645 35.6824 184.759 35.4616C184.648 35.4616 184.426 35.4616 184.315 35.4616ZM186.864 29.3892C186.753 29.3892 186.642 29.3892 186.531 29.3892C186.088 29.4996 185.756 29.61 185.645 29.9413C185.645 30.0517 185.534 30.3829 185.977 30.9349C186.975 32.039 189.302 32.7014 191.075 32.591C190.853 32.1494 190.521 31.5974 190.188 31.0453C189.745 30.1621 188.083 29.3892 186.864 29.3892Z" fill="#C4C4C4"/>
</svg>
