<svg width="20" height="21" viewBox="0 0 20 21" fill="none" xmlns="http://www.w3.org/2000/svg">
<path fill-rule="evenodd" clip-rule="evenodd" d="M6.75 3.50781C6.75 3.0936 6.41421 2.75781 6 2.75781C5.58579 2.75781 5.25 3.0936 5.25 3.50781V4.7666C3.43368 4.89479 2 6.40887 2 8.25781V9.25781C2 11.1068 3.43368 12.6208 5.25 12.749L5.25 18.0078C5.25 18.422 5.58579 18.7578 6 18.7578C6.41421 18.7578 6.75 18.422 6.75 18.0078L6.75 12.749C8.56632 12.6208 10 11.1068 10 9.25781V8.25781C10 6.40887 8.56632 4.89479 6.75 4.7666V3.50781ZM8.5 8.25781C8.5 7.15324 7.60457 6.25781 6.5 6.25781H5.5C4.39543 6.25781 3.5 7.15324 3.5 8.25781V9.25781C3.5 10.3624 4.39543 11.2578 5.5 11.2578H6.5C7.60457 11.2578 8.5 10.3624 8.5 9.25781V8.25781Z" fill="#1C1D22"/>
<path fill-rule="evenodd" clip-rule="evenodd" d="M13.25 3.50781L13.25 8.7666C11.4337 8.89479 10 10.4089 10 12.2578V13.2578C10 15.1068 11.4337 16.6208 13.25 16.749L13.25 18.0078C13.25 18.422 13.5858 18.7578 14 18.7578C14.4142 18.7578 14.75 18.422 14.75 18.0078L14.75 16.749C16.5663 16.6208 18 15.1068 18 13.2578V12.2578C18 10.4089 16.5663 8.89479 14.75 8.7666L14.75 3.50781C14.75 3.0936 14.4142 2.75781 14 2.75781C13.5858 2.75781 13.25 3.0936 13.25 3.50781ZM13.5 10.2578C12.3954 10.2578 11.5 11.1532 11.5 12.2578V13.2578C11.5 14.3624 12.3954 15.2578 13.5 15.2578H14.5C15.6046 15.2578 16.5 14.3624 16.5 13.2578V12.2578C16.5 11.1532 15.6046 10.2578 14.5 10.2578H13.5Z" fill="#1C1D22"/>
</svg>
