<svg width="33" height="37" viewBox="0 0 33 37" fill="none" xmlns="http://www.w3.org/2000/svg">
<path d="M28.9737 7.15419C28.9523 6.96184 28.7811 6.87636 28.6527 6.87636C28.5243 6.87636 25.721 6.66263 25.721 6.66263C25.721 6.66263 23.7737 4.71775 23.5383 4.5254C23.3243 4.31168 22.9177 4.3758 22.7465 4.41854C22.7251 4.41854 22.3186 4.54678 21.6552 4.7605C20.9918 2.85837 19.8577 1.12721 17.8248 1.12721H17.6322C17.0758 0.400551 16.3482 0.0585938 15.749 0.0585938C11.0412 0.0585938 8.77295 5.93598 8.06678 8.9281C6.22646 9.50515 4.92112 9.88985 4.77133 9.95397C3.74417 10.2746 3.72277 10.2959 3.59438 11.2577C3.48738 11.9843 0.8125 32.6514 0.8125 32.6514L21.6338 36.5411L32.9325 34.1047C32.9539 34.0619 28.9951 7.34655 28.9737 7.15419ZM20.4996 5.05971C19.9861 5.20932 19.3655 5.40167 18.7449 5.61539V5.23069C18.7449 4.07658 18.5951 3.1362 18.3169 2.38817C19.3869 2.51641 20.0503 3.69188 20.4996 5.05971ZM17.0116 2.62327C17.2898 3.34993 17.4824 4.3758 17.4824 5.78637V6.00009C16.3268 6.36342 15.1071 6.72675 13.8445 7.13282C14.5507 4.43991 15.8988 3.11483 17.0116 2.62327ZM15.642 1.29818C15.856 1.29818 16.07 1.38367 16.2412 1.51191C14.7219 2.21719 13.117 3.99109 12.4536 7.58164C11.4478 7.90223 10.4849 8.18007 9.56471 8.47928C10.3351 5.74363 12.261 1.29818 15.642 1.29818Z" fill="white"/>
<path d="M17.8211 13.074L16.4516 17.1988C16.4516 17.1988 15.2104 16.5363 13.7339 16.5363C11.5298 16.5363 11.4228 17.9255 11.4228 18.2674C11.4228 20.1482 16.3446 20.8749 16.3446 25.2989C16.3446 28.7826 14.1405 31.0267 11.166 31.0267C7.57096 31.0267 5.77344 28.804 5.77344 28.804L6.7364 25.6409C6.7364 25.6409 8.61951 27.2652 10.203 27.2652C11.2516 27.2652 11.6796 26.453 11.6796 25.8546C11.6796 23.3968 7.65655 23.2899 7.65655 19.2292C7.65655 15.831 10.096 12.5397 15.0392 12.5397C16.8795 12.5183 17.8211 13.074 17.8211 13.074Z" fill="#CF1B2B"/>
<path d="M28.65 6.83466C28.5216 6.83466 25.7183 6.62093 25.7183 6.62093C25.7183 6.62093 23.771 4.67605 23.5356 4.4837C23.45 4.39821 23.343 4.35547 23.2574 4.35547L21.6953 36.5422L32.994 34.1057C32.994 34.1057 29.0352 7.34759 29.0138 7.15524C28.9282 6.96289 28.7784 6.8774 28.65 6.83466Z" fill="#CCCCCC"/>
</svg>
