<svg width="20" height="21" viewBox="0 0 20 21" fill="none" xmlns="http://www.w3.org/2000/svg">
<path d="M13 10.9578C13.3866 10.9578 13.7 10.6444 13.7 10.2578C13.7 9.87121 13.3866 9.55781 13 9.55781L13 10.9578ZM2.50503 9.76284C2.23166 10.0362 2.23166 10.4794 2.50503 10.7528L6.9598 15.2076C7.23316 15.4809 7.67638 15.4809 7.94975 15.2076C8.22311 14.9342 8.22311 14.491 7.94975 14.2176L3.98995 10.2578L7.94975 6.29801C8.22312 6.02465 8.22312 5.58143 7.94975 5.30806C7.67638 5.0347 7.23317 5.0347 6.9598 5.30806L2.50503 9.76284ZM13 9.55781L3 9.55781L3 10.9578L13 10.9578L13 9.55781Z" fill="#1C1D22"/>
<path d="M10 6.75781V5.75781C10 4.3771 11.1193 3.25781 12.5 3.25781H14.5C15.8807 3.25781 17 4.3771 17 5.75781V14.7578C17 16.1385 15.8807 17.2578 14.5 17.2578H12.5C11.1193 17.2578 10 16.1385 10 14.7578V14.2578" stroke="#1C1D22" stroke-width="1.5" stroke-linecap="round"/>
</svg>
