<svg width="139" height="21" viewBox="0 0 139 21" fill="none" xmlns="http://www.w3.org/2000/svg">
<path d="M10.0777 0.421875L13.5033 6.60594L20.1554 8.12057L15.6205 13.4572L16.3061 20.5773L10.0777 17.6914L3.84935 20.5773L4.53497 13.4572L0 8.12057L6.65211 6.60594L10.0777 0.421875Z" fill="#FBB606"/>
<path d="M39.6656 0.421875L43.5194 6.60594L51.003 8.12057L45.9011 13.4572L46.6725 20.5773L39.6656 17.6914L32.6586 20.5773L33.43 13.4572L28.3281 8.12057L35.8118 6.60594L39.6656 0.421875Z" fill="#FBB606"/>
<path d="M69.2496 0.421875L72.6752 6.60594L79.3273 8.12057L74.7923 13.4572L75.478 20.5773L69.2496 17.6914L63.0212 20.5773L63.7068 13.4572L59.1719 8.12057L65.824 6.60594L69.2496 0.421875Z" fill="#FBB606"/>
<path d="M97.5777 0.421875L101.003 6.60594L107.655 8.12057L103.12 13.4572L103.806 20.5773L97.5777 17.6914L91.3493 20.5773L92.035 13.4572L87.5 8.12057L94.1521 6.60594L97.5777 0.421875Z" fill="#FBB606"/>
<path d="M127.162 0.421875L131.015 6.60594L138.499 8.12057L133.397 13.4572L134.169 20.5773L127.162 17.6914L120.155 20.5773L120.926 13.4572L115.824 8.12057L123.308 6.60594L127.162 0.421875Z" fill="#C4C4C4"/>
<path d="M120.155 20.5773L127.162 17.6914V0.421875L123.308 6.60594L115.824 8.12056L120.926 13.4572L120.155 20.5773Z" fill="#C4C4C4"/>
</svg>
