<svg width="137" height="136" viewBox="0 0 137 136" fill="none" xmlns="http://www.w3.org/2000/svg">
<path fill-rule="evenodd" clip-rule="evenodd" d="M0.794922 68C0.794922 49.9653 7.95919 32.6692 20.7117 19.9167C33.4641 7.16427 50.7602 0 68.7949 0C86.8297 0 104.126 7.16427 116.878 19.9167C129.631 32.6692 136.795 49.9653 136.795 68C136.795 86.0347 129.631 103.331 116.878 116.083C104.126 128.836 86.8297 136 68.7949 136C50.7602 136 33.4641 128.836 20.7117 116.083C7.95919 103.331 0.794922 86.0347 0.794922 68ZM64.9144 97.104L104.064 48.1621L96.9923 42.5045L63.6088 84.2203L39.9629 64.5184L34.1603 71.4816L64.9144 97.1131V97.104Z" fill="#C33366"/>
</svg>
