<svg width="36" height="36" viewBox="0 0 36 36" fill="none" xmlns="http://www.w3.org/2000/svg">
<rect width="36" height="36" rx="5" fill="#C33366"/>
<path d="M6.63636 8H25.0909V13.25H29.0455L33 18.5V25.0625H30.3636C30.3636 26.1068 29.947 27.1083 29.2054 27.8467C28.4638 28.5852 27.4579 29 26.4091 29C25.3603 29 24.3544 28.5852 23.6128 27.8467C22.8712 27.1083 22.4545 26.1068 22.4545 25.0625H14.5455C14.5455 26.1068 14.1288 27.1083 13.3872 27.8467C12.6456 28.5852 11.6397 29 10.5909 29C9.5421 29 8.53624 28.5852 7.79462 27.8467C7.053 27.1083 6.63636 26.1068 6.63636 25.0625H4V10.625C4 9.92881 4.27776 9.26113 4.77217 8.76884C5.26659 8.27656 5.93716 8 6.63636 8ZM25.0909 15.2188V18.5H30.9832L28.3864 15.2188H25.0909ZM10.5909 23.0938C10.0665 23.0938 9.56358 23.3012 9.19277 23.6704C8.82196 24.0396 8.61364 24.5404 8.61364 25.0625C8.61364 25.5846 8.82196 26.0854 9.19277 26.4546C9.56358 26.8238 10.0665 27.0312 10.5909 27.0312C11.1153 27.0312 11.6182 26.8238 11.9891 26.4546C12.3599 26.0854 12.5682 25.5846 12.5682 25.0625C12.5682 24.5404 12.3599 24.0396 11.9891 23.6704C11.6182 23.3012 11.1153 23.0938 10.5909 23.0938ZM26.4091 23.0938C25.8847 23.0938 25.3818 23.3012 25.0109 23.6704C24.6401 24.0396 24.4318 24.5404 24.4318 25.0625C24.4318 25.5846 24.6401 26.0854 25.0109 26.4546C25.3818 26.8238 25.8847 27.0312 26.4091 27.0312C26.9335 27.0312 27.4364 26.8238 27.8072 26.4546C28.178 26.0854 28.3864 25.5846 28.3864 25.0625C28.3864 24.5404 28.178 24.0396 27.8072 23.6704C27.4364 23.3012 26.9335 23.0938 26.4091 23.0938ZM13.2273 21.125L21.1364 13.25L19.2777 11.3863L13.2273 17.4106L10.4723 14.6675L8.61364 16.5312L13.2273 21.125Z" fill="white"/>
</svg>
