<svg width="22" height="18" viewBox="0 0 22 18" fill="none" xmlns="http://www.w3.org/2000/svg">
<path fill-rule="evenodd" clip-rule="evenodd" d="M8.944 0.0078125H12.056C13.894 0.0078125 15.35 0.00781262 16.489 0.160813C17.661 0.318813 18.61 0.650812 19.359 1.39881C20.283 2.32381 20.578 3.56181 20.685 5.16881C21.262 5.42181 21.698 5.95881 21.745 6.63881C21.75 6.69981 21.75 6.76481 21.75 6.82481V10.6908C21.75 10.7508 21.75 10.8158 21.746 10.8758C21.698 11.5558 21.262 12.0938 20.685 12.3478C20.578 13.9538 20.283 15.1918 19.359 16.1168C18.61 16.8648 17.661 17.1968 16.489 17.3548C15.349 17.5078 13.894 17.5078 12.056 17.5078H8.944C7.106 17.5078 5.65 17.5078 4.511 17.3548C3.339 17.1968 2.39 16.8648 1.641 16.1168C0.893 15.3678 0.561 14.4188 0.403 13.2468C0.25 12.1068 0.25 10.6518 0.25 8.81381V8.70181C0.25 6.86381 0.25 5.40781 0.403 4.26881C0.561 3.09681 0.893 2.14781 1.641 1.39881C2.39 0.650812 3.339 0.318813 4.511 0.160813C5.651 0.00781262 7.106 0.0078125 8.944 0.0078125ZM19.168 12.5078H17.23C15.085 12.5078 13.249 10.8798 13.249 8.75781C13.249 6.63581 15.085 5.00781 17.229 5.00781H19.167C19.053 3.66681 18.796 2.95781 18.297 2.45981C17.874 2.03681 17.294 1.78281 16.288 1.64781C15.261 1.50981 13.906 1.50781 11.999 1.50781H8.999C7.092 1.50781 5.738 1.50981 4.709 1.64781C3.704 1.78281 3.124 2.03681 2.701 2.45981C2.278 2.88281 2.024 3.46281 1.889 4.46881C1.751 5.49681 1.749 6.85081 1.749 8.75781C1.749 10.6648 1.751 12.0188 1.889 13.0478C2.024 14.0528 2.278 14.6328 2.701 15.0558C3.124 15.4788 3.704 15.7328 4.71 15.8678C5.738 16.0058 7.092 16.0078 8.999 16.0078H11.999C13.906 16.0078 15.261 16.0058 16.289 15.8678C17.294 15.7328 17.874 15.4788 18.297 15.0558C18.796 14.5578 19.054 13.8498 19.168 12.5078ZM4.25 4.75781C4.25 4.5589 4.32902 4.36813 4.46967 4.22748C4.61032 4.08683 4.80109 4.00781 5 4.00781H9C9.19891 4.00781 9.38968 4.08683 9.53033 4.22748C9.67098 4.36813 9.75 4.5589 9.75 4.75781C9.75 4.95672 9.67098 5.14749 9.53033 5.28814C9.38968 5.42879 9.19891 5.50781 9 5.50781H5C4.80109 5.50781 4.61032 5.42879 4.46967 5.28814C4.32902 5.14749 4.25 4.95672 4.25 4.75781ZM19.924 6.50781H17.23C15.806 6.50781 14.749 7.56681 14.749 8.75781C14.749 9.94881 15.806 11.0078 17.229 11.0078H19.947C20.153 10.9948 20.242 10.8558 20.249 10.7718V6.74381C20.242 6.65981 20.153 6.52081 19.947 6.50881H19.923L19.924 6.50781Z" fill="#1C1D22"/>
</svg>
