<svg width="185" height="78" viewBox="0 0 185 78" fill="none" xmlns="http://www.w3.org/2000/svg">
<path d="M65.8259 0.34375L65.8413 0.389781L87.3245 58.8564V3.38945H78.4821V2.85242H108.931C123.563 2.85242 133.774 10.3401 133.774 21.0729C133.774 28.8981 126.777 35.4038 116.374 37.2527L114.459 37.4905L116.382 37.69C122.694 38.4111 127.708 40.3444 131.26 43.4438L131.283 43.4669L147.169 0.34375H147.707L147.722 0.389781L175.064 74.7907H184.53V75.3278H154.404V74.7907H163.277L154.281 50.3254H136.035V50.3408L136.135 50.6246C136.857 52.7804 137.227 55.0436 137.203 57.3221V66.4975C137.203 71.2157 139.287 75.9952 143.278 75.9952C145.615 75.9952 147.484 75.1743 149.714 73.1413L150.029 73.4328C147.614 75.9799 144.685 77.0616 140.294 77.0616C136.988 77.0616 134.143 76.2637 131.867 74.6987L131.437 74.3918C128.438 72.121 126.485 68.4232 125.647 63.3828L125.508 62.5696L125.37 61.3421L125.355 61.1273L120.326 74.7831H127.461V75.3201H112.529V74.7831H119.742L125.262 59.7924V59.754C125.205 58.8703 125.172 57.9852 125.162 57.0996V50.5479C125.162 42.5002 119.165 37.8895 108.708 37.8895H98.4276V74.7907H107.331V75.3278H72.5231V74.7907H81.3963L72.4001 50.3254H47.4491L38.5451 74.5222L38.9142 74.4608C50.6093 72.4508 55.9839 63.5439 56.0608 54.169H56.5991V75.3278H-0.0078125L42.0129 3.38945H25.12C11.1106 3.38945 4.77478 14.1836 4.67483 24.9472H4.14428V2.85242H55.1535L54.846 3.38945L13.1328 74.7907H35.0774C35.6233 74.7907 36.1615 74.7677 36.7075 74.7217L37.2611 74.6757L37.9531 74.599L65.28 0.34375H65.8182H65.8259ZM141.817 16.4161L131.721 43.8504L131.775 43.9041L132.29 44.4105C133.774 45.9218 134.958 47.7093 135.766 49.658L135.819 49.7884H154.081L141.817 16.4161ZM59.9438 16.4161L47.649 49.7884H72.2079L59.9438 16.4161ZM106.278 3.38945H98.4352V37.3524H108.708C119.111 37.3524 122.294 33.5702 122.294 21.188C122.294 9.54989 116.758 3.38945 106.278 3.38945Z" fill="currentColor"/>
</svg>
